<?xml version="1.0" encoding="utf-8"?>
<!-- Generator: Adobe Illustrator 18.1.1, SVG Export Plug-In . SVG Version: 6.00 Build 0)  -->
<svg version="1.1" id="Layer_1" xmlns="http://www.w3.org/2000/svg" xmlns:xlink="http://www.w3.org/1999/xlink" x="0px" y="0px"
	 viewBox="0 0 500 500" enable-background="new 0 0 500 500" xml:space="preserve">
<g id="AdaptiveLightSystem">
	<path d="M358.4,83c0,9,0,23.4,0,23.4l-0.1,5.2c0,0-64-0.4-70.2,0.2c-23.9,2-22.1-1.6-37.9,65.4c-11.7,49.4-11.6,100,1.6,150
		c11.2,42.6,33.4,57.1,77.1,49.1C417.2,360.1,459,324.8,469.1,234c7.4,0,20.9,0,30.5,0c0.6,49-15.7,94-48.2,124.7
		c-46.1,43.5-103.5,54.6-167.4,46.4c-28.7-3.7-47.5-18.5-55.4-46c-23-79.9-19-159.4,3.8-238.7c6.8-23.7,23.9-35.1,46.3-36.9
		C304.1,81.4,329.9,83,358.4,83z"/>
	<path d="M427.3,86.5V54l-44.4,44.4l43.4,43.4v-28.1H450c0,0,18.9-0.5,18.9,22.1s0,68.5,0,68.5h30.6v-73.7c0,0,2.3-43.9-42.7-43.9
		C422.4,86.6,427.3,86.5,427.3,86.5z"/>
	<path d="M184,370.9c-1.8-6.4-3.5-12.8-5-19.2L0.4,407.6V447l189.5-59.6l-0.6-2.9C187.2,380.3,185.5,375.8,184,370.9z"/>
	<path d="M168.2,276.2L0.4,328.6V368l171.5-53.7C170.1,301.6,168.8,288.9,168.2,276.2z"/>
	<path d="M171.7,193.3L0.4,246.9v39.4l167.7-52.5C168.7,220.3,169.9,206.8,171.7,193.3z"/>
	<path d="M188.1,115.5c0.8-2.8,1.8-5.4,2.8-7.9L0.4,168.5V208l178.8-57.1C181.8,139.1,184.7,127.3,188.1,115.5z"/>
</g>
</svg>
