<?xml version="1.0" encoding="utf-8"?>
<!-- Generator: Adobe Illustrator 18.1.1, SVG Export Plug-In . SVG Version: 6.00 Build 0)  -->
<svg version="1.1" id="Layer_1" xmlns="http://www.w3.org/2000/svg" xmlns:xlink="http://www.w3.org/1999/xlink" x="0px" y="0px"
	 viewBox="0 0 500 500" enable-background="new 0 0 500 500" xml:space="preserve">
<g id="AdaptiveCruiseControl">
	<path d="M293.4,287.9c-4.4,15.7-11.9,28.5-29.1,29.9c-17.7,1.5-29.1-7.9-35.4-24.3c-0.9-2.4-3.8-5.6-6.1-5.9
		c-15.3-2-22.3-10.5-21.5-25.6c0.7-13.4,15.6-33.1,28.5-32.8c33.4,0.6,55.9-20.8,81.9-35.9c11.3-6.6,23.4-10.9,36.7-11.9
		c6.3-0.5,19.9-0.8,29.1-0.8c36.9,0,60,4.2,82.1,29.6c4.1,4.6,13.4,5.3,20.5,6.5c12.4,2.2,20.1,7.6,19.3,21.4
		c-0.4,7.5-0.6,15.1,0.4,22.4c2.3,15.6-4.5,23.7-19.4,26.6c-3.3,0.7-8.1,2.8-9,5.3c-5.3,16.1-15.2,24.7-32.8,24.5
		c-19.3-0.3-26.6-13.1-31.1-29.2C369.3,287.9,331.4,287.9,293.4,287.9z M484.6,270.6c0-7.6-0.6-13.8,0.1-19.9
		c1.6-13.1-3.3-18.6-16.9-19.1c-6.8-0.3-15.7-3.7-19.6-8.8c-19.7-25.8-37.8-28-74.1-27.1c0,0-17.6,0-25.3,1.4
		c-9.1,1.7-18.6,4.5-26.5,9.2c-26.4,15.3-48.6,38.9-82.8,37.9c-5.4-0.2-12.1,4-16.3,8.1c-3.6,3.5-7.2,8.6-6.6,14.8
		c0.6,5,9.7,4.4,13.7,4.6c4.9,0.2,9.9,0.2,14.7,0.2c2.8,12.4-4,28.6,15.4,28.9c19.5,0.3,13.1-17.9,19.3-28.8c47.9,0,96.5,0,146.2,0
		c-1.7,13.1-4.1,27,12.9,28.7c22,2.1,15.1-18,19.2-28.6C466.8,271.4,474.7,271,484.6,270.6z"/>
	<path d="M11.4,199.2C4,213.1,0,233.4,0,256.1c0,22.6,4,42.9,11.4,56.8l16.1-3.3c-6.3-13.7-9.7-32.6-9.7-53.6
		c0-20.9,3.4-39.8,9.7-53.6L11.4,199.2z"/>
	<path d="M56,208.3c-4.8,13-7.3,29.6-7.3,47.7s2.6,34.7,7.3,47.7l16.6-3.4c-4-12.5-6.2-27.8-6.2-44.3c0-16.6,2.2-31.9,6.2-44.3
		L56,208.3z"/>
	<path d="M101.9,217.7C99,228.9,97.5,242,97.5,256s1.5,27.1,4.4,38.3l16.9-3.5c-2.4-10.4-3.6-22.3-3.6-34.9s1.2-24.4,3.6-34.9
		L101.9,217.7z"/>
	<path d="M148.3,227.2c-1.6,8.9-2.4,18.6-2.4,28.8c0,10.2,0.8,19.9,2.4,28.8l17.2-3.5c-1.2-7.9-1.8-16.4-1.8-25.3
		c0-8.9,0.6-17.4,1.8-25.3L148.3,227.2z"/>
</g>
</svg>
