<?xml version="1.0" encoding="utf-8"?>
<!-- Generator: Adobe Illustrator 18.1.1, SVG Export Plug-In . SVG Version: 6.00 Build 0)  -->
<svg version="1.1" id="Layer_1" xmlns="http://www.w3.org/2000/svg" xmlns:xlink="http://www.w3.org/1999/xlink" x="0px" y="0px"
	 viewBox="0 0 500 500" enable-background="new 0 0 500 500" xml:space="preserve">
<g id="AdaptiveSuspensionDampers">
	<path d="M306.3,93.5h-28.5c13.6-9.1,22.5-24.6,22.5-42.2c0-28.1-22.7-50.8-50.8-50.8s-50.8,22.7-50.8,50.8
		c0,17.6,8.9,33.1,22.5,42.2h-28.5c-9.3,0-16.8,7.6-16.8,16.8v152.9c0,7.9,5.6,14.6,13,16.3v120.3c0,3.7,3,6.7,6.7,6.7h25.7
		c-13.6,9.1-22.5,24.6-22.5,42.2c0,28.1,22.7,50.8,50.8,50.8s50.8-22.7,50.8-50.8c0-17.6-8.9-33.1-22.5-42.2h25.7
		c3.7,0,6.7-3,6.7-6.7V279.5c7.4-1.8,13-8.4,13-16.3V110.3C323.2,101,315.6,93.5,306.3,93.5z M249.5,17.2
		c18.9,0,34.1,15.3,34.1,34.1c0,18.9-15.3,34.1-34.1,34.1c-18.9,0-34.1-15.3-34.1-34.1C215.4,32.4,230.6,17.2,249.5,17.2z
		 M249.5,482.8c-18.9,0-34.1-15.3-34.1-34.1c0-18.9,15.3-34.1,34.1-34.1c18.9,0,34.1,15.3,34.1,34.1
		C283.6,467.6,268.4,482.8,249.5,482.8z M191.7,119.6c0-5.9,4.8-10.8,10.8-10.8h93.9c5.9,0,10.8,4.8,10.8,10.8v134.2
		c0,5.9-4.8,10.8-10.8,10.8h-93.9c-5.9,0-10.8-4.8-10.8-10.8V119.6z"/>
</g>
</svg>
