<?xml version="1.0" encoding="utf-8"?>
<!-- Generator: Adobe Illustrator 18.1.1, SVG Export Plug-In . SVG Version: 6.00 Build 0)  -->
<svg version="1.1" id="Layer_1" xmlns="http://www.w3.org/2000/svg" xmlns:xlink="http://www.w3.org/1999/xlink" x="0px" y="0px"
	 viewBox="0 0 500 500" enable-background="new 0 0 500 500" xml:space="preserve">
<g id="AirSuspension">
	<polygon points="251.7,232.8 227.9,232.8 276.6,183.5 325.6,232.8 301,232.8 301,267.5 251.7,267.5 	"/>
	<polygon points="251.7,344 227.9,344 276.6,393.3 325.6,344 301,344 301,293.3 251.7,293.3 	"/>
	<path d="M233,294.9c-22.7,0.1-45.9,0.2-68.6,0.4c-4.1,0-10.5,5.1-11.9,9.2c-9.8,28-28.4,41.6-58.4,39.8
		c-30.2-1.9-43-21.7-50.1-48.2c-33-3-41.6-9.7-44.1-32.6c-3-27.5,16.1-57,43.2-63.8c17.1-4.3,38.4-5.1,52.5-8.9
		c28.4-7.6,83.6-57.6,83.6-57.6c19.6-15.7,40.9-25.3,66.9-24.5c29.4,1,59.1,2.3,88.3-0.5c28.9-2.7,49.5,8.8,68,28.3
		c7.9,8.3,15.2,17.8,24.7,23.8c11.9,7.5,25.3,14.7,39,16.9c22.2,3.7,33.3,13.3,33.4,35.8c0.1,15.1,0.1,30.2,0.1,45.2
		c0,27-3.9,31.2-30.5,36.7c-6,1.2-13.8,4.9-16.2,9.7c-16.9,33.5-28.9,42.3-57.5,39.7c-27.1-2.5-40.5-15.2-50.6-49.3
		c-8.4,0-16.8,0-25.2,0l0.2-25.3c17.9,0,35.9,0,53.8,0c3.3,35.9,10.9,50,26.8,47.9c27.9-3.8,25.1-26.5,25.4-47.4
		c50.6-6.2,51-6.3,46.4-49.3c-0.6-5.5-8.6-14.7-12.8-14.5c-28.7,1.3-46.7-15.4-63.1-34.9c-21.1-25-46.1-38.9-80.2-34.3
		c-16.9,2.3-34.5,2-51.6,0.8c-31.1-2.2-57.8,6.1-80,28.5c-5.5,5.6-12.1,10.1-18.2,15.1c-26.8,21.9-53.8,42.1-91.5,41.4
		c-16.7-0.3-34.2,3.9-43.4,22.3c-7.2,14.4-4.1,21.7,11.9,22.7c9.2,0.6,18.4,0.1,27.3,0.1c6.7,19.2-2.9,47.4,27.3,48.1
		c31.8,0.8,24.3-28.9,30.1-46.4c35.3,0,70.3,0,105.1,0L233,294.9z"/>
</g>
</svg>
