<?xml version="1.0" encoding="utf-8"?>
<!-- Generator: Adobe Illustrator 18.1.1, SVG Export Plug-In . SVG Version: 6.00 Build 0)  -->
<svg version="1.1" id="Layer_1" xmlns="http://www.w3.org/2000/svg" xmlns:xlink="http://www.w3.org/1999/xlink" x="0px" y="0px"
	 viewBox="0 0 500 500" enable-background="new 0 0 500 500" xml:space="preserve">
<g id="AirbagSeatBeltSystem_1_">
	<circle cx="160.6" cy="132.8" r="97.7"/>
	<circle cx="361.7" cy="85.3" r="50.2"/>
	<path d="M398.1,147.4l79.5-66.1c0,0,5.3-5.8,10.7,0s9.3,13.8,9.3,13.8s4,5.8,0,9.3s-83.5,71-83.5,71s-9.1,3-6.7-5.8
		c1-3.5,0.9-8-1.3-11.1c-2.2-3.1-6.2-5.8-8-5.8S394.9,150.1,398.1,147.4z"/>
	<path d="M261.4,296.1c0,0-3.1-2.2-3.1-9.3c0,0,1.3-37.3,27.1-102.5c0,0,16.9-32.4,46.6-35.5s41.3,4,51,10.7
		c9.8,6.7,20.1,13.8,13.2,55c-7,41.3-28.3,118.5-50,160.3l65.7,63.9c0,0,4.9,3.1,1.8,9.3c-3.1,6.2-13.3,15.5-13.3,15.5
		s-3.1,5.3-9.3,0c-6.2-5.3-70.6-70.1-70.6-70.1s-3.6-3.6-8.9-0.4s-9.3,10.7-28.9,10.7c0,0-25.3,1.8-47.9-5.3
		c-22.6-7.1-21.8-12-51.5-12s-47.1,16.9-47.1,16.9l-59.9,36c0,0,1.8,1.3-11.1,1.8s-25.3-0.4-25.3-0.4s-6.2-0.4-13.3-6.2
		s-20.4-20-20.4-20s-6.2-6.7-5.3-12.4s1.3-11.5,5.8-15.1c4.3-3.8,129-82,129-82s21.8-11.5,55.5-11.5s55.9,16,55.9,16l67.5,74.6
		c0,0-0.4,3.1,6.2,3.1c6.7,0,9.8-2.2,12.4-5.3c2.7-3.1,4.9-7.1,3.1-9.3C334.6,370.3,261.4,296.1,261.4,296.1z"/>
</g>
</svg>
