<?xml version="1.0" encoding="utf-8"?>
<!-- Generator: Adobe Illustrator 18.1.1, SVG Export Plug-In . SVG Version: 6.00 Build 0)  -->
<svg version="1.1" id="Layer_1" xmlns="http://www.w3.org/2000/svg" xmlns:xlink="http://www.w3.org/1999/xlink" x="0px" y="0px"
	 viewBox="0 0 500 500" enable-background="new 0 0 500 500" xml:space="preserve">
<g id="AirbagSeatBeltSystem">
	<path d="M159.3,251.9c-50.1-15-73.2-37.6-72.5-91.7c0.9-68.8,45-118.3,103.7-116.6c43.5,1.3,75.6,20.5,68.2,55.8
		c-1.4,6.4-2.5,18.3,6.6,29c24,28.1-5.1,70.3-21.1,103.5C231.1,259,185.5,259.9,159.3,251.9z"/>
	<path d="M42.8,420.9c6.9-0.9,13-1,17.7-3.6c14.9-8.2,30.7-15.4,44.1-25.7c48.1-37,101.4-23,153.1-14.9
		c19.6,3.1,30.8,29.3,30.8,29.3c2.7,5.4,2.7,9.1-4.2,8.2l-69.5-10.4c-32.5-5.4-58.7-2.5-85.2,15.7c-17.7,12.1-36.6,23-56.2,31.8
		c-33.1,14.8-72.5-3.8-73-34c-0.3-9.1,2.6-21,11.6-26.9c44.2-29.1,118.6-70.6,164.8-96.4c12.8-4.9,33.5,4.3,49.8,36.1
		c-7.3,0-37.9,0.1-44.7,3.4c-29.5,14.2-95.7,59.8-141.5,79.8C36.7,415.2,38.7,421.6,42.8,420.9z"/>
	<path d="M359,375.6c-24.5-22.1-30.3-38.5-20.8-62.7l25.7-89.8c0,0,9.5-28.5-7.3-31.4c-18.5-3.2-34.2-5-43.2,19.8l-21.1,52.3
		l-6.9,16.2c-18.6-12.3-31.4-23.6-19.6-49.5c1.4-3.1,12.4-28.2,13-29.7c21.1-53.6,70.5-57.1,110-33.2c11.5,5.3,16.9,20,13.6,33.8
		C388.5,257.6,374.7,313.7,359,375.6z"/>
	<path d="M228.9,297c5.7-4.7,14.6-11.7,25.4-20.6c41.3,55.3,93.8,106.7,107.2,179.2c-41.8,0.8-32.8,5.8-38.4-19.8
		C311.5,382.8,260.8,345.2,228.9,297z"/>
	<path d="M331.7,42.7c33.9-0.2,49.6,17.3,50,49.6c0.3,29.7-20.2,50-50.4,49.9c-30.1-0.2-53.1-18-53-48.7
		C278.4,66,293,42.5,331.7,42.7z M358.4,92.4c-0.9-20.9-15.9-25.6-28.3-25.2c-15,0.5-24.6,11.2-24.3,25.2
		c0.9,18.2,12.3,23.7,24.3,23.3C346.3,115.1,357.3,109.9,358.4,92.4z"/>
	<path d="M495.6,134.3c7.4,26.7,6.5,37.1-18.3,44.5l-51.6,17c-4.1-11-7.9-21.3-13.1-35.3C441.3,151.4,468.1,143,495.6,134.3z"/>
</g>
</svg>
