<?xml version="1.0" encoding="utf-8"?>
<!-- Generator: Adobe Illustrator 19.0.0, SVG Export Plug-In . SVG Version: 6.00 Build 0)  -->
<svg version="1.1" id="Layer_1" xmlns="http://www.w3.org/2000/svg" xmlns:xlink="http://www.w3.org/1999/xlink" x="0px" y="0px"
	 width="560px" height="560px" viewBox="374 117 560 560" style="enable-background:new 374 117 560 560;" xml:space="preserve">
<g id="AntiLockBrakeSystem">
	<path d="M654,193c120.3,0.3,208,87.6,207.4,206.6C861,514.8,767.6,601.2,644,600.8c-102.7-0.3-197.5-96-198.2-200.3
		C445,283.3,535.8,192.8,654,193z M649.3,565c95.5,3.5,173.4-70.9,178.1-169.9c3.9-83.7-77.3-165.5-167.8-169.1
		c-89.8-3.6-174.8,73.7-177.9,161.7C478.5,481.9,553.8,561.5,649.3,565z"/>
	<path d="M458,205.7c8.5,10.6,17,21.3,27.3,34c-41.6,44.6-65.7,102.3-61.6,168.9c3.6,57.3,25.5,107.6,69.7,149
		c-9.6,10.6-19.5,21.4-29,31.9C359,517,336.6,308.2,458,205.7z"/>
	<path d="M822.1,237.1c10.3-9.7,20.8-19.7,31.1-29.5c107.1,103.3,104.6,289-4.4,381.4c-10.5-10.4-21.2-20.9-31.7-31.5
		C902.3,469.1,910,339.1,822.1,237.1z"/>
	<path d="M677.1,382.4c18.9,9.6,20.2,25.3,17.1,42.1c-2.8,15.8-15.1,26.3-31.4,27l-39.5-0.1c-2.5-0.1-6.7-0.1-6.7-0.1
		c-0.3-41.9-0.3-89-0.3-131.2c18,0,35.3-1.1,52.4,0.3c13.6,1.2,21.5,11.2,24,24.5c2.4,13,1.2,25.2-10.8,33.7
		C680.7,379.6,679.5,380.5,677.1,382.4z M635.9,355.2c0,21.1,0,21.1,20.6,18.9c11-1.1,17.6-8.2,17.7-18.8
		c0.1-10.3-6.8-17.5-17.9-18.5C635.9,335,635.9,335,635.9,355.2z M636,415.1c0,22.3,0,22.3,21.8,20c11.6-1.2,18.7-8.6,18.8-19.9
		c0.1-10.9-7.3-18.5-19-19.6C636,393.6,636,393.6,636,415.1z"/>
	<path d="M504.1,451.7c8.1-28.1,15.8-54.8,23.4-81.4c4.3-14.9,8.8-29.8,12.8-44.8c1.3-5.2,4-7.2,9-6.2c5.2,1,12.2-3.4,14.8,5.6
		c11.5,40.2,23.4,80.4,35.1,120.5c0.4,1.7,1.7,6,1.7,6c-1.5,0.3-3.9,0.1-5,0.1c-16.5,0.3-16.9,0.3-20.2-14.7
		c-4.5-17.4-2.8-13.9-18.1-14.3c-0.3,0-11.4,0-11.6,0c-14.9,0-11.6-1.9-17,16c-1.8,5.8-2.1,13.1-11.4,13.1
		C513.4,451.8,509.6,451.7,504.1,451.7z M537.6,405.4c8.2,0,21.6,0,21.6,0l8.1-0.1l-1.8-8L554,347.5c0,0-1.5-2.5-2.7,0.2
		C551.2,347.7,542.3,385.5,537.6,405.4z"/>
	<path d="M711.1,430.6c5.2-3.7,10.4-7.5,13.3-9.5c10.1,4.8,18.1,10.1,26.9,12.4c10.1,2.7,18.5-3.1,21.4-11.9
		c3.2-9.7-0.6-19-10.8-23.6c-9-4.1-18.6-6.6-27.4-10.9c-22-10.4-27.4-38-11.8-56.6c16.6-19.7,59.7-15.1,68.9,5.4
		c-4.5,3.8-9.2,7.8-13.4,11.5c-5.7-3.2-10.5-6.7-15.9-9c-3.4-1.5-7.6-1.8-11.4-1.5c-8.2,0.8-13.9,5.4-15.9,13.6
		c-1.9,7.8,1.9,13.8,8.5,17.1c7.7,3.8,15.9,6.6,24.1,9.5c26.2,9.4,30.2,25.3,25.3,50.5c-1.1,5.7-5.5,11.4-9.9,15.6
		C768.9,457.3,724,457.6,711.1,430.6z"/>
</g>
</svg>
