<?xml version="1.0" encoding="utf-8"?>
<!-- Generator: Adobe Illustrator 19.0.0, SVG Export Plug-In . SVG Version: 6.00 Build 0)  -->
<svg version="1.1" id="Layer_1" xmlns="http://www.w3.org/2000/svg" xmlns:xlink="http://www.w3.org/1999/xlink" x="0px" y="0px"
	 width="560px" height="560px" viewBox="374 117 560 560" style="enable-background:new 374 117 560 560;" xml:space="preserve">
<g id="AutomaticGearbox">
	<g>
		<circle cx="653.7" cy="495.1" r="28.8"/>
		<path d="M653.7,254.3c-15.9,0-28.8,12.9-28.8,28.8v132.5c0,15.9,12.9,28.8,28.8,28.8s28.8-12.9,28.8-28.8V283.1
			C682.4,267.2,669.6,254.3,653.7,254.3z"/>
		<path d="M924.9,390.7l-48.8-5c-0.4-10.5-1.6-20.7-3.2-30.7l43.9-14.6c4.4-1.5,6.7-6.2,5.3-10.5l-13.4-40.7
			c-1.5-4.4-6.2-6.7-10.5-5.3l-42.8,14.2c-4.7-10.2-10.3-19.8-16.5-28.9l34.7-31.4c3.4-3,3.7-8.4,0.6-11.8l-28.7-31.9
			c-3-3.4-8.4-3.7-11.8-0.6l-34.9,31.6c-9-7.3-18.5-13.9-28.7-19.6l17.9-40c1.9-4.1,0-9.2-4.3-11l-39.1-17.4c-4.1-1.9-9.2,0-11,4.3
			l-18.8,42.1c-10.2-2.6-20.6-4.5-31.5-5.8v-44.3c0-4.6-3.7-8.3-8.3-8.3h-42.8c-4.6,0-8.3,3.7-8.3,8.3v44.5
			c-10.3,1.2-20.3,3.1-30,5.7l-18.7-42.1c-1.9-4.1-6.8-6-11-4.3l-39.1,17.4c-4.1,1.9-6,6.8-4.3,11l18,40.4
			c-9.5,5.5-18.5,11.6-27,18.5l-34-30.7c-3.4-3-8.7-2.8-11.8,0.6l-28.7,31.8c-3,3.4-2.8,8.7,0.6,11.8l33.2,29.9
			c-6.8,9.7-13,20-18.1,30.8L408.7,284c-4.4-1.5-9.1,0.9-10.5,5.3L384.8,330c-1.5,4.4,0.9,9.1,5.3,10.5l44.7,14.8
			c-1.8,10-2.9,20.2-3.5,30.6l-48.3,4.9c-4.6,0.4-8,4.6-7.4,9.2l4.4,42.6c0.4,4.6,4.6,8,9.2,7.4l48.2-4.9c2.8,10.9,6.5,21.5,11,31.8
			l-42.6,24.9c-3.9,2.4-5.3,7.4-3,11.4l21.5,37c2.4,3.9,7.4,5.3,11.4,3l43.3-25.3c7.1,8.8,14.8,17.4,23,25.1l-27.6,38.9
			c-2.7,3.7-1.8,9,2,11.6l34.9,24.8c3.7,2.7,9,1.8,11.6-2l27.1-38.2c9.9,5.4,19.9,10,30.5,13.7l-10.9,49.4c-1,4.5,1.9,9,6.4,10
			l41.8,9.2c4.5,1,9-1.9,10-6.4l11.2-51c1.6,0,3,0.1,4.6,0.1c10.9,0,21.5-0.7,31.9-1.8l11.5,52.6c1,4.5,5.5,7.3,10,6.4l41.8-9.2
			c4.5-1,7.3-5.5,6.4-10l-11.8-53.4c9.2-3.4,18-7.3,26.5-11.6l28.4,40.2c2.7,3.7,7.8,4.6,11.6,2l34.9-24.8c3.7-2.7,4.6-7.8,2-11.6
			L808.9,552c7.8-7.2,15.1-15,21.7-23.2l41.3,24.1c3.9,2.4,9.1,1,11.4-3l21.5-37c2.4-3.9,1-9.1-3-11.4l-41.1-24
			c4.3-10.4,7.7-21.4,10.3-32.6l48,4.9c4.6,0.4,8.6-2.9,9.2-7.4l4.4-42.6C932.9,395.3,929.5,391.2,924.9,390.7z M649,574.3
			c-102.3-3.7-182.9-89-179.4-189.8c3.2-94.3,94.3-177.1,190.5-173.3c97,3.8,184,91.5,179.8,181.1C834.8,498.4,751.3,578,649,574.3z
			"/>
	</g>
</g>
</svg>
