<?xml version="1.0" encoding="utf-8"?>
<!-- Generator: Adobe Illustrator 18.1.1, SVG Export Plug-In . SVG Version: 6.00 Build 0)  -->
<svg version="1.1" id="Layer_1" xmlns="http://www.w3.org/2000/svg" xmlns:xlink="http://www.w3.org/1999/xlink" x="0px" y="0px"
	 viewBox="0 0 500 500" enable-background="new 0 0 500 500" xml:space="preserve">
<g id="Bonnet">
	<path d="M9.7,138.6c20.1-19.1,52.5-18.4,77.7,1.8c16.7,13.4,62.8,48.5,62.8,48.5s22.3-18.7,29.5-24.6
		c19.5-15.7,40.9-25.3,66.9-24.5c29.4,1,59,2.3,88.2-0.5c28.9-2.7,49.4,8.8,68,28.3c7.9,8.3,15.2,17.8,24.7,23.8
		c11.9,7.5,25.3,14.7,38.9,16.9c22.2,3.7,33.3,13.3,33.4,35.7c0.1,15.1,0.1,30.1,0.1,45.2c0,27-3.9,31.2-30.5,36.7
		c-6,1.2-13.8,4.9-16.2,9.7c-16.9,33.5-28.9,42.3-57.5,39.7c-27.1-2.5-40.4-15.2-50.5-49.3c-59.7,0-119.9-0.2-180.1,0.4
		c-4.1,0-10.5,5.1-11.9,9.2c-9.8,28-28.4,41.6-58.4,39.7c-30.2-1.9-43-21.7-50.1-48.2c-33-3-41.6-9.7-44.1-32.6
		c-3-27.5,16.1-57,43.1-63.8c17.1-4.3,35.2-5,52.4-8.9c9.2-2.1,29.8-13.2,29.8-13.2c-23.4-18.3-43.2-34.6-64-49.5
		c-5.7-4.1-13.7-9.6-21.9-5.8c-3.7,1.8-9.2,4.4-11.8,5.9c-4.9,2.8-7.4,0.2-9.2-2c-2.7-3.3-8.1-9.7-10.2-13.1
		C6.7,140.9,9.7,138.6,9.7,138.6z M426,301.2c50.6-6.2,51-6.3,46.4-49.3c-0.6-5.5-8.6-14.7-12.8-14.5c-28.7,1.3-46.6-15.4-63.1-34.9
		c-21.1-25-46.1-38.9-80.2-34.3c-16.9,2.3-34.5,2-51.6,0.8c-31.1-2.2-57.7,6.1-79.9,28.5c-5.5,5.6-12.1,10.1-18.2,15.1
		c-26.8,21.8-53.7,42.1-91.5,41.4c-16.7-0.3-34.2,3.9-43.4,22.3c-7.2,14.4-4.1,21.7,11.9,22.7c9.2,0.6,18.4,0.1,27.3,0.1
		c6.7,19.2-2.9,47.3,27.3,48.1c31.8,0.8,24.3-28.9,30.1-46.3c82.8,0,164.2,0,245.4,0c3.3,35.8,10.9,50,26.8,47.8
		C428.5,344.9,425.6,322.2,426,301.2z"/>
</g>
</svg>
