<?xml version="1.0" encoding="utf-8"?>
<!-- Generator: Adobe Illustrator 18.1.1, SVG Export Plug-In . SVG Version: 6.00 Build 0)  -->
<svg version="1.1" id="Layer_1" xmlns="http://www.w3.org/2000/svg" xmlns:xlink="http://www.w3.org/1999/xlink" x="0px" y="0px"
	 viewBox="0 0 500 500" enable-background="new 0 0 500 500" xml:space="preserve">
<g id="BootLid">
	<path d="M176.2,166.6c19.1-15.4,40.1-24.8,65.5-24c28.8,1,57.8,2.2,86.4-0.5c28.3-2.7,48.4,8.6,66.5,27.7
		c7.7,8.1,14.9,17.4,24.2,23.3c11.7,7.3,24.8,14.4,38.1,16.6c21.8,3.6,32.6,13,32.7,35c0.1,14.8,0.1,29.5,0.1,44.3
		c0,26.5-3.9,30.5-29.8,35.9c-5.8,1.2-13.5,4.8-15.9,9.5c-16.6,32.7-28.3,41.4-56.3,38.9c-26.5-2.4-39.6-14.9-49.5-48.2
		c-58.4,0-117.4-0.2-176.3,0.4c-4,0-10.2,5-11.6,9c-9.6,27.4-27.8,40.7-57.1,38.9c-29.5-1.9-42.1-21.3-49-47.2
		c-32.3-2.9-40.7-9.5-43.2-31.9c-2.9-26.9,15.8-55.8,42.2-62.4c16.8-4.2,37.5-5,51.3-8.7C122.2,215.6,176.2,166.6,176.2,166.6z
		 M417.3,300.7c49.5-6.1,49.9-6.2,45.4-48.2c-0.6-5.4-8.4-14.4-12.5-14.2c-28.1,1.2-45.7-15.1-61.8-34.2
		c-20.7-24.4-45.1-38.1-78.5-33.6c-16.6,2.2-33.7,2-50.5,0.8c-30.4-2.1-56.5,6-78.2,27.9c-5.4,5.4-11.8,9.9-17.8,14.8
		c-26.2,21.4-52.6,41.2-89.6,40.5c-16.4-0.3-33.5,3.8-42.4,21.8c-7,14.1-4,21.2,11.6,22.2c9,0.6,18,0.1,26.7,0.1
		c6.5,18.8-2.8,46.3,26.7,47c31.1,0.7,23.7-28.3,29.5-45.3c81,0,160.7,0,240.2,0c3.3,35.1,10.6,48.9,26.2,46.8
		C419.7,343.4,417,321.1,417.3,300.7z"/>
	<path d="M410.9,164.2c0,0,6.7-7.5,21.4-22.4c22.2-22.6,45.8-18.7,65.4,0c0,0,3,2.3,0.9,5.7c-2,3.4-7.3,9.6-10,12.8
		c-1.7,2.2-4.3,4.7-9,2c-2.6-1.5-4.9-3.8-8.4-5.8c-6.9-4-13.2,2.6-13.2,2.6l-24.5,25.7C417.6,177,410.9,164.2,410.9,164.2z"/>
</g>
</svg>
