<?xml version="1.0" encoding="utf-8"?>
<!-- Generator: Adobe Illustrator 18.1.1, SVG Export Plug-In . SVG Version: 6.00 Build 0)  -->
<svg version="1.1" id="Layer_1" xmlns="http://www.w3.org/2000/svg" xmlns:xlink="http://www.w3.org/1999/xlink" x="0px" y="0px"
	 viewBox="0 0 500 500" enable-background="new 0 0 500 500" xml:space="preserve">
<g id="BrakeSystem">
	<path d="M250.1,68.1c107.9,0.3,186.6,78.6,186.1,185.4C435.7,356.8,352,434.3,241.1,434C149,433.7,64,347.9,63.3,254.4
		C62.5,149.1,144,67.9,250.1,68.1z M245.8,401.8c85.7,3.1,155.6-63.6,159.8-152.4c3.5-75.1-69.3-148.5-150.6-151.7
		c-80.6-3.2-156.8,66.2-159.5,145.1C92.6,327.2,160.1,398.7,245.8,401.8z"/>
	<path d="M74.2,79.4c7.6,9.5,15.3,19.1,24.5,30.5c-37.2,40-59,91.7-55.3,151.6c3.3,51.5,23,96.5,62.6,133.6
		c-8.7,9.5-17.4,19.2-26.1,28.7C-14.6,358.6-34.7,171.4,74.2,79.4z"/>
	<path d="M400.9,107.6c9.3-8.8,18.6-17.6,27.9-26.4c96.1,92.7,93.9,259.3-3.9,342.1c-9.4-9.4-18.9-18.8-28.4-28.2
		C472.8,315.8,479.8,199.1,400.9,107.6z"/>
	<circle cx="250" cy="342.3" r="25.3"/>
	<path d="M250,130.4c-14,0-25.3,11.3-25.3,25.3v116.6c0,14,11.3,25.3,25.3,25.3s25.3-11.3,25.3-25.3V155.8
		C275.4,141.8,264,130.4,250,130.4z"/>
</g>
</svg>
