<?xml version="1.0" encoding="utf-8"?>
<!-- Generator: Adobe Illustrator 19.0.0, SVG Export Plug-In . SVG Version: 6.00 Build 0)  -->
<svg version="1.1" id="Layer_1" xmlns="http://www.w3.org/2000/svg" xmlns:xlink="http://www.w3.org/1999/xlink" x="0px" y="0px"
	 width="560px" height="560px" viewBox="374 117 560 560" style="enable-background:new 374 117 560 560;" xml:space="preserve">
<g id="BrakeLights">
	<g>
		<path d="M654.2,200.7c-113.9-0.3-201.4,86.9-200.5,199.9c0.8,100.4,92,192.5,190.8,192.9c119.1,0.3,208.9-82.9,209.4-193.8
			C854.5,285,770,200.9,654.2,200.7z M649.5,565.4c-95.8-3.5-171.4-83.3-168.1-177.6c3-88.3,88.3-165.8,178.3-162.2
			c90.8,3.6,172.3,85.6,168.3,169.6C823.3,494.4,745.3,568.9,649.5,565.4z"/>
		<path d="M423.3,408.6c-4.1-66.9,20.2-124.7,61.7-169.5c-10.3-12.8-18.8-23.5-27.4-34.2C335.9,308,358.3,517.3,464,590.1
			c9.6-10.6,19.5-21.4,29.1-32C448.9,516.6,426.9,466.2,423.3,408.6z"/>
		<path d="M854,207.2c-10.4,9.9-20.8,19.7-31.2,29.6c88.1,102.3,80.4,232.6-4.9,321.3c10.6,10.5,21.3,21.1,31.8,31.5
			C959,496.9,961.4,310.8,854,207.2z"/>
		<path d="M776.2,337.5l-10.8-15.2c-1.1-1.6-3.2-1.9-4.7-0.8l-25.9,18.1c-8.5-8.8-18.6-16.1-29.9-21.6v-57.8H602.7v58.2
			c-10.4,5.3-19.8,11.9-27.9,20L549,319.7c-1.6-1.1-3.7-0.8-4.8,0.8l-11,15.1c-1.1,1.6-0.8,3.7,0.8,4.8l25.1,18.3
			c-10.2,16.8-16,36.6-15.8,58.4c0.1,16.9,4.9,33.5,13.1,48.2l-23.5,16.6c-1.6,1.1-1.9,3.2-0.8,4.7l10.8,15.2
			c1.1,1.6,3.2,1.9,4.7,0.8l23.6-16.6c19.8,22.4,48,37.4,77.5,37.5c35.8,0.1,66.8-13.6,87.7-35.8l22.8,16.7c1.6,1.1,3.7,0.8,4.8-0.8
			l11-15.1c1.1-1.6,0.8-3.7-0.8-4.8L751.4,467c8.2-14.9,12.9-31.9,13-50.5c0.1-21.1-5-40.1-14.3-56.3l25.3-17.8
			C777,341.2,777.3,339.1,776.2,337.5z M631.3,291.2h45.1v17.6c-7.2-1.3-14.6-2-22.3-2c-7.8,0-15.5,0.7-22.8,2.1L631.3,291.2
			L631.3,291.2z M657,325.9c22.6,0.9,44,11.2,60,26.3l-62.6,44.1l-61.8-45C609.8,335.2,632.9,325,657,325.9z M564.3,410.2
			c0.4-13.9,4.9-27.2,12.1-39l55.9,40.7L573.8,453C567.3,440.1,563.8,425.6,564.3,410.2z M651.6,502.5c-25-0.9-47.3-11.9-63.2-28.7
			l65.6-46.1l65,47.3C702,492.9,678.2,503.5,651.6,502.5z M744.4,414c-0.7,14.7-4.5,28.1-10.8,40.1L676,412.2l56.9-40.1
			C740.8,385,745.1,399.5,744.4,414z"/>
	</g>
</g>
</svg>
