<?xml version="1.0" encoding="utf-8"?>
<!-- Generator: Adobe Illustrator 19.0.0, SVG Export Plug-In . SVG Version: 6.00 Build 0)  -->
<svg version="1.1" id="Layer_1" xmlns="http://www.w3.org/2000/svg" xmlns:xlink="http://www.w3.org/1999/xlink" x="0px" y="0px"
	 width="560px" height="560px" viewBox="374 117 560 560" style="enable-background:new 374 117 560 560;" xml:space="preserve">
<g id="BrakePadMonitoring">
	<g>
		<path d="M653.8,192.6c-118.6-0.3-209.8,90.5-208.9,208.3c0.8,104.6,95.8,200.6,198.8,200.8c124,0.3,217.6-86.2,218.2-201.8
			C862.4,280.5,774.4,192.8,653.8,192.6z M649,565.7c-95.8-3.5-171.4-83.4-168.1-177.7c3-88.3,88.3-165.8,178.4-162.3
			c90.8,3.6,172.4,85.7,168.3,169.7C823,494.7,744.8,569.1,649,565.7z"/>
		<path d="M484.5,239.3c-10.3-12.8-18.9-23.5-27.4-34.2c-32.8,27.7-55.1,63.2-68.2,101.5l48.7,6
			C448.4,285.6,464.4,260.9,484.5,239.3z"/>
		<path d="M438.1,479.4l-47,11.6c15,41.3,39.6,76.8,72.2,99.3c9.6-10.6,19.5-21.4,29.1-32C467.5,534.8,449.6,508.4,438.1,479.4z"/>
		<path d="M422.7,408.8c-1.5-23.5,0.6-45.9,5.7-67.1l-47.8-4.6c-8.6,40.9-7.7,83.4,1.3,122.8l46.8-9.6
			C425.6,436.9,423.6,423,422.7,408.8z"/>
		<path d="M919.1,306.1c-13.1-38.4-35.4-73.8-68.2-101.5c-8.5,10.6-17.1,21.3-27.4,34.2c20,21.6,36.2,46.3,46.9,73.5L919.1,306.1z"
			/>
		<path d="M815.4,557.6c9.6,10.6,19.5,21.5,29.1,32c32.6-22.5,57.3-58,72.2-99.3l-46.9-11.5C858.4,507.8,840.5,534.1,815.4,557.6z"
			/>
		<path d="M927.4,336.5l-47.8,4.6c5.2,21.2,7.2,43.6,5.7,67.1c-0.9,14.2-2.9,28-6,41.3l46.8,9.6C935.1,420,936,377.3,927.4,336.5z"
			/>
	</g>
</g>
</svg>
