<?xml version="1.0" encoding="utf-8"?>
<!-- Generator: Adobe Illustrator 19.0.0, SVG Export Plug-In . SVG Version: 6.00 Build 0)  -->
<svg version="1.1" id="Layer_1" xmlns="http://www.w3.org/2000/svg" xmlns:xlink="http://www.w3.org/1999/xlink" x="0px" y="0px"
	 width="560px" height="560px" viewBox="374 117 560 560" style="enable-background:new 374 117 560 560;" xml:space="preserve">
<g id="BulbMonitoring">
	<g>
		<path d="M812.1,371.6c0.2-64.2-33.2-116.1-85.1-141.1v-82.7H580.6v83.4c-51.4,25.8-85.3,78.4-84.9,141.1
			c0.6,79.3,72.7,152.2,150.9,152.4C740.7,525,811.7,459.3,812.1,371.6z M621.5,192H686v25.1c-10.2-1.9-20.9-2.9-31.9-2.9
			c-11.2,0-22.2,1-32.6,3V192z M525.6,362.5c2.2-65.6,65.6-123.3,132.7-120.6c67.5,2.7,128.1,63.7,125.2,126.1
			c-3.5,73.9-61.6,129.4-132.8,126.7C579.4,492.2,523.2,432.7,525.6,362.5z"/>
		<circle cx="650.5" cy="448.9" r="21.4"/>
		<path d="M650.5,411.1c11.9,0,21.4-9.6,21.4-21.4v-98.6c0-11.9-9.6-21.4-21.4-21.4c-11.9,0-21.4,9.6-21.4,21.4v98.6
			C629.1,401.6,638.8,411.1,650.5,411.1z"/>
		<path d="M670.2,547.8h-39.4c-0.9,0-1.7,0.8-1.7,1.7v97.1c0,0.9,0.8,1.7,1.7,1.7h39.4c0.9,0,1.7-0.8,1.7-1.7v-97.1
			C671.9,548.4,671.2,547.8,670.2,547.8z"/>
		<path d="M931.4,348.1h-97.1c-0.9,0-1.7,0.8-1.7,1.7v39.4c0,0.9,0.8,1.7,1.7,1.7h97.1c0.9,0,1.7-0.8,1.7-1.7v-39.4
			C933.1,348.8,932.4,348.1,931.4,348.1z"/>
		<path d="M796.7,483c-0.7-0.7-1.7-0.7-2.4,0l-27.9,27.9c-0.7,0.7-0.7,1.7,0,2.4l68.7,68.7c0.7,0.7,1.7,0.7,2.4,0l27.9-27.9
			c0.7-0.7,0.7-1.7,0-2.4L796.7,483z"/>
		<path d="M475.1,389.2v-39.4c0-0.9-0.8-1.7-1.7-1.7h-97.1c-0.9,0-1.7,0.8-1.7,1.7v39.4c0,0.9,0.8,1.7,1.7,1.7h97.1
			C474.5,390.8,475.1,390.2,475.1,389.2z"/>
		<path d="M511.3,483c-0.7-0.7-1.7-0.7-2.4,0l-68.7,68.7c-0.7,0.7-0.7,1.7,0,2.4l27.8,28c0.7,0.7,1.7,0.7,2.4,0l68.7-68.7
			c0.7-0.7,0.7-1.7,0-2.4L511.3,483z"/>
		<path d="M794.2,256.2c0.7,0.7,1.7,0.7,2.4,0l68.7-68.7c0.7-0.7,0.7-1.7,0-2.4l-27.9-27.9c-0.7-0.7-1.7-0.7-2.4,0L766.3,226
			c-0.7,0.7-0.7,1.7,0,2.4L794.2,256.2z"/>
		<path d="M508.8,256.2c0.7,0.7,1.7,0.7,2.4,0l27.9-27.9c0.7-0.7,0.7-1.7,0-2.4l-68.5-68.8c-0.7-0.7-1.7-0.7-2.4,0l-28,27.9
			c-0.7,0.7-0.7,1.7,0,2.4L508.8,256.2z"/>
	</g>
</g>
</svg>
