<?xml version="1.0" encoding="utf-8"?>
<!-- Generator: Adobe Illustrator 18.1.1, SVG Export Plug-In . SVG Version: 6.00 Build 0)  -->
<svg version="1.1" id="Layer_1" xmlns="http://www.w3.org/2000/svg" xmlns:xlink="http://www.w3.org/1999/xlink" x="0px" y="0px"
	 viewBox="56 146 500 500" enable-background="new 56 146 500 500" xml:space="preserve">
<path d="M293.1,290.1c-7.2,7.2-79.6,79.6-118.8,118.8c-10.1,10.1-18.8,10.1-28.9,0c-11.6-13-24.6-26-37.7-37.7
	c-13.1-11.7-10.1-23.1,0-34.8l172.5-171.1c23.1-23.1,28.9-23.1,52.2,0l172.5,172.5c10.1,10.1,11.6,21.7,0,33.4
	c-13,13-26,27.5-40.6,40.6c-10.1,10.1-18.8,7.2-28.9-2.9C396.1,369.7,323.6,297.2,317.9,290C310.5,281.4,301.8,281.4,293.1,290.1z"
	/>
<path d="M293.1,514.7c-7.2,7.2-79.6,79.6-118.8,118.8c-10.1,10.1-18.8,10.1-28.9,0c-11.6-13-24.6-26-37.7-37.7
	c-13-11.6-10.1-23.1,0-34.8l171.1-171.1c23.1-23.1,28.9-23.1,52.2,0l174,174c10.1,10.1,11.6,21.7,0,33.4c-13,13-26,27.5-40.6,40.6
	c-10.1,10.1-18.8,7.2-28.9-2.9C396.2,595.9,323.7,523.3,318,516C310.5,507.4,301.8,507.4,293.1,514.7z"/>
</svg>
