<?xml version="1.0" encoding="utf-8"?>
<!-- Generated by IcoMoon.io -->
<!DOCTYPE svg PUBLIC "-//W3C//DTD SVG 1.1//EN" "http://www.w3.org/Graphics/SVG/1.1/DTD/svg11.dtd">
<svg version="1.1" xmlns="http://www.w3.org/2000/svg" xmlns:xlink="http://www.w3.org/1999/xlink" width="500" height="500" viewBox="0 0 500 500">
<path d="M250 453.125c-112.188 0-203.125-90.938-203.125-203.125s90.938-203.125 203.125-203.125 203.125 90.938 203.125 203.125-90.938 203.125-203.125 203.125zM343.141 190.766c3.813-3.813 3.813-10.016 0-13.828l-20.75-20.734c-3.813-3.813-10.016-3.813-13.828 0l-58.766 58.766-58.766-58.766c-3.813-3.813-10.016-3.813-13.828 0l-20.75 20.734c-3.813 3.813-3.813 10.016 0 13.828l58.781 58.781-58.781 58.75c-3.813 3.813-3.813 10.016 0 13.828l20.75 20.75c3.812 3.813 10.016 3.813 13.828 0l58.766-58.781 58.766 58.781c3.813 3.813 10.016 3.813 13.828 0l20.75-20.75c3.813-3.813 3.813-10.016 0-13.828l-58.781-58.75 58.781-58.781z"></path>
</svg>
