<?xml version="1.0" encoding="utf-8"?>
<!-- Generator: Adobe Illustrator 18.1.1, SVG Export Plug-In . SVG Version: 6.00 Build 0)  -->
<svg version="1.1" id="Layer_1" xmlns="http://www.w3.org/2000/svg" xmlns:xlink="http://www.w3.org/1999/xlink" x="0px" y="0px"
	 viewBox="0 0 500 500" enable-background="new 0 0 500 500" xml:space="preserve">
<g id="CruiseControl">
	<path d="M0.5,48.7c16.4-15,30.6-28.1,47.3-43.4C62.4,19,78.3,33.8,95.2,49.7c7.3-6.1,13.8-11.5,22.7-19c0,29.6,0,56.9,0,86.1
		c-27.7,0-55.5,0-85.5,0c5.3-7.4,10-14.1,17.9-25.2C34.2,77.6,18.2,63.9,0.5,48.7z"/>
	<path d="M282,58.9c-120.2,0-217.7,97.5-217.7,217.7S161.8,494.3,282,494.3s217.7-97.5,217.7-217.7C499.8,156.3,402.3,58.9,282,58.9
		z M422.1,388.6l-24.5-24.5l-27.1,27.2l24.6,24.6c-26.2,21.3-58.6,35.4-94.1,39.1v-34.5h-38.4v34.4c-35.4-3.8-67.7-17.9-93.9-39.3
		l24.4-24.4L166,364.1l-24.2,24.2c-20.7-26-34.4-57.8-38.1-92.6h34v-38.4h-34c3.8-35.3,17.8-67.5,38.9-93.6L167,188l27.1-27.2
		l-24.3-24.3c26-20.9,57.9-34.6,92.8-38.4v34.5H301V98.2c35.6,3.7,68,17.9,94.3,39.3l-24.8,24.8l27.1,27.2l24.6-24.6
		c20.7,26,34.4,57.8,38.1,92.6h-34.1v38.4h34.1C456.7,330.6,443,362.5,422.1,388.6z"/>
	<path d="M282,244c-4.4,0-8.6,0.9-12.4,2.5l-57.4-57.9h-21V210l59.6,57.4c-0.8,2.9-1.3,6-1.3,9.1c0,18,14.6,32.6,32.6,32.6
		s32.6-14.6,32.6-32.6C314.6,258.6,300,244,282,244z"/>
</g>
</svg>
