<?xml version="1.0" encoding="utf-8"?>
<!-- Generator: Adobe Illustrator 19.0.0, SVG Export Plug-In . SVG Version: 6.00 Build 0)  -->
<svg version="1.1" id="Layer_1" xmlns="http://www.w3.org/2000/svg" xmlns:xlink="http://www.w3.org/1999/xlink" x="0px" y="0px"
	 width="560px" height="560px" viewBox="374 117 560 560" style="enable-background:new 374 117 560 560;" xml:space="preserve">
<g id="DieselParticulateFilter">
	<g>
		<path d="M869.5,363.7h-94V287H451.3v76.7h-76.8v28h104.7v-76.2h266v76.2c0,0,116.6-0.1,126.1,0c11.5,0.2,21.4,12.1,21.4,12.1
			l-17.2,11.6c-4.7-8.3-11.9-8.3-11.9-8.3H745.7v70.2H479.2V406H374.4v29.8h76.8v71.3h323.1v-72.6c0,0,68.4,0,79.2,0
			s19.8,18.3,19.8,18.3l60.4-42.7C902.5,359.9,869.5,363.7,869.5,363.7z"/>
		<circle cx="515.3" cy="348.8" r="20.8"/>
		<circle cx="579" cy="348.8" r="20.8"/>
		<circle cx="642.5" cy="348.8" r="20.8"/>
		<circle cx="705.3" cy="348.8" r="20.8"/>
		<circle cx="547.5" cy="397" r="20.8"/>
		<circle cx="610.9" cy="397" r="20.8"/>
		<circle cx="673.7" cy="397" r="20.8"/>
		<circle cx="515.3" cy="445.8" r="20.8"/>
		<circle cx="579" cy="445.8" r="20.8"/>
		<circle cx="642.5" cy="445.8" r="20.8"/>
		<circle cx="705.3" cy="445.8" r="20.8"/>
	</g>
</g>
</svg>
