<?xml version="1.0" encoding="utf-8"?>
<!-- Generator: Adobe Illustrator 18.1.1, SVG Export Plug-In . SVG Version: 6.00 Build 0)  -->
<svg version="1.1" id="Layer_1" xmlns="http://www.w3.org/2000/svg" xmlns:xlink="http://www.w3.org/1999/xlink" x="0px" y="0px"
	 viewBox="0 0 500 500" enable-background="new 0 0 500 500" xml:space="preserve">
<g id="Doors">
	<path d="M334.1,293.9c10.2,1,19.1,2,33.8,3.5c-2.1,49.3-0.6,98.7-7.6,147c-5,34.5-35.7,50.2-68.8,53.4c-26.9,2.6-54.6,2.8-81.4-0.4
		c-49.5-6-69.8-23.7-75.5-73.5c-4.7-41.7-1-84.3-1-127.3c12.3-1.1,21.1-1.9,29.3-2.7c10.2-39.8-9.3-71.7-20.7-106.4
		c-14.5-44.4-15-91.6-2.1-137.2c7.6-27,31.8-38.5,56.4-44.2c37.6-8.6,75.8-9,113.4,2.4c34.8,10.5,54.8,33.3,55.8,68.9
		c0.9,31.9,0,64.2-3.4,95.9c-1.6,14.5-10,28.7-17.3,41.9C331.7,239.7,331.4,265.5,334.1,293.9z M165.5,327.9
		c0,31.6-1.4,61.5,0.4,91.2c1.9,32.3,16.8,45.2,49.6,45.9c24.3,0.5,48.7,0.5,73,0c22.9-0.5,39-10.7,42-32.6
		c4.5-34,4.8-68.7,6.9-103.5c-14-1.3-23.4-2.1-38.8-3.5c4.5-38.8,0.8-79.6,15-112.8c19-44.5,19.8-88.4,19.7-133.9
		c0-22.5-13.2-37.6-32.9-39.3c-34.8-3-70.2-2.1-104.9,0.9c-18.1,1.6-28.2,17.1-28.2,33.8c0,43-9.4,84,14.4,125.3
		c22.9,39.7,17,83.7,14.7,127.1C185,327,176.7,327.4,165.5,327.9z"/>
	<path d="M82.1,284.6C56,267.9,53.6,271,71.9,246.7c10.4-13.8,21.4-27.2,32.3-40.6c6.4-7.9,16.6-19.4,23.2-27.1
		c13.6,33.7,13.6,33.7-0.8,51L82.1,284.6z"/>
	<path d="M191.6,199.7c-2.2-19.7-3.2-39.8-6.9-59.4c-2.6-13.7,3.3-18.3,14.5-18.5c34.3-0.4,68.6-0.2,103,0.3
		c11.4,0.2,15.3,7.1,13.4,18.2c-3.4,19.7-6.2,39.5-9.3,59.4C267.9,199.7,230.3,199.7,191.6,199.7z"/>
	<path d="M195.3,357.5c37.1,0,71.5,0,108.5,0c1.9,18.4,4.9,37.5,5,56.6c0,5.7-8.1,16.2-12.9,16.5c-30.1,1.6-60.4,1.5-90.5,0.6
		c-12-0.4-17.7-8.2-15.8-21.3C192.1,392.7,193.4,375.5,195.3,357.5z"/>
	<path d="M418.4,284.2c26.1-16.7,28.5-13.5,10.2-37.9c-10.4-13.8-21.4-27.2-32.3-40.6c-6.4-7.9-16.6-19.4-23.2-27.1
		c-13.6,33.7-13.6,33.7,0.8,51L418.4,284.2z"/>
</g>
</svg>
