<?xml version="1.0" encoding="utf-8"?>
<!-- Generator: Adobe Illustrator 19.0.0, SVG Export Plug-In . SVG Version: 6.00 Build 0)  -->
<svg version="1.1" id="Layer_1" xmlns="http://www.w3.org/2000/svg" xmlns:xlink="http://www.w3.org/1999/xlink" x="0px" y="0px"
	 width="560px" height="560px" viewBox="374 117 560 560" style="enable-background:new 374 117 560 560;" xml:space="preserve">
<g id="EmissionsControlLamp">
	<path d="M526.9,279.4c14.6-0.1,29-0.2,43.6,0c5.3,0.1,7.1-1.7,7.3-7.1c0.6-16.2,0.8-16.2-15.5-16.2c-12,0-24,0.1-36,0
		c-9.7-0.1-15.5-5.6-15.3-14.1c0.1-8.3,6.2-14,15.7-14c61.6-0.1,123.3-0.1,184.9,0c10.1,0,15.8,5.6,15.6,14.8
		c-0.1,8.6-5.6,13.3-15.9,13.4c-14.6,0.1-29,0.1-43.6,0c-4.8-0.1-6.9,1.3-6.8,6.5c0.3,19.9-2.2,16.6,16.4,16.8
		c12.2,0.2,24.4-0.1,36.6,0.2l81,0.1c17.6,0.4,30.8,13.4,31.1,31c0.2,14,0.3,45,0,59c-0.1,6.3,2.5,8.1,8.2,7.7
		c5.2-0.3,11.2,1.3,10.8-7.4c-0.2-5.6-0.6-11.4,0.9-16.7c3.4-11.5,11.1-19.9,23.3-21.6c16.1-2.2,32.5-3.9,46.6,7.8
		c10.4,8.7,12,21.2,13.3,33.2c4.7,43.9,5.6,87.9-2.4,131.6c-2.8,15.2-15.9,26.7-31.6,27.3c-6.6,0.3-13.2,0.2-19.8,0
		c-18.1-0.4-30.2-13-30.2-31.2c0-1.2,0-2.6,0-3.8c-0.1-10.4-5.3-14.2-15.3-10.6c-1.7,0.6-3.1,4.3-3.2,6.5c-0.3,13-0.2,26-0.2,39
		c-0.1,22-12.7,34.8-34.6,34.8c-61.6,0.1-123.3,0.1-184.9,0c-16.8,0-31.4-5.6-43.2-17.8c-12.1-12.4-24.2-24.8-36.8-36.6
		c-3.4-3.1-8.6-5.5-13.2-5.7c-14.4-0.8-29-0.2-43.6-0.3c-21.5-0.2-34.6-14.8-33.8-36.4c0.6-15.8,0.2-31.6,0.2-47.4
		c0-1.2-0.6-2.5-0.9-3.9c-19.7-1.6-19.7-1.6-19.7,16.9c0,18.8-0.1,37.7,0,56.6c0,5.8-2.9,10.6-8.1,11.5c-3.8,0.7-9.1-1.1-12.2-3.7
		c-2.4-1.9-2.8-6.8-2.9-10.4c-0.2-24-0.3-47.9,0-71.8c0.1-7.4-1.3-13.6-7.6-17.9c-8.3-5.9-10.5-14.1-10.2-24
		c0.6-19.6,0.2-39.2,0.1-58.8c-0.1-7.1,1.8-12.9,7.3-17.6c4.5-3.8,8.3-8.3,12.5-12.3c3.8-3.6,7.8-6.3,13.7-3.7
		c5.8,2.6,7.5,7.1,7.5,12.9c0,19.8,0,39.8,0,59.6c0,13.4,0,13.4,13.3,13.1c2,0,3.9-0.2,7.4-0.6c0-13.2-0.1-26.1,0-39
		c0.1-7.8-0.4-15.9,0.9-23.5c2.8-15.9,14.6-25.2,30.6-25.4c12.8-0.1,25.4-0.2,38.2,0L526.9,279.4z M515.3,308.1c-13.6,0-27,0-40.5,0
		c-10.1,0-10.3,0.1-10.3,10.2c0,49.7-0.1,99.3,0,149.1c0,9.9,0.9,10.4,11.2,10.3c14-0.1,28-0.1,42,0c11.3,0.1,20.5,4.7,28.3,12.9
		c12.1,12.8,24.9,24.8,37.1,37.4c6.6,6.8,14.2,10.1,23.7,10.1c29.8-0.2,59.6-0.1,89.4-0.1c31,0,62.2-0.1,93.2,0.1
		c6.2,0,8.6-1.9,8.5-8.3c-0.3-16.6-0.3-33.2,0-49.6c0.2-13.8,9.6-22.6,23.4-22.7c5.8,0,11.8,0.4,17.6,0c25.4-1.9,35.3,7.6,33.8,33.2
		c-0.7,12.9-0.1,12.9,13,13.4c0.2,0,0.6,0,0.8,0c10.2,0.3,11.5-0.4,13.3-10.3c7.2-39.4,6.6-79.1,1.1-118.6
		c-2.2-16.4-3.9-16.8-20.9-16.2c-5,0.2-7.6,1.8-7.4,7.2c0.1,5.6,0,11.2-0.1,16.8c-0.4,13.9-10.3,23.2-24.2,23
		c-7.8-0.1-15.8-0.1-23.6,0c-17.5,0.3-26.7-8.4-26.8-25.8c-0.1-15.6-0.2-47.7,0.1-63.3c0.1-6.2-1.8-8.7-8.3-8.5
		c-11.2,0.4-22.4,0.3-33.6,0.1L515.3,308.1z"/>
</g>
</svg>
