<?xml version="1.0" encoding="utf-8"?>
<!-- Generator: Adobe Illustrator 19.0.0, SVG Export Plug-In . SVG Version: 6.00 Build 0)  -->
<svg version="1.1" id="Layer_1" xmlns="http://www.w3.org/2000/svg" xmlns:xlink="http://www.w3.org/1999/xlink" x="0px" y="0px"
	 width="560px" height="560px" viewBox="374 117 560 560" style="enable-background:new 374 117 560 560;" xml:space="preserve">
<g id="EngineManagementLamp2">
	<path d="M519.6,467.9c0,20.5,0,35.6,0,54.8c-44.5,0-88.1,0.4-131.8-0.8c-4.3-0.1-11.6-10.5-11.8-16.2
		c-0.9-73.8-1.1-147.6-0.1-221.4c0.1-5.2,10.3-14.4,16.1-14.6c41.3-1.2,82.7-0.7,126.2-0.7c0,17.6,0,34,0,53.8c-27,0-54.4,0-82.8,0
		c0,17.1,0,31.1,0,46.9c28.1,0,54.8,0,83.2,0c0,16.8,0,31.7,0,49.7c-26.9,0-54.2,0-83.1,0c0,17,0,31,0,48.6
		C462.5,467.9,489.8,467.9,519.6,467.9z"/>
	<path d="M608.9,429.9c0,28.1,0,62,0,92.7c-19,0-35.6,0-54.8,0c0-82,0-163.9,0-253.9h89c31.6-0.4,81.1,21.4,81.1,80.5
		c0,48.3-32.5,80.2-73.9,80.2L608.9,429.9z M609.8,320.1c-0.7,11.3-2.2,22.8-1.8,34.3c0.4,12.3-4.1,29.2,18.6,27
		c19.6-1.9,38.2-4.8,39.4-30.1C667.3,326.1,649.1,315.8,609.8,320.1z"/>
	<path d="M932.8,335.7c-59.2-25.2-96.1-23.6-119.8,6.8c-21.7,27.8-23.2,75.2-3.2,103.3c22.8,32.1,59.2,34.9,123,13.4v51.4
		c0,0-2,1.1-8.1,5.3c-10.3,7.1-25,11-55,11.8c-53.9,1.3-95.9-19.8-119.5-66.5c-24.1-47.5-21.6-97.7,10-142.6
		c22.7-32.4,54.5-50.7,95.5-50.1c5.4,0.1,18.3,0.1,23.6,0.3c31.9,1.6,53.4,10.2,53.4,10.2L932.8,335.7L932.8,335.7L932.8,335.7z"/>
</g>
</svg>
