<?xml version="1.0" encoding="utf-8"?>
<!-- Generator: Adobe Illustrator 18.1.1, SVG Export Plug-In . SVG Version: 6.00 Build 0)  -->
<svg version="1.1" id="Layer_1" xmlns="http://www.w3.org/2000/svg" xmlns:xlink="http://www.w3.org/1999/xlink" x="0px" y="0px"
	 viewBox="0 0 500 500" enable-background="new 0 0 500 500" xml:space="preserve">
<g id="EngineOil">
	<path d="M1,226.4c6.7-25.6,12.6-48.5,19.1-73.3c34,8.1,66.7,15.8,99.4,23.5c1.4,9.4,2.6,17.6,4,27.1c18.8,0,36.7,0,55.8,0
		c0-7.3,0-14,0-21.7c-6.9-1.2-12.9-2.2-20.2-3.5c0-7.6,0-14.9,0-23.6c25.1,0,49.5,0,75.9,0c0.4,7.5,0.8,14.9,1.2,23.5
		c-7.7,1.1-14.5,2.1-22.5,3.3c-0.4,6.9-0.7,13.7-1.2,23.5c12.8,0,24,0.7,35-0.2c17-1.2,32,0.5,43.9,15c3,3.7,11.5,5.7,16.6,4.5
		c41.7-9.9,83.7-19.1,124.6-31.8c27.4-8.5,49.3-8.7,65.5,21c-5.1,5.2-11.3,11.5-17.3,17.5c-25.1-17.5-43.1-15.7-61.8,6.6
		c-25,29.7-49.5,59.8-73.7,90.2c-9.9,12.4-20.4,18.7-37.5,18.4c-70-1.1-140-0.5-213.2-0.5c0-26.7-0.5-51.8,0.2-77
		c0.4-12.7-3.3-18.6-16.7-21.4C52.5,242.1,27.8,233.9,1,226.4z M121.7,313.3c3.7,1.4,5.7,2.8,7.6,2.8c58.8,0.2,117.5,0.3,176.3,0.2
		c3.3,0,7.9-0.5,9.8-2.6c20.4-23.3,40.4-46.9,60.5-70.5c-26.2,1.8-48.9,8.8-72.2,12.7c-8.5,1.4-18.6-3.5-27.1-7.4
		c-8.6-4-15.9-14.5-24.1-14.9c-38.9-1.8-77.8-1.5-116.8-0.8c-4.7,0.1-13,7.2-13.2,11.4C121.1,267.3,121.7,290.6,121.7,313.3z
		 M42.4,187l-4.5,20.5l55,13.8v-22.9L42.4,187z"/>
	<path d="M481.5,256.2c7.2,12.4,14.4,21.3,17.4,31.5c1.9,6.4-0.5,16.7-4.9,21.4c-3.7,3.9-15.3,5.4-19.7,2.5
		c-5.5-3.7-11-13.9-9.7-19.7C467.2,280.3,474.6,269.9,481.5,256.2z"/>
</g>
</svg>
