<?xml version="1.0" encoding="utf-8"?>
<!-- Generator: Adobe Illustrator 18.1.1, SVG Export Plug-In . SVG Version: 6.00 Build 0)  -->
<svg version="1.1" id="Layer_1" xmlns="http://www.w3.org/2000/svg" xmlns:xlink="http://www.w3.org/1999/xlink" x="0px" y="0px"
	 viewBox="0 0 500 500" enable-background="new 0 0 500 500" xml:space="preserve">
<g id="EngineCoolingSystem">
	<path d="M249.4,473.6c-13.2,0-24.9-5.1-29.8-8.1c-3.3-2-12.4-10.1-21-9.8c-5.8,0.2-11.2,2.7-19.3,9.2c-8.1,6.4-24.1,8.8-34.9,8.8
		c-10.9,0-27.8-2.1-33.6-7.8c-5-4.9-7.3-10.6-20-9.8c-7.1,0.4-8.5,5.8-18.3,11.2c-9.8,5.4-27.5,6.4-27.5,6.4v-44.1
		c10.5-2,16.6-7.8,26.8-11.9s18-4.7,18-4.7c11.5,0,19.3,0.7,27.8,5.4s17,10.9,29.2,10.9s19-7.1,27.1-11.2s7.5-5.1,23.4-5.1
		s21.4,3.7,25.8,6.4c4.4,2.7,13.2,9.8,27.1,9.8c13.9,0,22.7-7.1,27.1-9.8c4.4-2.7,9.8-6.4,25.8-6.4s15.3,1,23.4,5.1
		s14.9,11.2,27.1,11.2s20.7-6.1,29.2-10.9s16.3-5.4,27.8-5.4c0,0,7.8,0.7,18,4.7c10.2,4.1,16.3,9.8,26.8,11.9v44.1
		c0,0-17.6-1-27.5-6.4c-9.8-5.4-11.2-10.9-18.3-11.2c-9.3-0.3-15.9,6.1-21.2,10.8c-7.1,6.3-21.5,6.9-32.4,6.9s-26.8-2.4-34.9-8.8
		s-13.6-9.3-19.3-9.2c-8.4,0.2-16.5,6.4-21,9.8c-3.1,2.4-16.6,8.1-29.8,8.1h-1.6V473.6z"/>
	<path d="M192.4,369.6c-1.9-0.4-3.7-0.7-5-0.7c-7,0-13.6,2.7-23.5,9.2c-9.9,6.4-29.3,8.8-42.5,8.8s-32.5-2.8-40.8-7.8
		c-7.9-4.8-12.5-10.4-23.1-9.8c-8.7,0.5-11.6,5.8-23.6,11.2s-33.4,6.4-33.4,6.4v-44.1c12.8-2,20.2-7.8,32.6-11.9s21.9-4.7,21.9-4.7
		c14,0,23.5,0.7,33.8,5.4c10.3,4.7,20.6,10.9,35.5,10.9s23.1-7.1,33-11.2s9.1-5.1,28.5-5.1c2.4,0,4.6,0.1,6.7,0.2L192.4,369.6
		L192.4,369.6z"/>
	<path d="M307.9,369.6c1.9-0.4,3.7-0.7,5-0.7c7,0,13.6,2.7,23.5,9.2c9.9,6.4,29.3,8.8,42.5,8.8s31.4-1.2,40.8-7.8
		c6.2-4.3,14.2-10.2,22.8-9.8c8.7,0.3,11.8,5.7,23.8,11.2s33.4,6.4,33.4,6.4v-44.1c-12.8-2-20.2-7.8-32.6-11.9s-21.9-4.7-21.9-4.7
		c-14,0-23.5,0.7-33.8,5.4c-10.3,4.7-20.6,10.9-35.5,10.9c-14.8,0-23.1-7.1-33-11.2s-9.1-5.1-28.5-5.1c-2.4,0-4.6,0.1-6.7,0.2v43.2
		H307.9z"/>
	<path d="M341.4,147.6c2.1,0,3.8-1.7,3.8-3.8V113c0-2.1-1.7-3.8-3.8-3.8h-56V62.9l0,0c-0.1-19.5-15.9-35.3-35.5-35.3
		s-35.4,15.8-35.5,35.3l0,0v253.6c-9.4,9.2-15.2,22-15.2,36.1c0,28,22.7,50.7,50.7,50.7s50.7-22.7,50.7-50.7
		c0-14.2-5.8-27-15.2-36.1v-54.9h56c2.1,0,3.8-1.7,3.8-3.8v-30.7c0-2.1-1.7-3.8-3.8-3.8h-56V202h56c2.1,0,3.8-1.7,3.8-3.8v-30.7
		c0-2.1-1.7-3.8-3.8-3.8h-56v-15.8h56V147.6z"/>
</g>
</svg>
