<?xml version="1.0" encoding="utf-8"?>
<!-- Generated by IcoMoon.io -->
<!DOCTYPE svg PUBLIC "-//W3C//DTD SVG 1.1//EN" "http://www.w3.org/Graphics/SVG/1.1/DTD/svg11.dtd">
<svg version="1.1" xmlns="http://www.w3.org/2000/svg" xmlns:xlink="http://www.w3.org/1999/xlink" width="500" height="500" viewBox="0 0 500 500">
<path fill="#000" d="M257.813 453.125v0c-107.868 0-195.313-87.444-195.313-195.313s87.444-195.313 195.313-195.313c107.868 0 195.313 87.444 195.313 195.313s-87.444 195.313-195.313 195.313zM257.813 437.5c99.239 0 179.688-80.449 179.688-179.688s-80.449-179.688-179.688-179.688c-99.239 0-179.688 80.449-179.688 179.688s80.449 179.688 179.688 179.688v0zM187.5 218.75c8.629 0 15.625-6.996 15.625-15.625s-6.996-15.625-15.625-15.625c-8.629 0-15.625 6.996-15.625 15.625s6.996 15.625 15.625 15.625v0zM328.125 218.75c8.629 0 15.625-6.996 15.625-15.625s-6.996-15.625-15.625-15.625c-8.629 0-15.625 6.996-15.625 15.625s6.996 15.625 15.625 15.625v0zM257.521 343.75c-54.396 0-85.646-31.25-85.646-31.25v15.625c0 0 31.25 31.25 85.646 31.25s86.229-31.25 86.229-31.25v-15.625c0 0-31.833 31.25-86.229 31.25v0z"></path>
</svg>
