<?xml version="1.0" encoding="utf-8"?>
<!-- Generated by IcoMoon.io -->
<!DOCTYPE svg PUBLIC "-//W3C//DTD SVG 1.1//EN" "http://www.w3.org/Graphics/SVG/1.1/DTD/svg11.dtd">
<svg version="1.1" xmlns="http://www.w3.org/2000/svg" xmlns:xlink="http://www.w3.org/1999/xlink" width="500" height="500" viewBox="0 0 500 500">
<path fill="#000" d="M407.97 159.083v0c-38.153-4.291-101.296-3.83-147.187 7.667-1.002 0.208-1.987 0.391-2.97 0.543-0.983-0.153-1.967-0.335-2.97-0.543-45.891-11.497-109.035-11.958-147.188-7.667v0c32.132-48.771 87.386-80.958 150.157-80.958s118.025 32.188 150.157 80.958zM419.625 179.587c11.454 23.648 17.875 50.187 17.875 78.226 0 99.239-80.449 179.688-179.688 179.688s-179.688-80.449-179.688-179.688c0-28.039 6.422-54.578 17.875-78.226 0.234 0.217 0.491 0.355 0.772 0.401 7.174 2.638 10.235 9.219 10.235 9.219s2.142 5.84 8.363 29.591c6.221 23.751 21.051 26.599 21.051 26.599s18.152 4.083 39.091 4.083c20.939 0 33.465-0.866 46.875-6.963s19.271-23.081 19.271-23.081c0 0 6.756-14.634 11.408-28.442 0.706-2.095 2.554-3.52 4.745-4.432 2.191 0.912 4.039 2.336 4.745 4.432 4.651 13.808 11.408 28.442 11.408 28.442s5.861 16.983 19.271 23.081c13.41 6.098 25.936 6.963 46.875 6.963s39.091-4.083 39.091-4.083c0 0 14.831-2.848 21.051-26.599s8.363-29.591 8.363-29.591c0 0 3.061-6.582 10.235-9.219 0.281-0.046 0.538-0.184 0.772-0.401v0zM257.813 453.125c107.868 0 195.313-87.444 195.313-195.313s-87.444-195.313-195.313-195.313c-107.868 0-195.313 87.444-195.313 195.313s87.444 195.313 195.313 195.313v0zM257.521 343.75c-54.396 0-85.646-31.25-85.646-31.25v15.625c0 0 31.25 31.25 85.646 31.25s86.229-31.25 86.229-31.25v-15.625c0 0-31.833 31.25-86.229 31.25v0z"></path>
</svg>
