<?xml version="1.0" encoding="utf-8"?>
<!-- Generator: Adobe Illustrator 19.0.0, SVG Export Plug-In . SVG Version: 6.00 Build 0)  -->
<svg version="1.1" id="Layer_1" xmlns="http://www.w3.org/2000/svg" xmlns:xlink="http://www.w3.org/1999/xlink" x="0px" y="0px"
	 width="560px" height="560px" viewBox="374 117 560 560" style="enable-background:new 374 117 560 560;" xml:space="preserve">
<g id="EngineManagementLamp">
	<path d="M504.1,285.7c-53.4-4.1-69.4,4.9-92.8,46c-12.1-4.9-24.5-10.1-36.8-15.2c19.2-69.3,87.9-83.6,148.7-74.6
		c14.4,2.1,30.6,1.8,44.5-2.4c60.1-18.1,119.4-17.8,179,2c10,3.4,22,3.9,32.4,2.1c65.6-11.3,122.6-2.5,155,73
		c-11.9,4.8-23.9,9.5-35.6,14.2c-13.4-12.2-19.2-25.4-35.7-36.5c-13.1-8.7-26.1-10.5-57.6-10.5c29.3,46.5,50,90.7,44.4,139.3
		c-4.1,35.5-13,73.5-30.9,103.7C783.8,585.6,712.1,579,684,516.3c-35.6-79.7-30.9-156.9,24.6-227.6c1.7-2.1,3.1-4.4,9.1-12.7
		c-46.4-19.8-83.6-20.8-132.8,0c37.1,38.9,56.2,77.5,58.9,122.6c2.8,46.7-2.1,91.7-30.8,131.3c-36.7,50.7-96,48.6-129.5-4.8
		c-39.5-62.9-34.8-166.2,10.3-226.6C496,295.6,498.4,292.8,504.1,285.7z M549.1,309.1c-51,45.1-57.7,120.5-32.3,177.7
		c6.2,13.9,21.7,29.3,35.3,32c8.4,1.7,25.9-17.4,31.6-30.5C608.2,431.8,605.4,353.5,549.1,309.1z M757.4,308.9
		c-53.5,49.7-65.3,138.9-26.3,194.2c17.8,25.2,30.6,24.4,49.6-0.3C812.9,460.8,812.1,346.8,757.4,308.9z"/>
</g>
</svg>
