<?xml version="1.0" encoding="utf-8"?>
<!-- Generated by IcoMoon.io -->
<!DOCTYPE svg PUBLIC "-//W3C//DTD SVG 1.1//EN" "http://www.w3.org/Graphics/SVG/1.1/DTD/svg11.dtd">
<svg version="1.1" xmlns="http://www.w3.org/2000/svg" xmlns:xlink="http://www.w3.org/1999/xlink" width="643" height="500" viewBox="0 0 643 500">
<path fill="#000" d="M400.949 254.743q0 58.036-24.274 103.376t-69.196 70.871-102.958 25.53q-41.574 0-79.52-16.183t-65.29-43.527-43.527-65.29-16.183-79.52 16.183-79.52 43.527-65.29 65.29-43.527 79.52-16.183q79.799 0 136.998 53.571l-55.524 53.292q-32.645-31.529-81.473-31.529-34.319 0-63.477 17.299t-46.177 47.015-17.020 64.872 17.020 64.872 46.177 47.015 63.477 17.299q23.159 0 42.55-6.417t31.948-16.043 21.903-21.903 13.672-23.159 5.999-20.647h-116.071v-70.313h193.081q3.348 17.578 3.348 34.040zM642.857 220.703v58.594h-58.315v58.315h-58.594v-58.315h-58.315v-58.594h58.315v-58.315h58.594v58.315h58.315z"></path>
</svg>
