<?xml version="1.0" encoding="utf-8"?>
<!-- Generator: Adobe Illustrator 19.0.0, SVG Export Plug-In . SVG Version: 6.00 Build 0)  -->
<svg version="1.1" id="Layer_1" xmlns="http://www.w3.org/2000/svg" xmlns:xlink="http://www.w3.org/1999/xlink" x="0px" y="0px"
	 width="560px" height="560px" viewBox="374 117 560 560" style="enable-background:new 374 117 560 560;" xml:space="preserve">
<g id="HeadlightRangeControl">
	<path d="M747.1,237.1c-48.3-5.8-55.1-4.3-81.8-2.1c-23.3,1.9-41.1,13.8-48.2,38.4c-23.7,82.5-27.9,165.4-3.9,248.5
		c8.3,28.6,27.8,44,57.7,47.9c66.5,8.5,132.5-5,185.1-42.2c38-26.9,78.2-73.4,77.5-124.4C933.6,403.2,938.9,260.1,747.1,237.1z
		 M717.7,539.9c-46,4.1-68.5-6.8-80.2-51.2c-13.8-52.1-13.8-104.7-1.7-156.2c16.5-69.8,14.6-66,39.5-68.1c0,0,32.7,0,43.3,0.8
		c185.7,14.2,183.1,138,183.1,138C903.1,470.8,802.4,532.3,717.7,539.9z"/>
	<polygon points="533.3,252.2 552.3,199.7 588.3,212.3 556.6,145.9 491.7,176.9 520.5,186.7 491.7,265.3 	"/>
	<path d="M567,508.4c-1.9-6.7-3.6-13.3-5.2-19.9l-186,58.2v41.1l197.3-62l-0.6-3C570.2,518.3,568.4,513.6,567,508.4z"/>
	<path d="M550.4,418.6l-174.7,54.5v41.1l178.6-55.9C552.4,445.2,551.1,431.9,550.4,418.6z"/>
	<path d="M554.1,338.8l-178.4,55.8v41.1L550.3,381C551,366.9,552.2,352.9,554.1,338.8z"/>
	<path d="M571.1,268.4c0.8-2.9,1.8-5.6,2.9-8.2l-198.4,63.3v41.1l186.1-59.5C564.5,292.8,567.6,280.6,571.1,268.4z"/>
	<polygon points="532.3,557.3 552.3,613.5 588.3,600.8 556.6,667.3 491.7,636.2 520.5,626.5 498.9,567.5 	"/>
</g>
</svg>
