<?xml version="1.0" encoding="utf-8"?>
<!-- Generated by IcoMoon.io -->
<!DOCTYPE svg PUBLIC "-//W3C//DTD SVG 1.1//EN" "http://www.w3.org/Graphics/SVG/1.1/DTD/svg11.dtd">
<svg version="1.1" xmlns="http://www.w3.org/2000/svg" xmlns:xlink="http://www.w3.org/1999/xlink" width="500" height="500" viewBox="0 0 500 500">
<path fill="#000" d="M352.25 55.825c-28.5-20.55-64.3-30.825-107.4-30.825-32.775 0-60.45 7.225-82.925 21.7-35.675 22.65-54.625 61.125-56.925 115.375h82.675c0-15.825 4.625-31 13.825-45.7 9.225-14.65 24.875-21.975 46.95-21.975 22.45 0 37.925 5.95 46.35 17.825 8.475 11.925 12.7 25.1 12.7 39.55 0 12.6-6.3 24.125-13.925 34.575-4.175 6.1-9.675 11.725-16.525 16.85 0 0-44.825 28.75-64.5 51.85-11.4 13.375-12.425 33.45-13.45 62.2-0.050 2.050 0.725 6.3 7.875 6.3 7.175 0 57.9 0 64.275 0 6.4 0 7.725-4.725 7.8-6.85 0.45-10.45 1.6-15.825 3.525-21.875 3.6-11.425 13.45-21.375 24.475-29.975l22.75-15.675c20.55-16.025 36.925-29.15 44.175-39.45 12.35-16.9 21.050-37.75 21.050-62.5-0.025-40.375-14.275-70.8-42.775-91.4zM243.525 373.1c-28.475-0.875-51.975 18.85-52.875 49.75-0.875 30.85 21.45 51.275 49.95 52.1 29.725 0.875 52.6-18.175 53.525-49.075 0.85-30.9-20.85-51.9-50.6-52.775z"></path>
</svg>
