<?xml version="1.0" encoding="utf-8"?>
<!-- Generator: Adobe Illustrator 18.1.1, SVG Export Plug-In . SVG Version: 6.00 Build 0)  -->
<svg version="1.1" id="Layer_1" xmlns="http://www.w3.org/2000/svg" xmlns:xlink="http://www.w3.org/1999/xlink" x="0px" y="0px"
	 viewBox="0 0 500 500" enable-background="new 0 0 500 500" xml:space="preserve">
<g id="IgnitionSwitch">
	<path d="M234.7,249.5C164,249.5,110.8,196.4,111,126C111.2,56.9,165.8,2.2,235.2,1.6c67-0.6,124.4,57.3,124.5,125.2
		C359.7,195.6,304.8,249.5,234.7,249.5z M133.4,124.2c-1,53.1,45.8,101.6,99.2,103c57,1.5,103.3-44.9,103.6-103.7
		c0.2-48-49.6-97.4-99.2-98.2C184.2,24.3,134.4,71.8,133.4,124.2z"/>
	<path d="M431.1,294.3c-42.4-14.9-93.9-0.9-119.9,36.1c-9.5,13.5-9.7,15.9-23.5,15.8c-72.6-0.2-260.4-0.7-260.4-0.7L0.7,379.3
		c0,0,33.5,32.5,51.3,49.8c8.7-7.8,16.5-14.8,24.7-22.1c11,8.3,21.4,16.2,32.2,24.3c9.6-8.8,18.1-16.6,27.7-25.4
		c5.3,4,10.8,8.1,15.4,11.6c9.6-4,23-14.7,23-14.7l18.4,14.3l21.1-14.8l27.4,26.9l43.5,0.2c18.8,0,13.4,6.9,21.5,20.9
		c22,37.8,75,56.6,116.9,44.2c42.7-12.7,74-51.5,75.4-93.5C500.9,348.8,476.3,310.1,431.1,294.3z M438.1,419.8
		c-14.6,0-26.4-11.8-26.4-26.4s11.8-26.4,26.4-26.4s26.4,11.8,26.4,26.4S452.6,419.8,438.1,419.8z"/>
	<path d="M274.2,94.5c0-21.4-17.4-38.8-38.8-38.8s-38.8,17.4-38.8,38.8c0,13.6,7,25.5,17.6,32.5v68.5h42.6v-68.6
		C267.2,119.9,274.2,108,274.2,94.5z"/>
</g>
</svg>
