<?xml version="1.0" encoding="utf-8"?>
<!-- Generated by IcoMoon.io -->
<!DOCTYPE svg PUBLIC "-//W3C//DTD SVG 1.1//EN" "http://www.w3.org/Graphics/SVG/1.1/DTD/svg11.dtd">
<svg version="1.1" xmlns="http://www.w3.org/2000/svg" xmlns:xlink="http://www.w3.org/1999/xlink" width="429" height="500" viewBox="0 0 429 500">
<path fill="#000" d="M285.714 250q0-29.576-20.926-50.502t-50.502-20.926-50.502 20.926-20.926 50.502 20.926 50.502 50.502 20.926 50.502-20.926 20.926-50.502zM324.219 250q0 45.759-32.087 77.846t-77.846 32.087-77.846-32.087-32.087-77.846 32.087-77.846 77.846-32.087 77.846 32.087 32.087 77.846zM354.353 135.603q0 10.603-7.534 18.136t-18.136 7.534-18.136-7.534-7.534-18.136 7.534-18.136 18.136-7.534 18.136 7.534 7.534 18.136zM214.286 74.219q-1.953 0-21.345-0.14t-29.437 0-26.925 0.837-28.739 2.79-19.95 5.162q-13.951 5.581-24.554 16.183t-16.183 24.554q-3.069 8.091-5.162 19.95t-2.79 28.739-0.837 26.925 0 29.437 0.14 21.345-0.14 21.345 0 29.437 0.837 26.925 2.79 28.739 5.162 19.95q5.581 13.951 16.183 24.554t24.554 16.183q8.091 3.069 19.95 5.162t28.739 2.79 26.925 0.837 29.437 0 21.345-0.14 21.345 0.14 29.437 0 26.925-0.837 28.739-2.79 19.95-5.162q13.951-5.581 24.554-16.183t16.183-24.554q3.069-8.091 5.162-19.95t2.79-28.739 0.837-26.925 0-29.437-0.14-21.345 0.14-21.345 0-29.437-0.837-26.925-2.79-28.739-5.162-19.95q-5.581-13.951-16.183-24.554t-24.554-16.183q-8.091-3.069-19.95-5.162t-28.739-2.79-26.925-0.837-29.437 0-21.345 0.14zM428.571 250q0 63.895-1.395 88.449-2.79 58.036-34.598 89.844t-89.844 34.598q-24.554 1.395-88.449 1.395t-88.449-1.395q-58.036-2.79-89.844-34.598t-34.598-89.844q-1.395-24.554-1.395-88.449t1.395-88.449q2.79-58.036 34.598-89.844t89.844-34.598q24.554-1.395 88.449-1.395t88.449 1.395q58.036 2.79 89.844 34.598t34.598 89.844q1.395 24.554 1.395 88.449z"></path>
</svg>
