<?xml version="1.0" encoding="utf-8"?>
<!-- Generator: Adobe Illustrator 19.0.0, SVG Export Plug-In . SVG Version: 6.00 Build 0)  -->
<svg version="1.1" id="Layer_1" xmlns="http://www.w3.org/2000/svg" xmlns:xlink="http://www.w3.org/1999/xlink" x="0px" y="0px"
	 width="560px" height="560px" viewBox="374 117 560 560" style="enable-background:new 374 117 560 560;" xml:space="preserve">
<g id="KeyNotInVehicle">
	<path d="M856.3,400c-47.5-16.7-105.2-1-134.3,40.4c-10.6,15.1-10.9,17.8-26.3,17.7c-81.3-0.2-291.6-0.8-291.6-0.8l-29.8,37.9
		c0,0,37.5,36.4,57.5,55.8c9.7-8.7,18.5-16.6,27.7-24.8c12.3,9.3,24,18.1,36.1,27.2c10.8-9.9,20.3-18.6,31-28.4
		c5.9,4.5,12.1,9.1,17.2,13c10.8-4.5,25.8-16.5,25.8-16.5l20.6,16l23.6-16.6l30.7,30.1l48.7,0.2c21.1,0,15,7.7,24.1,23.4
		c24.6,42.3,84,63.4,130.9,49.5c47.8-14.2,82.9-57.7,84.4-104.7C934.4,461.1,906.9,417.8,856.3,400z M864.1,540.6
		c-16.4,0-29.6-13.2-29.6-29.6c0-16.4,13.2-29.6,29.6-29.6s29.6,13.2,29.6,29.6C893.6,527.4,880.4,540.6,864.1,540.6z"/>
	<path d="M676.8,405h-46.3c-0.3,0-0.7-0.3-0.7-0.7V358c0-0.3,0.3-0.7,0.7-0.7h46.3c0.3,0,0.7,0.3,0.7,0.7v46.3
		C677.4,404.6,677.2,405,676.8,405z"/>
	<path d="M581,242.1h25.6c0,0,8.6,0.3,9.1-6.4c0.3-6.8,1.9-31.2,35.8-31.2c0,0,20.4-2.2,33.6,11.3c13.2,13.6,4.1,30.9,4.1,30.9
		s-3.4,7.2-20.4,19.3C652,278.1,630,297.2,630,311.2s0,33.6,0,33.6h47.5v-17.5c0,0-1.5-12,9.4-19.5c11-7.5,33.2-26,43.3-38.4
		c10.2-12.4,8.6-44.1,8.6-44.1s-5.3-44.5-47.8-54.7s-60.4-3-78.7,3s-44.9,33.9-44.9,47.8S570.3,242.1,581,242.1z"/>
</g>
</svg>
