<?xml version="1.0" encoding="utf-8"?>
<!-- Generator: Adobe Illustrator 18.1.1, SVG Export Plug-In . SVG Version: 6.00 Build 0)  -->
<svg version="1.1" id="Layer_1" xmlns="http://www.w3.org/2000/svg" xmlns:xlink="http://www.w3.org/1999/xlink" x="0px" y="0px"
	 viewBox="0 0 500 500" enable-background="new 0 0 500 500" xml:space="preserve">
<g id="LaneAssist">
	<polygon points="346.8,129.6 377.8,129.6 500,371.1 447.2,371.1 	"/>
	<path d="M235.7,369.4c0-23.3,0-45.7,0-69.3c9.6,0,17.9,0,27.9,0c0,22.8,0,45.2,0,69.3C254.5,369.4,245.6,369.4,235.7,369.4z"/>
	<path d="M236,208.9c9.6,0,17.3,0,27,0c0,16.8,0,33.4,0,51.1c-9.1,0-17.3,0-27,0C236,243.4,236,227.4,236,208.9z"/>
	<path d="M235.6,169.4c0-14.4,0-26.8,0-40.4c9.4,0,17.7,0,27.7,0c0,13.2,0,26.1,0,40.4C254.3,169.4,246,169.4,235.6,169.4z"/>
	<polygon points="153.3,129.6 122.3,129.6 0.1,371.1 52.9,371.1 	"/>
</g>
</svg>
