<?xml version="1.0" encoding="utf-8"?>
<!-- Generated by IcoMoon.io -->
<!DOCTYPE svg PUBLIC "-//W3C//DTD SVG 1.1//EN" "http://www.w3.org/Graphics/SVG/1.1/DTD/svg11.dtd">
<svg version="1.1" xmlns="http://www.w3.org/2000/svg" xmlns:xlink="http://www.w3.org/1999/xlink" width="500" height="500" viewBox="0 0 500 500">
<path fill="#000000" d="M187.5 187.5h86.478v44.327h1.236c12.031-21.579 41.483-44.327 85.372-44.327 91.282 0 108.164 56.824 108.164 130.729v150.521h-90.142v-133.437c0-31.828-0.651-72.767-46.889-72.767-46.947 0-54.111 34.661-54.111 70.455v135.748h-90.108v-281.25z"></path>
<path fill="#000000" d="M31.25 187.5h93.75v281.25h-93.75v-281.25z"></path>
<path fill="#000000" d="M125 109.375c0 25.888-20.987 46.875-46.875 46.875s-46.875-20.987-46.875-46.875c0-25.888 20.987-46.875 46.875-46.875s46.875 20.987 46.875 46.875z"></path>
</svg>
