<?xml version="1.0" encoding="utf-8"?>
<!-- Generator: Adobe Illustrator 18.1.1, SVG Export Plug-In . SVG Version: 6.00 Build 0)  -->
<svg version="1.1" id="Layer_1" xmlns="http://www.w3.org/2000/svg" xmlns:xlink="http://www.w3.org/1999/xlink" x="0px" y="0px"
	 viewBox="56 146 500 500" enable-background="new 56 146 500 500" xml:space="preserve">
<path d="M57,347.6c0-22.6,2.1-24.7,24.9-24.7c80.6,0,161.1-0.2,241.7,0.2c11.2,0.1,14.6-3.2,14.3-14.3l-0.1-76.1
	c0.2-13.8,10-19.1,20.6-10.6l189.4,161.2c9.9,8,9.2,16.3,1.2,23.8c-14.7,13.9-168.2,145.3-190.5,163c-10.6,8.4-20.3,3.1-20.6-10.6
	l0.1-76.1c0.3-11.2-3.1-14.4-14.3-14.3c-80.6,0.5-161.1,0.2-241.7,0.2c-22.8,0-24.9-2.1-24.9-24.7V347.6z"/>
</svg>
