<?xml version="1.0" encoding="utf-8"?>
<!-- Generated by IcoMoon.io -->
<!DOCTYPE svg PUBLIC "-//W3C//DTD SVG 1.1//EN" "http://www.w3.org/Graphics/SVG/1.1/DTD/svg11.dtd">
<svg version="1.1" xmlns="http://www.w3.org/2000/svg" xmlns:xlink="http://www.w3.org/1999/xlink" width="500" height="500" viewBox="0 0 500 500">
<path fill="#000000" d="M243.75 0c-100 0-181.25 81.25-181.25 181.25 0 29.167 7.292 56.25 18.75 80.208l162.5 238.542 162.5-238.542c11.458-23.958 18.75-51.042 18.75-80.208 0-100-81.25-181.25-181.25-181.25zM245.833 275v0c-1.042 1.042-1.042 0-2.083 0s-1.042 0-2.083 0v-1.042c-41.667-3.125-75-37.5-75-80.208s33.333-77.083 75-80.208v-1.042c1.042 0 1.042 0 2.083 0s1.042 0 2.083 0v1.042c41.667 3.125 75 37.5 75 80.208s-32.292 77.083-75 81.25z"></path>
</svg>
