<?xml version="1.0" encoding="utf-8"?>
<!-- Generator: Adobe Illustrator 19.0.0, SVG Export Plug-In . SVG Version: 6.00 Build 0)  -->
<svg version="1.1" id="Layer_1" xmlns="http://www.w3.org/2000/svg" xmlns:xlink="http://www.w3.org/1999/xlink" x="0px" y="0px"
	 width="560px" height="560px" viewBox="374 117 560 560" style="enable-background:new 374 117 560 560;" xml:space="preserve">
<g id="LowFuelLevel">
	<g>
		<path d="M887.2,301.8c-0.6-6,1.3-14.9,5.5-18.4c18.7-15.8,17.5-35.1,5.3-50.8c-24.3-31.6-45.8-62.8-77.8-86.4
			c-18.2-13.3-31.1-19.6-54.4-25.2c0,15,0,23.7,0,26.1c26,11.9,45.1,23.2,54.8,39.8c16,27.4,25,40.9,31,72.1
			c8.8,45.2,12.3,110.2,16.2,156.2c3.5,40.5,6.5,81.4,5.7,122c-0.2,10.3-13.4,25.5-24,29.6c-35.1,13.1-60.5-5.9-61.4-44.6
			c-1.1-44.7,0-89.4-0.2-134.1c-0.2-31.2-16.7-50.4-47.6-56.3c-6-1.1-11.9-3-18.7-4.8c0-53.3,0-124.1,0-176.1
			c0-16-9.6-31.5-25.6-31.5c-64.7,0-173.9-0.6-238.7-0.6c-19.6,0-31.6,5.4-31.6,37c0,114.9,0,247.2,0,362.2c0,33.6,0,68.4,0,102.7
			l-25.8-0.2c0,18.1,0,38.8,0,54.8c116.9,0,232.2,0,348,0c0-18.1,0-36.8,0-54.3l-25.2-0.1c0-87.4,0-172.9,0-260.2
			c27.8,2.5,36.8,17.7,36.8,40.7c0,42-0.1,83.9,0.1,125.9c0,9.1-0.4,18.6,2,27.1c9.7,33.2,42.6,50.6,85.1,46.4
			c36.7-3.6,54.4-21.3,58.1-59.6c1.3-14.4,1.8-29.2,0.4-43.7C899.7,432.3,892.9,367.1,887.2,301.8z M687,620.8
			c-75.4,0-149.9,0-226.8,0c0-155.2,0-310.6,0-468.5c76.2,0,150.6,0,226.8,0C687,308.4,687,463.9,687,620.8z"/>
		<path d="M477.7,342h191c1.7,0,3.1-1.3,3.1-3.1v-20.7c0-1.7-1.3-3.1-3.1-3.1h-191c-1.7,0-3.1,1.3-3.1,3.1v20.7
			C474.7,340.7,476,342,477.7,342z"/>
	</g>
</g>
</svg>
