<?xml version="1.0" encoding="utf-8"?>
<!-- Generator: Adobe Illustrator 19.1.0, SVG Export Plug-In . SVG Version: 6.00 Build 0)  -->
<svg version="1.1" id="Layer_1" xmlns="http://www.w3.org/2000/svg" xmlns:xlink="http://www.w3.org/1999/xlink" x="0px" y="0px"
	 width="500px" height="500px" viewBox="0 0 500 500" enable-background="new 0 0 500 500" xml:space="preserve">
<g>
	<g>
		<path fill="#7F7F7F" d="M251.6,0h-15.6C188.3,4.1,151,44.6,151,93.4v133.8c0,51.9,41.5,94.4,93.4,94.4s93.4-42.5,93.4-94.4V93.4
			C337.7,44.6,299.3,4.1,251.6,0z M322.2,227.2c0,43.6-35.3,78.8-77.8,78.8s-77.8-35.3-77.8-78.8V93.4c0-43.6,35.3-78.8,77.8-78.8
			s77.8,35.3,77.8,78.8V227.2z"/>
	</g>
	<path fill="#7F7F7F" d="M243.3,79.9c-7.3,0-12.4,5.2-12.4,12.4v32.2c0,7.3,5.2,12.4,12.4,12.4s12.4-5.2,12.4-12.4V92.3
		C255.8,86.1,250.6,79.9,243.3,79.9z"/>
	<polygon fill="#E2872A" points="244.4,485.5 208.1,449.2 200.8,456.4 244.4,500 287.9,456.4 280.7,449.2 	"/>
	<polygon fill="#E2872A" points="244.4,423.2 208.1,386.9 200.8,394.2 244.4,437.8 287.9,394.2 280.7,386.9 	"/>
</g>
</svg>
