<?xml version="1.0" encoding="utf-8"?>
<!-- Generated by IcoMoon.io -->
<!DOCTYPE svg PUBLIC "-//W3C//DTD SVG 1.1//EN" "http://www.w3.org/Graphics/SVG/1.1/DTD/svg11.dtd">
<svg version="1.1" xmlns="http://www.w3.org/2000/svg" xmlns:xlink="http://www.w3.org/1999/xlink" width="357" height="500" viewBox="0 0 357 500">
<path fill="#000" d="M0 166.574q0-30.134 10.463-56.78t28.878-46.457 42.411-34.319 51.618-21.763 56.362-7.254q44.085 0 82.031 18.555t61.663 53.99 23.716 80.078q0 26.786-5.301 52.456t-16.741 49.386-27.902 41.713-40.458 28.739-52.734 10.742q-18.973 0-37.667-8.929t-26.786-24.554q-2.79 10.882-7.813 31.39t-6.557 26.507-5.72 19.81-7.254 19.81-8.929 17.438-12.835 21.624-17.299 24.135l-3.906 1.395-2.511-2.79q-4.185-43.806-4.185-52.456 0-25.669 5.999-57.617t18.555-80.218 14.509-56.641q-8.929-18.136-8.929-47.154 0-23.159 14.509-43.527t36.831-20.368q17.020 0 26.507 11.3t9.487 28.599q0 18.415-12.277 53.292t-12.277 52.176q0 17.578 12.556 29.157t30.413 11.579q15.346 0 28.46-6.976t21.903-18.973 15.625-26.507 10.603-30.832 5.581-30.971 1.813-27.762q0-48.27-30.552-75.195t-79.66-26.925q-55.804 0-93.192 36.133t-37.388 91.657q0 12.277 3.488 23.716t7.534 18.136 7.534 12.695 3.488 8.51q0 7.813-4.185 20.368t-10.324 12.556q-0.558 0-4.743-0.837-14.23-4.185-25.251-15.625t-17.020-26.367-9.068-30.134-3.069-29.715z"></path>
</svg>
