<?xml version="1.0" encoding="utf-8"?>
<!-- Generator: Adobe Illustrator 19.0.0, SVG Export Plug-In . SVG Version: 6.00 Build 0)  -->
<svg version="1.1" id="Layer_1" xmlns="http://www.w3.org/2000/svg" xmlns:xlink="http://www.w3.org/1999/xlink" x="0px" y="0px"
	 width="560px" height="560px" viewBox="374 117 560 560" style="enable-background:new 374 117 560 560;" xml:space="preserve">
<g id="PreddClutchPedal">
	<path d="M653.9,124.8c160.5,0.4,277.5,116.9,276.9,275.9c-0.6,153.7-125.2,268.9-290.2,268.5C503.5,668.7,377.1,541,376,401.9
		C374.9,245.2,496.1,124.5,653.9,124.8z M647.6,621.2c127.5,4.6,231.5-94.5,237.7-226.7c5.3-111.8-103.2-221-224-225.7
		c-120-4.6-233.3,98.5-237.3,215.9C419.6,510.2,520.2,616.6,647.6,621.2z"/>
	<path d="M848.9,450.3c-24.9,29.6-53.1,63.4-87,103.6l-79.4-67.2c-17.5-15.3-21.3-11.3,0-37.5c-18.1-8.3-44.1-11.1-72.7-31.9
		c-12.7-9.2-113-96-134.4-112.4c32.9-47.6,48-49.5,96.3-25c47.4,24,70,31.4,150.8,46.3c12.5,2.4,31.9,4.4,34.7,15.8
		c9.3,38.4,46.3,72.8,88.7,90.7C853.5,435.9,855.5,442.9,848.9,450.3z"/>
</g>
</svg>
