<?xml version="1.0" encoding="utf-8"?>
<!-- Generator: Adobe Illustrator 19.0.0, SVG Export Plug-In . SVG Version: 6.00 Build 0)  -->
<svg version="1.1" id="Layer_1" xmlns="http://www.w3.org/2000/svg" xmlns:xlink="http://www.w3.org/1999/xlink" x="0px" y="0px"
	 width="560px" height="560px" viewBox="374 117 560 560" style="enable-background:new 374 117 560 560;" xml:space="preserve">
<g id="RainAndLightSensor">
	<g>
		<path d="M720.8,539.9c-105.4,0-208.4,0-312.5,0c-2.6-67.8,8.8-130.9,35.3-190.7C485,255.4,552.4,231.6,644,276.8
			c6.2-5.4,12.7-11,20.7-18.1c-58.3-55.2-159.8-48.7-211.1,12.9c-72.8,87.4-79.5,192.4-78,299.3c128.9,0,379.9,0,379.9,0V506
			l-34.5-0.3C721,505.6,721.3,529.8,720.8,539.9z"/>
		<path d="M808.9,255.3c-32.3-3.9-36.8-2.8-54.5-1.3c-15.6,1.2-27.4,9.2-32.1,25.6c-15.8,55.1-18.6,110.4-2.7,166.1
			c5.5,19,18.6,29.5,38.5,32c44.5,5.7,88.5-3.4,123.6-28.2c25.4-17.9,52.2-49.1,51.7-83.1C933.4,366.3,937,270.8,808.9,255.3z
			 M912.3,366.3c0.8,45.1-66.4,86.2-123,91.4c-30.7,2.8-45.8-4.6-53.6-34.2c-9.2-34.7-9.2-70-1.1-104.4c11-46.6,9.7-44.1,26.4-45.5
			c0,0,21.8,0,29,0.6C914,283.5,912.3,366.3,912.3,366.3z"/>
		<path d="M694.9,287.9l-126.6,38.6c-5.8-1.6-12.1-2.4-18.8-2.4c-70.8,0-93.5,83.2-93.5,185.9h187.2c0-1.6,0-3.1,0-4.6l75.2-23
			c-7.7-5.6-13.3-14-16.8-25.3l-59.4,18.1c-0.6-9.5-1.5-18.7-2.6-27.7l55.3-16.9c-2-9.6-3.5-19.4-4.6-29l-55.7,17
			c-2.1-9.6-4.6-18.8-7.6-27.3l61-18.6c-0.3-10.2-0.2-20.4,0.3-30.6l-73.5,22.4c-3.9-6.7-8.3-12.7-13.1-17.9l88.5-27
			C691.3,309.2,692.9,298.6,694.9,287.9z"/>
	</g>
</g>
</svg>
