<?xml version="1.0" encoding="utf-8"?>
<!-- Generator: Adobe Illustrator 19.0.0, SVG Export Plug-In . SVG Version: 6.00 Build 0)  -->
<svg version="1.1" id="Layer_1" xmlns="http://www.w3.org/2000/svg" xmlns:xlink="http://www.w3.org/1999/xlink" x="0px" y="0px"
	 width="560px" height="560px" viewBox="374 117 560 560" style="enable-background:new 374 117 560 560;" xml:space="preserve">
<g id="RearSpoiler">
	<path d="M375.5,319.2c30.5,0,50.7-0.7,88.8-0.7c40.4,0,69,12.3,94.8,39.4c11,11.5,21.3,24.9,34.5,33.2
		c16.7,10.4,39.2,13.8,58.2,16.9c31,5.2,46.5,18.5,46.6,49.8c0.1,21.1,0.1,56.2,0.1,77.2c-0.1,37.7-5.5,43.5-42.6,51.2
		c-8.3,1.7-19.3,6.8-22.6,13.6c-23.6,46.7-49.2,59-89,55.3c-37.7-3.5-56.4-21.2-70.4-68.8c-11.6,0-87,0-98.7,0l0.2-35.3
		c25,0,113.6,0,138.5,0c4.7,50,15.9,66.6,41.2,66.8c34.4,0.9,39.9-37,40.4-66.1c71.3-2.7,65-14,64.7-82.9c0-7.7-6.9-18.8-17.9-20.3
		c-38.4-5.3-69-14.8-92-42c-29.5-34.8-49.6-47.8-111.9-47.8H375L375.5,319.2z"/>
	<path d="M652.1,380.5c0,0,34.9,2.6,48.2,18.4c13.1,15.8,16.1,27.4,19.2,35.4c3,7.8,15,0,15,0l78.2-59c0,0,14-10.2,7.5-23.3
		c-5.6-11.3-26.5-5.2-26.5-5.2l-133,23.2C660.7,370,640.4,376.1,652.1,380.5z"/>
	<polygon points="773.7,309.1 743.8,226 695,249.3 734.1,138.3 844.2,177.9 796.1,200.4 837.8,287.7 	"/>
	<polygon points="810,428.4 820.5,516.1 766.4,517.1 851.1,598.8 931.9,514 878.7,515.4 876.9,418.7 	"/>
</g>
</svg>
