<?xml version="1.0" encoding="utf-8"?>
<!-- Generator: Adobe Illustrator 19.0.0, SVG Export Plug-In . SVG Version: 6.00 Build 0)  -->
<svg version="1.1" id="Layer_1" xmlns="http://www.w3.org/2000/svg" xmlns:xlink="http://www.w3.org/1999/xlink" x="0px" y="0px"
	 width="560px" height="560px" viewBox="374 117 560 560" style="enable-background:new 374 117 560 560;" xml:space="preserve">
<g id="RearFogLights">
	<g>
		<path d="M609.6,157.1c-6.2-17.1-15.8-22-31.8-16.7c-57.5,19-106.7,50.4-141.1,100.9c-90.3,132.5-51.9,344.5,132.2,413.2
			c23.6,8.8,35.1,4.7,43.7-20c26.3-75.4,35.6-152.8,34.6-213.9C647.8,318.7,638.1,236.5,609.6,157.1z M580.3,620.7
			c-92.5-27.9-153.4-116.4-155.8-219.1c-2.6-111.3,64.3-199.4,152-223.2C621.7,254.8,633.6,493.3,580.3,620.7z"/>
		<path d="M812.6,286.7h104.5v-33.9h-88.4l2.7-5.7c0,0,11.3-22,11.3-34.6c0-12.6-7.1-27.6-7.1-27.6l-32.4-67.2h-36.1l37.9,76.4
			c0,0,3.9,13.4,3.9,20.5c0,7.1-3.9,14.9-3.9,14.9s-5,10.8-10.9,23.3h-97.7v33.9h81.9c-0.8,1.7-1.5,3.2-2,4.3
			c-4.9,10.6-9.2,29-9.2,45.2s8.5,33.3,8.5,33.3l5.7,12.8h-84.9V416h100l2.6,5.7c0,0,11.3,18.4,11.3,36.1s-5.3,29.7-5.3,29.7
			l-10,19.8h-98.6v33.9h82.2c-3.8,9.5-9.4,25-9.4,34.6c0,14.9,8.7,36.1,8.7,36.1l27,64.4h37.9L813,614.1c0,0-8.2-22-8.2-37.5
			s7.4-31.8,7.4-31.8l1.8-3.6h103v-33.9h-86.2c2.7-7.6,12-34.7,12-51.6c0-12.4-5.8-28.9-10.2-39.6H917V382H816.4
			c-8.1-17.4-17.5-39.8-17.5-50.2c0-18.4,9.9-37.5,9.9-37.5L812.6,286.7z"/>
	</g>
</g>
</svg>
