<?xml version="1.0" encoding="utf-8"?>
<!-- Generator: Adobe Illustrator 18.1.1, SVG Export Plug-In . SVG Version: 6.00 Build 0)  -->
<svg version="1.1" id="Layer_1" xmlns="http://www.w3.org/2000/svg" xmlns:xlink="http://www.w3.org/1999/xlink" x="0px" y="0px"
	 viewBox="0 0 500 500" enable-background="new 0 0 500 500" xml:space="preserve">
<g id="SeatBeltBuckles">
	<path d="M225.4,498.8c-10.7,1-36.5,2.4-38.4-0.6c-4.5-7-8.8-13.8-12.4-25c-11.2-34.7-24.7-68.6-38.4-105.8
		c-23.3,16.1-46.6,32.2-70.5,48.8c-5.7-4.8-12.4-10.4-21.5-18c29.9-35.3,59.1-69.6,91-107.3c-0.3,14.6-1.1,25.7,1.7,41.2
		C149,319.8,160,310,167.7,301c41.8-48.5,83.2-97.4,125.1-145.9c15.5-17.9,22.2-25.3,32.8,3.9c12.4,34.1,18.8,59.6,26.9,101.6
		c4.5,23.2,6.3,50.6,4.8,78.3c-23.8-7.8-43.2-15.2-64-18.2c-61.6-8.9-97.9-0.9-146.5,9.4c-11.7,2.5-11.3-0.4-8.7,35.5
		c9.1-2.6,24.3-6.9,33.8-9.6c56.1-15.9,109.2-8.8,163.2,13.3c27.2,11.1,17.5-4.5,26.7-25.2c32.9,14.1,62.3,31.8,95,52.8
		c-6.7,10.1-11.7,17.7-16.8,25.5c-30-16.2-58.5-31.6-86.6-46.8c-13.1,34.8-24.5,66.4-37,97.5c-5.3,13.2-6.9,19.1-10.4,24.3
		c-2.7,4.1-18.6,1.9-39.3,2c8.6-25.1,16.9-49.9,25.6-74.6c10.4-29.5,4.6-38.3-25.7-38.4c-16.2-0.1-32.5-0.3-48.7,0.1
		c-22,0.4-28.5,10-21.2,31.4C205.9,444.6,215.6,471.3,225.4,498.8z"/>
	<path d="M277.3,129.6c-38.3,43.3-76.6,86.6-114.9,129.9c-5.3,5.9-10.9,11.5-16.3,17.3c-2.5-0.7-5.1-1.3-7.6-2
		c3.9-24.9,7.3-49.9,11.8-74.6c6.7-36.1,22.9-63.3,63.1-71.2c17-3.4,12.6-15.6,3.6-25.8c-17.8-20.1-25.4-42.7-14.5-68.5
		c7.7-18.3,19.2-32.9,41.7-33.5c23.4-0.6,36.9,12.2,44.3,32.6c9.2,25.5,5.3,49-13.3,69.5c-9.1,9.9-12.5,19.5,2.7,27.1L277.3,129.6z"
		/>
	<path d="M277.8,130.2c23.3-29.5,46.5-59,69.5-88.1c28.9,14.2,29.3,15.9,10,38.4c-16.6,19.4-33.4,38.7-48.7,56.4
		c-11.9-2.8-21.6-5.1-31.4-7.4C277.3,129.6,277.8,130.2,277.8,130.2z"/>
</g>
</svg>
