<?xml version="1.0" encoding="utf-8"?>
<!-- Generated by IcoMoon.io -->
<!DOCTYPE svg PUBLIC "-//W3C//DTD SVG 1.1//EN" "http://www.w3.org/Graphics/SVG/1.1/DTD/svg11.dtd">
<svg version="1.1" xmlns="http://www.w3.org/2000/svg" xmlns:xlink="http://www.w3.org/1999/xlink" width="500" height="500" viewBox="0 0 500 500">
<path fill="#000000" d="M500 416.667c0 45.833-37.5 83.333-83.333 83.333s-83.333-37.5-83.333-83.333c0-6.25 1.042-11.458 2.083-17.708l-189.583-94.792c-15.625 17.708-37.5 29.167-62.5 29.167-45.833 0-83.333-37.5-83.333-83.333s37.5-83.333 83.333-83.333c25 0 46.875 11.458 62.5 29.167l189.583-94.792c-1.042-6.25-2.083-11.458-2.083-17.708 0-45.833 37.5-83.333 83.333-83.333s83.333 37.5 83.333 83.333-37.5 83.333-83.333 83.333c-25 0-46.875-11.458-62.5-29.167l-189.583 94.792c1.042 5.208 2.083 11.458 2.083 17.708s-1.042 11.458-2.083 17.708l189.583 94.792c15.625-17.708 37.5-29.167 62.5-29.167 45.833 0 83.333 37.5 83.333 83.333z"></path>
</svg>
