<?xml version="1.0" encoding="utf-8"?>
<!-- Generator: Adobe Illustrator 18.1.1, SVG Export Plug-In . SVG Version: 6.00 Build 0)  -->
<svg version="1.1" id="Layer_1" xmlns="http://www.w3.org/2000/svg" xmlns:xlink="http://www.w3.org/1999/xlink" x="0px" y="0px"
	 viewBox="0 0 500 500" enable-background="new 0 0 500 500" xml:space="preserve">
<g id="SteeringLock">
	<path d="M238.9,0.3c-94.7,0-171.5,76.8-171.5,171.5s76.8,171.5,171.5,171.5s171.5-76.8,171.5-171.5S333.6,0.3,238.9,0.3z
		 M238.9,33.3c57.4,0,106.7,35,127.7,84.8H214.3h-59l0,0h-44.1C132.2,68.2,181.4,33.3,238.9,33.3z M238.9,137
		c28.5,0,51.6,23.1,51.6,51.6s-23.1,51.6-51.6,51.6s-51.6-23.1-51.6-51.6C187.3,160.1,210.4,137,238.9,137z M100.4,169.4h39.2
		c0,0.8-0.1,1.6-0.1,2.4c0,15.4,3.5,30,9.8,43l-29.7,27.3c-12.2-20.6-19.2-44.7-19.2-70.4C100.3,171,100.4,170.2,100.4,169.4z
		 M155.1,282.1l28.1-28c15.9,10.8,35.1,17.1,55.7,17.1s39.8-6.3,55.7-17.1l28.1,28c-23.3,17.7-52.3,28.3-83.8,28.3
		S178.3,299.8,155.1,282.1z M358.2,242.2l-29.7-27.3c6.3-13,9.8-27.6,9.8-43c0-0.8-0.1-1.6-0.1-2.4h39.2c0,0.8,0.1,1.6,0.1,2.4
		C377.4,197.5,370.4,221.6,358.2,242.2z"/>
	<circle cx="238.9" cy="188.6" r="44.1"/>
	<path d="M382,351.1c-30.8-10.8-68.3-0.7-87.2,26.3c-6.9,9.8-7,11.6-17.1,11.5c-52.8-0.1-189.4-0.5-189.4-0.5L68.8,413
		c0,0,24.4,23.7,37.3,36.2c6.3-5.7,12-10.7,18-16.1c8,6,15.6,11.8,23.4,17.7c7-6.4,13.2-12.1,20.2-18.5c3.9,2.9,7.8,5.9,11.2,8.5
		c7-2.9,16.7-10.7,16.7-10.7l13.4,10.4l15.3-10.8l19.9,19.6l31.7,0.2c13.7,0,9.7,5.1,15.6,15.2c16,27.5,54.6,41.2,85,32.2
		c31.1-9.2,53.9-37.5,54.9-68C432.8,390.8,414.9,362.7,382,351.1z M387.1,442.5c-10.6,0-19.2-8.6-19.2-19.2s8.6-19.2,19.2-19.2
		s19.2,8.6,19.2,19.2S397.7,442.5,387.1,442.5z"/>
</g>
</svg>
