<?xml version="1.0" encoding="utf-8"?>
<!-- Generated by IcoMoon.io -->
<!DOCTYPE svg PUBLIC "-//W3C//DTD SVG 1.1//EN" "http://www.w3.org/Graphics/SVG/1.1/DTD/svg11.dtd">
<svg version="1.1" xmlns="http://www.w3.org/2000/svg" xmlns:xlink="http://www.w3.org/1999/xlink" width="500" height="500" viewBox="0 0 500 500">
<path fill="#000000" d="M468.813 114.275c-16.102 7.142-33.407 11.969-51.567 14.138 18.535-11.111 32.772-28.707 39.477-49.673-17.35 10.289-36.562 17.761-57.017 21.787-16.377-17.449-39.709-28.352-65.534-28.352-49.581 0-89.784 40.198-89.784 89.781 0 7.036 0.795 13.892 2.327 20.46-74.617-3.744-140.777-39.49-185.059-93.808-7.729 13.26-12.156 28.681-12.156 45.137 0 31.148 15.849 58.631 39.941 74.73-14.716-0.466-28.563-4.503-40.667-11.23-0.009 0.376-0.009 0.752-0.009 1.129 0 43.501 30.95 79.788 72.021 88.037-7.532 2.053-15.464 3.151-23.652 3.151-5.784 0-11.408-0.564-16.891-1.609 11.424 35.665 44.583 61.628 83.871 62.35-30.728 24.082-69.44 38.437-111.507 38.437-7.246 0-14.395-0.428-21.418-1.259 39.732 25.477 86.926 40.343 137.63 40.343 165.146 0 255.455-136.813 255.455-255.457 0-3.891-0.088-7.763-0.26-11.616 17.541-12.659 32.762-28.471 44.799-46.476z"></path>
</svg>
