<?xml version="1.0" encoding="utf-8"?>
<!-- Generator: Adobe Illustrator 19.0.0, SVG Export Plug-In . SVG Version: 6.00 Build 0)  -->
<svg version="1.1" id="Layer_1" xmlns="http://www.w3.org/2000/svg" xmlns:xlink="http://www.w3.org/1999/xlink" x="0px" y="0px"
	 width="560px" height="560px" viewBox="374 117 560 560" style="enable-background:new 374 117 560 560;" xml:space="preserve">
<g id="TyrePressureMonitoring">
	<path d="M606.1,619.5c-4.6,32.7-6.9,34.5-42.9,34c-17.2-0.2-26.4-7.6-27.2-22.3c-0.2-3.7,0-7.5,0-11.9c-5.2,0-9.4,0-14,0
		c-0.4,5.3-0.6,10.3-1.3,15.2c-1.9,11.2-9.2,18.1-20.5,18.8c-8.8,0.6-17.9,1.3-26.4-0.3c-6.3-1.2-14.2-4.7-17.2-9.7
		c-37.6-62.2-68-127.2-78.1-199.9c-9.1-65.9,0.9-128.5,33.9-186.8c3.4-5.9,5-13.6,5.3-20.5c0.7-18,0.1-36.2,0.1-54.2
		c0-24.3,16.1-41.7,39.3-42c22.7-0.3,39.1,17.1,40.5,41.1c1.5,23.3-3.7,42.1-19.8,61.2c-46.9,55.4-64.2,120.5-55.1,192.9
		c8.4,66.8,47.9,106.4,109.1,127.6c23.5,8.2,47.9,11.2,72.8,11c41.1-0.4,82.3,1.3,123.3-1.5c52.4-3.6,98-23.7,131.2-66.6
		c15.7-20.4,22.8-44,26.2-69.2c10.5-77.1-11-144.5-61.5-202.8c-9.3-10.8-14.7-21.5-13.1-35.8c0.8-6.8-0.1-13.9,0.3-20.8
		c1.3-20.8,18.7-36.7,39.9-36.8c20.6-0.1,38.4,15.5,39.5,36c1,19.8-0.1,39.9,0.8,59.8c0.3,7.8,2.1,16.5,5.9,23.2
		c37.1,66.5,43.7,137.1,28.3,210.4c-13,61.9-40,118.3-72,172.4c-4.6,7.7-11.3,11.8-20.3,11.9c-7.6,0.1-15.2,0.2-22.7,0
		c-14-0.4-22-8.6-22.7-22.6c-0.7-13-0.7-13-15.6-11.4c0,3.5,0.2,7.2,0,10.9c-0.8,15.1-9.2,23.1-24.2,23.3c-6.3,0.1-12.7,0-18.9-0.1
		c-16.8-0.3-24.8-8.2-25.3-25.2c-0.1-2.8,0-5.6,0-9.1c-4.9,0-9.2,0-14.9,0c0,3.9,0.1,7.8,0,11.8c-0.7,12.8-8.7,21.5-21.3,22.3
		c-8.8,0.6-17.7,0.6-26.5,0c-12.3-0.8-20.4-10-20.9-22.7C619.2,617.9,619.2,617.9,606.1,619.5z"/>
	<path d="M694.3,294.1c0,28.1,0.2,56.3,0,84.4c-0.1,21.6-14.7,37.6-36.2,40.5c-19,2.6-37.4-10-42.9-29.6c-0.9-3.2-1.2-6.8-1.2-10.3
		c0-56.3,0-112.6,0-168.9c0-23.7,16.2-40.7,39.2-41c23.3-0.3,40.9,16.7,41.1,40.3C694.5,237.8,694.3,266,694.3,294.1z"/>
	<path d="M653.2,530.3c-22.6-0.2-39.6-17.8-39.4-40.8c0.2-21.7,18.3-39.1,40.4-38.9c22.5,0.2,40.4,18.3,40.1,40.4
		C694,513.4,676,530.5,653.2,530.3z"/>
</g>
</svg>
