<?xml version="1.0" encoding="utf-8"?>
<!-- Generator: Adobe Illustrator 19.0.0, SVG Export Plug-In . SVG Version: 6.00 Build 0)  -->
<svg version="1.1" id="WindscreenWasherFluidLevel" xmlns="http://www.w3.org/2000/svg" xmlns:xlink="http://www.w3.org/1999/xlink"
	 x="0px" y="0px" width="560px" height="560px" viewBox="374 117 560 560" style="enable-background:new 374 117 560 560;"
	 xml:space="preserve">
<path d="M553.1,602.4c-44.4,10.3-44.4,10.6-66.8-27.9c-33.2-57.1-100-170.9-100-170.9l-12.4-21.3c0,0,11.2-9.4,19.8-15.1
	c100.5-66.3,210-89.5,329.3-73.7c77.3,10.2,145,40.5,210.1,87.2C900.5,437.1,868.3,493,836,548.8c-1.5,2.6-3.6,4.8-5.2,7.3
	c-34.2,55.8-34.9,59-97.1,42.2c-20.2-5.5-55.9-11.4-80.2-11.1C629.1,587.4,586.9,594.6,553.1,602.4z M818.4,496.7
	c22.3-39.1,40.5-71.1,58.7-102.9c-129.5-89.5-334-82.3-446.3,2.1c18,31,36.2,62.4,56.8,97.7c0,0,3.8,3.2,6.7-1.2
	c3-4.5,12.2-27,13.4-37.4s11.2-10.4,11.2-10.4s8.7,1,8.7,8c0,6.9,2.2,46.4,30.8,45.7s36.3-11.9,37.4-45.7c0.2-7.4,8.7-7.7,12.2-7.7
	s9.2,0.8,10,5.9c0.8,5.2,4.3,47.4,38.2,47.8s34.9-32.7,34.9-45.7c0-9.7,8.4-8.7,10-8.7c1.5,0,12.4-0.4,12.4,7.4S715.8,498,751,498
	s33-45.4,33-45.4s-1-8.2,6.5-8.2s9.4,3.2,9.6,7.4c0.2,4.3,8.7,38.4,14.9,43.9C816.8,498.1,818.4,496.7,818.4,496.7z M529.5,564.1
	c78.7-16.6,156.7-17.7,235.5-4.1c9.9,1.7,25.6-21.5,35.5-35.4c3.5-4.8-2.5-16.2-4.6-26.9c-41,31.1-53,31-93.7,2.7
	c-40.4,28.4-54.3,28.4-97.2,0c-34.9,28.1-51.1,28.1-91.3,0.4c-4.4,4.8-8.8,9.7-13.8,15.2C509.6,531.7,519.3,547.5,529.5,564.1z"/>
<path d="M669.6,594.6c0,15.3,0,30.8,0,47.5c-11,0-20.5,0-32.4,0c0-13.6,0-27.7,0-46.4c11,0,22.2,0,33.4,0
	C670.6,595.6,669.6,594.6,669.6,594.6z"/>
<path d="M636.3,443.3c0-14.2,0-25.8,0-39.1c11.3,0,21.5,0,33.2,0c0,12.7,0,25,0,39.1C658.7,443.3,648.5,443.3,636.3,443.3z"/>
<path d="M636.3,385c0-14.2,0-34,0-47.3c11.3,0,21.5,0,33.2,0c0,12.7,0,33.3,0,47.3C658.7,385,648.5,385,636.3,385z"/>
<path d="M636.3,259.6c0,0,5.5-21.4-8.5-35.4l25.6-23.9l24.5,23.9c0,0-8.5,3-5.6,35.4"/>
<path d="M641.9,187.4l-23.9,25c0,0-7.4-14.6-34.6-22l8.2-34.9C591.6,155.4,627.3,154.7,641.9,187.4z"/>
<path d="M572.4,155.3l-0.6,34.5c0,0-15.3-5.6-40.3,7.4L513.8,166C513.8,165.8,539.5,141.1,572.4,155.3z"/>
<path d="M497.8,179.4l23.9,25c0,0-14.8,6.7-23.5,33.6l-34.6-9.7C463.5,228.1,464.4,192.4,497.8,179.4z"/>
<path d="M663.2,187.4l23.9,25c0,0,7.4-14.6,34.6-22l-8.3-35.1C713.4,155.4,677.6,154.7,663.2,187.4z"/>
<path d="M732.7,155.3l0.6,34.5c0,0,15.3-5.6,40.3,7.4l17.7-31.2C791.3,165.8,765.6,141.1,732.7,155.3z"/>
<path d="M807.3,179.4l-23.9,25c0,0,14.8,6.7,23.5,33.6l34.6-9.7C841.6,228.1,840.7,192.4,807.3,179.4z"/>
</svg>
