<?xml version="1.0" standalone="no"?>
<!DOCTYPE svg PUBLIC "-//W3C//DTD SVG 1.1//EN" "http://www.w3.org/Graphics/SVG/1.1/DTD/svg11.dtd" >
<svg xmlns="http://www.w3.org/2000/svg">
<defs>
  <font id="icons-volkswagen-app" horiz-adv-x="643">
    <font-face font-family="icons-volkswagen-app"
      units-per-em="1001" ascent="1001"
      descent="0" />
    <missing-glyph horiz-adv-x="0" />
    <glyph glyph-name="arrow-down"
      unicode="&#xE001;"
      horiz-adv-x="1548.3093525179856" d="M771.9942446043166 486.0971223021583C936.9071942446042 650.2899280575539 1097.4992805755396 813.7625899280575 1263.1323741007193 972.1942446043166C1283.2964028776978 991.6381294964028 1343.068345323741 998.1194244604316 1363.2323741007194 982.2762589928058C1422.2841726618703 936.9071942446042 1469.8136690647482 877.8553956834533 1522.3841726618705 823.8446043165468C1557.6712230215828 787.8374100719425 1556.2309352517984 753.2705035971223 1520.2237410071941 717.263309352518L1145.0287769784172 337.7474820143884C1047.0892086330934 239.0877697841726 946.9892086330934 142.5884892086331 849.7697841726618 42.4884892086329C795.0388489208633 -13.6827338129499 751.110071942446 -15.1230215827339 697.0992805755395 38.8877697841725C484.656834532374 254.2107913669064 270.7741007194244 468.093525179856 56.1712230215827 680.5359712230214C-19.4438848920864 754.7107913669063 -19.4438848920864 795.0388489208631 59.7719424460431 866.3330935251797C97.9395683453237 900.8999999999997 131.7863309352518 939.7877697841724 169.2338129496403 975.0748201438848C205.9611510791367 1008.9215827338128 244.8489208633094 1010.361870503597 281.5762589928057 974.3546762589926C444.3287769784173 813.0424460431652 606.3611510791366 651.0100719424458 771.9942446043165 486.0971223021581z" />
    <glyph glyph-name="chevron-double-up"
      unicode="&#xE002;"
      horiz-adv-x="1000.9999999999999" d="M474.6742 712.5117999999999C460.2598 698.0974 315.3150000000001 553.1525999999999 236.8366 474.6741999999999C216.6164 454.454 199.199 454.454 178.9788 474.6741999999999C155.7556 500.7001999999999 129.7296 526.7262 103.5034 550.1495999999999C77.2772 573.5729999999999 83.2832 596.3957999999999 103.5034 619.8191999999999L448.8484 962.3613999999998C495.0946 1008.6075999999998 506.7061999999999 1008.6075999999998 553.3527999999999 962.3613999999998L898.6977999999999 617.0163999999999C918.918 596.7961999999998 921.921 573.5729999999999 898.6977999999999 550.1495999999999C872.6717999999998 524.1235999999999 846.6457999999999 495.0945999999999 817.4165999999998 468.8683999999998C797.1963999999998 448.6481999999999 779.7789999999998 454.454 759.5587999999999 474.6741999999998C680.8802 553.1526 535.7352 698.2976 524.3237999999999 712.712C509.509 729.9292 492.0916 729.9292 474.6742 712.5117999999999zM474.6742 262.8626C460.2598 248.4481999999998 315.3150000000001 103.5033999999998 236.8366 25.0250000000001C216.6164 4.8048000000001 199.199 4.8048000000001 178.9788 25.0250000000001C155.7556 51.0510000000002 129.7296 77.077 103.5034 100.5004000000001C77.4774 123.7236000000003 83.2832 146.7466000000002 103.5034 170.1700000000001L446.0456000000001 512.7122C492.2918000000001 558.9584000000001 503.9033999999999 558.9584000000001 550.55 512.7122L898.8979999999999 164.3642C919.1182 144.144 922.1212 120.9208000000001 898.8979999999999 97.4974000000002C872.872 71.4714000000001 846.8459999999999 42.4424000000001 817.6167999999999 16.2162000000001C797.3965999999998 -4.0039999999999 779.9791999999999 1.8018 759.7589999999999 22.0220000000002C681.0803999999999 100.3002000000001 535.9354 245.6454000000001 524.524 260.26C509.509 277.4772000000001 492.0916 277.4772000000001 474.6742 262.8626z" />
    <glyph glyph-name="chevron-left"
      unicode="&#xE003;"
      horiz-adv-x="750.7499999999999" d="M654.1134599999999 832.8640320000001L357.499142 536.249714L654.1134599999999 239.6353960000002Q664.726062 229.0227940000002 664.726062 214.4982840000003T654.1134599999999 189.3611720000003L561.3868259999999 96.6345380000003Q550.774224 86.0219360000002 536.249714 86.0219360000002T511.112602 96.6345380000003L96.63654 511.1106000000002Q86.023938 521.7232020000001 86.023938 536.2477120000002T96.63654 561.3848240000002L511.112602 975.8608860000002Q521.725204 986.4734880000002 536.249714 986.4734880000002T561.3868259999999 975.8608860000002L654.1134599999999 883.1342520000002Q664.726062 872.5216500000002 664.726062 857.9971400000002T654.1134599999999 832.8600280000002z" />
    <glyph glyph-name="chevron-right"
      unicode="&#xE004;"
      horiz-adv-x="678.6779999999999" d="M618.3637459999999 511.112602L203.887684 96.6365400000001Q193.275082 86.0239380000001 178.750572 86.0239380000001T153.61346 96.6365400000001L60.886826 189.3631740000001Q50.274224 199.975776 50.274224 214.5002860000001T60.886826 239.637398L357.5011439999999 536.251716L60.886826 832.8660339999999Q50.274224 843.4786359999999 50.274224 858.0031459999999T60.886826 883.1402579999999L153.61346 975.8668919999998Q164.226062 986.4794939999998 178.750572 986.4794939999998T203.887684 975.8668919999998L618.3637459999999 561.3908299999999Q628.9763479999999 550.7782279999999 628.9763479999999 536.2537179999999T618.3637459999999 511.1166059999999z" />
    <glyph glyph-name="clear"
      unicode="&#xE005;"
      horiz-adv-x="1000.9999999999999" d="M500.4999999999999 93.8437500000001C275.899624 93.8437500000001 93.84375 275.9016260000001 93.84375 500.5000000000001S275.901626 907.15625 500.4999999999999 907.15625S907.1562499999998 725.098374 907.1562499999998 500.5000000000001S725.0983739999999 93.8437500000001 500.4999999999999 93.8437500000001zM686.9682819999999 619.0864680000001C694.601908 626.720094 694.601908 639.1385 686.9682819999999 646.7701240000001L645.426782 688.2795920000001C637.793156 695.913218 625.37475 695.913218 617.7431260000001 688.2795920000001L500.0935940000001 570.6300600000002L382.4440620000001 688.2795920000001C374.8104360000001 695.913218 362.3920300000001 695.913218 354.7604060000001 688.2795920000001L313.2189060000001 646.7701240000001C305.5852800000002 639.1364980000001 305.5852800000002 626.7180920000001 313.2189060000001 619.0864680000001L430.8984680000001 501.406906L313.2189060000001 383.789406C305.5852800000002 376.1557800000001 305.5852800000002 363.737374 313.2189060000001 356.1057500000001L354.7604060000001 314.5642500000002C362.3920300000001 306.9306240000001 374.8124380000001 306.9306240000001 382.4440620000001 314.5642500000002L500.0935940000001 432.2438120000001L617.7431260000001 314.5642500000002C625.376752 306.9306240000001 637.795158 306.9306240000001 645.426782 314.5642500000002L686.9682819999999 356.1057500000001C694.601908 363.739376 694.601908 376.1577820000001 686.9682819999999 383.789406L569.28872 501.406906L686.9682819999999 619.086468z" />
    <glyph glyph-name="close-thin"
      unicode="&#xE006;"
      horiz-adv-x="1000.9999999999999" d="M500.4999999999999 435.8354000000001L64.6646 1e-13L0 64.6646000000002L435.8354 500.5000000000001L0 936.3354L64.6646 1001L500.4999999999999 565.1646000000001L936.3353999999998 1001L1000.9999999999998 936.3354L565.1646 500.5000000000001L1000.9999999999998 64.6646000000002L936.3353999999998 1e-13z" />
    <glyph glyph-name="close"
      unicode="&#xE007;"
      horiz-adv-x="1000.9999999999999" d="M653.4527999999999 500.5L993.5925999999998 855.6548C1003.6025999999998 865.6648 1003.6025999999998 880.6798 993.5925999999998 890.6898L893.4925999999998 990.7898C883.4825999999998 1000.7998 868.4675999999998 1000.7998 858.4575999999998 990.7898L498.4979999999998 650.4498L143.5433999999999 990.5896C133.5333999999999 1000.5996 118.5183999999999 1000.5996 108.5083999999999 990.5896L8.4083999999999 890.4895999999999C-1.6016000000001 880.4795999999999 -1.6016000000001 865.4646 3.4033999999999 855.4545999999999L348.5481999999999 500.5L8.4083999999999 145.145C-1.6016000000001 135.135 -1.6016000000001 120.1200000000001 8.4083999999999 110.1100000000001L108.5083999999999 10.01C118.5183999999999 0 133.5333999999999 0 143.5433999999999 10.01L498.6981999999998 350.35L853.6527999999997 10.4104C863.6627999999997 0.4004 878.6777999999997 0.4004 888.6877999999998 10.4104L988.7877999999998 110.5103999999999C998.7977999999998 120.5203999999999 998.7977999999998 135.5354 988.7877999999998 145.5454L653.4527999999999 500.4999999999999z" />
    <glyph glyph-name="download"
      unicode="&#xE008;"
      horiz-adv-x="1000.9999999999999" d="M873.8729999999999 629.8292L742.3416 629.8292L556.7562 456.6562000000001L556.7562 1001L446.2458 1001L446.2458 458.8584000000001L260.6603999999999 629.8292L129.3292 629.8292L502.502 277.2770000000001zM1000.9999999999998 112.5124000000001L1000.9999999999998 433.8334L892.4916 433.8334L892.4916 112.5124000000001L112.5124 112.5124000000001L112.5124 433.8334L0 433.8334L0 43.8438000000001L0 43.8438000000001L0 4.2042000000001L1000.9999999999998 4.2042000000001z" />
    <glyph glyph-name="facebook"
      unicode="&#xE009;"
      horiz-adv-x="1000.9999999999999" d="M656.9062499999999 813.3125C570.525956 813.3125 500.4999999999999 743.286544 500.4999999999999 656.90625V563.0625H375.375V437.9375000000001H500.4999999999999V1e-13H625.6249999999999V437.9375000000001H766.3916259999999L797.6728759999999 563.0625H625.6249999999999V656.90625C625.6249999999999 674.181508 639.6289899999999 688.1875 656.9062499999999 688.1875H813.3124999999999V813.3125H656.9062499999999z" />
    <glyph glyph-name="google-plus"
      unicode="&#xE00A;"
      horiz-adv-x="1287.2859999999998" d="M802.699898 491.0045140000001Q802.699898 374.8164420000001 754.10335 284.045762T615.572958 142.1620200000001T409.4510420000001 91.0509600000002Q326.2198940000001 91.0509600000002 250.2520020000001 123.4493260000002T119.5414220000001 210.5903800000001T32.4003680000001 341.3009600000002T0.0020020000001 500.5000000000001T32.4003680000001 659.69904T119.5414220000001 790.40962T250.2520020000001 877.550674T409.4510420000001 909.94904Q569.2086400000001 909.94904 683.7210379999999 802.699898L572.5619899999999 696.009314Q507.2067 759.130372 409.4530439999999 759.130372Q340.7464059999999 759.130372 282.37209 724.4977739999999T189.925736 630.373744T155.851696 500.4999999999999T189.925736 370.6262559999999T282.37209 276.502226T409.4530439999999 241.8696280000001Q455.8173619999999 241.8696280000001 494.638144 254.716462T558.5980399999999 286.834548T602.4478459999999 330.684354T629.8191899999999 377.048672T641.829188 418.383966H409.4550460000001V559.150592H796.003208Q802.705904 523.9594359999999 802.705904 491.002512zM1286.9997139999998 559.152594V441.847406H1170.2530839999997V325.100776H1052.9478959999997V441.847406H936.2012659999996V559.1525939999999H1052.9478959999997V675.899224H1170.2530839999997V559.1525939999999H1286.9997139999998z" />
    <glyph glyph-name="help"
      unicode="&#xE00B;"
      horiz-adv-x="1000.9999999999999" d="M705.2044999999999 889.23835C648.1474999999999 930.37945 576.4758999999999 950.95 490.1897 950.95C424.5741499999999 950.95 369.1687999999999 936.48555 324.17385 907.5066C252.7525 862.1613 214.8146 785.13435 210.21 676.52585H375.72535C375.72535 708.2075 384.9846 738.5878500000001 403.403 768.0172500000001C421.8714499999999 797.3465500000001 453.2027499999999 812.0112 497.3968999999999 812.0112C542.3417999999999 812.0112 573.3227499999999 800.0993000000001 590.1895999999999 776.32555C607.15655 752.4517000000001 615.6149999999999 726.0753500000001 615.6149999999999 697.1464500000001C615.6149999999999 671.9212500000001 603.0024 648.8482000000001 587.7371499999999 627.9273000000001C579.3787999999998 615.7151000000001 568.3677999999999 604.4538500000001 554.6541 594.1936000000001C554.6541 594.1936000000001 464.91445 536.6361000000002 425.5251 490.3899000000001C402.7023 463.6131500000001 400.65025 423.4230000000003 398.5982 365.8655000000002C398.4981 361.7614000000002 400.04965 353.2529000000002 414.36395 353.2529000000002C428.7283000000001 353.2529000000002 530.2797499999999 353.2529000000002 543.0424999999999 353.2529000000002C555.8552999999999 353.2529000000002 558.5079499999999 362.7123500000003 558.6581 366.9666000000002C559.559 387.8875000000002 561.8613 398.6482500000002 565.7151499999999 410.7603500000003C572.9223499999999 433.6332000000002 592.6420499999999 453.5531000000002 614.7140999999999 470.7703000000002L660.2596 502.1516500000002C701.4006999999999 534.2337000000002 734.18345 560.5099500000003 748.69795 581.1305500000003C773.42265 614.9643500000002 790.84005 656.7060500000002 790.84005 706.2555500000002C790.7900000000001 787.0863000000002 762.2615000000001 847.9971500000001 705.2045 889.2383500000002zM487.53705 254.0538C430.5301 255.8055500000001 383.4831 216.3161 381.6813 154.4543000000001C379.92955 92.6926 424.6241999999999 51.8017500000001 481.6812 50.1501000000001C541.19065 48.3983500000001 586.9864 86.5364500000001 588.8382499999999 148.39825C590.53995 210.26005 547.0965499999999 252.3020499999999 487.53705 254.0537999999999z" />
    <glyph glyph-name="instagram"
      unicode="&#xE00C;"
      horiz-adv-x="858.858" d="M571.999428 500.5000000000001Q571.999428 559.7111520000001 530.1055759999999 601.605004T429.000572 643.498856T327.895568 601.605004T286.001716 500.5000000000001T327.895568 399.394996T429.000572 357.5011440000001T530.1055759999999 399.394996T571.999428 500.5000000000001zM649.0864379999999 500.5000000000001Q649.0864379999999 408.890482 584.848264 344.6523080000001T429.000572 280.4141340000001T273.15288 344.6523080000001T208.914706 500.5000000000001T273.15288 656.347692T429.000572 720.585866T584.848264 656.347692T649.0864379999999 500.5000000000001zM709.4147059999999 729.522794Q709.4147059999999 708.295588 694.331638 693.214522T658.0233659999999 678.1314540000001T621.7150939999999 693.214522T606.6320259999999 729.522794T621.7150939999999 765.831066T658.0233659999999 780.914134T694.331638 765.831066T709.4147059999999 729.522794zM429.000572 852.4135620000001Q425.090666 852.4135620000001 386.267882 852.693842T327.335008 852.693842T273.431158 851.0181680000001T215.8956799999999 845.432588T175.9557799999999 835.098264Q148.0258779999999 823.9251019999999 126.7986719999999 802.699898T94.4003059999999 753.54279Q88.2561679999999 737.344608 84.0659819999999 713.60289T78.4804019999999 656.067412T76.8047279999999 602.163562T76.8047279999999 543.230688T77.0850079999999 500.497998T76.8047279999999 457.765308T76.8047279999999 398.8324340000001T78.4804019999999 344.928584T84.0659819999999 287.3931060000001T94.4003059999999 247.4532060000002Q105.5734679999999 219.5233040000001 126.7986719999999 198.2960980000002T175.9557799999999 165.8977320000001Q192.1539619999999 159.7535940000001 215.8956799999999 155.5634080000002T273.431158 149.9778280000002T327.335008 148.3021540000002T386.267882 148.3021540000002T429.000572 148.5824340000002T471.733262 148.3021540000002T530.6661359999999 148.3021540000002T584.569986 149.9778280000002T642.1054639999999 155.5634080000002T682.0453639999998 165.8977320000001Q709.9752659999999 177.0708940000002 731.2024719999998 198.2960980000002T763.6008379999997 247.4532060000002Q769.7449759999998 263.6513880000001 773.9351619999998 287.3931060000001T779.5207419999998 344.928584T781.1964159999998 398.8324340000001T781.1964159999998 457.765308T780.9161359999998 500.4979980000001T781.1964159999998 543.2306880000001T781.1964159999998 602.1635620000001T779.5207419999998 656.0674120000001T773.9351619999998 713.6028900000001T763.6008379999997 753.5427900000001Q752.4276759999997 781.472692 731.2024719999998 802.6998980000001T682.0453639999998 835.0982640000001Q665.8471819999999 841.2424020000001 642.1054639999999 845.4325880000001T584.569986 851.0181680000001T530.6661359999999 852.6938420000001T471.7332619999999 852.6938420000001T429.0005719999999 852.4135620000002zM857.999142 500.5000000000001Q857.999142 372.5822100000002 855.206352 323.4251020000001Q849.620772 207.23703 785.941156 143.5574140000001T606.073468 74.2922180000001Q556.91636 71.4994280000001 428.9985700000001 71.4994280000001T251.9236720000001 74.2922180000001Q135.7356 79.8777980000001 72.0559840000001 143.5574140000001T2.7907880000001 323.4251020000001Q-0.0020019999999 372.5822100000001 -0.0020019999999 500.5000000000001T2.7907880000001 677.5748980000001Q8.3763680000001 793.76297 72.0559840000001 857.442586T251.9236720000001 926.707782Q301.08078 929.500572 428.9985700000001 929.500572T606.073468 926.707782Q722.26154 921.122202 785.941156 857.442586T855.206352 677.5748980000001Q857.999142 628.4177900000001 857.999142 500.5000000000001z" />
    <glyph glyph-name="link-arrow"
      unicode="&#xE00D;"
      horiz-adv-x="1000.9999999999999" d="M2.002 597.3968C2.002 642.6419999999999 6.2062 646.8462 51.8518 646.8462C213.213 646.8462 374.3739999999999 647.2466 535.7352 646.4458C558.1576 646.2455999999999 564.9644000000001 652.8521999999999 564.3638000000001 675.0744L564.1636 827.4266C564.564 855.0542 584.1836 865.6647999999999 605.4048 848.6478L984.5836 525.9254C1004.4034 509.9094 1003.002 493.2927999999999 986.9860000000002 478.2778C957.5566 450.45 650.2496000000002 187.3871999999999 605.6050000000001 151.9518000000001C584.3838000000002 135.135 564.9644000000002 145.7456 564.3638000000002 173.173L564.5640000000002 325.5252000000001C565.1646000000002 347.9476000000001 558.3578000000001 354.3540000000001 535.9354000000002 354.1538000000001C374.5742000000002 353.1528000000001 213.4132000000002 353.7534000000001 52.0520000000002 353.7534000000001C6.4064000000002 353.7534000000001 2.2022000000002 357.9576000000002 2.2022000000002 403.2028000000002V597.3968z" />
    <glyph glyph-name="linkedin"
      unicode="&#xE00E;"
      horiz-adv-x="1000.9999999999999" d="M375.375 625.625H548.5039559999999V536.8823460000001H550.9784279999999C575.06449 580.0835040000001 634.027394 625.625 721.8931719999999 625.625C904.6397359999997 625.625 938.4374999999998 511.863352 938.4374999999998 363.905542V62.5625000000001H757.973216V329.7033740000001C757.973216 393.4230300000001 756.669914 475.382908 664.1014379999999 475.382908C570.1135439999999 475.382908 555.771216 405.9915860000001 555.771216 334.3319980000001V62.5645020000002H375.375V625.6270020000002zM62.5625 625.625H250.25V62.5625000000001H62.5625V625.625zM250.25 782.03125C250.25 730.203474 208.234026 688.1875 156.40625 688.1875S62.5625 730.203474 62.5625 782.03125C62.5625 833.8590260000001 104.578474 875.875 156.40625 875.875S250.25 833.8590260000001 250.25 782.03125z" />
    <glyph glyph-name="location"
      unicode="&#xE00F;"
      horiz-adv-x="1000.9999999999999" d="M487.9875 1001C287.7875 1001 125.125 838.3375 125.125 638.1375C125.125 579.745166 139.723584 525.5250000000001 162.6625 477.5610840000002L487.9875 1e-13L813.3124999999999 477.5610840000002C836.251416 525.5250000000001 850.8499999999999 579.7471680000001 850.8499999999999 638.1375C850.8499999999999 838.3375000000001 688.1874999999999 1001.0000000000002 487.9875 1001.0000000000002zM492.1576659999999 450.45V450.45C490.0715819999999 448.3639160000002 490.0715819999999 450.45 487.9875 450.45S485.9014159999999 450.45 483.817334 450.45V452.536084C400.4 458.792334 333.667334 527.611084 333.667334 613.1125S400.4 767.4326659999999 483.817334 773.688916V775.775C485.9034179999999 775.775 485.9034179999999 775.775 487.9875 775.775S490.0735839999999 775.775 492.1576659999999 775.775V773.688916C575.5749999999999 767.4326659999999 642.3076659999998 698.613916 642.3076659999998 613.1125S577.6590819999998 458.792334 492.1576659999999 450.45z" />
    <glyph glyph-name="menu"
      unicode="&#xE010;"
      horiz-adv-x="1000.9999999999999" d="M125.125 792.457666H875.8749999999999Q893.1442519999998 792.457666 905.3644599999998 780.2374580000001T917.5846679999999 750.747998T905.3644599999998 721.258538T875.8749999999999 709.0383300000001H125.125Q107.855748 709.0383300000001 95.63554 721.258538T83.415332 750.747998T95.63554 780.2374580000001T125.125 792.457666zM125.125 291.9576660000002H875.8749999999999Q893.1442519999998 291.9576660000002 905.3644599999998 279.7374580000002T917.5846679999999 250.2479980000002T905.3644599999998 220.7585380000001T875.8749999999999 208.5383300000001H125.125Q107.855748 208.5383300000001 95.63554 220.7585380000001T83.415332 250.2479980000002T95.63554 279.7374580000002T125.125 291.9576660000002zM125.125 542.207666H875.8749999999999Q893.1442519999998 542.207666 905.3644599999998 529.9874580000001T917.5846679999999 500.4979980000001T905.3644599999998 471.008538T875.8749999999999 458.7883300000001H125.125Q107.855748 458.7883300000001 95.63554 471.008538T83.415332 500.4979980000001T95.63554 529.9874580000001T125.125 542.207666z" />
    <glyph glyph-name="minus"
      unicode="&#xE011;"
      horiz-adv-x="1000.9999999999999" d="M0 592.592H1000.9999999999998V410.41H0V592.592z" />
    <glyph glyph-name="mouse-scroll"
      unicode="&#xE012;"
      horiz-adv-x="1000.9999999999999" d="M503.7031999999999 1001H472.4719999999999C376.9766 992.7918 302.302 911.7108 302.302 814.0132V546.1456000000001C302.302 442.2418 385.385 357.1568 489.2888 357.1568S676.2755999999999 442.2418 676.2755999999999 546.1456000000001V814.0132C676.0754 911.7108 599.1985999999999 992.7918 503.7031999999999 1001zM645.0443999999999 546.1456000000001C645.0443999999999 458.8584000000001 574.3737999999998 388.3880000000001 489.2887999999999 388.3880000000001S333.5331999999999 459.0586000000001 333.5331999999999 546.1456000000001V814.0132C333.5331999999999 901.3004 404.2037999999999 971.7708 489.2887999999999 971.7708S645.0443999999999 901.1002 645.0443999999999 814.0132V546.1456000000001zM487.0866 841.0402C472.4719999999999 841.0402 462.2617999999999 830.6297999999999 462.2617999999999 816.2154V751.751C462.2617999999999 737.1364 472.6721999999999 726.9262 487.0866 726.9262S511.9114 737.3366 511.9114 751.751V816.2154C512.1116 828.6278 501.7011999999999 841.0402 487.0866 841.0402zM489.2888 29.0290000000001L416.6162 101.7016000000001L402.0016 87.2872000000001L489.2888 1e-13L576.3757999999999 87.2872000000001L561.9613999999999 101.7016000000001zM489.2888 153.7536000000001L416.6162 226.4262000000001L402.0016 211.8116000000001L489.2888 124.5244000000001L576.3757999999999 211.8116000000001L561.9613999999999 226.4262000000001z" />
    <glyph glyph-name="pinterest"
      unicode="&#xE013;"
      horiz-adv-x="714.7139999999999" d="M0 667.518852Q0 727.84712 20.946926 781.192412T78.760682 874.199326T163.667504 942.905964T267.00674 986.47549T379.843464 1000.997998Q468.101634 1000.997998 544.069526 963.850888T667.518852 855.762908T714.998284 695.4467520000001Q714.998284 641.8211799999999 704.3856820000001 590.42984T670.8702000000001 491.559068T615.0103960000001 408.049642T534.0134800000002 350.5141640000001T428.4400120000002 329.0086800000001Q390.4560660000002 329.0086800000001 353.0306780000002 346.884538T299.4051060000002 396.0416459999999Q293.8195260000002 374.255882 283.7634800000003 333.198866T270.6363660000003 280.131852T259.1849260000003 240.472232T244.6624180000003 200.812612T226.7865600000003 165.9017359999999T201.0908900000003 122.6104879999999T166.4582920000002 74.2922179999999L158.6384800000002 71.499428L153.6114580000002 77.085008Q145.2330880000002 164.78462 145.2330880000002 182.1019200000001Q145.2330880000002 233.491258 157.2430860000002 297.4511540000001T194.3901960000002 458.0475900000001T223.4372140000003 571.4428720000001Q205.5613560000002 607.7511440000001 205.5613560000002 665.84518Q205.5613560000002 712.2094979999999 234.6083740000003 752.986234T308.3440360000003 793.76297Q342.4180760000003 793.76297 361.4110500000003 771.1403700000001T380.4040240000002 713.885172Q380.4040240000002 677.0183420000001 355.8254700000003 607.1945880000001T331.2469160000003 502.738236Q331.2469160000003 467.5470800000001 356.3840280000004 444.3659220000001T417.2708540000004 421.1847640000001Q447.9935460000003 421.1847640000001 474.2477740000003 435.1507160000001T518.0975800000003 473.134662T549.3788300000003 526.2016760000001T570.6060360000004 587.9273400000001T581.7791980000004 649.931282T585.4088240000003 705.510806Q585.4088240000003 802.1473460000001 524.2437200000003 856.051196T364.7644000000003 909.955046Q253.0447920000004 909.955046 178.1940160000004 837.6167800000001T103.3432400000004 654.1194660000001Q103.3432400000004 629.540912 110.3262160000004 606.640034T125.4092840000004 570.331762T140.4923520000004 544.9163720000001T147.4753280000004 527.8793520000002Q147.4753280000004 512.2377260000001 139.0969580000004 487.102616T118.4283100000004 461.9655040000001Q117.3111940000004 461.9655040000001 108.9328240000004 463.6411780000001Q80.4443640000004 472.0195480000001 58.3803220000004 494.922428T24.3062820000004 547.7091620000001T6.1521460000004 608.03743T0.0080080000004 667.5268599999999z" />
    <glyph glyph-name="play"
      unicode="&#xE014;"
      horiz-adv-x="1000.9999999999999" d="M187.6875 875.875L813.3124999999999 500.5000000000001L187.6875 125.1250000000001z" />
    <glyph glyph-name="plus"
      unicode="&#xE015;"
      horiz-adv-x="1000.9999999999999" d="M1000.7997999999998 407.2068L1000.7997999999998 591.9913999999999L592.7921999999999 591.9913999999999L592.7921999999999 999.999L408.0076 999.999L408.0076 591.9913999999999L0 591.9913999999999L0 407.2068L408.0076 407.2068L408.0076 -0.8008L592.7921999999999 -0.8008L592.7921999999999 407.2068z" />
    <glyph glyph-name="share"
      unicode="&#xE016;"
      horiz-adv-x="1000.9999999999999" d="M1000.9999999999998 166.8326660000001C1000.9999999999998 75.0750000000001 925.925 1e-13 834.167334 1e-13S667.3346680000001 75.0750000000001 667.3346680000001 166.832666C667.3346680000001 179.3451660000001 669.420752 189.7715820000001 671.5048340000001 202.284082L291.9596680000002 392.0576660000001C260.6784180000002 356.6062500000001 216.8846680000002 333.6653319999999 166.8346680000002 333.6653319999999C75.0770020000002 333.6653319999999 0.0020020000002 408.740332 0.0020020000002 500.4979979999999S75.0770020000002 667.3306639999998 166.8346680000002 667.3306639999998C216.8846680000002 667.3306639999998 260.6784180000002 644.3917479999999 291.9596680000002 608.93833L671.5048340000001 798.7119139999999C669.4187500000002 811.2244139999999 667.3346680000001 821.6508299999999 667.3346680000001 834.1633299999999C667.3346680000001 925.9209959999998 742.409668 1000.9959959999998 834.167334 1000.9959959999998S1000.9999999999998 925.9209959999998 1000.9999999999998 834.1633299999999S925.925 667.3306639999998 834.167334 667.3306639999998C784.117334 667.3306639999998 740.323584 690.2695799999999 709.042334 725.722998L329.4971680000001 535.9494139999999C331.583252 525.5229979999999 333.6673340000001 513.0104979999999 333.6673340000001 500.4979979999999S331.58125 477.559082 329.4971680000001 465.0465819999999L709.042334 275.2729979999999C740.323584 310.7244139999998 784.117334 333.6653319999999 834.167334 333.6653319999999C925.925 333.6653319999999 1000.9999999999998 258.590332 1000.9999999999998 166.832666z" />
    <glyph glyph-name="tick"
      unicode="&#xE017;"
      horiz-adv-x="1000.9999999999999" d="M369.369 90.6906000000001L7.4074 380.1798C-1.2012 387.1868000000001 -2.6026 399.9996 4.6046 408.6082L58.4584 471.0706C65.4654 478.0776 75.4754 481.0806 84.084 475.2748L360.7604 303.5032L899.8989999999999 908.1072C906.906 916.7158 919.7187999999998 916.7158 928.3273999999998 910.91L993.5926 859.8589999999999C1002.2012 852.852 1003.6026 840.0391999999999 996.3953999999998 831.4305999999999L397.7974 93.4934000000001C390.5901999999999 84.8848 379.1788 83.4834000000001 369.369 90.6906000000001z" />
    <glyph glyph-name="twitter"
      unicode="&#xE018;"
      horiz-adv-x="1000.9999999999999" d="M938.5636259999998 772.22145C906.327422 757.923166 871.6828119999999 748.2595120000001 835.3264919999999 743.9171739999999C872.4335619999999 766.161396 900.9360359999998 801.388588 914.3594459999998 843.36252C879.6247459999997 822.763942 841.1623219999998 807.8049980000001 800.2114119999999 799.744946C767.4246579999998 834.677844 720.7139939999998 856.5056500000001 669.0123439999999 856.5056500000001C569.7511819999999 856.5056500000001 489.2647759999999 776.029254 489.2647759999999 676.764088C489.2647759999999 662.6780160000001 490.8563659999999 648.952304 493.9234299999999 635.8031679999999C344.5401959999999 643.2986559999999 212.087876 714.8621479999999 123.435312 823.606784C107.961854 797.060264 99.099 766.187422 99.099 733.24251C99.099 670.884214 130.828698 615.8632480000001 179.0608819999999 583.63305C149.5994499999999 584.5659820000001 121.8777559999999 592.648056 97.6455479999999 606.11551C97.6275299999999 605.362758 97.6275299999999 604.6100059999999 97.6275299999999 603.8552520000001C97.6275299999999 516.76625 159.5894299999999 444.1196760000001 241.8135719999999 427.6051779999999C226.7345079999999 423.495072 210.8546439999999 421.2968759999999 194.4622679999999 421.2968759999999C182.8826999999999 421.2968759999999 171.6234519999999 422.4260039999999 160.6464859999999 424.5180939999999C183.5173339999999 353.1167639999999 249.9016519999999 301.138838 328.5562279999999 299.6933939999999C267.0387719999999 251.4812299999999 189.5373479999999 222.7425199999998 105.3192139999999 222.7425199999998C90.8127219999999 222.7425199999998 76.5004239999999 223.5993759999998 62.4403779999999 225.2630379999998C141.9838419999999 174.258084 236.46623 144.4963519999999 337.9756379999999 144.4963519999999C668.5979299999998 144.4963519999999 849.3965479999999 418.3959779999998 849.3965479999999 655.9212659999998C849.3965479999999 663.7110479999998 849.2203719999999 671.4627919999998 848.8760279999999 679.1764979999998C883.9931099999999 704.5198159999998 914.4655519999998 736.1754399999998 938.5636259999998 772.2214499999998z" />
    <glyph glyph-name="youtube"
      unicode="&#xE019;"
      horiz-adv-x="858.858" d="M542.3938519999999 306.1098040000001V188.2460580000001Q542.3938519999999 150.8206700000001 520.608088 150.8206700000001Q507.7612539999999 150.8206700000001 495.4709759999999 163.1089460000001V331.244914Q507.7592519999999 343.5331899999999 520.608088 343.5331899999999Q542.3938519999999 343.5331899999999 542.3938519999999 306.1078019999999zM731.1984679999999 305.5512460000001V279.8555760000002H680.9242439999998V305.5512460000001Q680.9242439999998 343.5351920000001 706.0613559999998 343.5351920000001T731.1984679999998 305.5512460000001zM191.597406 427.3248980000001H251.367116V479.8333540000001H77.085008V427.3248980000001H135.737602V109.4853760000001H191.597406V427.324898zM352.47212 109.4833740000001H402.187786V385.4290440000002H352.47212V174.2801060000002Q335.7133779999999 150.8186680000002 320.632312 150.8186680000002Q310.578268 150.8186680000002 308.902594 162.5483860000002Q308.344036 164.2240600000001 308.344036 182.0999180000002V385.4290440000002H258.62837V167.0188520000002Q258.62837 139.6475080000001 263.096834 126.2421160000002Q269.79953 105.5734680000002 295.4952 105.5734680000002Q322.307986 105.5734680000002 352.47212 139.6475080000001V109.4833740000001zM592.109518 192.1559640000002V302.1978960000002Q592.109518 342.9746320000002 587.0824959999999 357.4991420000001Q577.58701 388.7803920000001 547.4228759999999 388.7803920000001Q519.4929739999999 388.7803920000001 495.4729779999999 358.6162580000002V479.8313520000002H445.7573119999999V109.4833740000001H495.4729779999999V136.2961600000002Q520.6100899999999 105.5734680000002 547.4228759999999 105.5734680000002Q577.58701 105.5734680000002 587.0824959999999 136.2961600000002Q592.109518 151.3792280000001 592.109518 192.1559640000002zM780.9141339999999 197.7415440000001V205.0027980000001H730.0813519999999Q730.0813519999999 176.5143380000001 728.9642359999999 170.9287580000001Q725.0543299999999 150.8206700000002 706.6199139999999 150.8206700000002Q680.9242439999999 150.8206700000002 680.9242439999999 189.3631740000002V237.9597220000002H780.9121319999999V295.4952000000001Q780.9121319999999 339.6232840000002 765.829064 360.2919320000001Q744.0432999999999 388.7803920000001 706.6179119999999 388.7803920000001Q668.633966 388.7803920000001 646.8482019999999 360.2919320000001Q631.2065759999999 339.623284 631.2065759999999 295.4952000000001V198.8586600000002Q631.2065759999999 154.7305760000002 647.404758 134.0619280000002Q669.190522 105.5734680000002 707.733026 105.5734680000002Q747.951204 105.5734680000002 768.061294 135.1790440000002Q778.115338 150.2621120000002 779.791012 165.3431780000002Q780.9081279999999 170.3702000000003 780.9081279999999 197.7415440000002zM441.288848 707.739032V825.04422Q441.288848 863.586724 417.268852 863.586724T393.248856 825.04422V707.739032Q393.248856 668.63797 417.268852 668.63797T441.288848 707.739032zM842.9180759999999 288.2339460000001Q842.9180759999999 157.5233660000001 828.3955679999999 92.7266340000001Q820.5757559999998 59.7697100000002 795.9972019999999 37.4253880000001T739.020282 11.7297180000002Q636.239604 2e-13 429.0005720000001 2e-13T118.9808620000001 11.7297180000002Q86.5824960000001 15.0810660000002 61.7256640000001 37.4253880000001T29.6075780000001 92.7266340000001Q15.0850700000001 155.2891340000001 15.0850700000001 288.2339460000001Q15.0850700000001 418.9445260000001 29.6075780000001 483.7412580000001Q37.4273900000001 516.6981820000001 62.0059440000001 539.042504T119.5414220000001 565.296732Q221.7635420000001 576.4698940000001 429.0025740000001 576.4698940000001T739.022284 565.296732Q771.42065 561.386826 796.277482 539.042504T828.395568 483.7412580000001Q842.918076 421.1787580000002 842.918076 288.2339460000001zM285.441156 1001H342.418076L274.828554 778.121344V626.742116H218.96875V778.121344Q211.148938 819.456638 184.89471 896.543648Q164.226062 954.079126 148.586438 1001H207.79759L247.45721 854.089236zM492.1216299999999 814.9881740000001V717.234518Q492.1216299999999 671.9873160000001 476.480004 651.3206700000001Q455.8113559999999 622.83221 417.268852 622.83221Q379.8434640000001 622.83221 358.616258 651.3206700000001Q342.9746320000001 672.5478760000001 342.9746320000001 717.234518V814.9881740000001Q342.9746320000001 859.6748160000001 358.616258 880.343464Q379.8434640000001 908.831924 417.268852 908.831924Q455.811356 908.831924 476.480004 880.343464Q492.1216299999999 859.6748160000001 492.1216299999999 814.9881740000001zM679.2505719999999 905.480576V626.742116H628.4177899999999V657.464808Q598.8122139999999 622.83221 570.882312 622.83221Q545.186642 622.83221 537.925388 643.5008580000001Q533.456924 656.90625 533.456924 685.39471V905.480576H584.2897059999999V700.4777780000001Q584.2897059999999 682.0433620000001 584.848264 680.926246Q586.5239379999999 668.63797 596.5779819999999 668.63797Q611.6610499999999 668.63797 628.4177899999999 692.657966V905.482578H679.2505719999999z" />
  </font>
</defs>
</svg>
