<?xml version="1.0" standalone="no"?>
<!DOCTYPE svg PUBLIC "-//W3C//DTD SVG 1.1//EN" "http://www.w3.org/Graphics/SVG/1.1/DTD/svg11.dtd" >
<svg xmlns="http://www.w3.org/2000/svg" xmlns:xlink="http://www.w3.org/1999/xlink" version="1.1">
<metadata>
Created by FontForge 20160407 at Mon Oct 17 04:22:51 2016
 By Jimmy Warting
VW Head was created in collaboration with MetaDesign.
</metadata>
<defs>
<font id="VWHead-Light" horiz-adv-x="590" >
  <font-face 
    font-family="VW Head Light"
    font-weight="300"
    font-stretch="normal"
    units-per-em="1000"
    panose-1="2 11 3 4 4 2 0 0 0 3"
    ascent="787"
    descent="-213"
    x-height="482"
    cap-height="680"
    bbox="-182 -221 1013 931"
    underline-thickness="45"
    underline-position="-110"
    stemh="45"
    stemv="50"
    unicode-range="U+000D-FB02"
  />
<missing-glyph horiz-adv-x="579" 
d="M83 0v680h413v-680h-413zM141 58h297v564h-297v-564z" />
    <glyph glyph-name=".notdef" horiz-adv-x="579" 
d="M83 0v680h413v-680h-413zM141 58h297v564h-297v-564z" />
    <glyph glyph-name=".null" horiz-adv-x="0" 
 />
    <glyph glyph-name=".null" horiz-adv-x="0" 
 />
    <glyph glyph-name="CR" unicode="&#xd;" horiz-adv-x="271" 
 />
    <glyph glyph-name="space" unicode=" " horiz-adv-x="265" 
 />
    <glyph glyph-name="exclam" unicode="!" horiz-adv-x="232" 
d="M141 489l-9 -295h-32l-9 295v191h50v-191zM71 29c0 26 19 44 44 44s44 -18 44 -44s-19 -44 -44 -44s-44 18 -44 44z" />
    <glyph glyph-name="quotedbl" unicode="&#x22;" horiz-adv-x="349" 
d="M270 574l-8 -172h-32l-8 172v106h48v-106zM127 574l-8 -172h-32l-8 172v106h48v-106z" />
    <glyph glyph-name="numbersign" unicode="#" horiz-adv-x="640" 
d="M46 232h116l58 227h-112v45h124l45 176h45v-5l-44 -171h163l46 176h44v-5l-44 -171h108v-45h-119l-58 -227h113v-45h-125l-47 -187h-46v5l47 182h-163l-48 -187h-45v5l46 182h-104v45zM266 459l-58 -227h163l59 227h-164z" />
    <glyph glyph-name="dollar" unicode="$" 
d="M85 61l26 40c40 -35 91 -64 167 -68v294l-35 14c-90 33 -143 91 -143 168c0 97 65 174 178 184v77h48v-76c66 -4 120 -26 162 -56l-23 -42c-43 29 -89 46 -139 50v-283c118 -45 174 -98 174 -190c0 -99 -71 -173 -174 -186v-95h-48v94c-91 4 -149 39 -193 75zM152 510
c0 -55 32 -93 112 -123l14 -6v264c-81 -9 -126 -64 -126 -135zM448 172c0 66 -40 103 -122 137v-273c68 11 122 58 122 136z" />
    <glyph glyph-name="percent" unicode="%" horiz-adv-x="733" 
d="M193 0h-48v5l395 675h48v-5zM92 515c0 -88 31 -129 86 -129s86 41 86 129s-31 129 -86 129s-86 -41 -86 -129zM48 515c0 99 41 169 130 169s130 -70 130 -169s-41 -169 -130 -169s-130 70 -130 169zM469 163c0 -88 31 -129 86 -129s86 41 86 129s-31 129 -86 129
s-86 -41 -86 -129zM425 163c0 99 41 169 130 169s130 -70 130 -169s-41 -169 -130 -169s-130 70 -130 169z" />
    <glyph glyph-name="ampersand" unicode="&#x26;" horiz-adv-x="648" 
d="M538 309l45 -21c-25 -50 -51 -105 -85 -154l121 -129v-5h-64l-87 95c-53 -64 -123 -110 -225 -110c-119 0 -183 74 -183 162c0 89 58 144 131 191l34 22l-15 17c-61 63 -84 112 -84 164c0 79 59 154 164 154c102 0 168 -61 168 -156c0 -67 -56 -120 -106 -153l-54 -36
l166 -179c28 43 51 92 74 138zM243 33c86 0 146 41 192 98l-177 193l-41 -27c-77 -50 -105 -93 -105 -150c0 -64 52 -114 131 -114zM178 541c0 -44 20 -84 67 -134l20 -22l58 38c56 36 83 73 83 116c0 73 -51 108 -116 108c-67 0 -112 -43 -112 -106z" />
    <glyph glyph-name="quotesingle" unicode="'" horiz-adv-x="206" 
d="M127 574l-8 -172h-32l-8 172v106h48v-106z" />
    <glyph glyph-name="parenleft" unicode="(" horiz-adv-x="263" 
d="M179 716l39 -20c-65 -133 -102 -289 -102 -447s37 -314 102 -447l-39 -20c-65 133 -115 269 -115 467s50 334 115 467z" />
    <glyph glyph-name="parenright" unicode=")" horiz-adv-x="263" 
d="M45 696l39 20c65 -133 115 -269 115 -467s-50 -334 -115 -467l-39 20c65 133 102 289 102 447s-37 314 -102 447z" />
    <glyph glyph-name="asterisk" unicode="*" horiz-adv-x="410" 
d="M226 700l-3 -119l1 -1l97 63l20 -40l-98 -56v-2l98 -54l-21 -39l-96 63l-1 -1l3 -117h-42l3 117l-1 1l-96 -63l-21 39l98 54v2l-98 56l20 40l97 -63l1 1l-3 119h42z" />
    <glyph glyph-name="plus" unicode="+" 
d="M319 507v-216h198v-43h-198v-216h-48v216h-198v43h198v216h48z" />
    <glyph glyph-name="comma" unicode="," horiz-adv-x="221" 
d="M56 -161v6l30 217h56v-6l-45 -217h-41z" />
    <glyph glyph-name="hyphen" unicode="-" horiz-adv-x="395" 
d="M317 250h-239v43h239v-43z" />
    <glyph glyph-name="period" unicode="." horiz-adv-x="230" 
d="M71 29c0 26 19 44 44 44s44 -18 44 -44s-19 -44 -44 -44s-44 18 -44 44z" />
    <glyph glyph-name="slash" unicode="/" horiz-adv-x="363" 
d="M88 0h-47v5l235 675h46v-5z" />
    <glyph glyph-name="zero" unicode="0" 
d="M100 340c0 -179 41 -307 195 -307s195 128 195 307s-41 307 -195 307s-195 -128 -195 -307zM541 340c0 -218 -71 -355 -246 -355s-246 137 -246 355s71 355 246 355s246 -137 246 -355z" />
    <glyph glyph-name="one" unicode="1" 
d="M138 573h-5v47l165 60h41v-633h147v-47h-353v47h157v579h-2z" />
    <glyph glyph-name="two" unicode="2" 
d="M153 49v-2h341v-47h-410v45l279 282c42 43 77 98 77 169c0 88 -63 151 -151 151c-81 0 -132 -32 -175 -75l-29 36c43 42 100 87 204 87c122 0 203 -83 203 -199c0 -88 -40 -148 -93 -201z" />
    <glyph glyph-name="three" unicode="3" 
d="M163 326v47h124c88 0 146 54 146 135c0 91 -61 139 -153 139c-64 0 -118 -15 -169 -42l-18 42c48 28 112 48 188 48c125 0 204 -69 204 -187c0 -90 -55 -136 -107 -155v-2c75 -18 123 -86 123 -174c0 -128 -107 -192 -230 -192c-89 0 -151 26 -198 57l21 43
c53 -33 106 -52 177 -52c92 0 178 47 178 144c0 74 -34 149 -171 149h-115z" />
    <glyph glyph-name="four" unicode="4" 
d="M398 492h50v-302h98v-47h-98v-143h-50v143h-354v42l222 495h51l-216 -490h297v302z" />
    <glyph glyph-name="five" unicode="5" 
d="M130 342l-6 8l45 330h309v-47h-267l-33 -239c26 4 60 7 94 7c137 0 229 -60 229 -196c0 -154 -110 -220 -242 -220c-81 0 -147 26 -185 46l17 45c42 -22 103 -43 168 -43c104 0 190 44 190 172c0 97 -58 148 -179 148c-41 0 -95 -4 -140 -11z" />
    <glyph glyph-name="six" unicode="6" 
d="M362 680v-6l-181 -280l1 -1c26 19 66 35 120 35c135 0 223 -88 223 -221c0 -134 -86 -222 -228 -222c-146 0 -228 88 -228 222c0 73 32 150 86 234l152 239h55zM473 207c0 106 -63 173 -176 173s-176 -67 -176 -173c0 -105 63 -174 176 -174s176 69 176 174z" />
    <glyph glyph-name="seven" unicode="7" 
d="M198 0v6l245 625v2h-349v47h403v-41l-248 -639h-51z" />
    <glyph glyph-name="eight" unicode="8" 
d="M295 33c128 0 183 63 183 151s-56 151 -183 151s-183 -63 -183 -151s56 -151 183 -151zM295 695c144 0 209 -84 209 -182c0 -85 -51 -130 -98 -152v-2c76 -28 124 -93 124 -176c0 -109 -71 -198 -235 -198s-235 89 -235 198c0 83 48 148 124 176v2c-47 22 -98 67 -98 152
c0 98 65 182 209 182zM295 383c104 0 157 46 157 130s-52 134 -157 134s-157 -50 -157 -134s53 -130 157 -130z" />
    <glyph glyph-name="nine" unicode="9" 
d="M227 0v6l181 280l-1 1c-26 -19 -66 -35 -120 -35c-135 0 -223 88 -223 221c0 134 86 222 228 222c146 0 228 -88 228 -222c0 -73 -32 -150 -86 -234l-152 -239h-55zM116 473c0 -106 63 -173 176 -173s176 67 176 173c0 105 -63 174 -176 174s-176 -69 -176 -174z" />
    <glyph glyph-name="colon" unicode=":" horiz-adv-x="244" 
d="M78 453c0 26 19 44 44 44s44 -18 44 -44s-19 -44 -44 -44s-44 18 -44 44zM78 29c0 26 19 44 44 44s44 -18 44 -44s-19 -44 -44 -44s-44 18 -44 44z" />
    <glyph glyph-name="semicolon" unicode=";" horiz-adv-x="260" 
d="M78 -161v6l30 217h56v-6l-45 -217h-41zM91 453c0 26 19 44 44 44s44 -18 44 -44s-19 -44 -44 -44s-44 18 -44 44z" />
    <glyph glyph-name="less" unicode="&#x3c;" 
d="M505 49h-5l-438 202v37l438 202h5v-45l-388 -174v-3l388 -174v-45z" />
    <glyph glyph-name="equal" unicode="=" 
d="M73 358v43h444v-43h-444zM73 141v43h444v-43h-444z" />
    <glyph glyph-name="greater" unicode="&#x3e;" 
d="M90 49h-5v45l388 174v3l-388 174v45h5l438 -202v-37z" />
    <glyph glyph-name="question" unicode="?" horiz-adv-x="434" 
d="M62 593l-25 38c40 33 89 64 162 64c121 0 186 -85 186 -187c0 -129 -103 -179 -176 -204l-6 -110h-39l-3 142c93 29 172 69 172 171c0 80 -45 140 -134 140c-57 0 -99 -22 -137 -54zM139 29c0 26 19 44 44 44s44 -18 44 -44s-19 -44 -44 -44s-44 18 -44 44z" />
    <glyph glyph-name="at" unicode="@" horiz-adv-x="898" 
d="M631 494l-52 -332c-5 -32 0 -69 50 -69c51 0 151 45 151 257c0 168 -95 320 -307 320c-224 0 -359 -201 -359 -407c0 -211 125 -358 295 -358c66 0 128 19 175 46l19 -42c-57 -31 -123 -49 -194 -49c-196 0 -347 160 -347 403c0 237 152 452 411 452
c235 0 359 -169 359 -365c0 -239 -130 -302 -207 -302c-54 0 -79 30 -88 56h-1c-31 -23 -79 -44 -127 -44c-88 0 -148 54 -148 175c0 149 73 271 198 271c50 0 88 -21 120 -49h1l14 37h37zM526 146l43 267c-19 21 -61 48 -107 48c-91 0 -149 -108 -149 -226
c0 -84 37 -130 109 -130c39 0 82 22 104 41z" />
    <glyph glyph-name="A" unicode="A" horiz-adv-x="587" 
d="M319 680l249 -680h-53l-66 184h-311l-66 -184h-53l249 680h51zM294 614h-1l-138 -384h277z" />
    <glyph glyph-name="B" unicode="B" horiz-adv-x="598" 
d="M149 323v-276h164c93 0 172 33 172 138c0 104 -76 138 -170 138h-166zM99 680h202c124 0 212 -48 212 -176c0 -88 -51 -134 -100 -153v-2c73 -18 124 -74 124 -166c0 -128 -97 -183 -218 -183h-220v680zM149 633v-263h148c90 0 164 27 164 131c0 105 -74 132 -164 132
h-148z" />
    <glyph glyph-name="C" unicode="C" horiz-adv-x="580" 
d="M66 340c0 214 88 355 298 355c55 0 120 -17 169 -45l-19 -42c-50 28 -105 39 -150 39c-176 0 -246 -119 -246 -307s70 -307 246 -307c45 0 100 11 150 39l19 -42c-49 -28 -114 -45 -169 -45c-210 0 -298 141 -298 355z" />
    <glyph glyph-name="D" unicode="D" horiz-adv-x="667" 
d="M99 0v680h160c251 0 342 -120 342 -340s-91 -340 -342 -340h-160zM149 47h103c228 0 298 92 298 293s-70 293 -298 293h-103v-586z" />
    <glyph glyph-name="E" unicode="E" horiz-adv-x="574" 
d="M99 680h409v-47h-359v-260h329v-47h-329v-279h362v-47h-412v680z" />
    <glyph glyph-name="F" unicode="F" horiz-adv-x="550" 
d="M99 680h409v-47h-359v-266h329v-47h-329v-320h-50v680z" />
    <glyph glyph-name="G" unicode="G" horiz-adv-x="640" 
d="M372 322h195v-270c-56 -40 -135 -67 -218 -67c-196 0 -284 151 -284 355c0 201 95 355 288 355c83 0 155 -26 208 -60l-23 -41c-54 35 -121 53 -185 53c-159 0 -237 -127 -237 -307c0 -171 66 -307 233 -307c67 0 128 19 168 45v197l-145 9v38z" />
    <glyph glyph-name="H" unicode="H" horiz-adv-x="687" 
d="M538 0v326h-389v-326h-50v680h50v-307h389v307h50v-680h-50z" />
    <glyph glyph-name="I" unicode="I" horiz-adv-x="247" 
d="M148 680v-680h-49v680h49z" />
    <glyph glyph-name="J" unicode="J" horiz-adv-x="453" 
d="M25 52l27 37c31 -30 77 -56 131 -56c71 0 125 44 125 156v491h50v-494c0 -128 -71 -201 -175 -201c-65 0 -123 34 -158 67z" />
    <glyph glyph-name="K" unicode="K" horiz-adv-x="556" 
d="M151 318h-2v-318h-50v680h50v-337h2l313 337h58v-6l-315 -340l334 -328v-6h-65z" />
    <glyph glyph-name="L" unicode="L" horiz-adv-x="501" 
d="M99 680h50v-633h323v-47h-373v680z" />
    <glyph glyph-name="M" unicode="M" horiz-adv-x="807" 
d="M402 235h3l256 445h47v-680h-50v576h-2l-231 -403h-43l-231 403h-2v-576h-50v680h47z" />
    <glyph glyph-name="N" unicode="N" horiz-adv-x="690" 
d="M540 92h2v588h49v-680h-48l-392 589h-2v-589h-50v680h48z" />
    <glyph glyph-name="O" unicode="O" horiz-adv-x="696" 
d="M118 340c0 -170 53 -307 230 -307s230 137 230 307s-53 307 -230 307s-230 -137 -230 -307zM630 340c0 -205 -79 -355 -282 -355s-282 150 -282 355s79 355 282 355s282 -150 282 -355z" />
    <glyph glyph-name="P" unicode="P" horiz-adv-x="568" 
d="M149 0h-50v680h211c136 0 213 -69 213 -199s-78 -198 -213 -198h-161v-283zM149 633v-303h155c110 0 167 50 167 151s-57 152 -167 152h-155z" />
    <glyph glyph-name="Q" unicode="Q" horiz-adv-x="696" 
d="M630 340c0 -169 -53 -300 -185 -341l173 -97l-24 -44l-218 128c-9 0 -18 -1 -28 -1c-203 0 -282 150 -282 355s79 355 282 355s282 -150 282 -355zM118 340c0 -170 53 -307 230 -307s230 137 230 307s-53 307 -230 307s-230 -137 -230 -307z" />
    <glyph glyph-name="R" unicode="R" horiz-adv-x="610" 
d="M149 0h-50v680h231c132 0 207 -65 207 -184c0 -114 -71 -174 -179 -184l222 -305v-7h-58l-223 311h-150v-311zM149 358h175c109 0 162 47 162 138c0 89 -53 137 -162 137h-175v-275z" />
    <glyph glyph-name="S" unicode="S" horiz-adv-x="523" 
d="M52 61l26 42c43 -37 98 -70 183 -70c82 0 154 49 154 139c0 70 -44 107 -137 143l-68 26c-90 33 -143 91 -143 168c0 105 76 186 204 186c75 0 138 -24 184 -57l-23 -42c-49 34 -103 51 -161 51c-97 0 -152 -59 -152 -137c0 -55 32 -93 112 -123l66 -25
c113 -43 170 -96 170 -189c0 -109 -86 -188 -206 -188c-100 0 -162 38 -209 76z" />
    <glyph glyph-name="T" unicode="T" horiz-adv-x="520" 
d="M31 680h458v-47h-204v-633h-50v633h-204v47z" />
    <glyph glyph-name="U" unicode="U" horiz-adv-x="680" 
d="M94 680h50v-439c0 -131 73 -208 196 -208s196 77 196 208v439h50v-444c0 -153 -87 -251 -246 -251s-246 98 -246 251v444z" />
    <glyph glyph-name="V" unicode="V" horiz-adv-x="586" 
d="M565 680v-6l-246 -674h-52l-246 674v6h52l219 -605h2l219 605h52z" />
    <glyph glyph-name="W" unicode="W" horiz-adv-x="946" 
d="M918 680v-6l-205 -674h-53l-186 607h-2l-186 -607h-53l-205 674v6h51l180 -601h2l185 601h54l185 -601h2l180 601h51z" />
    <glyph glyph-name="X" unicode="X" horiz-adv-x="562" 
d="M32 680h56l192 -300h2l192 300h56v-6l-216 -333l216 -335v-6h-55l-193 301h-2l-193 -301h-55v6l216 335l-216 333v6z" />
    <glyph glyph-name="Y" unicode="Y" horiz-adv-x="534" 
d="M18 680h55l193 -335h2l193 335h55v-6l-224 -384v-290h-50v290l-224 384v6z" />
    <glyph glyph-name="Z" unicode="Z" horiz-adv-x="505" 
d="M57 680h400v-42l-355 -589v-2h355v-47h-416v42l355 589v2h-339v47z" />
    <glyph glyph-name="bracketleft" unicode="[" horiz-adv-x="297" 
d="M85 700h172v-38l-122 -9v-806l122 -9v-36h-172v898z" />
    <glyph glyph-name="backslash" unicode="\" horiz-adv-x="363" 
d="M322 0h-47l-234 670v10h46l235 -670v-10z" />
    <glyph glyph-name="bracketright" unicode="]" horiz-adv-x="297" 
d="M40 700h172v-898h-172v36l122 9v806l-122 9v38z" />
    <glyph glyph-name="asciicircum" unicode="^" horiz-adv-x="508" 
d="M444 377v-5h-43l-137 272h-1l-137 -272h-43v5l163 323h35z" />
    <glyph glyph-name="underscore" unicode="_" horiz-adv-x="441" 
d="M379 -63h-317v43h317v-43z" />
    <glyph glyph-name="grave" unicode="`" 
d="M244 691v5h54l48 -110v-5h-43z" />
    <glyph glyph-name="a" unicode="a" horiz-adv-x="498" 
d="M469 33v-37c-10 -3 -24 -6 -41 -6c-33 0 -55 18 -61 52h-2c-35 -29 -92 -57 -162 -57c-91 0 -155 57 -155 145c0 104 80 150 232 150h82v29c0 107 -54 143 -131 143c-59 0 -101 -20 -135 -46l-22 36c37 32 89 55 157 55c107 0 179 -55 179 -188v-241c0 -24 5 -35 32 -35
h27zM362 238h-75c-138 0 -189 -36 -189 -107c0 -64 44 -101 109 -101c63 0 115 24 155 55v153z" />
    <glyph glyph-name="b" unicode="b" horiz-adv-x="551" 
d="M132 385v-288c36 -40 98 -67 160 -67c115 0 151 94 151 211s-36 211 -151 211c-62 0 -124 -27 -160 -67zM84 700h48v-260h2c37 30 85 57 164 57c143 0 195 -116 195 -256s-52 -256 -195 -256c-76 0 -131 29 -168 59h-2l-6 -44h-38v700z" />
    <glyph glyph-name="c" unicode="c" horiz-adv-x="470" 
d="M57 241c0 147 74 256 219 256c49 0 100 -10 147 -36l-17 -40c-39 20 -86 31 -130 31c-118 0 -169 -98 -169 -211s51 -211 169 -211c44 0 91 11 130 31l17 -40c-47 -26 -98 -36 -147 -36c-145 0 -219 109 -219 256z" />
    <glyph glyph-name="d" unicode="d" horiz-adv-x="552" 
d="M420 97v288c-36 40 -98 67 -160 67c-115 0 -151 -94 -151 -211s36 -211 151 -211c62 0 124 27 160 67zM420 700h48v-700h-38l-6 44h-2c-37 -30 -92 -59 -168 -59c-143 0 -195 116 -195 256s52 256 195 256c79 0 127 -27 164 -57h2v260z" />
    <glyph glyph-name="e" unicode="e" horiz-adv-x="527" 
d="M468 232h-362c3 -117 58 -202 180 -202c65 0 107 22 144 48l22 -38c-40 -29 -88 -55 -167 -55c-160 0 -228 112 -228 258s86 254 218 254c135 0 200 -94 200 -199c0 -21 -3 -47 -7 -66zM275 452c-93 0 -157 -66 -168 -177h317c1 10 1 19 1 26c0 87 -49 151 -150 151z" />
    <glyph glyph-name="f" unicode="f" horiz-adv-x="324" 
d="M162 0h-48v439h-86v35l86 8v82c0 97 44 141 136 141c20 0 41 -2 58 -6v-45c-17 4 -37 6 -57 6c-62 0 -89 -23 -89 -91v-87h142v-43h-142v-439z" />
    <glyph glyph-name="g" unicode="g" horiz-adv-x="552" 
d="M420 97v288c-36 40 -99 67 -160 67c-114 0 -152 -94 -152 -211s38 -211 152 -211c61 0 124 27 160 67zM468 482v-484c0 -131 -77 -211 -198 -211c-66 0 -123 22 -162 45l18 41c39 -23 87 -39 144 -39c85 0 150 50 150 154v55h-2c-36 -30 -89 -57 -164 -57
c-142 0 -196 115 -196 255s54 256 196 256c78 0 131 -29 168 -59h2l5 44h39z" />
    <glyph glyph-name="h" unicode="h" horiz-adv-x="555" 
d="M475 0h-48v299c0 105 -44 153 -130 153c-72 0 -130 -33 -165 -59v-393h-48v700h48v-259h2c29 22 91 56 167 56c114 0 174 -66 174 -190v-307z" />
    <glyph glyph-name="i" unicode="i" horiz-adv-x="216" 
d="M132 0h-48v482h48v-482zM69 626c0 23 17 40 39 40c21 0 38 -17 38 -40s-17 -39 -38 -39c-22 0 -39 16 -39 39z" />
    <glyph glyph-name="j" unicode="j" horiz-adv-x="216" 
d="M84 482h48v-544c0 -110 -36 -151 -111 -151c-23 0 -39 3 -56 8v43c17 -4 35 -6 55 -6c44 0 64 28 64 89v561zM69 626c0 23 17 40 39 40c21 0 38 -17 38 -40s-17 -39 -38 -39c-22 0 -39 16 -39 39z" />
    <glyph glyph-name="k" unicode="k" horiz-adv-x="445" 
d="M134 225h-2v-225h-48v700h48v-448h2l227 230h59v-5l-237 -236l245 -236v-5h-63z" />
    <glyph glyph-name="l" unicode="l" horiz-adv-x="232" 
d="M86 700h48v-620c0 -31 6 -47 37 -47h35v-37c-12 -4 -27 -6 -42 -6c-57 0 -78 32 -78 98v612z" />
    <glyph glyph-name="m" unicode="m" horiz-adv-x="866" 
d="M84 482h38l5 -43h2c30 23 89 58 165 58c68 0 116 -24 140 -64h2c42 36 110 64 181 64c117 0 169 -65 169 -190v-307h-48v299c0 104 -35 153 -125 153c-53 0 -121 -22 -163 -60c4 -16 9 -48 9 -85v-307h-48v299c0 92 -16 153 -121 153c-69 0 -123 -30 -158 -59v-393h-48
v482z" />
    <glyph glyph-name="n" unicode="n" horiz-adv-x="555" 
d="M84 482h39l5 -44h2c29 23 92 59 171 59c114 0 174 -66 174 -190v-307h-48v299c0 105 -43 153 -130 153c-72 0 -130 -33 -165 -59v-393h-48v482z" />
    <glyph glyph-name="o" unicode="o" horiz-adv-x="562" 
d="M107 241c0 -104 34 -211 174 -211s174 107 174 211s-34 211 -174 211s-174 -107 -174 -211zM505 241c0 -132 -53 -256 -224 -256s-224 124 -224 256s53 256 224 256s224 -124 224 -256z" />
    <glyph glyph-name="p" unicode="p" horiz-adv-x="552" 
d="M84 482h39l5 -44h2c37 30 90 59 169 59c143 0 195 -116 195 -256s-52 -256 -195 -256c-79 0 -127 27 -165 57h-2v-240h-48v680zM132 385v-288c36 -40 98 -67 161 -67c115 0 151 94 151 211s-36 211 -151 211c-63 0 -125 -27 -161 -67z" />
    <glyph glyph-name="q" unicode="q" horiz-adv-x="552" 
d="M429 482h39v-680h-48v240h-2c-38 -30 -86 -57 -165 -57c-143 0 -195 116 -195 256s52 256 195 256c79 0 132 -29 169 -59h2zM420 97v288c-36 40 -98 67 -161 67c-115 0 -151 -94 -151 -211s36 -211 151 -211c63 0 125 27 161 67z" />
    <glyph glyph-name="r" unicode="r" horiz-adv-x="328" 
d="M84 482h38l6 -49h2c22 31 57 64 124 64c18 0 38 -3 53 -7l-8 -45c-17 5 -33 7 -47 7c-61 0 -96 -37 -120 -77v-375h-48v482z" />
    <glyph glyph-name="s" unicode="s" horiz-adv-x="435" 
d="M48 31l22 40c35 -26 78 -41 140 -41c80 0 124 35 124 93c0 40 -24 69 -99 91l-60 18c-73 22 -115 59 -115 126c0 80 59 139 167 139c57 0 105 -14 147 -34l-18 -43c-44 24 -88 32 -128 32c-80 0 -118 -37 -118 -93c0 -36 19 -64 78 -81l60 -18c92 -27 136 -63 136 -136
c0 -77 -60 -139 -173 -139c-73 0 -121 19 -163 46z" />
    <glyph glyph-name="t" unicode="t" horiz-adv-x="307" 
d="M111 594h48v-112h117v-43h-117v-348c0 -40 17 -61 53 -61c24 0 50 6 65 11v-44c-19 -6 -40 -12 -69 -12c-65 0 -97 40 -97 108v346h-86v35l86 8v112z" />
    <glyph glyph-name="u" unicode="u" horiz-adv-x="547" 
d="M463 0h-39l-5 44h-2c-29 -23 -87 -59 -166 -59c-115 0 -171 66 -171 190v307h48v-299c0 -105 39 -153 126 -153c72 0 126 33 161 59v393h48v-482z" />
    <glyph glyph-name="v" unicode="v" horiz-adv-x="470" 
d="M443 482v-6l-183 -476h-50l-183 476v6h49l158 -421h2l158 421h49z" />
    <glyph glyph-name="w" unicode="w" horiz-adv-x="802" 
d="M773 482v-6l-173 -476h-50l-148 422h-2l-148 -422h-50l-173 476v6h48l149 -415h2l148 415h50l148 -415h2l149 415h48z" />
    <glyph glyph-name="x" unicode="x" horiz-adv-x="456" 
d="M229 205h-2l-138 -205h-53v6l160 235l-160 235v6h53l138 -207h2l138 207h53v-6l-160 -235l160 -235v-6h-53z" />
    <glyph glyph-name="y" unicode="y" horiz-adv-x="474" 
d="M446 482v-6l-206 -558c-32 -84 -74 -131 -146 -131c-19 0 -47 5 -62 9v44c16 -4 40 -8 61 -8c46 0 79 41 97 90l30 80l-195 474v6h51l166 -416h3l152 416h49z" />
    <glyph glyph-name="z" unicode="z" horiz-adv-x="425" 
d="M54 482h324v-34l-273 -403v-2h273v-43h-336v32l274 405v2h-262v43z" />
    <glyph glyph-name="braceleft" unicode="{" horiz-adv-x="303" 
d="M112 252v-2c36 -16 53 -47 53 -106v-210c0 -66 22 -94 95 -94v-38h-5c-111 0 -140 41 -140 132v219c0 47 -12 75 -68 75v46c56 0 68 28 68 75v219c0 91 29 132 140 132h5v-38c-73 0 -95 -28 -95 -94v-210c0 -59 -17 -90 -53 -106z" />
    <glyph glyph-name="bar" unicode="|" horiz-adv-x="218" 
d="M133 700v-898h-48v898h48z" />
    <glyph glyph-name="braceright" unicode="}" horiz-adv-x="303" 
d="M191 250v2c-36 16 -53 47 -53 106v210c0 66 -22 94 -95 94v38h5c111 0 140 -41 140 -132v-219c0 -47 12 -75 68 -75v-46c-56 0 -68 -28 -68 -75v-219c0 -91 -29 -132 -140 -132h-5v38c73 0 95 28 95 94v210c0 59 17 90 53 106z" />
    <glyph glyph-name="asciitilde" unicode="~" horiz-adv-x="494" 
d="M314 272c31 0 47 10 80 46l23 -32c-26 -32 -58 -57 -103 -57c-51 0 -97 44 -135 44c-31 0 -47 -10 -80 -45l-23 32c26 32 58 57 103 57c50 0 98 -45 135 -45z" />
    <glyph glyph-name="uni00A0" unicode="&#xa0;" horiz-adv-x="265" 
 />
    <glyph glyph-name="exclamdown" unicode="&#xa1;" horiz-adv-x="222" 
d="M86 -7l9 295h32l9 -295v-191h-50v191zM156 453c0 -26 -19 -44 -44 -44s-44 18 -44 44s19 44 44 44s44 -18 44 -44z" />
    <glyph glyph-name="cent" unicode="&#xa2;" 
d="M115 241c0 138 66 243 195 254v83h48v-82c41 -3 83 -13 123 -35l-17 -40c-32 16 -70 27 -106 30v-420c36 3 74 13 106 30l17 -40c-40 -22 -82 -32 -123 -35v-82h-48v83c-129 11 -195 115 -195 254zM165 241c0 -105 44 -197 145 -210v419c-101 -12 -145 -104 -145 -209z
" />
    <glyph glyph-name="sterling" unicode="&#xa3;" 
d="M105 0v38c55 23 94 80 94 139c0 44 -6 90 -13 133h-91v42h83c-10 54 -19 111 -19 167c0 122 87 176 175 176c56 0 107 -20 149 -48l-23 -40c-47 30 -85 40 -126 40c-63 0 -126 -34 -126 -128c0 -55 9 -112 20 -167h199v-42h-190c8 -45 14 -91 14 -133
c-1 -75 -41 -117 -66 -130v-2h308v-45h-388z" />
    <glyph glyph-name="currency" unicode="&#xa4;" 
d="M468 270c0 -40 -10 -80 -30 -112l84 -85l-32 -33l-82 83c-28 -24 -67 -38 -117 -38c-47 0 -84 12 -111 33l-78 -78l-32 33l78 79c-23 33 -34 75 -34 118s11 85 34 118l-78 79l31 33l78 -79c28 21 65 34 112 34c51 0 89 -15 117 -39l83 84l31 -33l-84 -86
c20 -32 30 -71 30 -111zM164 270c0 -67 29 -140 127 -140s127 73 127 140s-29 140 -127 140s-127 -73 -127 -140z" />
    <glyph glyph-name="yen" unicode="&#xa5;" 
d="M59 680h55l180 -308h2l180 308h55v-6l-185 -309h149v-42h-175v-120h175v-42h-175v-161h-50v161h-175v42h175v120h-175v42h149l-185 309v6z" />
    <glyph glyph-name="brokenbar" unicode="&#xa6;" horiz-adv-x="232" 
d="M92 134h48v-332h-48v332zM140 368h-48v332h48v-332z" />
    <glyph glyph-name="section" unicode="&#xa7;" horiz-adv-x="531" 
d="M382 115v-3c55 -33 83 -72 83 -131c0 -93 -84 -160 -201 -160c-98 0 -158 33 -204 65l25 41c42 -32 96 -58 179 -58c80 0 149 35 149 111c0 60 -42 91 -133 122l-66 22c-102 32 -140 78 -140 143c0 51 27 109 80 143v3c-52 31 -80 72 -80 124c0 89 75 158 199 158
c75 0 135 -20 180 -48l-22 -43c-48 29 -101 43 -158 43c-94 0 -147 -43 -147 -109c0 -47 30 -79 108 -105l65 -21c110 -37 166 -75 166 -161c0 -57 -32 -106 -83 -136zM280 365l-82 27c-48 -25 -72 -74 -72 -124c0 -47 30 -71 108 -98l105 -36c40 23 74 62 74 116
c0 60 -42 85 -133 115z" />
    <glyph glyph-name="dieresis" unicode="&#xa8;" 
d="M166 626c0 23 17 40 39 40c21 0 38 -17 38 -40s-17 -39 -38 -39c-22 0 -39 16 -39 39zM344 626c0 23 17 40 39 40c21 0 38 -17 38 -40s-17 -39 -38 -39c-22 0 -39 16 -39 39z" />
    <glyph glyph-name="copyright" unicode="&#xa9;" horiz-adv-x="836" 
d="M773 340c0 -201 -154 -355 -355 -355s-355 154 -355 355s154 355 355 355s355 -154 355 -355zM110 340c0 -180 126 -311 308 -311s308 131 308 311s-126 311 -308 311s-308 -131 -308 -311zM295 340c0 -91 39 -150 128 -150c31 0 58 4 89 17l15 -38
c-35 -16 -69 -24 -104 -24c-117 0 -176 78 -176 195s59 195 176 195c35 0 69 -8 104 -24l-15 -38c-31 13 -58 17 -89 17c-89 0 -128 -59 -128 -150z" />
    <glyph glyph-name="ordfeminine" unicode="&#xaa;" horiz-adv-x="370" 
d="M262 490h-43c-88 0 -113 -16 -113 -55c0 -30 25 -50 64 -50c31 0 66 14 92 31v74zM307 348h-36l-5 28c-32 -23 -65 -34 -105 -34c-54 0 -102 28 -102 93c0 75 65 95 150 95h53v17c0 62 -46 73 -77 73c-28 0 -64 -10 -86 -27l-23 34c27 21 64 36 109 36
c92 0 122 -50 122 -130v-185zM310 228h-247v43h247v-43z" />
    <glyph glyph-name="guillemotleft" unicode="&#xab;" horiz-adv-x="462" 
d="M48 269v2l149 204l34 -25l-132 -180l130 -180l-32 -25zM221 269v2l149 204l34 -25l-132 -180l130 -180l-32 -25z" />
    <glyph glyph-name="logicalnot" unicode="&#xac;" 
d="M470 115v133h-397v43h445v-176h-48z" />
    <glyph glyph-name="uni00AD" unicode="&#xad;" horiz-adv-x="395" 
d="M317 250h-239v43h239v-43z" />
    <glyph glyph-name="registered" unicode="&#xae;" horiz-adv-x="568" 
d="M95 561c0 -108 81 -191 189 -191s189 83 189 191s-81 191 -189 191s-189 -83 -189 -191zM241 455h-39v218h87c45 0 73 -20 73 -64c0 -35 -17 -54 -49 -61l65 -90v-3h-43l-61 90h-33v-90zM241 579h37c34 0 45 7 45 30s-11 30 -45 30h-37v-60zM56 561c0 130 99 229 228 229
s228 -99 228 -229s-99 -229 -228 -229s-228 99 -228 229z" />
    <glyph glyph-name="macron" unicode="&#xaf;" 
d="M413 596h-239v43h239v-43z" />
    <glyph glyph-name="degree" unicode="&#xb0;" horiz-adv-x="406" 
d="M106 553c0 -60 40 -99 97 -99s97 39 97 99s-40 99 -97 99s-97 -39 -97 -99zM58 553c0 83 60 142 145 142s145 -59 145 -142s-60 -142 -145 -142s-145 59 -145 142z" />
    <glyph glyph-name="plusminus" unicode="&#xb1;" 
d="M73 43h444v-43h-444v43zM319 636v-216h198v-43h-198v-216h-48v216h-198v43h198v216h48z" />
    <glyph glyph-name="twosuperior" unicode="&#xb2;" horiz-adv-x="291" 
d="M101 514v-1h152v-37h-218v32l116 107c28 25 52 52 52 87c0 40 -25 67 -68 67c-32 0 -59 -19 -78 -36l-23 30c19 19 53 45 101 45c72 0 112 -43 112 -103c0 -46 -22 -74 -51 -103z" />
    <glyph glyph-name="threesuperior" unicode="&#xb3;" horiz-adv-x="299" 
d="M78 622v37h52c55 0 78 24 78 53c0 38 -26 57 -71 57c-25 0 -57 -6 -82 -19l-14 35c27 15 67 23 99 23c68 0 112 -33 112 -89c0 -39 -25 -65 -54 -76v-1c34 -12 60 -35 60 -78c0 -60 -50 -96 -123 -96c-43 0 -78 11 -103 24l13 36c25 -12 60 -21 89 -21c43 0 80 14 80 59
c0 35 -27 56 -86 56h-50z" />
    <glyph glyph-name="acute" unicode="&#xb4;" 
d="M342 696v-5l-59 -110h-43v5l48 110h54z" />
    <glyph glyph-name="mu" unicode="&#xb5;" horiz-adv-x="549" 
d="M131 -198h-48v680h48v-299c0 -105 39 -153 126 -153c72 0 126 33 161 59v393h48v-482h-39l-5 44h-2c-29 -21 -87 -59 -166 -59c-57 0 -99 17 -123 51v-234z" />
    <glyph glyph-name="paragraph" unicode="&#xb6;" horiz-adv-x="495" 
d="M150 -198v663c-62 0 -115 36 -115 106c0 74 53 109 115 109h313v-45h-100v-833h-48v833h-117v-833h-48z" />
    <glyph glyph-name="periodcentered" unicode="&#xb7;" horiz-adv-x="246" 
d="M79 289c0 26 19 44 44 44s44 -18 44 -44s-19 -44 -44 -44s-44 18 -44 44z" />
    <glyph glyph-name="cedilla" unicode="&#xb8;" 
d="M272 -85l-4 5l22 87h45l-17 -57c38 -4 73 -25 73 -73c0 -61 -45 -90 -100 -90c-42 0 -69 13 -80 20l14 40c16 -10 41 -18 66 -18c31 0 50 15 50 48c0 31 -24 38 -69 38z" />
    <glyph glyph-name="onesuperior" unicode="&#xb9;" horiz-adv-x="219" 
d="M30 707h-5v39l110 54h34v-324h-42v277h-1z" />
    <glyph glyph-name="ordmasculine" unicode="&#xba;" horiz-adv-x="379" 
d="M90 502c0 -66 29 -118 99 -118s99 52 99 118s-29 118 -99 118s-99 -52 -99 -118zM314 228h-247v43h247v-43zM43 502c0 88 43 161 146 161c102 0 146 -73 146 -161s-43 -161 -146 -161s-146 73 -146 161z" />
    <glyph glyph-name="guillemotright" unicode="&#xbb;" horiz-adv-x="462" 
d="M241 271v-2l-149 -204l-32 25l130 180l-132 180l34 25zM414 271v-2l-149 -204l-32 25l130 180l-132 180l34 25z" />
    <glyph glyph-name="onequarter" unicode="&#xbc;" horiz-adv-x="640" 
d="M132 0h-48v5l395 675h48v-5zM47 587h-5v39l110 54h34v-324h-42v277h-1zM505 245h42v-136h51v-37h-51v-72h-42v72h-170v29l90 223h44l-85 -214v-1h121v136z" />
    <glyph glyph-name="onehalf" unicode="&#xbd;" horiz-adv-x="660" 
d="M132 0h-48v5l395 675h48v-5zM47 587h-5v39l110 54h34v-324h-42v277h-1zM457 38v-1h152v-37h-218v32l116 107c28 25 52 52 52 87c0 40 -25 67 -68 67c-32 0 -59 -19 -78 -36l-23 30c19 19 53 45 101 45c72 0 112 -43 112 -103c0 -46 -22 -74 -51 -103z" />
    <glyph glyph-name="threequarters" unicode="&#xbe;" horiz-adv-x="707" 
d="M199 0h-48v5l395 675h48v-5zM572 245h42v-136h51v-37h-51v-72h-42v72h-170v29l90 223h44l-85 -214v-1h121v136zM96 499v37h52c55 0 78 24 78 53c0 38 -26 57 -71 57c-25 0 -57 -6 -82 -19l-14 35c27 15 67 23 99 23c68 0 112 -33 112 -89c0 -39 -25 -65 -54 -76v-1
c34 -12 60 -35 60 -78c0 -60 -50 -96 -123 -96c-43 0 -78 11 -103 24l13 36c25 -12 60 -21 89 -21c43 0 80 14 80 59c0 35 -27 56 -86 56h-50z" />
    <glyph glyph-name="questiondown" unicode="&#xbf;" horiz-adv-x="426" 
d="M368 -111l25 -38c-40 -33 -89 -64 -162 -64c-121 0 -186 85 -186 187c0 129 103 179 176 204l6 110h39l3 -142c-93 -29 -172 -69 -172 -171c0 -80 45 -140 134 -140c57 0 99 22 137 54zM291 453c0 -26 -19 -44 -44 -44s-44 18 -44 44s19 44 44 44s44 -18 44 -44z" />
    <glyph glyph-name="Agrave" unicode="&#xc0;" horiz-adv-x="587" 
d="M319 680l249 -680h-53l-66 184h-311l-66 -184h-53l249 680h51zM294 614h-1l-138 -384h277zM209 854v5h56l48 -110v-5h-45z" />
    <glyph glyph-name="Aacute" unicode="&#xc1;" horiz-adv-x="587" 
d="M319 680l249 -680h-53l-66 184h-311l-66 -184h-53l249 680h51zM294 614h-1l-138 -384h277zM376 859v-5l-59 -110h-45v5l48 110h56z" />
    <glyph glyph-name="Acircumflex" unicode="&#xc2;" horiz-adv-x="587" 
d="M319 680l249 -680h-53l-66 184h-311l-66 -184h-53l249 680h51zM294 614h-1l-138 -384h277zM312 859l102 -110v-5h-52l-68 73l-68 -73h-52v5l102 110h36z" />
    <glyph glyph-name="Atilde" unicode="&#xc3;" horiz-adv-x="587" 
d="M319 680l249 -680h-53l-66 184h-311l-66 -184h-53l249 680h51zM294 614h-1l-138 -384h277zM344 804c22 0 36 10 55 35l23 -29c-20 -30 -45 -49 -78 -49c-38 0 -75 39 -100 39c-22 0 -36 -10 -55 -35l-23 29c20 30 45 49 78 49c37 0 76 -39 100 -39z" />
    <glyph glyph-name="Adieresis" unicode="&#xc4;" horiz-adv-x="587" 
d="M319 680l249 -680h-53l-66 184h-311l-66 -184h-53l249 680h51zM294 614h-1l-138 -384h277zM166 801c0 23 17 40 39 40c21 0 38 -17 38 -40s-17 -39 -38 -39c-22 0 -39 16 -39 39zM344 801c0 23 17 40 39 40c21 0 38 -17 38 -40s-17 -39 -38 -39c-22 0 -39 16 -39 39z" />
    <glyph glyph-name="Aring" unicode="&#xc5;" horiz-adv-x="587" 
d="M212 725c0 48 34 79 82 79s82 -31 82 -79c0 -35 -19 -62 -47 -73l239 -652h-53l-66 184h-311l-66 -184h-53l239 652c-28 12 -46 38 -46 73zM294 614h-1l-138 -384h277zM248 725c0 -28 18 -44 46 -44s46 16 46 44s-18 44 -46 44s-46 -16 -46 -44z" />
    <glyph glyph-name="AE" unicode="&#xc6;" horiz-adv-x="866" 
d="M803 47v-47h-412v198h-237l-110 -198h-55v5l383 675h428v-47h-359v-260h329v-47h-329v-279h362zM391 620h-2l-209 -376h211v376z" />
    <glyph glyph-name="Ccedilla" unicode="&#xc7;" horiz-adv-x="580" 
d="M308 -85l-4 5l17 68c-179 18 -255 153 -255 352c0 214 88 355 298 355c55 0 120 -17 169 -45l-19 -42c-50 28 -105 39 -150 39c-176 0 -246 -119 -246 -307s70 -307 246 -307c45 0 100 11 150 39l19 -42c-49 -28 -114 -45 -169 -45l-10 -35c38 -4 73 -25 73 -73
c0 -61 -45 -90 -100 -90c-42 0 -69 13 -80 20l14 40c16 -10 41 -18 66 -18c31 0 50 15 50 48c0 31 -24 38 -69 38z" />
    <glyph glyph-name="Egrave" unicode="&#xc8;" horiz-adv-x="574" 
d="M99 680h409v-47h-359v-260h329v-47h-329v-279h362v-47h-412v680zM230 854v5h56l48 -110v-5h-45z" />
    <glyph glyph-name="Eacute" unicode="&#xc9;" horiz-adv-x="574" 
d="M99 680h409v-47h-359v-260h329v-47h-329v-279h362v-47h-412v680zM387 859v-5l-59 -110h-45v5l48 110h56z" />
    <glyph glyph-name="Ecircumflex" unicode="&#xca;" horiz-adv-x="574" 
d="M99 680h409v-47h-359v-260h329v-47h-329v-279h362v-47h-412v680zM326 859l102 -110v-5h-52l-68 73l-68 -73h-52v5l102 110h36z" />
    <glyph glyph-name="Edieresis" unicode="&#xcb;" horiz-adv-x="574" 
d="M99 680h409v-47h-359v-260h329v-47h-329v-279h362v-47h-412v680zM180 801c0 23 17 40 39 40c21 0 38 -17 38 -40s-17 -39 -38 -39c-22 0 -39 16 -39 39zM358 801c0 23 17 40 39 40c21 0 38 -17 38 -40s-17 -39 -38 -39c-22 0 -39 16 -39 39z" />
    <glyph glyph-name="Igrave" unicode="&#xcc;" horiz-adv-x="247" 
d="M148 680v-680h-49v680h49zM39 854v5h56l48 -110v-5h-45z" />
    <glyph glyph-name="Iacute" unicode="&#xcd;" horiz-adv-x="247" 
d="M148 680v-680h-49v680h49zM207 859v-5l-59 -110h-45v5l48 110h56z" />
    <glyph glyph-name="Icircumflex" unicode="&#xce;" horiz-adv-x="247" 
d="M148 680v-680h-49v680h49zM141 859l102 -110v-5h-52l-68 73l-68 -73h-52v5l102 110h36z" />
    <glyph glyph-name="Idieresis" unicode="&#xcf;" horiz-adv-x="247" 
d="M148 680v-680h-49v680h49zM-5 801c0 23 17 40 39 40c21 0 38 -17 38 -40s-17 -39 -38 -39c-22 0 -39 16 -39 39zM173 801c0 23 17 40 39 40c21 0 38 -17 38 -40s-17 -39 -38 -39c-22 0 -39 16 -39 39z" />
    <glyph glyph-name="Eth" unicode="&#xd0;" horiz-adv-x="668" 
d="M100 0v312h-53v47h53v321h160c251 0 342 -120 342 -340s-91 -340 -342 -340h-160zM150 47h103c228 0 298 92 298 293s-70 293 -298 293h-103v-274h178v-47h-178v-265z" />
    <glyph glyph-name="Ntilde" unicode="&#xd1;" horiz-adv-x="690" 
d="M540 92h2v588h49v-680h-48l-392 589h-2v-589h-50v680h48zM397 804c22 0 36 10 55 35l23 -29c-20 -30 -45 -49 -78 -49c-38 0 -75 39 -100 39c-22 0 -36 -10 -55 -35l-23 29c20 30 45 49 78 49c37 0 76 -39 100 -39z" />
    <glyph glyph-name="Ograve" unicode="&#xd2;" horiz-adv-x="696" 
d="M118 340c0 -170 53 -307 230 -307s230 137 230 307s-53 307 -230 307s-230 -137 -230 -307zM630 340c0 -205 -79 -355 -282 -355s-282 150 -282 355s79 355 282 355s282 -150 282 -355zM276 854v5h56l48 -110v-5h-45z" />
    <glyph glyph-name="Oacute" unicode="&#xd3;" horiz-adv-x="696" 
d="M118 340c0 -170 53 -307 230 -307s230 137 230 307s-53 307 -230 307s-230 -137 -230 -307zM630 340c0 -205 -79 -355 -282 -355s-282 150 -282 355s79 355 282 355s282 -150 282 -355zM425 859v-5l-59 -110h-45v5l48 110h56z" />
    <glyph glyph-name="Ocircumflex" unicode="&#xd4;" horiz-adv-x="696" 
d="M118 340c0 -170 53 -307 230 -307s230 137 230 307s-53 307 -230 307s-230 -137 -230 -307zM630 340c0 -205 -79 -355 -282 -355s-282 150 -282 355s79 355 282 355s282 -150 282 -355zM366 859l102 -110v-5h-52l-68 73l-68 -73h-52v5l102 110h36z" />
    <glyph glyph-name="Otilde" unicode="&#xd5;" horiz-adv-x="696" 
d="M118 340c0 -170 53 -307 230 -307s230 137 230 307s-53 307 -230 307s-230 -137 -230 -307zM630 340c0 -205 -79 -355 -282 -355s-282 150 -282 355s79 355 282 355s282 -150 282 -355zM398 804c22 0 36 10 55 35l23 -29c-20 -30 -45 -49 -78 -49c-38 0 -75 39 -100 39
c-22 0 -36 -10 -55 -35l-23 29c20 30 45 49 78 49c37 0 76 -39 100 -39z" />
    <glyph glyph-name="Odieresis" unicode="&#xd6;" horiz-adv-x="696" 
d="M118 340c0 -170 53 -307 230 -307s230 137 230 307s-53 307 -230 307s-230 -137 -230 -307zM630 340c0 -205 -79 -355 -282 -355s-282 150 -282 355s79 355 282 355s282 -150 282 -355zM220 801c0 23 17 40 39 40c21 0 38 -17 38 -40s-17 -39 -38 -39
c-22 0 -39 16 -39 39zM398 801c0 23 17 40 39 40c21 0 38 -17 38 -40s-17 -39 -38 -39c-22 0 -39 16 -39 39z" />
    <glyph glyph-name="multiply" unicode="&#xd7;" 
d="M97 99l167 167l-167 167l30 32l168 -168l168 168l30 -32l-167 -167l167 -167l-32 -30l-166 166l-166 -166z" />
    <glyph glyph-name="Oslash" unicode="&#xd8;" horiz-adv-x="696" 
d="M142 -23l-38 25l42 64c-57 63 -80 160 -80 274c0 205 79 355 282 355c74 0 131 -20 175 -56l41 63l38 -26l-46 -70c51 -64 74 -157 74 -266c0 -205 -79 -355 -282 -355c-71 0 -126 18 -168 50zM118 340c0 -92 14 -174 57 -230l320 487c-35 32 -82 50 -147 50
c-177 0 -230 -137 -230 -307zM578 340c0 87 -14 165 -52 221l-319 -484c35 -28 80 -44 141 -44c177 0 230 137 230 307z" />
    <glyph glyph-name="Ugrave" unicode="&#xd9;" horiz-adv-x="680" 
d="M94 680h50v-439c0 -131 73 -208 196 -208s196 77 196 208v439h50v-444c0 -153 -87 -251 -246 -251s-246 98 -246 251v444zM264 854v5h56l48 -110v-5h-45z" />
    <glyph glyph-name="Uacute" unicode="&#xda;" horiz-adv-x="680" 
d="M94 680h50v-439c0 -131 73 -208 196 -208s196 77 196 208v439h50v-444c0 -153 -87 -251 -246 -251s-246 98 -246 251v444zM417 859v-5l-59 -110h-45v5l48 110h56z" />
    <glyph glyph-name="Ucircumflex" unicode="&#xdb;" horiz-adv-x="680" 
d="M94 680h50v-439c0 -131 73 -208 196 -208s196 77 196 208v439h50v-444c0 -153 -87 -251 -246 -251s-246 98 -246 251v444zM358 859l102 -110v-5h-52l-68 73l-68 -73h-52v5l102 110h36z" />
    <glyph glyph-name="Udieresis" unicode="&#xdc;" horiz-adv-x="680" 
d="M94 680h50v-439c0 -131 73 -208 196 -208s196 77 196 208v439h50v-444c0 -153 -87 -251 -246 -251s-246 98 -246 251v444zM212 801c0 23 17 40 39 40c21 0 38 -17 38 -40s-17 -39 -38 -39c-22 0 -39 16 -39 39zM390 801c0 23 17 40 39 40c21 0 38 -17 38 -40
s-17 -39 -38 -39c-22 0 -39 16 -39 39z" />
    <glyph glyph-name="Yacute" unicode="&#xdd;" horiz-adv-x="534" 
d="M18 680h55l193 -335h2l193 335h55v-6l-224 -384v-290h-50v290l-224 384v6zM347 859v-5l-59 -110h-45v5l48 110h56z" />
    <glyph glyph-name="Thorn" unicode="&#xde;" horiz-adv-x="574" 
d="M149 0h-50v680h50v-129h161c138 0 213 -69 213 -199s-76 -198 -213 -198h-161v-154zM149 504v-303h155c110 0 167 50 167 151s-57 152 -167 152h-155z" />
    <glyph glyph-name="germandbls" unicode="&#xdf;" horiz-adv-x="566" 
d="M84 0v476c0 150 61 229 189 229c112 0 175 -84 175 -176c0 -76 -30 -120 -76 -144v-2c80 -18 139 -75 139 -192c0 -136 -87 -206 -214 -206c-15 0 -39 2 -50 5v44c13 -3 35 -4 50 -4c101 0 164 50 164 161c0 90 -45 166 -165 166h-30v42h29c64 0 103 47 103 130
c0 64 -41 131 -125 131c-103 0 -141 -63 -141 -184v-476h-48z" />
    <glyph glyph-name="agrave" unicode="&#xe0;" horiz-adv-x="498" 
d="M469 33v-37c-10 -3 -24 -6 -41 -6c-33 0 -55 18 -61 52h-2c-35 -29 -92 -57 -162 -57c-91 0 -155 57 -155 145c0 104 80 150 232 150h82v29c0 107 -54 143 -131 143c-59 0 -101 -20 -135 -46l-22 36c37 32 89 55 157 55c107 0 179 -55 179 -188v-241c0 -24 5 -35 32 -35
h27zM362 238h-75c-138 0 -189 -36 -189 -107c0 -64 44 -101 109 -101c63 0 115 24 155 55v153zM167 691v5h54l48 -110v-5h-43z" />
    <glyph glyph-name="aacute" unicode="&#xe1;" horiz-adv-x="498" 
d="M469 33v-37c-10 -3 -24 -6 -41 -6c-33 0 -55 18 -61 52h-2c-35 -29 -92 -57 -162 -57c-91 0 -155 57 -155 145c0 104 80 150 232 150h82v29c0 107 -54 143 -131 143c-59 0 -101 -20 -135 -46l-22 36c37 32 89 55 157 55c107 0 179 -55 179 -188v-241c0 -24 5 -35 32 -35
h27zM362 238h-75c-138 0 -189 -36 -189 -107c0 -64 44 -101 109 -101c63 0 115 24 155 55v153zM334 696v-5l-59 -110h-43v5l48 110h54z" />
    <glyph glyph-name="acircumflex" unicode="&#xe2;" horiz-adv-x="498" 
d="M469 33v-37c-10 -3 -24 -6 -41 -6c-33 0 -55 18 -61 52h-2c-35 -29 -92 -57 -162 -57c-91 0 -155 57 -155 145c0 104 80 150 232 150h82v29c0 107 -54 143 -131 143c-59 0 -101 -20 -135 -46l-22 36c37 32 89 55 157 55c107 0 179 -55 179 -188v-241c0 -24 5 -35 32 -35
h27zM362 238h-75c-138 0 -189 -36 -189 -107c0 -64 44 -101 109 -101c63 0 115 24 155 55v153zM264 696l102 -110v-5h-51l-69 73l-69 -73h-51v5l102 110h36z" />
    <glyph glyph-name="atilde" unicode="&#xe3;" horiz-adv-x="498" 
d="M469 33v-37c-10 -3 -24 -6 -41 -6c-33 0 -55 18 -61 52h-2c-35 -29 -92 -57 -162 -57c-91 0 -155 57 -155 145c0 104 80 150 232 150h82v29c0 107 -54 143 -131 143c-59 0 -101 -20 -135 -46l-22 36c37 32 89 55 157 55c107 0 179 -55 179 -188v-241c0 -24 5 -35 32 -35
h27zM362 238h-75c-138 0 -189 -36 -189 -107c0 -64 44 -101 109 -101c63 0 115 24 155 55v153zM297 622c22 0 36 11 55 36l23 -29c-20 -30 -45 -48 -78 -48c-38 0 -75 39 -100 39c-22 0 -36 -11 -55 -36l-23 29c20 30 45 48 78 48c37 0 75 -39 100 -39z" />
    <glyph glyph-name="adieresis" unicode="&#xe4;" horiz-adv-x="498" 
d="M469 33v-37c-10 -3 -24 -6 -41 -6c-33 0 -55 18 -61 52h-2c-35 -29 -92 -57 -162 -57c-91 0 -155 57 -155 145c0 104 80 150 232 150h82v29c0 107 -54 143 -131 143c-59 0 -101 -20 -135 -46l-22 36c37 32 89 55 157 55c107 0 179 -55 179 -188v-241c0 -24 5 -35 32 -35
h27zM362 238h-75c-138 0 -189 -36 -189 -107c0 -64 44 -101 109 -101c63 0 115 24 155 55v153zM120 626c0 23 17 40 39 40c21 0 38 -17 38 -40s-17 -39 -38 -39c-22 0 -39 16 -39 39zM298 626c0 23 17 40 39 40c21 0 38 -17 38 -40s-17 -39 -38 -39c-22 0 -39 16 -39 39z
" />
    <glyph glyph-name="aring" unicode="&#xe5;" horiz-adv-x="498" 
d="M469 33v-37c-10 -3 -24 -6 -41 -6c-33 0 -55 18 -61 52h-2c-35 -29 -92 -57 -162 -57c-91 0 -155 57 -155 145c0 104 80 150 232 150h82v29c0 107 -54 143 -131 143c-59 0 -101 -20 -135 -46l-22 36c37 32 89 55 157 55c107 0 179 -55 179 -188v-241c0 -24 5 -35 32 -35
h27zM362 238h-75c-138 0 -189 -36 -189 -107c0 -64 44 -101 109 -101c63 0 115 24 155 55v153zM201 622c0 -28 18 -44 46 -44s46 16 46 44s-18 44 -46 44s-46 -16 -46 -44zM165 622c0 48 34 79 82 79s82 -31 82 -79s-34 -79 -82 -79s-82 31 -82 79z" />
    <glyph glyph-name="ae" unicode="&#xe6;" horiz-adv-x="823" 
d="M770 300c0 -21 -3 -47 -7 -66h-349c3 -117 49 -204 171 -204c65 0 103 22 140 48l22 -38c-40 -29 -84 -55 -163 -55c-103 0 -160 48 -192 119c-34 -76 -93 -119 -189 -119c-91 0 -155 57 -155 145c0 104 80 147 232 147h85v32c0 107 -57 143 -134 143
c-59 0 -101 -20 -135 -46l-22 36c37 32 89 55 157 55c83 0 142 -32 167 -109c34 69 91 109 176 109c138 0 196 -92 196 -197zM365 235h-78c-138 0 -189 -33 -189 -104c0 -64 44 -101 109 -101c84 0 158 51 158 174v31zM719 277c1 10 1 19 1 26c0 87 -45 149 -146 149
c-93 0 -148 -64 -159 -175h304z" />
    <glyph glyph-name="ccedilla" unicode="&#xe7;" horiz-adv-x="470" 
d="M230 -85l-4 5l17 67c-124 15 -186 118 -186 254c0 147 74 256 219 256c49 0 100 -10 147 -36l-17 -40c-39 20 -86 31 -130 31c-118 0 -169 -98 -169 -211s51 -211 169 -211c44 0 91 11 130 31l17 -40c-44 -24 -91 -34 -137 -36l-10 -35c38 -4 73 -25 73 -73
c0 -61 -45 -90 -100 -90c-42 0 -69 13 -80 20l14 40c16 -10 41 -18 66 -18c31 0 50 15 50 48c0 31 -24 38 -69 38z" />
    <glyph glyph-name="egrave" unicode="&#xe8;" horiz-adv-x="527" 
d="M468 232h-362c3 -117 58 -202 180 -202c65 0 107 22 144 48l22 -38c-40 -29 -88 -55 -167 -55c-160 0 -228 112 -228 258s86 254 218 254c135 0 200 -94 200 -199c0 -21 -3 -47 -7 -66zM275 452c-93 0 -157 -66 -168 -177h317c1 10 1 19 1 26c0 87 -49 151 -150 151z
M199 691v5h54l48 -110v-5h-43z" />
    <glyph glyph-name="eacute" unicode="&#xe9;" horiz-adv-x="527" 
d="M468 232h-362c3 -117 58 -202 180 -202c65 0 107 22 144 48l22 -38c-40 -29 -88 -55 -167 -55c-160 0 -228 112 -228 258s86 254 218 254c135 0 200 -94 200 -199c0 -21 -3 -47 -7 -66zM275 452c-93 0 -157 -66 -168 -177h317c1 10 1 19 1 26c0 87 -49 151 -150 151z
M351 696v-5l-59 -110h-43v5l48 110h54z" />
    <glyph glyph-name="ecircumflex" unicode="&#xea;" horiz-adv-x="527" 
d="M468 232h-362c3 -117 58 -202 180 -202c65 0 107 22 144 48l22 -38c-40 -29 -88 -55 -167 -55c-160 0 -228 112 -228 258s86 254 218 254c135 0 200 -94 200 -199c0 -21 -3 -47 -7 -66zM275 452c-93 0 -157 -66 -168 -177h317c1 10 1 19 1 26c0 87 -49 151 -150 151z
M293 696l102 -110v-5h-51l-69 73l-69 -73h-51v5l102 110h36z" />
    <glyph glyph-name="edieresis" unicode="&#xeb;" horiz-adv-x="527" 
d="M468 232h-362c3 -117 58 -202 180 -202c65 0 107 22 144 48l22 -38c-40 -29 -88 -55 -167 -55c-160 0 -228 112 -228 258s86 254 218 254c135 0 200 -94 200 -199c0 -21 -3 -47 -7 -66zM275 452c-93 0 -157 -66 -168 -177h317c1 10 1 19 1 26c0 87 -49 151 -150 151z
M148 626c0 23 17 40 39 40c21 0 38 -17 38 -40s-17 -39 -38 -39c-22 0 -39 16 -39 39zM326 626c0 23 17 40 39 40c21 0 38 -17 38 -40s-17 -39 -38 -39c-22 0 -39 16 -39 39z" />
    <glyph glyph-name="igrave" unicode="&#xec;" horiz-adv-x="217" 
d="M25 691v5h54l48 -110v-5h-43zM133 0h-48v482h48v-482z" />
    <glyph glyph-name="iacute" unicode="&#xed;" horiz-adv-x="217" 
d="M189 696v-5l-59 -110h-43v5l48 110h54zM132 0h-48v482h48v-482z" />
    <glyph glyph-name="icircumflex" unicode="&#xee;" horiz-adv-x="218" 
d="M133 0h-48v482h48v-482zM126 696l102 -110v-5h-51l-69 73l-69 -73h-51v5l102 110h36z" />
    <glyph glyph-name="idieresis" unicode="&#xef;" horiz-adv-x="218" 
d="M-19 626c0 23 17 40 39 40c21 0 38 -17 38 -40s-17 -39 -38 -39c-22 0 -39 16 -39 39zM159 626c0 23 17 40 39 40c21 0 38 -17 38 -40s-17 -39 -38 -39c-22 0 -39 16 -39 39zM133 0h-48v482h48v-482z" />
    <glyph glyph-name="eth" unicode="&#xf0;" horiz-adv-x="575" 
d="M411 663l16 -37l-74 -26c90 -99 165 -227 165 -376c0 -138 -91 -239 -231 -239c-141 0 -231 99 -231 239c0 144 91 239 222 239c61 0 120 -20 152 -58l2 2c-23 57 -69 120 -123 177l-108 -37l-16 38l92 32c-31 29 -63 55 -94 78v5h64c25 -21 50 -43 75 -68zM106 224
c0 -117 74 -194 181 -194s181 77 181 194s-74 194 -181 194s-181 -77 -181 -194z" />
    <glyph glyph-name="ntilde" unicode="&#xf1;" horiz-adv-x="555" 
d="M84 482h39l5 -44h2c29 23 92 59 171 59c114 0 174 -66 174 -190v-307h-48v299c0 105 -43 153 -130 153c-72 0 -130 -33 -165 -59v-393h-48v482zM336 622c22 0 36 11 55 36l23 -29c-20 -30 -45 -48 -78 -48c-38 0 -75 39 -100 39c-22 0 -36 -11 -55 -36l-23 29
c20 30 45 48 78 48c37 0 75 -39 100 -39z" />
    <glyph glyph-name="ograve" unicode="&#xf2;" horiz-adv-x="562" 
d="M107 241c0 -104 34 -211 174 -211s174 107 174 211s-34 211 -174 211s-174 -107 -174 -211zM505 241c0 -132 -53 -256 -224 -256s-224 124 -224 256s53 256 224 256s224 -124 224 -256zM205 691v5h54l48 -110v-5h-43z" />
    <glyph glyph-name="oacute" unicode="&#xf3;" horiz-adv-x="562" 
d="M107 241c0 -104 34 -211 174 -211s174 107 174 211s-34 211 -174 211s-174 -107 -174 -211zM505 241c0 -132 -53 -256 -224 -256s-224 124 -224 256s53 256 224 256s224 -124 224 -256zM357 696v-5l-59 -110h-43v5l48 110h54z" />
    <glyph glyph-name="ocircumflex" unicode="&#xf4;" horiz-adv-x="562" 
d="M107 241c0 -104 34 -211 174 -211s174 107 174 211s-34 211 -174 211s-174 -107 -174 -211zM505 241c0 -132 -53 -256 -224 -256s-224 124 -224 256s53 256 224 256s224 -124 224 -256zM299 696l102 -110v-5h-51l-69 73l-69 -73h-51v5l102 110h36z" />
    <glyph glyph-name="otilde" unicode="&#xf5;" horiz-adv-x="562" 
d="M107 241c0 -104 34 -211 174 -211s174 107 174 211s-34 211 -174 211s-174 -107 -174 -211zM505 241c0 -132 -53 -256 -224 -256s-224 124 -224 256s53 256 224 256s224 -124 224 -256zM331 622c22 0 36 11 55 36l23 -29c-20 -30 -45 -48 -78 -48c-38 0 -75 39 -100 39
c-22 0 -36 -11 -55 -36l-23 29c20 30 45 48 78 48c37 0 75 -39 100 -39z" />
    <glyph glyph-name="odieresis" unicode="&#xf6;" horiz-adv-x="562" 
d="M107 241c0 -104 34 -211 174 -211s174 107 174 211s-34 211 -174 211s-174 -107 -174 -211zM505 241c0 -132 -53 -256 -224 -256s-224 124 -224 256s53 256 224 256s224 -124 224 -256zM154 626c0 23 17 40 39 40c21 0 38 -17 38 -40s-17 -39 -38 -39
c-22 0 -39 16 -39 39zM332 626c0 23 17 40 39 40c21 0 38 -17 38 -40s-17 -39 -38 -39c-22 0 -39 16 -39 39z" />
    <glyph glyph-name="divide" unicode="&#xf7;" 
d="M73 291h443v-43h-443v43zM250 463c0 28 17 44 44 44s44 -16 44 -44s-17 -44 -44 -44s-44 16 -44 44zM250 69c0 26 19 44 44 44s44 -18 44 -44s-19 -44 -44 -44s-44 18 -44 44z" />
    <glyph glyph-name="oslash" unicode="&#xf8;" horiz-adv-x="562" 
d="M116 -24l-32 25l34 47c-45 48 -61 119 -61 193c0 132 53 256 224 256c57 0 101 -15 135 -38l32 44l37 -27l-36 -48c41 -49 56 -117 56 -187c0 -132 -53 -256 -224 -256c-56 0 -99 14 -132 36zM107 241c0 -56 10 -112 40 -153l241 332c-26 20 -61 32 -107 32
c-140 0 -174 -107 -174 -211zM455 241c0 52 -9 106 -36 146l-242 -328c25 -18 59 -29 104 -29c140 0 174 107 174 211z" />
    <glyph glyph-name="ugrave" unicode="&#xf9;" horiz-adv-x="547" 
d="M463 0h-39l-5 44h-2c-29 -23 -87 -59 -166 -59c-115 0 -171 66 -171 190v307h48v-299c0 -105 39 -153 126 -153c72 0 126 33 161 59v393h48v-482zM195 691v5h54l48 -110v-5h-43z" />
    <glyph glyph-name="uacute" unicode="&#xfa;" horiz-adv-x="547" 
d="M463 0h-39l-5 44h-2c-29 -23 -87 -59 -166 -59c-115 0 -171 66 -171 190v307h48v-299c0 -105 39 -153 126 -153c72 0 126 33 161 59v393h48v-482zM347 696v-5l-59 -110h-43v5l48 110h54z" />
    <glyph glyph-name="ucircumflex" unicode="&#xfb;" horiz-adv-x="547" 
d="M463 0h-39l-5 44h-2c-29 -23 -87 -59 -166 -59c-115 0 -171 66 -171 190v307h48v-299c0 -105 39 -153 126 -153c72 0 126 33 161 59v393h48v-482zM288 696l102 -110v-5h-51l-69 73l-69 -73h-51v5l102 110h36z" />
    <glyph glyph-name="udieresis" unicode="&#xfc;" horiz-adv-x="547" 
d="M463 0h-39l-5 44h-2c-29 -23 -87 -59 -166 -59c-115 0 -171 66 -171 190v307h48v-299c0 -105 39 -153 126 -153c72 0 126 33 161 59v393h48v-482zM143 626c0 23 17 40 39 40c21 0 38 -17 38 -40s-17 -39 -38 -39c-22 0 -39 16 -39 39zM321 626c0 23 17 40 39 40
c21 0 38 -17 38 -40s-17 -39 -38 -39c-22 0 -39 16 -39 39z" />
    <glyph glyph-name="yacute" unicode="&#xfd;" horiz-adv-x="474" 
d="M446 482v-6l-206 -558c-32 -84 -74 -131 -146 -131c-19 0 -47 5 -62 9v44c16 -4 40 -8 61 -8c46 0 79 41 97 90l30 80l-195 474v6h51l166 -416h3l152 416h49zM318 696v-5l-59 -110h-43v5l48 110h54z" />
    <glyph glyph-name="thorn" unicode="&#xfe;" horiz-adv-x="552" 
d="M84 700h48v-260h2c37 29 86 57 165 57c143 0 195 -116 195 -256s-52 -256 -195 -256c-79 0 -127 27 -165 57h-2v-240h-48v898zM132 385v-288c36 -40 98 -67 161 -67c115 0 151 94 151 211s-36 211 -151 211c-63 0 -125 -27 -161 -67z" />
    <glyph glyph-name="ydieresis" unicode="&#xff;" horiz-adv-x="474" 
d="M446 482v-6l-206 -558c-32 -84 -74 -131 -146 -131c-19 0 -47 5 -62 9v44c16 -4 40 -8 61 -8c46 0 79 41 97 90l30 80l-195 474v6h51l166 -416h3l152 416h49zM115 626c0 23 17 40 39 40c21 0 38 -17 38 -40s-17 -39 -38 -39c-22 0 -39 16 -39 39zM293 626
c0 23 17 40 39 40c21 0 38 -17 38 -40s-17 -39 -38 -39c-22 0 -39 16 -39 39z" />
    <glyph glyph-name="Amacron" unicode="&#x100;" horiz-adv-x="587" 
d="M319 680l249 -680h-53l-66 184h-311l-66 -184h-53l249 680h51zM294 614h-1l-138 -384h277zM414 785h-239v45h239v-45z" />
    <glyph glyph-name="amacron" unicode="&#x101;" horiz-adv-x="498" 
d="M469 33v-37c-10 -3 -24 -6 -41 -6c-33 0 -55 18 -61 52h-2c-35 -29 -92 -57 -162 -57c-91 0 -155 57 -155 145c0 104 80 150 232 150h82v29c0 107 -54 143 -131 143c-59 0 -101 -20 -135 -46l-22 36c37 32 89 55 157 55c107 0 179 -55 179 -188v-241c0 -24 5 -35 32 -35
h27zM362 238h-75c-138 0 -189 -36 -189 -107c0 -64 44 -101 109 -101c63 0 115 24 155 55v153zM367 596h-239v43h239v-43z" />
    <glyph glyph-name="Abreve" unicode="&#x102;" horiz-adv-x="587" 
d="M319 680l249 -680h-53l-66 184h-311l-66 -184h-53l249 680h51zM294 614h-1l-138 -384h277zM294 808c59 0 80 25 99 50l26 -22c-22 -40 -57 -72 -125 -72s-103 32 -125 72l26 22c19 -25 40 -50 99 -50z" />
    <glyph glyph-name="abreve" unicode="&#x103;" horiz-adv-x="498" 
d="M469 33v-37c-10 -3 -24 -6 -41 -6c-33 0 -55 18 -61 52h-2c-35 -29 -92 -57 -162 -57c-91 0 -155 57 -155 145c0 104 80 150 232 150h82v29c0 107 -54 143 -131 143c-59 0 -101 -20 -135 -46l-22 36c37 32 89 55 157 55c107 0 179 -55 179 -188v-241c0 -24 5 -35 32 -35
h27zM362 238h-75c-138 0 -189 -36 -189 -107c0 -64 44 -101 109 -101c63 0 115 24 155 55v153zM247 613c59 0 80 25 99 50l26 -20c-22 -40 -57 -72 -125 -72s-103 32 -125 72l26 20c19 -25 40 -50 99 -50z" />
    <glyph glyph-name="Aogonek" unicode="&#x104;" horiz-adv-x="587" 
d="M494 -213c-56 0 -88 35 -88 82c0 60 46 99 106 139l-63 176h-311l-66 -184h-53l249 680h51l249 -680c-81 -55 -119 -82 -119 -124c0 -23 15 -47 48 -47c27 0 49 10 70 23l7 -38c-17 -13 -47 -27 -80 -27zM294 614h-1l-138 -384h277z" />
    <glyph glyph-name="aogonek" unicode="&#x105;" horiz-adv-x="498" 
d="M394 -213c-56 0 -88 35 -88 82c0 55 39 90 93 127c-17 7 -28 23 -32 46h-2c-35 -29 -92 -57 -162 -57c-91 0 -155 57 -155 145c0 104 80 150 232 150h82v29c0 107 -54 143 -131 143c-59 0 -101 -20 -135 -46l-22 36c37 32 89 55 157 55c107 0 179 -55 179 -188v-241
c0 -24 5 -35 32 -35h27v-37c-81 -55 -120 -78 -120 -120c0 -23 15 -47 48 -47c27 0 49 10 70 23l7 -38c-17 -13 -47 -27 -80 -27zM362 238h-75c-138 0 -189 -36 -189 -107c0 -64 44 -101 109 -101c63 0 115 24 155 55v153z" />
    <glyph glyph-name="Cacute" unicode="&#x106;" horiz-adv-x="580" 
d="M66 340c0 214 88 355 298 355c55 0 120 -17 169 -45l-19 -42c-50 28 -105 39 -150 39c-176 0 -246 -119 -246 -307s70 -307 246 -307c45 0 100 11 150 39l19 -42c-49 -28 -114 -45 -169 -45c-210 0 -298 141 -298 355zM428 859v-5l-59 -110h-45v5l48 110h56z" />
    <glyph glyph-name="cacute" unicode="&#x107;" horiz-adv-x="470" 
d="M57 241c0 147 74 256 219 256c49 0 100 -10 147 -36l-17 -40c-39 20 -86 31 -130 31c-118 0 -169 -98 -169 -211s51 -211 169 -211c44 0 91 11 130 31l17 -40c-47 -26 -98 -36 -147 -36c-145 0 -219 109 -219 256zM353 696v-5l-59 -110h-43v5l48 110h54z" />
    <glyph glyph-name="Ccircumflex" unicode="&#x108;" horiz-adv-x="580" 
d="M66 340c0 214 88 355 298 355c55 0 120 -17 169 -45l-19 -42c-50 28 -105 39 -150 39c-176 0 -246 -119 -246 -307s70 -307 246 -307c45 0 100 11 150 39l19 -42c-49 -28 -114 -45 -169 -45c-210 0 -298 141 -298 355zM365 859l102 -110v-5h-52l-68 73l-68 -73h-52v5
l102 110h36z" />
    <glyph glyph-name="ccircumflex" unicode="&#x109;" horiz-adv-x="470" 
d="M57 241c0 147 74 256 219 256c49 0 100 -10 147 -36l-17 -40c-39 20 -86 31 -130 31c-118 0 -169 -98 -169 -211s51 -211 169 -211c44 0 91 11 130 31l17 -40c-47 -26 -98 -36 -147 -36c-145 0 -219 109 -219 256zM295 696l102 -110v-5h-51l-69 73l-69 -73h-51v5l102 110
h36z" />
    <glyph glyph-name="Cdotaccent" unicode="&#x10a;" horiz-adv-x="580" 
d="M66 340c0 214 88 355 298 355c55 0 120 -17 169 -45l-19 -42c-50 28 -105 39 -150 39c-176 0 -246 -119 -246 -307s70 -307 246 -307c45 0 100 11 150 39l19 -42c-49 -28 -114 -45 -169 -45c-210 0 -298 141 -298 355zM308 802c0 23 17 40 39 40c21 0 38 -17 38 -40
s-17 -39 -38 -39c-22 0 -39 16 -39 39z" />
    <glyph glyph-name="cdotaccent" unicode="&#x10b;" horiz-adv-x="470" 
d="M57 241c0 147 74 256 219 256c49 0 100 -10 147 -36l-17 -40c-39 20 -86 31 -130 31c-118 0 -169 -98 -169 -211s51 -211 169 -211c44 0 91 11 130 31l17 -40c-47 -26 -98 -36 -147 -36c-145 0 -219 109 -219 256zM239 626c0 23 17 40 39 40c21 0 38 -17 38 -40
s-17 -39 -38 -39c-22 0 -39 16 -39 39z" />
    <glyph glyph-name="Ccaron" unicode="&#x10c;" horiz-adv-x="580" 
d="M66 340c0 214 88 355 298 355c55 0 120 -17 169 -45l-19 -42c-50 28 -105 39 -150 39c-176 0 -246 -119 -246 -307s70 -307 246 -307c45 0 100 11 150 39l19 -42c-49 -28 -114 -45 -169 -45c-210 0 -298 141 -298 355zM329 744l-102 110v5h52l68 -73l68 73h52v-5
l-102 -110h-36z" />
    <glyph glyph-name="ccaron" unicode="&#x10d;" horiz-adv-x="470" 
d="M57 241c0 147 74 256 219 256c49 0 100 -10 147 -36l-17 -40c-39 20 -86 31 -130 31c-118 0 -169 -98 -169 -211s51 -211 169 -211c44 0 91 11 130 31l17 -40c-47 -26 -98 -36 -147 -36c-145 0 -219 109 -219 256zM397 691l-102 -110h-36l-102 110v5h51l69 -73l69 73h51
v-5z" />
    <glyph glyph-name="Dcaron" unicode="&#x10e;" horiz-adv-x="667" 
d="M99 0v680h160c251 0 342 -120 342 -340s-91 -340 -342 -340h-160zM149 47h103c228 0 298 92 298 293s-70 293 -298 293h-103v-586zM297 744l-102 110v5h52l68 -73l68 73h52v-5l-102 -110h-36z" />
    <glyph glyph-name="dcaron" unicode="&#x10f;" horiz-adv-x="553" 
d="M420 97v288c-36 40 -98 67 -160 67c-115 0 -151 -94 -151 -211s36 -211 151 -211c62 0 124 27 160 67zM420 700h48v-700h-38l-6 44h-2c-37 -30 -92 -59 -168 -59c-143 0 -195 116 -195 256s52 256 195 256c79 0 127 -27 164 -57h2v260zM518 540v6l16 134h53v-6l-31 -134
h-38z" />
    <glyph glyph-name="Dcroat" unicode="&#x110;" horiz-adv-x="668" 
d="M100 0v312h-53v47h53v321h160c251 0 342 -120 342 -340s-91 -340 -342 -340h-160zM150 47h103c228 0 298 92 298 293s-70 293 -298 293h-103v-274h178v-47h-178v-265z" />
    <glyph glyph-name="dcroat" unicode="&#x111;" horiz-adv-x="553" 
d="M420 700h48v-85h77v-43h-77v-572h-38l-6 44h-2c-37 -30 -92 -59 -168 -59c-143 0 -195 116 -195 256s52 256 195 256c79 0 127 -27 164 -57h2v132h-116v43h116v85zM420 97v288c-36 40 -98 67 -160 67c-115 0 -151 -94 -151 -211s36 -211 151 -211c62 0 124 27 160 67z
" />
    <glyph glyph-name="Emacron" unicode="&#x112;" horiz-adv-x="574" 
d="M99 680h409v-47h-359v-260h329v-47h-329v-279h362v-47h-412v680zM428 785h-239v45h239v-45z" />
    <glyph glyph-name="emacron" unicode="&#x113;" horiz-adv-x="527" 
d="M468 232h-362c3 -117 58 -202 180 -202c65 0 107 22 144 48l22 -38c-40 -29 -88 -55 -167 -55c-160 0 -228 112 -228 258s86 254 218 254c135 0 200 -94 200 -199c0 -21 -3 -47 -7 -66zM275 452c-93 0 -157 -66 -168 -177h317c1 10 1 19 1 26c0 87 -49 151 -150 151z
M395 596h-239v43h239v-43z" />
    <glyph glyph-name="Ebreve" unicode="&#x114;" horiz-adv-x="574" 
d="M99 680h409v-47h-359v-260h329v-47h-329v-279h362v-47h-412v680zM308 808c59 0 80 25 99 50l26 -22c-22 -40 -57 -72 -125 -72s-103 32 -125 72l26 22c19 -25 40 -50 99 -50z" />
    <glyph glyph-name="ebreve" unicode="&#x115;" horiz-adv-x="527" 
d="M468 232h-362c3 -117 58 -202 180 -202c65 0 107 22 144 48l22 -38c-40 -29 -88 -55 -167 -55c-160 0 -228 112 -228 258s86 254 218 254c135 0 200 -94 200 -199c0 -21 -3 -47 -7 -66zM275 452c-93 0 -157 -66 -168 -177h317c1 10 1 19 1 26c0 87 -49 151 -150 151z
M275 613c59 0 80 25 99 50l26 -20c-22 -40 -57 -72 -125 -72s-103 32 -125 72l26 20c19 -25 40 -50 99 -50z" />
    <glyph glyph-name="Edotaccent" unicode="&#x116;" horiz-adv-x="574" 
d="M99 680h409v-47h-359v-260h329v-47h-329v-279h362v-47h-412v680zM269 802c0 23 17 40 39 40c21 0 38 -17 38 -40s-17 -39 -38 -39c-22 0 -39 16 -39 39z" />
    <glyph glyph-name="edotaccent" unicode="&#x117;" horiz-adv-x="527" 
d="M468 232h-362c3 -117 58 -202 180 -202c65 0 107 22 144 48l22 -38c-40 -29 -88 -55 -167 -55c-160 0 -228 112 -228 258s86 254 218 254c135 0 200 -94 200 -199c0 -21 -3 -47 -7 -66zM275 452c-93 0 -157 -66 -168 -177h317c1 10 1 19 1 26c0 87 -49 151 -150 151z
M237 626c0 23 17 40 39 40c21 0 38 -17 38 -40s-17 -39 -38 -39c-22 0 -39 16 -39 39z" />
    <glyph glyph-name="Eogonek" unicode="&#x118;" horiz-adv-x="574" 
d="M437 -213c-56 0 -88 35 -88 82c0 56 41 94 94 131h-344v680h409v-47h-359v-260h329v-47h-329v-279h362v-47c-81 -55 -119 -82 -119 -124c0 -23 15 -47 48 -47c27 0 49 10 70 23l7 -38c-17 -13 -47 -27 -80 -27z" />
    <glyph glyph-name="eogonek" unicode="&#x119;" horiz-adv-x="527" 
d="M366 -213c-56 0 -88 35 -88 82c0 43 19 83 61 121c-18 -4 -36 -5 -54 -5c-160 0 -228 112 -228 258s86 254 218 254c135 0 200 -94 200 -199c0 -21 -3 -47 -7 -66h-362c3 -117 58 -202 180 -202c65 0 107 22 144 48l22 -38l-22 -15c-70 -50 -109 -99 -109 -149
c0 -23 15 -47 48 -47c27 0 49 10 70 23l7 -38c-17 -13 -47 -27 -80 -27zM275 452c-93 0 -157 -66 -168 -177h317c1 10 1 19 1 26c0 87 -49 151 -150 151z" />
    <glyph glyph-name="Ecaron" unicode="&#x11a;" horiz-adv-x="574" 
d="M99 680h409v-47h-359v-260h329v-47h-329v-279h362v-47h-412v680zM290 744l-102 110v5h52l68 -73l68 73h52v-5l-102 -110h-36z" />
    <glyph glyph-name="ecaron" unicode="&#x11b;" horiz-adv-x="527" 
d="M468 232h-362c3 -117 58 -202 180 -202c65 0 107 22 144 48l22 -38c-40 -29 -88 -55 -167 -55c-160 0 -228 112 -228 258s86 254 218 254c135 0 200 -94 200 -199c0 -21 -3 -47 -7 -66zM275 452c-93 0 -157 -66 -168 -177h317c1 10 1 19 1 26c0 87 -49 151 -150 151z
M395 691l-102 -110h-36l-102 110v5h51l69 -73l69 73h51v-5z" />
    <glyph glyph-name="Gcircumflex" unicode="&#x11c;" horiz-adv-x="640" 
d="M372 322h195v-270c-56 -40 -135 -67 -218 -67c-196 0 -284 151 -284 355c0 201 95 355 288 355c83 0 155 -26 208 -60l-23 -41c-54 35 -121 53 -185 53c-159 0 -237 -127 -237 -307c0 -171 66 -307 233 -307c67 0 128 19 168 45v197l-145 9v38zM371 859l102 -110v-5h-52
l-68 73l-68 -73h-52v5l102 110h36z" />
    <glyph glyph-name="gcircumflex" unicode="&#x11d;" horiz-adv-x="552" 
d="M420 97v288c-36 40 -99 67 -160 67c-114 0 -152 -94 -152 -211s38 -211 152 -211c61 0 124 27 160 67zM468 482v-484c0 -131 -77 -211 -198 -211c-66 0 -123 22 -162 45l18 41c39 -23 87 -39 144 -39c85 0 150 50 150 154v55h-2c-36 -30 -89 -57 -164 -57
c-142 0 -196 115 -196 255s54 256 196 256c78 0 131 -29 168 -59h2l5 44h39zM295 696l102 -110v-5h-51l-69 73l-69 -73h-51v5l102 110h36z" />
    <glyph glyph-name="Gbreve" unicode="&#x11e;" horiz-adv-x="640" 
d="M372 322h195v-270c-56 -40 -135 -67 -218 -67c-196 0 -284 151 -284 355c0 201 95 355 288 355c83 0 155 -26 208 -60l-23 -41c-54 35 -121 53 -185 53c-159 0 -237 -127 -237 -307c0 -171 66 -307 233 -307c67 0 128 19 168 45v197l-145 9v38zM353 808c59 0 80 25 99 50
l26 -22c-22 -40 -57 -72 -125 -72s-103 32 -125 72l26 22c19 -25 40 -50 99 -50z" />
    <glyph glyph-name="gbreve" unicode="&#x11f;" horiz-adv-x="552" 
d="M420 97v288c-36 40 -99 67 -160 67c-114 0 -152 -94 -152 -211s38 -211 152 -211c61 0 124 27 160 67zM468 482v-484c0 -131 -77 -211 -198 -211c-66 0 -123 22 -162 45l18 41c39 -23 87 -39 144 -39c85 0 150 50 150 154v55h-2c-36 -30 -89 -57 -164 -57
c-142 0 -196 115 -196 255s54 256 196 256c78 0 131 -29 168 -59h2l5 44h39zM277 613c59 0 80 25 99 50l26 -20c-22 -40 -57 -72 -125 -72s-103 32 -125 72l26 20c19 -25 40 -50 99 -50z" />
    <glyph glyph-name="Gdotaccent" unicode="&#x120;" horiz-adv-x="640" 
d="M372 322h195v-270c-56 -40 -135 -67 -218 -67c-196 0 -284 151 -284 355c0 201 95 355 288 355c83 0 155 -26 208 -60l-23 -41c-54 35 -121 53 -185 53c-159 0 -237 -127 -237 -307c0 -171 66 -307 233 -307c67 0 128 19 168 45v197l-145 9v38zM314 802c0 23 17 40 39 40
c21 0 38 -17 38 -40s-17 -39 -38 -39c-22 0 -39 16 -39 39z" />
    <glyph glyph-name="gdotaccent" unicode="&#x121;" horiz-adv-x="552" 
d="M420 97v288c-36 40 -99 67 -160 67c-114 0 -152 -94 -152 -211s38 -211 152 -211c61 0 124 27 160 67zM468 482v-484c0 -131 -77 -211 -198 -211c-66 0 -123 22 -162 45l18 41c39 -23 87 -39 144 -39c85 0 150 50 150 154v55h-2c-36 -30 -89 -57 -164 -57
c-142 0 -196 115 -196 255s54 256 196 256c78 0 131 -29 168 -59h2l5 44h39zM239 626c0 23 17 40 39 40c21 0 38 -17 38 -40s-17 -39 -38 -39c-22 0 -39 16 -39 39z" />
    <glyph glyph-name="Gcommaaccent" unicode="&#x122;" horiz-adv-x="640" 
d="M372 322h195v-270c-56 -40 -135 -67 -218 -67c-196 0 -284 151 -284 355c0 201 95 355 288 355c83 0 155 -26 208 -60l-23 -41c-54 35 -121 53 -185 53c-159 0 -237 -127 -237 -307c0 -171 66 -307 233 -307c67 0 128 19 168 45v197l-145 9v38zM310 -218v6l16 134h53v-6
l-31 -134h-38z" />
    <glyph glyph-name="gcommaaccent" unicode="&#x123;" horiz-adv-x="552" 
d="M420 97v288c-36 40 -99 67 -160 67c-114 0 -152 -94 -152 -211s38 -211 152 -211c61 0 124 27 160 67zM468 482v-484c0 -131 -77 -211 -198 -211c-66 0 -123 22 -162 45l18 41c39 -23 87 -39 144 -39c85 0 150 50 150 154v55h-2c-36 -30 -89 -57 -164 -57
c-142 0 -196 115 -196 255s54 256 196 256c78 0 131 -29 168 -59h2l5 44h39zM321 716v-6l-16 -134h-53v6l31 134h38z" />
    <glyph glyph-name="Hcircumflex" unicode="&#x124;" horiz-adv-x="687" 
d="M538 0v326h-389v-326h-50v680h50v-307h389v307h50v-680h-50zM361 859l102 -110v-5h-52l-68 73l-68 -73h-52v5l102 110h36z" />
    <glyph glyph-name="hcircumflex" unicode="&#x125;" horiz-adv-x="555" 
d="M475 0h-48v299c0 105 -44 153 -130 153c-72 0 -130 -33 -165 -59v-393h-48v700h48v-259h2c29 22 91 56 167 56c114 0 174 -66 174 -190v-307zM295 869l102 -110v-5h-52l-68 73l-68 -73h-52v5l102 110h36z" />
    <glyph glyph-name="Hbar" unicode="&#x126;" horiz-adv-x="687" 
d="M538 0v326h-389v-326h-50v519h-40v47h40v114h50v-114h389v114h50v-114h40v-47h-40v-519h-50zM149 373h389v146h-389v-146z" />
    <glyph glyph-name="hbar" unicode="&#x127;" horiz-adv-x="556" 
d="M476 0h-48v299c0 105 -44 153 -130 153c-72 0 -130 -33 -165 -59v-393h-48v572h-77v43h77v85h48v-85h116v-43h-116v-131h2c29 20 91 56 167 56c114 0 174 -66 174 -190v-307z" />
    <glyph glyph-name="Itilde" unicode="&#x128;" horiz-adv-x="247" 
d="M148 680v-680h-49v680h49zM172 804c22 0 36 10 55 35l23 -29c-20 -30 -45 -49 -78 -49c-38 0 -75 39 -100 39c-22 0 -36 -10 -55 -35l-23 29c20 30 45 49 78 49c37 0 76 -39 100 -39z" />
    <glyph glyph-name="itilde" unicode="&#x129;" horiz-adv-x="218" 
d="M158 622c22 0 36 11 55 36l23 -29c-20 -30 -45 -48 -78 -48c-38 0 -75 39 -100 39c-22 0 -36 -11 -55 -36l-23 29c20 30 45 48 78 48c37 0 75 -39 100 -39zM133 0h-48v482h48v-482z" />
    <glyph glyph-name="Imacron" unicode="&#x12a;" horiz-adv-x="247" 
d="M148 680v-680h-49v680h49zM242 785h-239v45h239v-45z" />
    <glyph glyph-name="imacron" unicode="&#x12b;" horiz-adv-x="218" 
d="M228 596h-239v43h239v-43zM133 0h-48v482h48v-482z" />
    <glyph glyph-name="Ibreve" unicode="&#x12c;" horiz-adv-x="247" 
d="M148 680v-680h-49v680h49zM122 808c59 0 80 25 99 50l26 -22c-22 -40 -57 -72 -125 -72s-103 32 -125 72l26 22c19 -25 40 -50 99 -50z" />
    <glyph glyph-name="ibreve" unicode="&#x12d;" horiz-adv-x="218" 
d="M108 613c59 0 80 25 99 50l26 -20c-22 -40 -57 -72 -125 -72s-103 32 -125 72l26 20c19 -25 40 -50 99 -50zM133 0h-48v482h48v-482z" />
    <glyph glyph-name="Iogonek" unicode="&#x12e;" horiz-adv-x="248" 
d="M105 -213c-58 0 -88 34 -88 81c0 55 37 97 83 139v673h49v-680c-60 -55 -89 -87 -89 -125c0 -26 15 -46 48 -46c19 0 35 10 50 23l7 -38c-13 -13 -35 -27 -60 -27z" />
    <glyph glyph-name="iogonek" unicode="&#x12f;" horiz-adv-x="217" 
d="M89 -213c-58 0 -88 34 -88 81c0 55 38 98 84 139v475h48v-482c-60 -55 -89 -87 -89 -125c0 -26 15 -46 48 -46c19 0 35 10 50 23l7 -38c-13 -13 -35 -27 -60 -27zM70 626c0 23 17 40 39 40c21 0 38 -17 38 -40s-17 -39 -38 -39c-22 0 -39 16 -39 39z" />
    <glyph glyph-name="Idotaccent" unicode="&#x130;" horiz-adv-x="247" 
d="M148 680v-680h-49v680h49zM84 802c0 23 17 40 39 40c21 0 38 -17 38 -40s-17 -39 -38 -39c-22 0 -39 16 -39 39z" />
    <glyph glyph-name="dotlessi" unicode="&#x131;" horiz-adv-x="216" 
d="M132 0h-48v482h48v-482z" />
    <glyph glyph-name="IJ" unicode="&#x132;" horiz-adv-x="700" 
d="M148 680v-680h-49v680h49zM272 52l27 37c31 -30 77 -56 131 -56c71 0 125 44 125 156v491h50v-494c0 -128 -71 -201 -175 -201c-65 0 -123 34 -158 67z" />
    <glyph glyph-name="ij" unicode="&#x133;" horiz-adv-x="432" 
d="M132 0h-48v482h48v-482zM69 626c0 23 17 40 39 40c21 0 38 -17 38 -40s-17 -39 -38 -39c-22 0 -39 16 -39 39zM300 482h48v-544c0 -110 -36 -151 -111 -151c-23 0 -39 3 -56 8v43c17 -4 35 -6 55 -6c44 0 64 28 64 89v561zM285 626c0 23 17 40 39 40c21 0 38 -17 38 -40
s-17 -39 -38 -39c-22 0 -39 16 -39 39z" />
    <glyph glyph-name="Jcircumflex" unicode="&#x134;" horiz-adv-x="453" 
d="M25 52l27 37c31 -30 77 -56 131 -56c71 0 125 44 125 156v491h50v-494c0 -128 -71 -201 -175 -201c-65 0 -123 34 -158 67zM350 859l102 -110v-5h-52l-68 73l-68 -73h-52v5l102 110h36z" />
    <glyph glyph-name="jcircumflex" unicode="&#x135;" horiz-adv-x="218" 
d="M85 482h48v-544c0 -110 -36 -151 -111 -151c-23 0 -39 4 -56 8v43c17 -4 35 -6 55 -6c44 0 64 28 64 89v561zM124 696l102 -110v-5h-51l-69 73l-69 -73h-51v5l102 110h36z" />
    <glyph glyph-name="Kcommaaccent" unicode="&#x136;" horiz-adv-x="556" 
d="M151 318h-2v-318h-50v680h50v-337h2l313 337h58v-6l-315 -340l334 -328v-6h-65zM242 -218v6l16 134h53v-6l-31 -134h-38z" />
    <glyph glyph-name="kcommaaccent" unicode="&#x137;" horiz-adv-x="445" 
d="M134 225h-2v-225h-48v700h48v-448h2l227 230h59v-5l-237 -236l245 -236v-5h-63zM183 -218v6l16 134h53v-6l-31 -134h-38z" />
    <glyph glyph-name="kgreenlandic" unicode="&#x138;" horiz-adv-x="445" 
d="M134 225h-2v-225h-48v482h48v-230h2l227 230h59v-5l-237 -236l245 -236v-5h-62z" />
    <glyph glyph-name="Lacute" unicode="&#x139;" horiz-adv-x="501" 
d="M99 680h50v-633h323v-47h-373v680zM206 859v-5l-59 -110h-45v5l48 110h56z" />
    <glyph glyph-name="lacute" unicode="&#x13a;" horiz-adv-x="232" 
d="M86 700h48v-620c0 -31 6 -47 37 -47h35v-37c-12 -4 -27 -6 -42 -6c-57 0 -78 32 -78 98v612zM194 869v-5l-59 -110h-45v5l48 110h56z" />
    <glyph glyph-name="Lcommaaccent" unicode="&#x13b;" horiz-adv-x="501" 
d="M99 680h50v-633h323v-47h-373v680zM242 -218v6l16 134h53v-6l-31 -134h-38z" />
    <glyph glyph-name="lcommaaccent" unicode="&#x13c;" horiz-adv-x="232" 
d="M86 700h48v-620c0 -31 6 -47 37 -47h35v-37c-12 -4 -27 -6 -42 -6c-57 0 -78 32 -78 98v612zM95 -218v6l16 134h53v-6l-31 -134h-38z" />
    <glyph glyph-name="Lcaron" unicode="&#x13d;" horiz-adv-x="501" 
d="M99 680h50v-633h323v-47h-373v680zM275 540v6l16 134h53v-6l-31 -134h-38z" />
    <glyph glyph-name="lcaron" unicode="&#x13e;" horiz-adv-x="232" 
d="M86 700h48v-620c0 -31 6 -47 37 -47h35v-37c-12 -4 -27 -6 -42 -6c-57 0 -78 32 -78 98v612zM184 540v6l16 134h53v-6l-31 -134h-38z" />
    <glyph glyph-name="Ldot" unicode="&#x13f;" horiz-adv-x="501" 
d="M99 680h50v-633h323v-47h-373v680zM311 343c0 26 19 44 44 44s44 -18 44 -44s-19 -44 -44 -44s-44 18 -44 44z" />
    <glyph glyph-name="ldot" unicode="&#x140;" horiz-adv-x="301" 
d="M86 700h48v-620c0 -31 6 -47 37 -47h35v-37c-12 -4 -27 -6 -42 -6c-57 0 -78 32 -78 98v612zM217 353c0 26 19 44 44 44s44 -18 44 -44s-19 -44 -44 -44s-44 18 -44 44z" />
    <glyph glyph-name="Lslash" unicode="&#x141;" horiz-adv-x="506" 
d="M104 680h50v-290l107 66h5v-50l-112 -70v-289h323v-47h-373v305l-61 -37h-5v50l66 41v321z" />
    <glyph glyph-name="lslash" unicode="&#x142;" horiz-adv-x="278" 
d="M106 700h48v-303l94 59h5v-50l-99 -62v-264c0 -31 6 -47 37 -47h35v-37c-12 -4 -27 -6 -42 -6c-57 0 -78 32 -78 98v227l-76 -47h-5v50l81 50v332z" />
    <glyph glyph-name="Nacute" unicode="&#x143;" horiz-adv-x="690" 
d="M540 92h2v588h49v-680h-48l-392 589h-2v-589h-50v680h48zM427 859v-5l-59 -110h-45v5l48 110h56z" />
    <glyph glyph-name="nacute" unicode="&#x144;" horiz-adv-x="555" 
d="M84 482h39l5 -44h2c29 23 92 59 171 59c114 0 174 -66 174 -190v-307h-48v299c0 105 -43 153 -130 153c-72 0 -130 -33 -165 -59v-393h-48v482zM361 696v-5l-59 -110h-43v5l48 110h54z" />
    <glyph glyph-name="Ncommaaccent" unicode="&#x145;" horiz-adv-x="690" 
d="M540 92h2v588h49v-680h-48l-392 589h-2v-589h-50v680h48zM297 -218v6l16 134h53v-6l-31 -134h-38z" />
    <glyph glyph-name="ncommaaccent" unicode="&#x146;" horiz-adv-x="555" 
d="M84 482h39l5 -44h2c29 23 92 59 171 59c114 0 174 -66 174 -190v-307h-48v299c0 105 -43 153 -130 153c-72 0 -130 -33 -165 -59v-393h-48v482zM233 -218v6l16 134h53v-6l-31 -134h-38z" />
    <glyph glyph-name="Ncaron" unicode="&#x147;" horiz-adv-x="690" 
d="M540 92h2v588h49v-680h-48l-392 589h-2v-589h-50v680h48zM331 744l-102 110v5h52l68 -73l68 73h52v-5l-102 -110h-36z" />
    <glyph glyph-name="ncaron" unicode="&#x148;" horiz-adv-x="555" 
d="M84 482h39l5 -44h2c29 23 92 59 171 59c114 0 174 -66 174 -190v-307h-48v299c0 105 -43 153 -130 153c-72 0 -130 -33 -165 -59v-393h-48v482zM406 691l-102 -110h-36l-102 110v5h51l69 -73l69 73h51v-5z" />
    <glyph glyph-name="napostrophe" unicode="&#x149;" horiz-adv-x="556" 
d="M85 482h39l5 -44h2c29 23 92 59 171 59c114 0 174 -66 174 -190v-307h-48v299c0 105 -43 153 -130 153c-72 0 -130 -33 -165 -59v-393h-48v482zM25 540v6l16 134h53v-6l-31 -134h-38z" />
    <glyph glyph-name="Eng" unicode="&#x14a;" horiz-adv-x="690" 
d="M540 92h2v588h49v-742c0 -110 -38 -151 -113 -151c-23 0 -39 3 -56 8v45c17 -4 35 -6 55 -6c44 0 65 26 65 87v79l-391 589h-2v-589h-50v680h48z" />
    <glyph glyph-name="eng" unicode="&#x14b;" horiz-adv-x="555" 
d="M427 299c0 105 -43 153 -130 153c-72 0 -130 -33 -165 -59v-393h-48v482h39l5 -44h2c29 21 92 59 171 59c114 0 174 -66 174 -190v-369c0 -110 -36 -151 -111 -151c-23 0 -39 3 -56 8v43c17 -4 35 -6 55 -6c44 0 64 28 64 89v378z" />
    <glyph glyph-name="Omacron" unicode="&#x14c;" horiz-adv-x="696" 
d="M118 340c0 -170 53 -307 230 -307s230 137 230 307s-53 307 -230 307s-230 -137 -230 -307zM630 340c0 -205 -79 -355 -282 -355s-282 150 -282 355s79 355 282 355s282 -150 282 -355zM468 785h-239v45h239v-45z" />
    <glyph glyph-name="omacron" unicode="&#x14d;" horiz-adv-x="562" 
d="M107 241c0 -104 34 -211 174 -211s174 107 174 211s-34 211 -174 211s-174 -107 -174 -211zM505 241c0 -132 -53 -256 -224 -256s-224 124 -224 256s53 256 224 256s224 -124 224 -256zM401 596h-239v43h239v-43z" />
    <glyph glyph-name="Obreve" unicode="&#x14e;" horiz-adv-x="696" 
d="M118 340c0 -170 53 -307 230 -307s230 137 230 307s-53 307 -230 307s-230 -137 -230 -307zM630 340c0 -205 -79 -355 -282 -355s-282 150 -282 355s79 355 282 355s282 -150 282 -355zM348 808c59 0 80 25 99 50l26 -22c-22 -40 -57 -72 -125 -72s-103 32 -125 72l26 22
c19 -25 40 -50 99 -50z" />
    <glyph glyph-name="obreve" unicode="&#x14f;" horiz-adv-x="562" 
d="M107 241c0 -104 34 -211 174 -211s174 107 174 211s-34 211 -174 211s-174 -107 -174 -211zM505 241c0 -132 -53 -256 -224 -256s-224 124 -224 256s53 256 224 256s224 -124 224 -256zM281 613c59 0 80 25 99 50l26 -20c-22 -40 -57 -72 -125 -72s-103 32 -125 72l26 20
c19 -25 40 -50 99 -50z" />
    <glyph glyph-name="Ohungarumlaut" unicode="&#x150;" horiz-adv-x="696" 
d="M118 340c0 -170 53 -307 230 -307s230 137 230 307s-53 307 -230 307s-230 -137 -230 -307zM630 340c0 -205 -79 -355 -282 -355s-282 150 -282 355s79 355 282 355s282 -150 282 -355zM360 859v-5l-59 -110h-45v5l48 110h56zM486 859v-5l-59 -110h-45v5l48 110h56z" />
    <glyph glyph-name="ohungarumlaut" unicode="&#x151;" horiz-adv-x="562" 
d="M107 241c0 -104 34 -211 174 -211s174 107 174 211s-34 211 -174 211s-174 -107 -174 -211zM505 241c0 -132 -53 -256 -224 -256s-224 124 -224 256s53 256 224 256s224 -124 224 -256zM300 696v-5l-59 -110h-43v5l48 110h54zM426 696v-5l-59 -110h-43v5l48 110h54z" />
    <glyph glyph-name="OE" unicode="&#x152;" horiz-adv-x="923" 
d="M860 0h-412c-30 -9 -63 -15 -100 -15c-203 0 -282 150 -282 355s79 355 282 355c38 0 72 -5 102 -15h407v-47h-359v-260h329v-47h-329v-279h362v-47zM348 33c38 0 72 6 100 18v577c-28 12 -61 19 -100 19c-177 0 -230 -137 -230 -307s53 -307 230 -307z" />
    <glyph glyph-name="oe" unicode="&#x153;" horiz-adv-x="926" 
d="M281 497c115 0 174 -57 200 -135c33 82 100 135 193 135c135 0 200 -94 200 -199c0 -21 -3 -47 -7 -66h-363c3 -117 59 -202 181 -202c65 0 107 22 144 48l22 -38c-40 -29 -88 -55 -167 -55c-109 0 -174 52 -204 131c-26 -76 -85 -131 -199 -131
c-171 0 -224 124 -224 256s53 256 224 256zM107 241c0 -104 34 -211 174 -211s174 107 174 211s-34 211 -174 211s-174 -107 -174 -211zM674 452c-93 0 -158 -66 -169 -177h318c1 10 1 19 1 26c0 87 -49 151 -150 151z" />
    <glyph glyph-name="Racute" unicode="&#x154;" horiz-adv-x="610" 
d="M149 0h-50v680h231c132 0 207 -65 207 -184c0 -114 -71 -174 -179 -184l222 -305v-7h-58l-223 311h-150v-311zM149 358h175c109 0 162 47 162 138c0 89 -53 137 -162 137h-175v-275zM357 859v-5l-59 -110h-45v5l48 110h56z" />
    <glyph glyph-name="racute" unicode="&#x155;" horiz-adv-x="328" 
d="M84 482h38l6 -49h2c22 31 57 64 124 64c18 0 38 -3 53 -7l-8 -45c-17 5 -33 7 -47 7c-61 0 -96 -37 -120 -77v-375h-48v482zM264 696v-5l-59 -110h-43v5l48 110h54z" />
    <glyph glyph-name="Rcommaaccent" unicode="&#x156;" horiz-adv-x="610" 
d="M149 0h-50v680h231c132 0 207 -65 207 -184c0 -114 -71 -174 -179 -184l222 -305v-7h-58l-223 311h-150v-311zM149 358h175c109 0 162 47 162 138c0 89 -53 137 -162 137h-175v-275zM257 -218v6l16 134h53v-6l-31 -134h-38z" />
    <glyph glyph-name="rcommaaccent" unicode="&#x157;" horiz-adv-x="328" 
d="M84 482h38l6 -49h2c22 31 57 64 124 64c18 0 38 -3 53 -7l-8 -45c-17 5 -33 7 -47 7c-61 0 -96 -37 -120 -77v-375h-48v482zM62 -218v6l16 134h53v-6l-31 -134h-38z" />
    <glyph glyph-name="Rcaron" unicode="&#x158;" horiz-adv-x="610" 
d="M149 0h-50v680h231c132 0 207 -65 207 -184c0 -114 -71 -174 -179 -184l222 -305v-7h-58l-223 311h-150v-311zM149 358h175c109 0 162 47 162 138c0 89 -53 137 -162 137h-175v-275zM264 744l-102 110v5h52l68 -73l68 73h52v-5l-102 -110h-36z" />
    <glyph glyph-name="rcaron" unicode="&#x159;" horiz-adv-x="328" 
d="M84 482h38l6 -49h2c22 31 57 64 124 64c18 0 38 -3 53 -7l-8 -45c-17 5 -33 7 -47 7c-61 0 -96 -37 -120 -77v-375h-48v482zM305 691l-102 -110h-36l-102 110v5h51l69 -73l69 73h51v-5z" />
    <glyph glyph-name="Sacute" unicode="&#x15a;" horiz-adv-x="523" 
d="M52 61l26 42c43 -37 98 -70 183 -70c82 0 154 49 154 139c0 70 -44 107 -137 143l-68 26c-90 33 -143 91 -143 168c0 105 76 186 204 186c75 0 138 -24 184 -57l-23 -42c-49 34 -103 51 -161 51c-97 0 -152 -59 -152 -137c0 -55 32 -93 112 -123l66 -25
c113 -43 170 -96 170 -189c0 -109 -86 -188 -206 -188c-100 0 -162 38 -209 76zM348 859v-5l-59 -110h-45v5l48 110h56z" />
    <glyph glyph-name="sacute" unicode="&#x15b;" horiz-adv-x="435" 
d="M48 31l22 40c35 -26 78 -41 140 -41c80 0 124 35 124 93c0 40 -24 69 -99 91l-60 18c-73 22 -115 59 -115 126c0 80 59 139 167 139c57 0 105 -14 147 -34l-18 -43c-44 24 -88 32 -128 32c-80 0 -118 -37 -118 -93c0 -36 19 -64 78 -81l60 -18c92 -27 136 -63 136 -136
c0 -77 -60 -139 -173 -139c-73 0 -121 19 -163 46zM308 696v-5l-59 -110h-43v5l48 110h54z" />
    <glyph glyph-name="Scircumflex" unicode="&#x15c;" horiz-adv-x="523" 
d="M52 61l26 42c43 -37 98 -70 183 -70c82 0 154 49 154 139c0 70 -44 107 -137 143l-68 26c-90 33 -143 91 -143 168c0 105 76 186 204 186c75 0 138 -24 184 -57l-23 -42c-49 34 -103 51 -161 51c-97 0 -152 -59 -152 -137c0 -55 32 -93 112 -123l66 -25
c113 -43 170 -96 170 -189c0 -109 -86 -188 -206 -188c-100 0 -162 38 -209 76zM290 859l102 -110v-5h-52l-68 73l-68 -73h-52v5l102 110h36z" />
    <glyph glyph-name="scircumflex" unicode="&#x15d;" horiz-adv-x="435" 
d="M48 31l22 40c35 -26 78 -41 140 -41c80 0 124 35 124 93c0 40 -24 69 -99 91l-60 18c-73 22 -115 59 -115 126c0 80 59 139 167 139c57 0 105 -14 147 -34l-18 -43c-44 24 -88 32 -128 32c-80 0 -118 -37 -118 -93c0 -36 19 -64 78 -81l60 -18c92 -27 136 -63 136 -136
c0 -77 -60 -139 -173 -139c-73 0 -121 19 -163 46zM247 696l102 -110v-5h-51l-69 73l-69 -73h-51v5l102 110h36z" />
    <glyph glyph-name="Scedilla" unicode="&#x15e;" horiz-adv-x="523" 
d="M224 -85l-4 5l16 66c-86 5 -141 40 -184 75l26 42c43 -37 98 -70 183 -70c82 0 154 49 154 139c0 70 -44 107 -137 143l-68 26c-90 33 -143 91 -143 168c0 105 76 186 204 186c75 0 138 -24 184 -57l-23 -42c-49 34 -103 51 -161 51c-97 0 -152 -59 -152 -137
c0 -55 32 -93 112 -123l66 -25c113 -43 170 -96 170 -189c0 -103 -77 -179 -187 -187l-10 -36c38 -4 73 -25 73 -73c0 -61 -45 -90 -100 -90c-42 0 -69 13 -80 20l14 40c16 -10 41 -18 66 -18c31 0 50 15 50 48c0 31 -24 38 -69 38z" />
    <glyph glyph-name="scedilla" unicode="&#x15f;" horiz-adv-x="435" 
d="M177 -85l-4 5l16 66c-61 3 -104 21 -141 45l22 40c35 -26 78 -41 140 -41c80 0 124 35 124 93c0 40 -24 69 -99 91l-60 18c-73 22 -115 59 -115 126c0 80 59 139 167 139c57 0 105 -14 147 -34l-18 -43c-44 24 -88 32 -128 32c-80 0 -118 -37 -118 -93
c0 -36 19 -64 78 -81l60 -18c92 -27 136 -63 136 -136c0 -72 -52 -130 -151 -138l-10 -36c38 -4 73 -25 73 -73c0 -61 -45 -90 -100 -90c-42 0 -69 13 -80 20l14 40c16 -10 41 -18 66 -18c31 0 50 15 50 48c0 31 -24 38 -69 38z" />
    <glyph glyph-name="Scaron" unicode="&#x160;" horiz-adv-x="523" 
d="M52 61l26 42c43 -37 98 -70 183 -70c82 0 154 49 154 139c0 70 -44 107 -137 143l-68 26c-90 33 -143 91 -143 168c0 105 76 186 204 186c75 0 138 -24 184 -57l-23 -42c-49 34 -103 51 -161 51c-97 0 -152 -59 -152 -137c0 -55 32 -93 112 -123l66 -25
c113 -43 170 -96 170 -189c0 -109 -86 -188 -206 -188c-100 0 -162 38 -209 76zM254 744l-102 110v5h52l68 -73l68 73h52v-5l-102 -110h-36z" />
    <glyph glyph-name="scaron" unicode="&#x161;" horiz-adv-x="435" 
d="M48 31l22 40c35 -26 78 -41 140 -41c80 0 124 35 124 93c0 40 -24 69 -99 91l-60 18c-73 22 -115 59 -115 126c0 80 59 139 167 139c57 0 105 -14 147 -34l-18 -43c-44 24 -88 32 -128 32c-80 0 -118 -37 -118 -93c0 -36 19 -64 78 -81l60 -18c92 -27 136 -63 136 -136
c0 -77 -60 -139 -173 -139c-73 0 -121 19 -163 46zM348 691l-102 -110h-36l-102 110v5h51l69 -73l69 73h51v-5z" />
    <glyph glyph-name="Tcommaaccent" unicode="&#x162;" horiz-adv-x="520" 
d="M221 -85l-4 5l20 80h-2v633h-204v47h458v-47h-204v-633h-3l-15 -50c38 -4 73 -25 73 -73c0 -61 -45 -90 -100 -90c-42 0 -69 13 -80 20l14 40c16 -10 41 -18 66 -18c31 0 50 15 50 48c0 31 -24 38 -69 38z" />
    <glyph glyph-name="tcommaaccent" unicode="&#x163;" horiz-adv-x="308" 
d="M155 -85l-4 5l18 72c-38 13 -57 49 -57 101v346h-86v35l86 8v112h48v-112h117v-43h-117v-348c0 -40 17 -61 53 -61c24 0 50 6 65 11v-44c-19 -6 -39 -11 -67 -12l-10 -35c38 -4 73 -25 73 -73c0 -61 -45 -90 -100 -90c-42 0 -69 13 -80 20l14 40c16 -10 41 -18 66 -18
c31 0 50 15 50 48c0 31 -24 38 -69 38z" />
    <glyph glyph-name="Tcaron" unicode="&#x164;" horiz-adv-x="520" 
d="M31 680h458v-47h-204v-633h-50v633h-204v47zM243 744l-102 110v5h52l68 -73l68 73h52v-5l-102 -110h-36z" />
    <glyph glyph-name="tcaron" unicode="&#x165;" horiz-adv-x="307" 
d="M111 594h48v-112h117v-43h-117v-348c0 -40 17 -61 53 -61c24 0 50 6 65 11v-44c-19 -6 -40 -12 -69 -12c-65 0 -97 40 -97 108v346h-86v35l86 8v112zM248 540v6l16 134h53v-6l-31 -134h-38z" />
    <glyph glyph-name="Tbar" unicode="&#x166;" horiz-adv-x="520" 
d="M31 680h458v-47h-204v-249h120v-47h-120v-337h-50v337h-119v47h119v249h-204v47z" />
    <glyph glyph-name="tbar" unicode="&#x167;" horiz-adv-x="310" 
d="M113 594h48v-112h117v-43h-117v-137h97v-43h-97v-168c0 -40 17 -61 53 -61c24 0 50 6 65 11v-44c-19 -6 -40 -12 -69 -12c-65 0 -97 40 -97 108v166h-64v43h64v137h-86v35l86 8v112z" />
    <glyph glyph-name="Utilde" unicode="&#x168;" horiz-adv-x="680" 
d="M94 680h50v-439c0 -131 73 -208 196 -208s196 77 196 208v439h50v-444c0 -153 -87 -251 -246 -251s-246 98 -246 251v444zM390 804c22 0 36 10 55 35l23 -29c-20 -30 -45 -49 -78 -49c-38 0 -75 39 -100 39c-22 0 -36 -10 -55 -35l-23 29c20 30 45 49 78 49
c37 0 76 -39 100 -39z" />
    <glyph glyph-name="utilde" unicode="&#x169;" horiz-adv-x="547" 
d="M463 0h-39l-5 44h-2c-29 -23 -87 -59 -166 -59c-115 0 -171 66 -171 190v307h48v-299c0 -105 39 -153 126 -153c72 0 126 33 161 59v393h48v-482zM320 622c22 0 36 11 55 36l23 -29c-20 -30 -45 -48 -78 -48c-38 0 -75 39 -100 39c-22 0 -36 -11 -55 -36l-23 29
c20 30 45 48 78 48c37 0 75 -39 100 -39z" />
    <glyph glyph-name="Umacron" unicode="&#x16a;" horiz-adv-x="680" 
d="M94 680h50v-439c0 -131 73 -208 196 -208s196 77 196 208v439h50v-444c0 -153 -87 -251 -246 -251s-246 98 -246 251v444zM460 785h-239v45h239v-45z" />
    <glyph glyph-name="umacron" unicode="&#x16b;" horiz-adv-x="547" 
d="M463 0h-39l-5 44h-2c-29 -23 -87 -59 -166 -59c-115 0 -171 66 -171 190v307h48v-299c0 -105 39 -153 126 -153c72 0 126 33 161 59v393h48v-482zM390 596h-239v43h239v-43z" />
    <glyph glyph-name="Ubreve" unicode="&#x16c;" horiz-adv-x="680" 
d="M94 680h50v-439c0 -131 73 -208 196 -208s196 77 196 208v439h50v-444c0 -153 -87 -251 -246 -251s-246 98 -246 251v444zM340 808c59 0 80 25 99 50l26 -22c-22 -40 -57 -72 -125 -72s-103 32 -125 72l26 22c19 -25 40 -50 99 -50z" />
    <glyph glyph-name="ubreve" unicode="&#x16d;" horiz-adv-x="547" 
d="M463 0h-39l-5 44h-2c-29 -23 -87 -59 -166 -59c-115 0 -171 66 -171 190v307h48v-299c0 -105 39 -153 126 -153c72 0 126 33 161 59v393h48v-482zM270 613c59 0 80 25 99 50l26 -20c-22 -40 -57 -72 -125 -72s-103 32 -125 72l26 20c19 -25 40 -50 99 -50z" />
    <glyph glyph-name="Uring" unicode="&#x16e;" horiz-adv-x="680" 
d="M94 680h50v-439c0 -131 73 -208 196 -208s196 77 196 208v439h50v-444c0 -153 -87 -251 -246 -251s-246 98 -246 251v444zM294 815c0 -28 18 -44 46 -44s46 16 46 44s-18 44 -46 44s-46 -16 -46 -44zM258 815c0 48 34 79 82 79s82 -31 82 -79s-34 -79 -82 -79
s-82 31 -82 79z" />
    <glyph glyph-name="uring" unicode="&#x16f;" horiz-adv-x="547" 
d="M463 0h-39l-5 44h-2c-29 -23 -87 -59 -166 -59c-115 0 -171 66 -171 190v307h48v-299c0 -105 39 -153 126 -153c72 0 126 33 161 59v393h48v-482zM223 622c0 -28 18 -44 46 -44s46 16 46 44s-18 44 -46 44s-46 -16 -46 -44zM187 622c0 48 34 79 82 79s82 -31 82 -79
s-34 -79 -82 -79s-82 31 -82 79z" />
    <glyph glyph-name="Uhungarumlaut" unicode="&#x170;" horiz-adv-x="680" 
d="M94 680h50v-439c0 -131 73 -208 196 -208s196 77 196 208v439h50v-444c0 -153 -87 -251 -246 -251s-246 98 -246 251v444zM356 859v-5l-59 -110h-45v5l48 110h56zM482 859v-5l-59 -110h-45v5l48 110h56z" />
    <glyph glyph-name="uhungarumlaut" unicode="&#x171;" horiz-adv-x="547" 
d="M463 0h-39l-5 44h-2c-29 -23 -87 -59 -166 -59c-115 0 -171 66 -171 190v307h48v-299c0 -105 39 -153 126 -153c72 0 126 33 161 59v393h48v-482zM286 696v-5l-59 -110h-43v5l48 110h54zM412 696v-5l-59 -110h-43v5l48 110h54z" />
    <glyph glyph-name="Uogonek" unicode="&#x172;" horiz-adv-x="680" 
d="M343 -213c-60 0 -90 37 -90 84c0 49 23 83 63 115c-146 8 -222 103 -222 250v444h50v-439c0 -131 73 -208 196 -208s196 77 196 208v439h50v-444c0 -136 -72 -230 -190 -247c-58 -17 -98 -56 -98 -113c0 -25 15 -47 48 -47c27 0 49 10 70 23l7 -38
c-17 -13 -47 -27 -80 -27z" />
    <glyph glyph-name="uogonek" unicode="&#x173;" horiz-adv-x="547" 
d="M389 -213c-56 0 -88 35 -88 82c0 64 55 105 121 149l-3 26h-2c-29 -23 -87 -59 -166 -59c-115 0 -171 66 -171 190v307h48v-299c0 -105 39 -153 126 -153c72 0 126 33 161 59v393h48v-482c-81 -55 -119 -82 -119 -124c0 -23 15 -47 48 -47c27 0 49 10 70 23l7 -38
c-17 -13 -47 -27 -80 -27z" />
    <glyph glyph-name="Wcircumflex" unicode="&#x174;" horiz-adv-x="946" 
d="M918 680v-6l-205 -674h-53l-186 607h-2l-186 -607h-53l-205 674v6h51l180 -601h2l185 601h54l185 -601h2l180 601h51zM491 859l102 -110v-5h-52l-68 73l-68 -73h-52v5l102 110h36z" />
    <glyph glyph-name="wcircumflex" unicode="&#x175;" horiz-adv-x="802" 
d="M773 482v-6l-173 -476h-50l-148 422h-2l-148 -422h-50l-173 476v6h48l149 -415h2l148 415h50l148 -415h2l149 415h48zM420 696l102 -110v-5h-51l-69 73l-69 -73h-51v5l102 110h36z" />
    <glyph glyph-name="Ycircumflex" unicode="&#x176;" horiz-adv-x="534" 
d="M18 680h55l193 -335h2l193 335h55v-6l-224 -384v-290h-50v290l-224 384v6zM285 859l102 -110v-5h-52l-68 73l-68 -73h-52v5l102 110h36z" />
    <glyph glyph-name="ycircumflex" unicode="&#x177;" horiz-adv-x="474" 
d="M446 482v-6l-206 -558c-32 -84 -74 -131 -146 -131c-19 0 -47 5 -62 9v44c16 -4 40 -8 61 -8c46 0 79 41 97 90l30 80l-195 474v6h51l166 -416h3l152 416h49zM260 696l102 -110v-5h-51l-69 73l-69 -73h-51v5l102 110h36z" />
    <glyph glyph-name="Ydieresis" unicode="&#x178;" horiz-adv-x="534" 
d="M18 680h55l193 -335h2l193 335h55v-6l-224 -384v-290h-50v290l-224 384v6zM139 801c0 23 17 40 39 40c21 0 38 -17 38 -40s-17 -39 -38 -39c-22 0 -39 16 -39 39zM317 801c0 23 17 40 39 40c21 0 38 -17 38 -40s-17 -39 -38 -39c-22 0 -39 16 -39 39z" />
    <glyph glyph-name="Zacute" unicode="&#x179;" horiz-adv-x="505" 
d="M57 680h400v-42l-355 -589v-2h355v-47h-416v42l355 589v2h-339v47zM329 859v-5l-59 -110h-45v5l48 110h56z" />
    <glyph glyph-name="zacute" unicode="&#x17a;" horiz-adv-x="426" 
d="M54 482h324v-34l-273 -403v-2h273v-43h-336v32l274 405v2h-262v43zM295 696v-5l-59 -110h-43v5l48 110h54z" />
    <glyph glyph-name="Zdotaccent" unicode="&#x17b;" horiz-adv-x="505" 
d="M57 680h400v-42l-355 -589v-2h355v-47h-416v42l355 589v2h-339v47zM221 802c0 23 17 40 39 40c21 0 38 -17 38 -40s-17 -39 -38 -39c-22 0 -39 16 -39 39z" />
    <glyph glyph-name="zdotaccent" unicode="&#x17c;" horiz-adv-x="426" 
d="M54 482h324v-34l-273 -403v-2h273v-43h-336v32l274 405v2h-262v43zM185 626c0 23 17 40 39 40c21 0 38 -17 38 -40s-17 -39 -38 -39c-22 0 -39 16 -39 39z" />
    <glyph glyph-name="Zcaron" unicode="&#x17d;" horiz-adv-x="505" 
d="M57 680h400v-42l-355 -589v-2h355v-47h-416v42l355 589v2h-339v47zM246 744l-102 110v5h52l68 -73l68 73h52v-5l-102 -110h-36z" />
    <glyph glyph-name="zcaron" unicode="&#x17e;" horiz-adv-x="426" 
d="M54 482h324v-34l-273 -403v-2h273v-43h-336v32l274 405v2h-262v43zM338 691l-102 -110h-36l-102 110v5h51l69 -73l69 73h51v-5z" />
    <glyph glyph-name="florin" unicode="&#x192;" 
d="M324 554c17 97 59 141 161 141c20 0 41 -2 57 -6l-8 -45c-16 4 -36 6 -56 6c-62 0 -91 -23 -103 -91l-36 -207h127l-9 -43h-126l-66 -382c-16 -97 -59 -141 -161 -141c-20 0 -41 2 -57 6l8 45c16 -4 36 -6 56 -6c62 0 91 23 103 91l67 387h-116l7 43h117z" />
    <glyph glyph-name="Aringacute" unicode="&#x1fa;" horiz-adv-x="585" 
d="M212 725c0 48 34 79 82 79s82 -31 82 -79c0 -35 -19 -62 -47 -73l239 -652h-53l-66 184h-311l-66 -184h-53l239 652c-28 12 -46 38 -46 73zM294 614h-1l-138 -384h277zM248 725c0 -28 18 -44 46 -44s46 16 46 44s-18 44 -46 44s-46 -16 -46 -44zM378 931v-4l-61 -96h-47
v5l50 95h58z" />
    <glyph glyph-name="aringacute" unicode="&#x1fb;" horiz-adv-x="498" 
d="M469 33v-37c-10 -3 -24 -6 -41 -6c-33 0 -55 18 -61 52h-2c-35 -29 -92 -57 -162 -57c-91 0 -155 57 -155 145c0 104 80 150 232 150h82v29c0 107 -54 143 -131 143c-59 0 -101 -20 -135 -46l-22 36c37 32 89 55 157 55c107 0 179 -55 179 -188v-241c0 -24 5 -35 32 -35
h27zM362 238h-75c-138 0 -189 -36 -189 -107c0 -64 44 -101 109 -101c63 0 115 24 155 55v153zM330 804v-5l-59 -110h-43v5l48 110h54zM202 598c0 -26 18 -40 46 -40s46 14 46 40c0 25 -18 40 -46 40s-46 -15 -46 -40zM167 598c0 44 33 72 81 72s82 -28 82 -72
s-34 -72 -82 -72s-81 28 -81 72z" />
    <glyph glyph-name="AEacute" unicode="&#x1fc;" horiz-adv-x="866" 
d="M803 47v-47h-412v198h-237l-110 -198h-55v5l383 675h428v-47h-359v-260h329v-47h-329v-279h362zM391 620h-2l-209 -376h211v376zM666 859v-5l-59 -110h-45v5l48 110h56z" />
    <glyph glyph-name="aeacute" unicode="&#x1fd;" horiz-adv-x="823" 
d="M770 300c0 -21 -3 -47 -7 -66h-349c3 -117 49 -204 171 -204c65 0 103 22 140 48l22 -38c-40 -29 -84 -55 -163 -55c-103 0 -160 48 -192 119c-34 -76 -93 -119 -189 -119c-91 0 -155 57 -155 145c0 104 80 147 232 147h85v32c0 107 -57 143 -134 143
c-59 0 -101 -20 -135 -46l-22 36c37 32 89 55 157 55c83 0 142 -32 167 -109c34 69 91 109 176 109c138 0 196 -92 196 -197zM365 235h-78c-138 0 -189 -33 -189 -104c0 -64 44 -101 109 -101c84 0 158 51 158 174v31zM719 277c1 10 1 19 1 26c0 87 -45 149 -146 149
c-93 0 -148 -64 -159 -175h304zM502 696v-5l-59 -110h-43v5l48 110h54z" />
    <glyph glyph-name="Oslashacute" unicode="&#x1fe;" horiz-adv-x="696" 
d="M142 -23l-38 25l42 64c-57 63 -80 160 -80 274c0 205 79 355 282 355c74 0 131 -20 175 -56l41 63l38 -26l-46 -70c51 -64 74 -157 74 -266c0 -205 -79 -355 -282 -355c-71 0 -126 18 -168 50zM118 340c0 -92 14 -174 57 -230l320 487c-35 32 -82 50 -147 50
c-177 0 -230 -137 -230 -307zM578 340c0 87 -14 165 -52 221l-319 -484c35 -28 80 -44 141 -44c177 0 230 137 230 307zM424 859v-5l-59 -110h-45v5l48 110h56z" />
    <glyph glyph-name="oslashacute" unicode="&#x1ff;" horiz-adv-x="562" 
d="M360 696v-5l-59 -110h-43v5l48 110h54zM116 -24l-32 25l34 47c-45 48 -61 119 -61 193c0 132 53 256 224 256c57 0 101 -15 135 -38l32 44l37 -27l-36 -48c41 -49 56 -117 56 -187c0 -132 -53 -256 -224 -256c-56 0 -99 14 -132 36zM107 241c0 -56 10 -112 40 -153
l241 332c-26 20 -61 32 -107 32c-140 0 -174 -107 -174 -211zM455 241c0 52 -9 106 -36 146l-242 -328c25 -18 59 -29 104 -29c140 0 174 107 174 211z" />
    <glyph glyph-name="Scommaaccent" unicode="&#x218;" horiz-adv-x="523" 
d="M52 61l26 42c43 -37 98 -70 183 -70c82 0 154 49 154 139c0 70 -44 107 -137 143l-68 26c-90 33 -143 91 -143 168c0 105 76 186 204 186c75 0 138 -24 184 -57l-23 -42c-49 34 -103 51 -161 51c-97 0 -152 -59 -152 -137c0 -55 32 -93 112 -123l66 -25
c113 -43 170 -96 170 -189c0 -109 -86 -188 -206 -188c-100 0 -162 38 -209 76zM213 -218v6l16 134h53v-6l-31 -134h-38z" />
    <glyph glyph-name="scommaaccent" unicode="&#x219;" horiz-adv-x="435" 
d="M48 31l22 40c35 -26 78 -41 140 -41c80 0 124 35 124 93c0 40 -24 69 -99 91l-60 18c-73 22 -115 59 -115 126c0 80 59 139 167 139c57 0 105 -14 147 -34l-18 -43c-44 24 -88 32 -128 32c-80 0 -118 -37 -118 -93c0 -36 19 -64 78 -81l60 -18c92 -27 136 -63 136 -136
c0 -77 -60 -139 -173 -139c-73 0 -121 19 -163 46zM178 -218v6l16 134h53v-6l-31 -134h-38z" />
    <glyph glyph-name="uni021A" unicode="&#x21a;" horiz-adv-x="520" 
d="M31 680h458v-47h-204v-633h-50v633h-204v47zM215 -218v6l16 134h53v-6l-31 -134h-38z" />
    <glyph glyph-name="uni021B" unicode="&#x21b;" horiz-adv-x="307" 
d="M111 594h48v-112h117v-43h-117v-348c0 -40 17 -61 53 -61c24 0 50 6 65 11v-44c-19 -6 -40 -12 -69 -12c-65 0 -97 40 -97 108v346h-86v35l86 8v112zM141 -218v6l16 134h53v-6l-31 -134h-38z" />
    <glyph glyph-name="dotlessj" unicode="&#x237;" horiz-adv-x="216" 
d="M84 482h48v-544c0 -110 -36 -151 -111 -151c-23 0 -39 4 -56 8v43c17 -4 35 -6 55 -6c44 0 64 28 64 89v561z" />
    <glyph glyph-name="circumflex" unicode="&#x2c6;" 
d="M313 696l102 -110v-5h-51l-69 73l-69 -73h-51v5l102 110h36z" />
    <glyph glyph-name="caron" unicode="&#x2c7;" 
d="M415 691l-102 -110h-36l-102 110v5h51l69 -73l69 73h51v-5z" />
    <glyph glyph-name="uni02C9" unicode="&#x2c9;" 
d="M413 606h-239v43h239v-43z" />
    <glyph glyph-name="breve" unicode="&#x2d8;" 
d="M294 613c59 0 80 25 99 50l26 -20c-22 -40 -57 -72 -125 -72s-103 32 -125 72l26 20c19 -25 40 -50 99 -50z" />
    <glyph glyph-name="dotaccent" unicode="&#x2d9;" 
d="M254 626c0 23 17 40 39 40c21 0 38 -17 38 -40s-17 -39 -38 -39c-22 0 -39 16 -39 39z" />
    <glyph glyph-name="ring" unicode="&#x2da;" 
d="M249 622c0 -28 18 -44 46 -44s46 16 46 44s-18 44 -46 44s-46 -16 -46 -44zM213 622c0 48 34 79 82 79s82 -31 82 -79s-34 -79 -82 -79s-82 31 -82 79z" />
    <glyph glyph-name="ogonek" unicode="&#x2db;" 
d="M298 -213c-56 0 -88 35 -88 82c0 70 65 112 139 161l23 -30c-81 -55 -119 -82 -119 -124c0 -23 15 -47 48 -47c27 0 49 10 70 23l7 -38c-17 -13 -47 -27 -80 -27z" />
    <glyph glyph-name="tilde" unicode="&#x2dc;" 
d="M345 622c22 0 36 11 55 36l23 -29c-20 -30 -45 -48 -78 -48c-38 0 -75 39 -100 39c-22 0 -36 -11 -55 -36l-23 29c20 30 45 48 78 48c37 0 75 -39 100 -39z" />
    <glyph glyph-name="hungarumlaut" unicode="&#x2dd;" 
d="M281 696v-5l-59 -110h-43v5l48 110h54zM407 696v-5l-59 -110h-43v5l48 110h54z" />
    <glyph glyph-name="tonos" unicode="&#x384;" 
d="M364 704v-5l-41 -130h-36v5l25 130h52z" />
    <glyph glyph-name="dieresistonos" unicode="&#x385;" 
d="M357 704v-5l-41 -130h-36v5l25 130h52zM146 626c0 23 17 40 39 40c21 0 38 -17 38 -40s-17 -39 -38 -39c-22 0 -39 16 -39 39zM403 626c0 23 17 40 39 40c21 0 38 -17 38 -40s-17 -39 -38 -39c-22 0 -39 16 -39 39z" />
    <glyph glyph-name="Alphatonos" unicode="&#x386;" horiz-adv-x="604" 
d="M336 680l249 -680h-53l-66 184h-311l-66 -184h-53l249 680h51zM311 614h-1l-138 -384h277zM159 680v-5l-41 -130h-35v5l25 130h51z" />
    <glyph glyph-name="anoteleia" unicode="&#x387;" horiz-adv-x="246" 
d="M79 289c0 26 19 44 44 44s44 -18 44 -44s-19 -44 -44 -44s-44 18 -44 44z" />
    <glyph glyph-name="Epsilontonos" unicode="&#x388;" horiz-adv-x="643" 
d="M168 680h409v-47h-359v-260h329v-47h-329v-279h362v-47h-412v680zM100 680v-5l-41 -130h-35v5l25 130h51z" />
    <glyph glyph-name="Etatonos" unicode="&#x389;" horiz-adv-x="750" 
d="M601 0v326h-389v-326h-50v680h50v-307h389v307h50v-680h-50zM100 680v-5l-41 -130h-35v5l25 130h51z" />
    <glyph glyph-name="Iotatonos" unicode="&#x38a;" horiz-adv-x="314" 
d="M215 680v-680h-49v680h49zM100 680v-5l-41 -130h-35v5l25 130h51z" />
    <glyph glyph-name="Omicrontonos" unicode="&#x38c;" horiz-adv-x="745" 
d="M167 340c0 -170 53 -307 230 -307s230 137 230 307s-53 307 -230 307s-230 -137 -230 -307zM679 340c0 -205 -79 -355 -282 -355s-282 150 -282 355s79 355 282 355s282 -150 282 -355zM108 680v-5l-41 -130h-35v5l25 130h51z" />
    <glyph glyph-name="Upsilontonos" unicode="&#x38e;" horiz-adv-x="669" 
d="M153 680h55l193 -335h2l193 335h55v-6l-224 -384v-290h-50v290l-224 384v6zM112 680v-5l-41 -130h-35v5l25 130h51z" />
    <glyph glyph-name="Omegatonos" unicode="&#x38f;" horiz-adv-x="744" 
d="M399 695c203 0 276 -151 276 -321c0 -153 -67 -259 -140 -327h128v-47h-200v43c103 76 160 185 160 331c0 136 -42 273 -224 273s-224 -137 -224 -273c0 -146 57 -255 160 -331v-43h-200v47h128c-73 68 -140 174 -140 327c0 170 73 321 276 321zM108 680v-5l-41 -130h-35
v5l25 130h51z" />
    <glyph glyph-name="iotadieresistonos" unicode="&#x390;" horiz-adv-x="236" 
d="M86 482h48v-397c0 -42 14 -55 39 -55c15 0 30 3 43 7v-44c-16 -5 -30 -8 -50 -8c-55 0 -80 34 -80 95v402zM166 704v-5l-41 -130h-36v5l25 130h52zM-45 626c0 23 17 40 39 40c21 0 38 -17 38 -40s-17 -39 -38 -39c-22 0 -39 16 -39 39zM212 626c0 23 17 40 39 40
c21 0 38 -17 38 -40s-17 -39 -38 -39c-22 0 -39 16 -39 39z" />
    <glyph glyph-name="Alpha" unicode="&#x391;" horiz-adv-x="587" 
d="M319 680l249 -680h-53l-66 184h-311l-66 -184h-53l249 680h51zM294 614h-1l-138 -384h277z" />
    <glyph glyph-name="Beta" unicode="&#x392;" horiz-adv-x="598" 
d="M149 323v-276h164c93 0 172 33 172 138c0 104 -76 138 -170 138h-166zM99 680h202c124 0 212 -48 212 -176c0 -88 -51 -134 -100 -153v-2c73 -18 124 -74 124 -166c0 -128 -97 -183 -218 -183h-220v680zM149 633v-263h148c90 0 164 27 164 131c0 105 -74 132 -164 132
h-148z" />
    <glyph glyph-name="Gamma" unicode="&#x393;" horiz-adv-x="501" 
d="M149 0h-50v680h373v-47h-323v-633z" />
    <glyph glyph-name="uni0394" unicode="&#x394;" horiz-adv-x="589" 
d="M295 618h-1l-208 -572h417zM21 0v5l248 675h51l248 -675v-5h-547z" />
    <glyph glyph-name="Epsilon" unicode="&#x395;" horiz-adv-x="574" 
d="M99 680h409v-47h-359v-260h329v-47h-329v-279h362v-47h-412v680z" />
    <glyph glyph-name="Zeta" unicode="&#x396;" horiz-adv-x="505" 
d="M57 680h400v-42l-355 -589v-2h355v-47h-416v42l355 589v2h-339v47z" />
    <glyph glyph-name="Eta" unicode="&#x397;" horiz-adv-x="687" 
d="M538 0v326h-389v-326h-50v680h50v-307h389v307h50v-680h-50z" />
    <glyph glyph-name="Theta" unicode="&#x398;" horiz-adv-x="696" 
d="M476 326h-251v47h251v-47zM118 340c0 -170 53 -307 230 -307s230 137 230 307s-53 307 -230 307s-230 -137 -230 -307zM630 340c0 -205 -79 -355 -282 -355s-282 150 -282 355s79 355 282 355s282 -150 282 -355z" />
    <glyph glyph-name="Iota" unicode="&#x399;" horiz-adv-x="247" 
d="M148 680v-680h-49v680h49z" />
    <glyph glyph-name="Kappa" unicode="&#x39a;" horiz-adv-x="546" 
d="M151 318h-2v-318h-50v680h50v-337h2l313 337h58v-6l-315 -340l334 -328v-6h-65z" />
    <glyph glyph-name="Lambda" unicode="&#x39b;" horiz-adv-x="587" 
d="M293 618l-221 -618h-53l249 680h51l249 -680h-53l-221 618h-1z" />
    <glyph glyph-name="Mu" unicode="&#x39c;" horiz-adv-x="807" 
d="M402 235h3l256 445h47v-680h-50v576h-2l-231 -403h-43l-231 403h-2v-576h-50v680h47z" />
    <glyph glyph-name="Nu" unicode="&#x39d;" horiz-adv-x="690" 
d="M540 92h2v588h49v-680h-48l-392 589h-2v-589h-50v680h48z" />
    <glyph glyph-name="Xi" unicode="&#x39e;" horiz-adv-x="566" 
d="M66 47h434v-47h-434v47zM465 326h-362v47h362v-47zM497 633h-431v47h431v-47z" />
    <glyph glyph-name="Omicron" unicode="&#x39f;" horiz-adv-x="696" 
d="M118 340c0 -170 53 -307 230 -307s230 137 230 307s-53 307 -230 307s-230 -137 -230 -307zM630 340c0 -205 -79 -355 -282 -355s-282 150 -282 355s79 355 282 355s282 -150 282 -355z" />
    <glyph glyph-name="Pi" unicode="&#x3a0;" horiz-adv-x="687" 
d="M538 0v633h-389v-633h-50v680h489v-680h-50z" />
    <glyph glyph-name="Rho" unicode="&#x3a1;" horiz-adv-x="568" 
d="M149 0h-50v680h211c136 0 213 -69 213 -199s-78 -198 -213 -198h-161v-283zM149 633v-303h155c110 0 167 50 167 151s-57 152 -167 152h-155z" />
    <glyph glyph-name="Sigma" unicode="&#x3a3;" horiz-adv-x="526" 
d="M40 0v42l201 304l-185 292v42h422v-47h-359l182 -287l-199 -299h376v-47h-438z" />
    <glyph glyph-name="Tau" unicode="&#x3a4;" horiz-adv-x="520" 
d="M31 680h458v-47h-204v-633h-50v633h-204v47z" />
    <glyph glyph-name="Upsilon" unicode="&#x3a5;" horiz-adv-x="534" 
d="M18 680h55l193 -335h2l193 335h55v-6l-224 -384v-290h-50v290l-224 384v6z" />
    <glyph glyph-name="Phi" unicode="&#x3a6;" horiz-adv-x="734" 
d="M101 341c0 -123 57 -216 241 -221v444c-184 -11 -241 -94 -241 -223zM392 68v-68h-50v68c-215 7 -293 129 -293 273c0 146 78 265 293 272v67h50v-67c215 -7 293 -126 293 -272c0 -144 -78 -266 -293 -273zM633 341c0 129 -57 212 -241 223v-444c184 5 241 98 241 221z
" />
    <glyph glyph-name="Chi" unicode="&#x3a7;" horiz-adv-x="562" 
d="M32 680h56l192 -300h2l192 300h56v-6l-216 -333l216 -335v-6h-55l-193 301h-2l-193 -301h-55v6l216 335l-216 333v6z" />
    <glyph glyph-name="Psi" unicode="&#x3a8;" horiz-adv-x="680" 
d="M365 157v-157h-50v157c-170 1 -249 85 -249 231v292h50v-292c0 -114 57 -181 199 -182v474h50v-474c142 1 199 68 199 182v292h50v-292c0 -146 -79 -230 -249 -231z" />
    <glyph glyph-name="uni03A9" unicode="&#x3a9;" horiz-adv-x="690" 
d="M345 695c203 0 276 -151 276 -321c0 -153 -67 -259 -140 -327h128v-47h-200v43c103 76 160 185 160 331c0 136 -42 273 -224 273s-224 -137 -224 -273c0 -146 57 -255 160 -331v-43h-200v47h128c-73 68 -140 174 -140 327c0 170 73 321 276 321z" />
    <glyph glyph-name="Iotadieresis" unicode="&#x3aa;" horiz-adv-x="247" 
d="M148 680v-680h-49v680h49zM-7 801c0 23 17 40 39 40c21 0 38 -17 38 -40s-17 -39 -38 -39c-22 0 -39 16 -39 39zM171 801c0 23 17 40 39 40c21 0 38 -17 38 -40s-17 -39 -38 -39c-22 0 -39 16 -39 39z" />
    <glyph glyph-name="Upsilondieresis" unicode="&#x3ab;" horiz-adv-x="534" 
d="M18 680h55l193 -335h2l193 335h55v-6l-224 -384v-290h-50v290l-224 384v6zM137 801c0 23 17 40 39 40c21 0 38 -17 38 -40s-17 -39 -38 -39c-22 0 -39 16 -39 39zM315 801c0 23 17 40 39 40c21 0 38 -17 38 -40s-17 -39 -38 -39c-22 0 -39 16 -39 39z" />
    <glyph glyph-name="alphatonos" unicode="&#x3ac;" horiz-adv-x="584" 
d="M59 241c0 139 50 256 194 256c91 0 138 -65 182 -175h2l44 160h50l-70 -241l70 -241h-50l-44 160h-2c-44 -110 -91 -175 -182 -175c-144 0 -194 117 -194 256zM109 241c0 -118 45 -211 144 -211c81 0 134 100 161 211c-27 111 -80 211 -161 211c-99 0 -144 -93 -144 -211
zM342 704v-5l-41 -130h-36v5l25 130h52z" />
    <glyph glyph-name="epsilontonos" unicode="&#x3ad;" horiz-adv-x="469" 
d="M320 704v-5l-41 -130h-36v5l25 130h52zM231 272h111v-43h-115c-67 0 -115 -30 -115 -91c0 -73 46 -108 137 -108c57 0 107 10 161 35l15 -39c-50 -25 -103 -41 -176 -41c-119 0 -187 52 -187 149c0 58 32 97 87 116v2c-38 13 -72 49 -72 102c0 79 52 141 172 141
c63 0 115 -17 161 -38l-16 -40c-47 19 -84 33 -144 33c-94 0 -123 -38 -123 -98c0 -50 36 -80 104 -80z" />
    <glyph glyph-name="etatonos" unicode="&#x3ae;" horiz-adv-x="555" 
d="M84 482h39l5 -44h2c29 21 92 59 171 59c114 0 174 -66 174 -190v-505h-48v497c0 105 -43 153 -130 153c-72 0 -130 -33 -165 -59v-393h-48v482zM353 704v-5l-41 -130h-36v5l25 130h52z" />
    <glyph glyph-name="iotatonos" unicode="&#x3af;" horiz-adv-x="236" 
d="M86 482h48v-397c0 -42 14 -55 39 -55c15 0 30 3 43 7v-44c-16 -5 -30 -8 -50 -8c-55 0 -80 34 -80 95v402zM171 704v-5l-41 -130h-36v5l25 130h52z" />
    <glyph glyph-name="upsilondieresistonos" unicode="&#x3b0;" horiz-adv-x="536" 
d="M310 704v-5l-41 -130h-36v5l25 130h52zM127 482v-261c0 -130 45 -191 147 -191c104 0 151 63 151 205c0 85 -31 187 -63 247h57c23 -54 56 -146 56 -247c0 -168 -73 -250 -201 -250c-123 0 -195 66 -195 231v266h48z" />
    <glyph glyph-name="alpha" unicode="&#x3b1;" horiz-adv-x="584" 
d="M59 241c0 139 50 256 194 256c91 0 138 -65 182 -175h2l44 160h50l-70 -241l70 -241h-50l-44 160h-2c-44 -110 -91 -175 -182 -175c-144 0 -194 117 -194 256zM109 241c0 -118 45 -211 144 -211c81 0 134 100 161 211c-27 111 -80 211 -161 211c-99 0 -144 -93 -144 -211
z" />
    <glyph glyph-name="beta" unicode="&#x3b2;" horiz-adv-x="553" 
d="M132 29v-227h-48v687c0 151 64 216 180 216c117 0 181 -87 181 -181c0 -81 -42 -128 -86 -146v-2c72 -15 139 -63 139 -192c0 -116 -78 -199 -201 -199c-76 0 -130 23 -163 44h-2zM132 82c37 -28 82 -52 165 -52c88 0 151 65 151 157c0 99 -53 164 -167 164h-54v43h54
c79 0 114 62 114 128c0 83 -55 138 -131 138c-95 0 -132 -55 -132 -171v-407z" />
    <glyph glyph-name="gamma" unicode="&#x3b3;" horiz-adv-x="463" 
d="M246 -198h-48v205l-170 470v5h51l147 -417h2c77 126 131 291 148 417h50v-5c-19 -141 -73 -299 -180 -470v-205z" />
    <glyph glyph-name="delta" unicode="&#x3b4;" horiz-adv-x="559" 
d="M404 647c-36 7 -69 13 -105 13c-65 0 -89 -29 -89 -68c0 -95 295 -179 295 -381c0 -106 -63 -226 -224 -226c-167 0 -226 109 -226 222c0 119 76 217 187 264c-45 37 -82 73 -82 121c0 69 44 113 139 113c38 0 71 -5 105 -12v-46zM455 210c0 105 -100 175 -176 231
c-98 -43 -174 -122 -174 -234c0 -79 37 -177 176 -177c130 0 174 105 174 180z" />
    <glyph glyph-name="epsilon" unicode="&#x3b5;" horiz-adv-x="469" 
d="M231 272h111v-43h-115c-67 0 -115 -30 -115 -91c0 -73 46 -108 137 -108c57 0 107 10 161 35l15 -39c-50 -25 -103 -41 -176 -41c-119 0 -187 52 -187 149c0 58 32 97 87 116v2c-38 13 -72 49 -72 102c0 79 52 141 172 141c63 0 115 -17 161 -38l-16 -40
c-47 19 -84 33 -144 33c-94 0 -123 -38 -123 -98c0 -50 36 -80 104 -80z" />
    <glyph glyph-name="zeta" unicode="&#x3b6;" horiz-adv-x="425" 
d="M408 700v-35c-225 -267 -309 -381 -309 -471c0 -156 276 -112 276 -251c0 -58 -42 -90 -79 -109l-28 32c33 16 57 41 57 73c0 99 -276 63 -276 250c0 108 108 244 296 466v2h-279v43h342z" />
    <glyph glyph-name="eta" unicode="&#x3b7;" horiz-adv-x="555" 
d="M84 482h39l5 -44h2c29 21 92 59 171 59c114 0 174 -66 174 -190v-505h-48v497c0 105 -43 153 -130 153c-72 0 -130 -33 -165 -59v-393h-48v482z" />
    <glyph glyph-name="theta" unicode="&#x3b8;" horiz-adv-x="600" 
d="M300 705c159 0 236 -142 236 -360s-77 -360 -236 -360s-236 142 -236 360s77 360 236 360zM300 30c132 0 181 124 185 292h-371c4 -168 54 -292 186 -292zM300 660c-132 0 -182 -124 -186 -291h371c-4 167 -53 291 -185 291z" />
    <glyph glyph-name="iota" unicode="&#x3b9;" horiz-adv-x="236" 
d="M86 482h48v-397c0 -42 14 -55 39 -55c15 0 30 3 43 7v-44c-16 -5 -30 -8 -50 -8c-55 0 -80 34 -80 95v402z" />
    <glyph glyph-name="kappa" unicode="&#x3ba;" horiz-adv-x="451" 
d="M134 225h-2v-225h-48v482h48v-230h2l227 230h59v-5l-237 -236l245 -236v-5h-62z" />
    <glyph glyph-name="lambda" unicode="&#x3bb;" horiz-adv-x="476" 
d="M447 6v-6h-49l-153 416h-3l-165 -416h-51v6l195 474l-34 90c-18 49 -38 90 -84 90c-21 0 -41 -4 -57 -8v44c15 4 39 9 58 9c72 0 101 -47 133 -131z" />
    <glyph glyph-name="uni03BC" unicode="&#x3bc;" horiz-adv-x="551" 
d="M132 -198h-48v680h48v-299c0 -105 39 -153 126 -153c72 0 126 33 161 59v393h48v-482h-39l-5 44h-2c-29 -21 -87 -59 -166 -59c-57 0 -99 17 -123 51v-234z" />
    <glyph glyph-name="nu" unicode="&#x3bd;" horiz-adv-x="464" 
d="M247 0h-48l-170 477v5h51l147 -424h2c77 126 131 298 148 424h50v-5c-19 -141 -73 -306 -180 -477z" />
    <glyph glyph-name="xi" unicode="&#x3be;" horiz-adv-x="444" 
d="M157 655v2h-80v43h341v-43h-141c-109 0 -155 -73 -155 -150c0 -75 43 -140 147 -140h93v-43h-95c-117 0 -161 -61 -161 -139c0 -174 314 -98 314 -242c0 -58 -40 -89 -79 -109l-28 32c33 16 57 41 57 73c0 95 -314 33 -314 244c0 83 42 138 117 163v2
c-69 34 -101 81 -101 159c0 72 33 119 85 148z" />
    <glyph glyph-name="omicron" unicode="&#x3bf;" horiz-adv-x="562" 
d="M107 241c0 -104 34 -211 174 -211s174 107 174 211s-34 211 -174 211s-174 -107 -174 -211zM505 241c0 -132 -53 -256 -224 -256s-224 124 -224 256s53 256 224 256s224 -124 224 -256z" />
    <glyph glyph-name="pi" unicode="&#x3c0;" horiz-adv-x="554" 
d="M26 482h487v-43h-96v-354c0 -42 14 -55 39 -55c15 0 30 3 43 7v-44c-16 -5 -30 -8 -50 -8c-55 0 -80 34 -80 95v359h-202v-439h-48v439h-93v43z" />
    <glyph glyph-name="rho" unicode="&#x3c1;" horiz-adv-x="552" 
d="M126 255v-163c37 -38 91 -62 150 -62c131 0 169 102 169 211c0 107 -41 211 -163 211c-91 0 -156 -52 -156 -197zM126 -198h-48v450c0 171 82 245 204 245c152 0 213 -116 213 -256c0 -136 -68 -256 -213 -256c-73 0 -128 32 -154 54h-2v-237z" />
    <glyph glyph-name="sigma1" unicode="&#x3c2;" horiz-adv-x="450" 
d="M350 -61c0 100 -295 88 -295 321c0 124 74 237 219 237c49 0 100 -10 147 -36l-17 -40c-39 20 -86 31 -130 31c-118 0 -169 -101 -169 -192c0 -205 295 -176 295 -317c0 -58 -40 -89 -79 -109l-28 32c33 16 57 41 57 73z" />
    <glyph glyph-name="sigma" unicode="&#x3c3;" horiz-adv-x="569" 
d="M506 234c0 -132 -53 -249 -224 -249s-224 117 -224 249s54 248 224 248h232v-43h-110v-2c68 -32 102 -102 102 -203zM108 234c0 -104 34 -204 174 -204s174 100 174 204s-34 203 -174 203s-174 -99 -174 -203z" />
    <glyph glyph-name="tau" unicode="&#x3c4;" horiz-adv-x="423" 
d="M19 482h373v-43h-175v-340c0 -46 15 -69 59 -69c21 0 46 3 71 12v-44c-17 -7 -50 -13 -77 -13c-69 0 -101 38 -101 109v345h-150v43z" />
    <glyph glyph-name="upsilon" unicode="&#x3c5;" horiz-adv-x="536" 
d="M127 482v-261c0 -130 45 -191 147 -191c104 0 151 63 151 205c0 85 -31 187 -63 247h57c23 -54 56 -146 56 -247c0 -168 -73 -250 -201 -250c-123 0 -195 66 -195 231v266h48z" />
    <glyph glyph-name="phi" unicode="&#x3c6;" horiz-adv-x="636" 
d="M577 256c0 -182 -82 -263 -237 -270v-184h-48v184c-161 8 -234 101 -234 260c0 95 42 185 72 236h57c-44 -64 -79 -146 -79 -236c0 -131 57 -208 184 -216v288c0 122 45 179 127 179c108 0 158 -88 158 -241zM340 309v-279c124 7 187 70 187 226c0 122 -27 196 -108 196
c-51 0 -79 -35 -79 -143z" />
    <glyph glyph-name="chi" unicode="&#x3c7;" horiz-adv-x="454" 
d="M13 482h51l162 -296h2l162 296h51v-6l-186 -333l186 -335v-6h-50l-163 297h-2l-163 -297h-50v6l186 335l-186 333v6z" />
    <glyph glyph-name="psi" unicode="&#x3c8;" horiz-adv-x="653" 
d="M353 700v-668c120 0 191 51 191 204c0 84 -30 186 -64 246h57c24 -54 57 -151 57 -246c0 -173 -97 -248 -241 -248v-186h-48v186c-137 0 -226 61 -226 228v266h48v-261c0 -136 61 -189 178 -189v668h48z" />
    <glyph glyph-name="omega" unicode="&#x3c9;" horiz-adv-x="806" 
d="M427 211c0 -120 47 -181 135 -181c90 0 137 65 137 209c0 100 -35 173 -90 238v5h52c45 -48 86 -141 86 -243c0 -173 -67 -254 -185 -254c-75 0 -127 36 -158 112h-2c-31 -76 -83 -112 -158 -112c-118 0 -185 81 -185 254c0 102 41 195 86 243h52v-5
c-55 -65 -90 -138 -90 -238c0 -144 47 -209 137 -209c88 0 135 61 135 181v141h48v-141z" />
    <glyph glyph-name="iotadieresis" unicode="&#x3ca;" horiz-adv-x="236" 
d="M86 482h48v-397c0 -42 14 -55 39 -55c15 0 30 3 43 7v-44c-16 -5 -30 -8 -50 -8c-55 0 -80 34 -80 95v402zM-16 626c0 23 17 40 39 40c21 0 38 -17 38 -40s-17 -39 -38 -39c-22 0 -39 16 -39 39zM162 626c0 23 17 40 39 40c21 0 38 -17 38 -40s-17 -39 -38 -39
c-22 0 -39 16 -39 39z" />
    <glyph glyph-name="upsilondieresis" unicode="&#x3cb;" horiz-adv-x="536" 
d="M127 482v-261c0 -130 45 -191 147 -191c104 0 151 63 151 205c0 85 -31 187 -63 247h57c23 -54 56 -146 56 -247c0 -168 -73 -250 -201 -250c-123 0 -195 66 -195 231v266h48zM127 626c0 23 17 40 39 40c21 0 38 -17 38 -40s-17 -39 -38 -39c-22 0 -39 16 -39 39z
M305 626c0 23 17 40 39 40c21 0 38 -17 38 -40s-17 -39 -38 -39c-22 0 -39 16 -39 39z" />
    <glyph glyph-name="omicrontonos" unicode="&#x3cc;" horiz-adv-x="562" 
d="M107 241c0 -104 34 -211 174 -211s174 107 174 211s-34 211 -174 211s-174 -107 -174 -211zM505 241c0 -132 -53 -256 -224 -256s-224 124 -224 256s53 256 224 256s224 -124 224 -256zM343 704v-5l-41 -130h-36v5l25 130h52z" />
    <glyph glyph-name="upsilontonos" unicode="&#x3cd;" horiz-adv-x="536" 
d="M301 704v-5l-41 -130h-36v5l25 130h52zM127 482v-261c0 -130 45 -191 147 -191c104 0 151 63 151 205c0 85 -31 187 -63 247h57c23 -54 56 -146 56 -247c0 -168 -73 -250 -201 -250c-123 0 -195 66 -195 231v266h48z" />
    <glyph glyph-name="omegatonos" unicode="&#x3ce;" horiz-adv-x="806" 
d="M427 211c0 -120 47 -181 135 -181c90 0 137 65 137 209c0 100 -35 173 -90 238v5h52c45 -48 86 -141 86 -243c0 -173 -67 -254 -185 -254c-75 0 -127 36 -158 112h-2c-31 -76 -83 -112 -158 -112c-118 0 -185 81 -185 254c0 102 41 195 86 243h52v-5
c-55 -65 -90 -138 -90 -238c0 -144 47 -209 137 -209c88 0 135 61 135 181v141h48v-141zM475 704v-5l-41 -130h-36v5l25 130h52z" />
    <glyph glyph-name="uni0400" unicode="&#x400;" horiz-adv-x="574" 
d="M99 680h409v-47h-359v-260h329v-47h-329v-279h362v-47h-412v680zM228 854v5h56l48 -110v-5h-45z" />
    <glyph glyph-name="uni0401" unicode="&#x401;" horiz-adv-x="574" 
d="M99 680h409v-47h-359v-260h329v-47h-329v-279h362v-47h-412v680zM175 801c0 23 17 40 39 40c21 0 38 -17 38 -40s-17 -39 -38 -39c-22 0 -39 16 -39 39zM353 801c0 23 17 40 39 40c21 0 38 -17 38 -40s-17 -39 -38 -39c-22 0 -39 16 -39 39z" />
    <glyph glyph-name="uni0402" unicode="&#x402;" horiz-adv-x="670" 
d="M511 -76l-34 31c80 89 98 152 98 223c0 121 -72 170 -157 170c-59 0 -121 -16 -184 -37v-311h-50v633h-154v47h435v-47h-231v-275c56 20 123 38 189 38c116 0 204 -68 204 -218c0 -87 -30 -160 -116 -254z" />
    <glyph glyph-name="uni0403" unicode="&#x403;" horiz-adv-x="540" 
d="M99 680h412v-47h-362v-633h-50v680zM384 859v-5l-59 -110h-45v5l48 110h56z" />
    <glyph glyph-name="uni0404" unicode="&#x404;" horiz-adv-x="581" 
d="M66 340c0 212 88 355 298 355c55 0 120 -17 169 -45l-19 -42c-50 28 -105 39 -150 39c-169 0 -239 -107 -246 -280h323v-49h-323c6 -176 76 -285 246 -285c45 0 100 11 150 39l19 -42c-49 -28 -114 -45 -169 -45c-210 0 -298 143 -298 355z" />
    <glyph glyph-name="uni0405" unicode="&#x405;" horiz-adv-x="523" 
d="M52 61l26 42c43 -37 98 -70 183 -70c82 0 154 49 154 139c0 70 -44 107 -137 143l-68 26c-90 33 -143 91 -143 168c0 105 76 186 204 186c75 0 138 -24 184 -57l-23 -42c-49 34 -103 51 -161 51c-97 0 -152 -59 -152 -137c0 -55 32 -93 112 -123l66 -25
c113 -43 170 -96 170 -189c0 -109 -86 -188 -206 -188c-100 0 -162 38 -209 76z" />
    <glyph glyph-name="uni0406" unicode="&#x406;" horiz-adv-x="247" 
d="M148 680v-680h-49v680h49z" />
    <glyph glyph-name="uni0407" unicode="&#x407;" horiz-adv-x="247" 
d="M148 680v-680h-49v680h49zM-6 801c0 23 17 40 39 40c21 0 38 -17 38 -40s-17 -39 -38 -39c-22 0 -39 16 -39 39zM172 801c0 23 17 40 39 40c21 0 38 -17 38 -40s-17 -39 -38 -39c-22 0 -39 16 -39 39z" />
    <glyph glyph-name="uni0408" unicode="&#x408;" horiz-adv-x="453" 
d="M25 52l27 37c31 -30 77 -56 131 -56c71 0 125 44 125 156v491h50v-494c0 -128 -71 -201 -175 -201c-65 0 -123 34 -158 67z" />
    <glyph glyph-name="uni0409" unicode="&#x409;" horiz-adv-x="926" 
d="M139 680h357v-293h164c139 0 221 -60 221 -193c0 -134 -82 -194 -221 -194h-214v633h-260l-13 -309c-12 -307 -57 -334 -162 -334v47c79 0 101 17 113 296zM496 340v-293h164c93 0 169 30 169 147c0 116 -76 146 -169 146h-164z" />
    <glyph glyph-name="uni040A" unicode="&#x40a;" horiz-adv-x="979" 
d="M549 680v-293h164c139 0 221 -60 221 -193c0 -134 -82 -194 -221 -194h-214v340h-350v-340h-50v680h50v-293h350v293h50zM549 340v-293h164c93 0 169 30 169 147c0 116 -76 146 -169 146h-164z" />
    <glyph glyph-name="uni040B" unicode="&#x40b;" horiz-adv-x="704" 
d="M641 0h-50v251c0 114 -41 168 -159 168c-64 0 -137 -15 -195 -40v-379h-50v633h-157v47h435v-47h-228v-206c51 21 118 40 195 40c156 0 209 -81 209 -206v-261z" />
    <glyph glyph-name="uni040C" unicode="&#x40c;" horiz-adv-x="546" 
d="M151 318h-2v-318h-50v680h50v-337h2l313 337h58v-6l-315 -340l334 -328v-6h-65zM364 859v-5l-59 -110h-45v5l48 110h56z" />
    <glyph glyph-name="uni040D" unicode="&#x40d;" horiz-adv-x="680" 
d="M148 92h2l383 588h48v-680h-50v589h-2l-382 -589h-48v680h49v-588zM257 854v5h56l48 -110v-5h-45z" />
    <glyph glyph-name="uni040E" unicode="&#x40e;" horiz-adv-x="519" 
d="M506 680v-5l-231 -538c-34 -80 -80 -137 -173 -137h-33v47h32c52 0 96 22 128 103l18 45l-219 480v5h46l198 -434h3l182 434h49zM277 808c59 0 80 25 99 50l26 -22c-22 -40 -57 -72 -125 -72s-103 32 -125 72l26 22c19 -25 40 -50 99 -50z" />
    <glyph glyph-name="uni040F" unicode="&#x40f;" horiz-adv-x="677" 
d="M360 -141h-43l-7 141h-211v680h50v-633h379v633h50v-680h-211z" />
    <glyph glyph-name="uni0410" unicode="&#x410;" horiz-adv-x="587" 
d="M319 680l249 -680h-53l-66 184h-311l-66 -184h-53l249 680h51zM294 614h-1l-138 -384h277z" />
    <glyph glyph-name="uni0411" unicode="&#x411;" 
d="M99 680h404v-47h-354v-246h164c139 0 221 -60 221 -193c0 -134 -82 -194 -221 -194h-214v680zM149 340v-293h164c93 0 169 30 169 147c0 116 -76 146 -169 146h-164z" />
    <glyph glyph-name="uni0412" unicode="&#x412;" horiz-adv-x="598" 
d="M149 323v-276h164c93 0 172 33 172 138c0 104 -76 138 -170 138h-166zM99 680h202c124 0 212 -48 212 -176c0 -88 -51 -134 -100 -153v-2c73 -18 124 -74 124 -166c0 -128 -97 -183 -218 -183h-220v680zM149 633v-263h148c90 0 164 27 164 131c0 105 -74 132 -164 132
h-148z" />
    <glyph glyph-name="uni0413" unicode="&#x413;" horiz-adv-x="540" 
d="M99 680h412v-47h-362v-633h-50v680z" />
    <glyph glyph-name="uni0414" unicode="&#x414;" horiz-adv-x="641" 
d="M63 -141h-43l-9 188h37c58 60 98 115 112 313l23 320h354v-633h43l-8 -188h-43l-7 141h-452zM112 47h375v586h-257l-19 -272c-14 -205 -45 -261 -99 -314z" />
    <glyph glyph-name="uni0415" unicode="&#x415;" horiz-adv-x="574" 
d="M99 680h409v-47h-359v-260h329v-47h-329v-279h362v-47h-412v680z" />
    <glyph glyph-name="uni0416" unicode="&#x416;" horiz-adv-x="864" 
d="M459 318h-2v-318h-50v318h-2l-325 -318h-65v6l336 328l-322 340v6h63l313 -337h2v337h50v-337h2l313 337h63v-6l-322 -340l336 -328v-6h-65z" />
    <glyph glyph-name="uni0417" unicode="&#x417;" horiz-adv-x="531" 
d="M130 326v47h124c88 0 146 54 146 135c0 91 -61 139 -153 139c-64 0 -118 -15 -169 -42l-18 42c48 28 112 48 188 48c125 0 204 -68 204 -187c0 -90 -57 -136 -109 -155v-2c75 -18 125 -86 125 -174c0 -124 -107 -192 -230 -192c-89 0 -151 26 -198 57l21 43
c53 -33 106 -52 177 -52c92 0 178 43 178 144c0 74 -34 149 -171 149h-115z" />
    <glyph glyph-name="uni0418" unicode="&#x418;" horiz-adv-x="680" 
d="M148 92h2l383 588h48v-680h-50v589h-2l-382 -589h-48v680h49v-588z" />
    <glyph glyph-name="uni0419" unicode="&#x419;" horiz-adv-x="680" 
d="M148 92h2l383 588h48v-680h-50v589h-2l-382 -589h-48v680h49v-588zM346 808c59 0 80 25 99 50l26 -22c-22 -40 -57 -72 -125 -72s-103 32 -125 72l26 22c19 -25 40 -50 99 -50z" />
    <glyph glyph-name="uni041A" unicode="&#x41a;" horiz-adv-x="556" 
d="M151 318h-2v-318h-50v680h50v-337h2l313 337h58v-6l-315 -340l334 -328v-6h-65z" />
    <glyph glyph-name="uni041B" unicode="&#x41b;" horiz-adv-x="649" 
d="M550 680v-680h-50v633h-314l-13 -309c-12 -307 -57 -334 -162 -334v47c79 0 101 17 113 296l15 347h411z" />
    <glyph glyph-name="uni041C" unicode="&#x41c;" horiz-adv-x="807" 
d="M402 235h3l256 445h47v-680h-50v576h-2l-231 -403h-43l-231 403h-2v-576h-50v680h47z" />
    <glyph glyph-name="uni041D" unicode="&#x41d;" horiz-adv-x="687" 
d="M538 0v326h-389v-326h-50v680h50v-307h389v307h50v-680h-50z" />
    <glyph glyph-name="uni041E" unicode="&#x41e;" horiz-adv-x="696" 
d="M118 340c0 -170 53 -307 230 -307s230 137 230 307s-53 307 -230 307s-230 -137 -230 -307zM630 340c0 -205 -79 -355 -282 -355s-282 150 -282 355s79 355 282 355s282 -150 282 -355z" />
    <glyph glyph-name="uni041F" unicode="&#x41f;" horiz-adv-x="687" 
d="M538 0v633h-389v-633h-50v680h489v-680h-50z" />
    <glyph glyph-name="uni0420" unicode="&#x420;" horiz-adv-x="568" 
d="M149 0h-50v680h211c136 0 213 -69 213 -199s-78 -198 -213 -198h-161v-283zM149 633v-303h155c110 0 167 50 167 151s-57 152 -167 152h-155z" />
    <glyph glyph-name="uni0421" unicode="&#x421;" horiz-adv-x="580" 
d="M66 340c0 214 88 355 298 355c55 0 120 -17 169 -45l-19 -42c-50 28 -105 39 -150 39c-176 0 -246 -119 -246 -307s70 -307 246 -307c45 0 100 11 150 39l19 -42c-49 -28 -114 -45 -169 -45c-210 0 -298 141 -298 355z" />
    <glyph glyph-name="uni0422" unicode="&#x422;" horiz-adv-x="520" 
d="M31 680h458v-47h-204v-633h-50v633h-204v47z" />
    <glyph glyph-name="uni0423" unicode="&#x423;" horiz-adv-x="519" 
d="M506 680v-5l-231 -538c-34 -80 -80 -137 -173 -137h-33v47h32c52 0 96 22 128 103l18 45l-219 480v5h46l198 -434h3l182 434h49z" />
    <glyph glyph-name="uni0424" unicode="&#x424;" horiz-adv-x="734" 
d="M101 341c0 -123 57 -216 241 -221v444c-184 -11 -241 -94 -241 -223zM392 68v-68h-50v68c-215 7 -293 129 -293 273c0 146 78 265 293 272v67h50v-67c215 -7 293 -126 293 -272c0 -144 -78 -266 -293 -273zM633 341c0 129 -57 212 -241 223v-444c184 5 241 98 241 221z
" />
    <glyph glyph-name="uni0425" unicode="&#x425;" horiz-adv-x="562" 
d="M32 680h56l192 -300h2l192 300h56v-6l-216 -333l216 -335v-6h-55l-193 301h-2l-193 -301h-55v6l216 335l-216 333v6z" />
    <glyph glyph-name="uni0426" unicode="&#x426;" horiz-adv-x="682" 
d="M613 -141h-43l-7 141h-464v680h50v-633h379v633h50v-633h43z" />
    <glyph glyph-name="uni0427" unicode="&#x427;" horiz-adv-x="622" 
d="M69 680h50v-281c0 -114 41 -168 159 -168c64 0 137 15 195 40v409h50v-680h-50v223c-51 -21 -118 -40 -195 -40c-156 0 -209 81 -209 206v291z" />
    <glyph glyph-name="uni0428" unicode="&#x428;" horiz-adv-x="1002" 
d="M903 0h-804v680h50v-633h327v633h50v-633h327v633h50v-680z" />
    <glyph glyph-name="uni0429" unicode="&#x429;" horiz-adv-x="1007" 
d="M938 -141h-43l-7 141h-789v680h50v-633h327v633h50v-633h327v633h50v-633h43z" />
    <glyph glyph-name="uni042A" unicode="&#x42a;" horiz-adv-x="651" 
d="M27 633v47h194v-293h164c139 0 221 -60 221 -193c0 -134 -82 -194 -221 -194h-214v633h-144zM221 340v-293h164c93 0 169 30 169 147c0 116 -76 146 -169 146h-164z" />
    <glyph glyph-name="uni042B" unicode="&#x42b;" horiz-adv-x="798" 
d="M699 680v-680h-49v680h49zM99 0v680h50v-293h164c139 0 221 -60 221 -193c0 -134 -82 -194 -221 -194h-214zM149 340v-293h164c93 0 169 30 169 147c0 116 -76 146 -169 146h-164z" />
    <glyph glyph-name="uni042C" unicode="&#x42c;" horiz-adv-x="579" 
d="M99 0v680h50v-293h164c139 0 221 -60 221 -193c0 -134 -82 -194 -221 -194h-214zM149 340v-293h164c93 0 169 30 169 147c0 116 -76 146 -169 146h-164z" />
    <glyph glyph-name="uni042D" unicode="&#x42d;" horiz-adv-x="583" 
d="M517 340c0 -212 -88 -355 -298 -355c-55 0 -120 17 -169 45l19 42c50 -28 105 -39 150 -39c170 0 240 109 246 285h-323v49h323c-7 173 -77 280 -246 280c-45 0 -100 -11 -150 -39l-19 42c49 28 114 45 169 45c210 0 298 -143 298 -355z" />
    <glyph glyph-name="uni042E" unicode="&#x42e;" horiz-adv-x="926" 
d="M859 340c0 -205 -79 -355 -282 -355c-199 0 -279 143 -282 341h-146v-326h-50v680h50v-307h146c8 188 90 322 282 322c203 0 282 -150 282 -355zM347 340c0 -170 53 -307 230 -307s230 137 230 307s-53 307 -230 307s-230 -137 -230 -307z" />
    <glyph glyph-name="uni042F" unicode="&#x42f;" horiz-adv-x="610" 
d="M511 0h-50v311h-151l-222 -311h-58v7l222 305c-109 10 -179 70 -179 184c0 119 74 184 207 184h231v-680zM286 358h175v275h-175c-109 0 -162 -48 -162 -137c0 -91 53 -138 162 -138z" />
    <glyph glyph-name="uni0430" unicode="&#x430;" horiz-adv-x="498" 
d="M469 33v-37c-10 -3 -24 -6 -41 -6c-33 0 -55 18 -61 52h-2c-35 -29 -92 -57 -162 -57c-91 0 -155 57 -155 145c0 104 80 150 232 150h82v29c0 107 -54 143 -131 143c-59 0 -101 -20 -135 -46l-22 36c37 32 89 55 157 55c107 0 179 -55 179 -188v-241c0 -24 5 -35 32 -35
h27zM362 238h-75c-138 0 -189 -36 -189 -107c0 -64 44 -101 109 -101c63 0 115 24 155 55v153z" />
    <glyph glyph-name="uni0431" unicode="&#x431;" horiz-adv-x="589" 
d="M124 337c31 63 103 102 185 102c135 0 223 -89 223 -227c0 -133 -89 -227 -229 -227c-132 0 -231 81 -231 274c0 181 18 315 163 388c72 37 196 47 264 64v-47c-59 -15 -157 -11 -246 -57c-102 -53 -127 -135 -131 -269zM124 212c0 -108 67 -182 179 -182s179 74 179 182
s-67 182 -179 182s-179 -74 -179 -182z" />
    <glyph glyph-name="uni0432" unicode="&#x432;" horiz-adv-x="485" 
d="M132 224v-181h131c71 0 116 26 116 91s-45 90 -116 90h-131zM335 250v-1c59 -14 94 -53 94 -113c0 -83 -42 -136 -166 -136h-179v482h156c112 0 164 -38 164 -129c0 -43 -30 -89 -69 -103zM132 439v-172h106c68 0 116 21 116 86s-48 86 -115 86h-107z" />
    <glyph glyph-name="uni0433" unicode="&#x433;" horiz-adv-x="423" 
d="M84 482h322v-43h-274v-439h-48v482z" />
    <glyph glyph-name="uni0434" unicode="&#x434;" horiz-adv-x="515" 
d="M65 -120h-39l-8 163h31c46 43 75 94 84 228l14 211h273v-439h45l-8 -163h-41l-5 120h-340zM105 43h267v396h-181l-13 -170c-10 -139 -36 -187 -73 -226z" />
    <glyph glyph-name="uni0435" unicode="&#x435;" horiz-adv-x="527" 
d="M468 232h-362c3 -117 58 -202 180 -202c65 0 107 22 144 48l22 -38c-40 -29 -88 -55 -167 -55c-160 0 -228 112 -228 258s86 254 218 254c135 0 200 -94 200 -199c0 -21 -3 -47 -7 -66zM275 452c-93 0 -157 -66 -168 -177h317c1 10 1 19 1 26c0 87 -49 151 -150 151z" />
    <glyph glyph-name="uni0436" unicode="&#x436;" horiz-adv-x="686" 
d="M369 225h-2v-225h-48v225h-2l-232 -225h-62v5l245 236l-237 236v5h59l227 -230h2v230h48v-230h2l227 230h59v-5l-237 -236l245 -236v-5h-62z" />
    <glyph glyph-name="uni0437" unicode="&#x437;" horiz-adv-x="459" 
d="M122 272h111c68 0 104 30 104 80c0 60 -29 98 -123 98c-60 0 -97 -14 -144 -33l-16 40c46 21 98 38 161 38c120 0 172 -62 172 -141c0 -53 -34 -89 -72 -102v-2c55 -19 87 -58 87 -116c0 -97 -68 -149 -187 -149c-73 0 -126 16 -176 41l15 39c54 -25 104 -35 161 -35
c91 0 137 35 137 108c0 61 -48 91 -115 91h-115v43z" />
    <glyph glyph-name="uni0438" unicode="&#x438;" horiz-adv-x="545" 
d="M132 79h2l276 403h51v-482h-48v401h-2l-276 -401h-51v482h48v-403z" />
    <glyph glyph-name="uni0439" unicode="&#x439;" horiz-adv-x="545" 
d="M278 613c59 0 80 25 99 50l26 -20c-22 -40 -57 -72 -125 -72s-103 32 -125 72l26 20c19 -25 40 -50 99 -50zM132 79h2l276 403h51v-482h-48v401h-2l-276 -401h-51v482h48v-403z" />
    <glyph glyph-name="uni043A" unicode="&#x43a;" horiz-adv-x="445" 
d="M134 225h-2v-225h-48v482h48v-230h2l227 230h59v-5l-237 -236l245 -236v-5h-62z" />
    <glyph glyph-name="uni043B" unicode="&#x43b;" horiz-adv-x="525" 
d="M393 0v439h-228l-7 -174c-10 -234 -43 -272 -138 -272v45c58 0 82 6 91 223l9 221h321v-482h-48z" />
    <glyph glyph-name="uni043C" unicode="&#x43c;" horiz-adv-x="649" 
d="M323 181h3l193 301h46v-482h-48v390h-2l-170 -263h-41l-170 263h-2v-390h-48v482h46z" />
    <glyph glyph-name="uni043D" unicode="&#x43d;" horiz-adv-x="550" 
d="M418 0v226h-286v-226h-48v482h48v-213h286v213h48v-482h-48z" />
    <glyph glyph-name="uni043E" unicode="&#x43e;" horiz-adv-x="562" 
d="M107 241c0 -104 34 -211 174 -211s174 107 174 211s-34 211 -174 211s-174 -107 -174 -211zM505 241c0 -132 -53 -256 -224 -256s-224 124 -224 256s53 256 224 256s224 -124 224 -256z" />
    <glyph glyph-name="uni043F" unicode="&#x43f;" horiz-adv-x="550" 
d="M418 0v439h-286v-439h-48v482h382v-482h-48z" />
    <glyph glyph-name="uni0440" unicode="&#x440;" horiz-adv-x="552" 
d="M84 482h39l5 -44h2c37 30 90 59 169 59c143 0 195 -116 195 -256s-52 -256 -195 -256c-79 0 -127 27 -165 57h-2v-240h-48v680zM132 385v-288c36 -40 98 -67 161 -67c115 0 151 94 151 211s-36 211 -151 211c-63 0 -125 -27 -161 -67z" />
    <glyph glyph-name="uni0441" unicode="&#x441;" horiz-adv-x="470" 
d="M57 241c0 147 74 256 219 256c49 0 100 -10 147 -36l-17 -40c-39 20 -86 31 -130 31c-118 0 -169 -98 -169 -211s51 -211 169 -211c44 0 91 11 130 31l17 -40c-47 -26 -98 -36 -147 -36c-145 0 -219 109 -219 256z" />
    <glyph glyph-name="uni0442" unicode="&#x442;" horiz-adv-x="400" 
d="M19 482h362v-43h-157v-439h-48v439h-157v43z" />
    <glyph glyph-name="uni0443" unicode="&#x443;" horiz-adv-x="474" 
d="M446 482v-6l-206 -558c-32 -84 -74 -131 -146 -131c-19 0 -47 5 -62 9v44c16 -4 40 -8 61 -8c46 0 79 41 97 90l30 80l-195 474v6h51l166 -416h3l152 416h49z" />
    <glyph glyph-name="uni0444" unicode="&#x444;" horiz-adv-x="850" 
d="M401 700h48v-256c36 30 84 53 157 53c138 0 185 -116 185 -256s-47 -256 -185 -256c-74 0 -117 22 -155 52h-2v-235h-48v235h-2c-38 -30 -81 -52 -155 -52c-138 0 -185 116 -185 256s47 256 185 256c72 0 120 -23 157 -53v256zM449 390v-298c36 -40 93 -62 151 -62
c110 0 141 94 141 211s-31 211 -141 211c-58 0 -115 -22 -151 -62zM401 92v298c-36 40 -93 62 -151 62c-110 0 -141 -94 -141 -211s31 -211 141 -211c58 0 115 22 151 62z" />
    <glyph glyph-name="uni0445" unicode="&#x445;" horiz-adv-x="456" 
d="M229 205h-2l-138 -205h-53v6l160 235l-160 235v6h53l138 -207h2l138 207h53v-6l-160 -235l160 -235v-6h-53z" />
    <glyph glyph-name="uni0446" unicode="&#x446;" horiz-adv-x="561" 
d="M457 0h-373v482h48v-439h286v439h48v-440h45l-8 -162h-41z" />
    <glyph glyph-name="uni0447" unicode="&#x447;" horiz-adv-x="497" 
d="M57 482h48v-191c0 -79 35 -116 115 -116c57 0 116 15 145 25v282h48v-482h-48v158c-31 -11 -85 -28 -148 -28c-95 0 -160 42 -160 157v195z" />
    <glyph glyph-name="uni0448" unicode="&#x448;" horiz-adv-x="792" 
d="M708 0h-624v482h48v-439h240v439h48v-439h240v439h48v-482z" />
    <glyph glyph-name="uni0449" unicode="&#x449;" horiz-adv-x="803" 
d="M699 0h-615v482h48v-439h240v439h48v-439h240v439h48v-440h45l-8 -162h-41z" />
    <glyph glyph-name="uni044A" unicode="&#x44a;" horiz-adv-x="515" 
d="M23 439v43h159v-200h129c106 0 165 -50 165 -141s-60 -141 -165 -141h-177v439h-111zM182 239v-196h123c70 0 125 23 125 98s-55 98 -125 98h-123z" />
    <glyph glyph-name="uni044B" unicode="&#x44b;" horiz-adv-x="627" 
d="M84 0v482h48v-200h129c106 0 165 -50 165 -141s-60 -141 -165 -141h-177zM132 239v-196h123c70 0 125 23 125 98s-55 98 -125 98h-123zM543 0h-48v482h48v-482z" />
    <glyph glyph-name="uni044C" unicode="&#x44c;" horiz-adv-x="465" 
d="M84 0v482h48v-200h129c106 0 165 -50 165 -141s-60 -141 -165 -141h-177zM132 239v-196h123c70 0 125 23 125 98s-55 98 -125 98h-123z" />
    <glyph glyph-name="uni044D" unicode="&#x44d;" horiz-adv-x="472" 
d="M415 241c0 -147 -74 -256 -219 -256c-49 0 -100 10 -147 36l17 40c39 -20 86 -31 130 -31c110 0 162 86 168 190h-244v43h244c-7 103 -58 189 -168 189c-44 0 -91 -11 -130 -31l-17 40c47 26 98 36 147 36c145 0 219 -109 219 -256z" />
    <glyph glyph-name="uni044E" unicode="&#x44e;" horiz-adv-x="752" 
d="M695 241c0 -132 -53 -256 -224 -256c-165 0 -220 114 -224 241h-115v-226h-48v482h48v-213h116c7 121 64 228 223 228c171 0 224 -124 224 -256zM297 241c0 -104 34 -211 174 -211s174 107 174 211s-34 211 -174 211s-174 -107 -174 -211z" />
    <glyph glyph-name="uni044F" unicode="&#x44f;" horiz-adv-x="514" 
d="M430 0h-50v203h-118l-174 -203h-55v5l172 200c-86 8 -137 60 -137 137c0 86 63 140 154 140h208v-482zM380 246v193h-152c-76 0 -110 -41 -110 -97s34 -96 110 -96h152z" />
    <glyph glyph-name="uni0450" unicode="&#x450;" horiz-adv-x="527" 
d="M468 232h-362c3 -117 58 -202 180 -202c65 0 107 22 144 48l22 -38c-40 -29 -88 -55 -167 -55c-160 0 -228 112 -228 258s86 254 218 254c135 0 200 -94 200 -199c0 -21 -3 -47 -7 -66zM275 452c-93 0 -157 -66 -168 -177h317c1 10 1 19 1 26c0 87 -49 151 -150 151z
M201 691v5h54l48 -110v-5h-43z" />
    <glyph glyph-name="uni0451" unicode="&#x451;" horiz-adv-x="527" 
d="M468 232h-362c3 -117 58 -202 180 -202c65 0 107 22 144 48l22 -38c-40 -29 -88 -55 -167 -55c-160 0 -228 112 -228 258s86 254 218 254c135 0 200 -94 200 -199c0 -21 -3 -47 -7 -66zM275 452c-93 0 -157 -66 -168 -177h317c1 10 1 19 1 26c0 87 -49 151 -150 151z
M152 626c0 23 17 40 39 40c21 0 38 -17 38 -40s-17 -39 -38 -39c-22 0 -39 16 -39 39zM330 626c0 23 17 40 39 40c21 0 38 -17 38 -40s-17 -39 -38 -39c-22 0 -39 16 -39 39z" />
    <glyph glyph-name="uni0452" unicode="&#x452;" horiz-adv-x="543" 
d="M133 0h-48v576h-72v43h72v81h48v-81h121v-43h-121v-125h2c34 18 89 46 162 46c109 0 181 -47 181 -221c0 -187 -69 -339 -125 -444l-41 20c65 119 116 251 116 424c0 127 -42 176 -131 176c-65 0 -122 -25 -164 -51v-401z" />
    <glyph glyph-name="uni0453" unicode="&#x453;" horiz-adv-x="423" 
d="M327 696v-5l-59 -110h-43v5l48 110h54zM84 482h322v-43h-274v-439h-48v482z" />
    <glyph glyph-name="uni0454" unicode="&#x454;" horiz-adv-x="468" 
d="M57 241c0 147 74 256 219 256c49 0 100 -10 147 -36l-17 -40c-39 20 -86 31 -130 31c-110 0 -161 -86 -168 -189h244v-43h-244c6 -104 58 -190 168 -190c44 0 91 11 130 31l17 -40c-47 -26 -98 -36 -147 -36c-145 0 -219 109 -219 256z" />
    <glyph glyph-name="uni0455" unicode="&#x455;" horiz-adv-x="435" 
d="M48 31l22 40c35 -26 78 -41 140 -41c80 0 124 35 124 93c0 40 -24 69 -99 91l-60 18c-73 22 -115 59 -115 126c0 80 59 139 167 139c57 0 105 -14 147 -34l-18 -43c-44 24 -88 32 -128 32c-80 0 -118 -37 -118 -93c0 -36 19 -64 78 -81l60 -18c92 -27 136 -63 136 -136
c0 -77 -60 -139 -173 -139c-73 0 -121 19 -163 46z" />
    <glyph glyph-name="uni0456" unicode="&#x456;" horiz-adv-x="216" 
d="M132 0h-48v482h48v-482zM69 626c0 23 17 40 39 40c21 0 38 -17 38 -40s-17 -39 -38 -39c-22 0 -39 16 -39 39z" />
    <glyph glyph-name="uni0457" unicode="&#x457;" horiz-adv-x="218" 
d="M-19 626c0 23 17 40 39 40c21 0 38 -17 38 -40s-17 -39 -38 -39c-22 0 -39 16 -39 39zM159 626c0 23 17 40 39 40c21 0 38 -17 38 -40s-17 -39 -38 -39c-22 0 -39 16 -39 39zM133 0h-48v482h48v-482z" />
    <glyph glyph-name="uni0458" unicode="&#x458;" horiz-adv-x="216" 
d="M84 482h48v-544c0 -110 -36 -151 -111 -151c-23 0 -39 3 -56 8v43c17 -4 35 -6 55 -6c44 0 64 28 64 89v561zM69 626c0 23 17 40 39 40c21 0 38 -17 38 -40s-17 -39 -38 -39c-22 0 -39 16 -39 39z" />
    <glyph glyph-name="uni0459" unicode="&#x459;" horiz-adv-x="739" 
d="M165 439l-7 -174c-10 -234 -43 -272 -138 -272v45c58 0 82 6 91 223l9 221h286v-200h129c106 0 165 -50 165 -141s-60 -141 -165 -141h-177v439h-193zM406 239v-196h123c70 0 125 23 125 98s-55 98 -125 98h-123z" />
    <glyph glyph-name="uni045A" unicode="&#x45a;" horiz-adv-x="765" 
d="M384 0v239h-252v-239h-48v482h48v-200h252v200h48v-200h129c106 0 165 -50 165 -141s-60 -141 -165 -141h-177zM432 239v-196h123c70 0 125 23 125 98s-55 98 -125 98h-123z" />
    <glyph glyph-name="uni045B" unicode="&#x45b;" horiz-adv-x="556" 
d="M476 0h-48v299c0 105 -44 153 -130 153c-72 0 -130 -33 -165 -59v-393h-48v572h-77v43h77v85h48v-85h116v-43h-116v-131h2c29 20 91 56 167 56c114 0 174 -66 174 -190v-307z" />
    <glyph glyph-name="uni045C" unicode="&#x45c;" horiz-adv-x="445" 
d="M323 696v-5l-59 -110h-43v5l48 110h54zM134 225h-2v-225h-48v482h48v-230h2l227 230h59v-5l-237 -236l245 -236v-5h-62z" />
    <glyph glyph-name="uni045D" unicode="&#x45d;" horiz-adv-x="545" 
d="M189 691v5h54l48 -110v-5h-43zM132 79h2l276 403h51v-482h-48v401h-2l-276 -401h-51v482h48v-403z" />
    <glyph glyph-name="uni045E" unicode="&#x45e;" horiz-adv-x="474" 
d="M446 482v-6l-206 -558c-32 -84 -74 -131 -146 -131c-19 0 -47 5 -62 9v44c16 -4 40 -8 61 -8c46 0 79 41 97 90l30 80l-195 474v6h51l166 -416h3l152 416h49zM245 613c59 0 80 25 99 50l26 -20c-22 -40 -57 -72 -125 -72s-103 32 -125 72l26 20c19 -25 40 -50 99 -50z
" />
    <glyph glyph-name="uni045F" unicode="&#x45f;" horiz-adv-x="542" 
d="M291 -120h-40l-5 120h-162v482h48v-439h278v439h48v-482h-162z" />
    <glyph glyph-name="uni0462" unicode="&#x462;" horiz-adv-x="677" 
d="M196 0v541h-157v47h157v92h50v-92h228v-47h-228v-154h164c139 0 221 -60 221 -193c0 -134 -82 -194 -221 -194h-214zM246 340v-293h164c93 0 169 30 169 147c0 116 -76 146 -169 146h-164z" />
    <glyph glyph-name="uni0463" unicode="&#x463;" horiz-adv-x="518" 
d="M136 0v439h-113v43h113v218h48v-218h168v-43h-168v-157h129c106 0 165 -50 165 -141s-60 -141 -165 -141h-177zM184 239v-196h123c70 0 125 23 125 98s-55 98 -125 98h-123z" />
    <glyph glyph-name="uni0472" unicode="&#x472;" horiz-adv-x="696" 
d="M630 340c0 -205 -79 -355 -282 -355s-282 150 -282 355s79 355 282 355s282 -150 282 -355zM348 33c169 0 224 125 229 284h-459c5 -159 61 -284 230 -284zM348 647c-169 0 -225 -125 -230 -283h459c-5 158 -61 283 -229 283z" />
    <glyph glyph-name="uni0473" unicode="&#x473;" horiz-adv-x="562" 
d="M505 241c0 -132 -53 -256 -224 -256s-224 124 -224 256s53 256 224 256s224 -124 224 -256zM281 30c130 0 169 93 173 190h-347c5 -97 43 -190 174 -190zM281 452c-130 0 -169 -93 -174 -189h347c-5 96 -43 189 -173 189z" />
    <glyph glyph-name="uni0474" unicode="&#x474;" horiz-adv-x="650" 
d="M294 67l167 466c48 135 82 162 166 162v-47c-65 0 -78 -19 -121 -137l-187 -511h-52l-246 674v6h51l220 -613h2z" />
    <glyph glyph-name="uni0475" unicode="&#x475;" horiz-adv-x="510" 
d="M236 61l133 352c24 65 56 80 113 80v-45c-33 0 -53 -7 -68 -46l-154 -402h-50l-183 476v6h48l159 -421h2z" />
    <glyph glyph-name="uni0490" unicode="&#x490;" horiz-adv-x="537" 
d="M457 821h43l8 -188h-359v-633h-50v680h351z" />
    <glyph glyph-name="uni0491" unicode="&#x491;" horiz-adv-x="421" 
d="M84 482h266l5 105h41l8 -147l-272 -1v-439h-48v482z" />
    <glyph glyph-name="uni0E3F" unicode="&#xe3f;" 
d="M314 770v-91c107 -8 178 -58 178 -175c0 -88 -51 -134 -100 -153v-2c73 -18 124 -74 124 -166c0 -123 -88 -179 -202 -183v-108h-48v108h-158v680h158v90h48zM464 185c0 96 -66 133 -150 137v-275c83 5 150 40 150 138zM158 323v-276h108v276h-108zM158 633v-263h108v263
h-108zM440 501c0 91 -53 123 -126 130v-260c73 7 126 40 126 130z" />
    <glyph glyph-name="Wgrave" unicode="&#x1e80;" horiz-adv-x="946" 
d="M918 680v-6l-205 -674h-53l-186 607h-2l-186 -607h-53l-205 674v6h51l180 -601h2l185 601h54l185 -601h2l180 601h51zM391 854v5h56l48 -110v-5h-45z" />
    <glyph glyph-name="wgrave" unicode="&#x1e81;" horiz-adv-x="802" 
d="M773 482v-6l-173 -476h-50l-148 422h-2l-148 -422h-50l-173 476v6h48l149 -415h2l148 415h50l148 -415h2l149 415h48zM318 691v5h54l48 -110v-5h-43z" />
    <glyph glyph-name="Wacute" unicode="&#x1e82;" horiz-adv-x="946" 
d="M918 680v-6l-205 -674h-53l-186 607h-2l-186 -607h-53l-205 674v6h51l180 -601h2l185 601h54l185 -601h2l180 601h51zM554 859v-5l-59 -110h-45v5l48 110h56z" />
    <glyph glyph-name="wacute" unicode="&#x1e83;" horiz-adv-x="802" 
d="M773 482v-6l-173 -476h-50l-148 422h-2l-148 -422h-50l-173 476v6h48l149 -415h2l148 415h50l148 -415h2l149 415h48zM484 696v-5l-59 -110h-43v5l48 110h54z" />
    <glyph glyph-name="Wdieresis" unicode="&#x1e84;" horiz-adv-x="946" 
d="M918 680v-6l-205 -674h-53l-186 607h-2l-186 -607h-53l-205 674v6h51l180 -601h2l185 601h54l185 -601h2l180 601h51zM345 801c0 23 17 40 39 40c21 0 38 -17 38 -40s-17 -39 -38 -39c-22 0 -39 16 -39 39zM523 801c0 23 17 40 39 40c21 0 38 -17 38 -40s-17 -39 -38 -39
c-22 0 -39 16 -39 39z" />
    <glyph glyph-name="wdieresis" unicode="&#x1e85;" horiz-adv-x="802" 
d="M773 482v-6l-173 -476h-50l-148 422h-2l-148 -422h-50l-173 476v6h48l149 -415h2l148 415h50l148 -415h2l149 415h48zM275 626c0 23 17 40 39 40c21 0 38 -17 38 -40s-17 -39 -38 -39c-22 0 -39 16 -39 39zM453 626c0 23 17 40 39 40c21 0 38 -17 38 -40s-17 -39 -38 -39
c-22 0 -39 16 -39 39z" />
    <glyph glyph-name="uni1E9E" unicode="&#x1e9e;" horiz-adv-x="639" 
d="M94 0v424c0 170 56 271 220 271c81 0 140 -25 204 -65v-32l-136 -206v-2c121 0 210 -69 210 -199c0 -126 -82 -206 -210 -206c-49 0 -86 8 -121 17v49c37 -10 78 -18 121 -18c96 0 158 53 158 158c0 108 -72 155 -182 155h-41v32l145 223c-42 27 -104 46 -148 46
c-126 0 -169 -77 -169 -222v-425h-51z" />
    <glyph glyph-name="Ygrave" unicode="&#x1ef2;" horiz-adv-x="534" 
d="M18 680h55l193 -335h2l193 335h55v-6l-224 -384v-290h-50v290l-224 384v6zM192 854v5h56l48 -110v-5h-45z" />
    <glyph glyph-name="ygrave" unicode="&#x1ef3;" horiz-adv-x="474" 
d="M446 482v-6l-206 -558c-32 -84 -74 -131 -146 -131c-19 0 -47 5 -62 9v44c16 -4 40 -8 61 -8c46 0 79 41 97 90l30 80l-195 474v6h51l166 -416h3l152 416h49zM165 691v5h54l48 -110v-5h-43z" />
    <glyph glyph-name="endash" unicode="&#x2013;" horiz-adv-x="541" 
d="M463 248h-385v43h385v-43z" />
    <glyph glyph-name="emdash" unicode="&#x2014;" horiz-adv-x="872" 
d="M794 248h-716v43h716v-43z" />
    <glyph glyph-name="quoteleft" unicode="&#x2018;" horiz-adv-x="216" 
d="M151 680v-6l-30 -217h-56v6l45 217h41z" />
    <glyph glyph-name="quoteright" unicode="&#x2019;" horiz-adv-x="213" 
d="M69 457v6l30 217h56v-6l-45 -217h-41z" />
    <glyph glyph-name="quotesinglbase" unicode="&#x201a;" horiz-adv-x="221" 
d="M56 -161v6l30 217h56v-6l-45 -217h-41z" />
    <glyph glyph-name="quotedblleft" unicode="&#x201c;" horiz-adv-x="361" 
d="M296 680v-6l-30 -217h-56v6l45 217h41zM151 680v-6l-30 -217h-56v6l45 217h41z" />
    <glyph glyph-name="quotedblright" unicode="&#x201d;" horiz-adv-x="356" 
d="M69 457v6l30 217h56v-6l-45 -217h-41zM212 457v6l30 217h56v-6l-45 -217h-41z" />
    <glyph glyph-name="quotedblbase" unicode="&#x201e;" horiz-adv-x="364" 
d="M56 -161v6l30 217h56v-6l-45 -217h-41zM199 -161v6l30 217h56v-6l-45 -217h-41z" />
    <glyph glyph-name="dagger" unicode="&#x2020;" horiz-adv-x="472" 
d="M31 482h180v218h50v-218h180v-47h-180v-633h-50v633h-180v47z" />
    <glyph glyph-name="daggerdbl" unicode="&#x2021;" horiz-adv-x="536" 
d="M64 482h179v218h50v-218h179v-47h-179v-368h179v-47h-179v-218h-50v218h-179v47h179v368h-179v47z" />
    <glyph glyph-name="bullet" unicode="&#x2022;" horiz-adv-x="318" 
d="M101 291c0 33 25 57 57 57s57 -24 57 -57c0 -34 -25 -57 -57 -57s-57 23 -57 57z" />
    <glyph glyph-name="ellipsis" unicode="&#x2026;" horiz-adv-x="622" 
d="M71 29c0 26 19 44 44 44s44 -18 44 -44s-19 -44 -44 -44s-44 18 -44 44zM267 29c0 26 19 44 44 44s44 -18 44 -44s-19 -44 -44 -44s-44 18 -44 44zM463 29c0 26 19 44 44 44s44 -18 44 -44s-19 -44 -44 -44s-44 18 -44 44z" />
    <glyph glyph-name="perthousand" unicode="&#x2030;" horiz-adv-x="1057" 
d="M195 0h-48v5l395 675h48v-5zM797 163c0 -88 31 -129 86 -129s86 41 86 129s-31 129 -86 129s-86 -41 -86 -129zM753 163c0 99 41 169 130 169s130 -70 130 -169s-41 -169 -130 -169s-130 70 -130 169zM92 515c0 -88 31 -129 86 -129s86 41 86 129s-31 129 -86 129
s-86 -41 -86 -129zM48 515c0 99 41 169 130 169s130 -70 130 -169s-41 -169 -130 -169s-130 70 -130 169zM469 163c0 -88 31 -129 86 -129s86 41 86 129s-31 129 -86 129s-86 -41 -86 -129zM425 163c0 99 41 169 130 169s130 -70 130 -169s-41 -169 -130 -169
s-130 70 -130 169z" />
    <glyph glyph-name="guilsinglleft" unicode="&#x2039;" horiz-adv-x="289" 
d="M48 269v2l149 204l34 -25l-132 -180l130 -180l-32 -25z" />
    <glyph glyph-name="guilsinglright" unicode="&#x203a;" horiz-adv-x="289" 
d="M241 271v-2l-149 -204l-32 25l130 180l-132 180l34 25z" />
    <glyph glyph-name="fraction" unicode="&#x2044;" horiz-adv-x="80" 
d="M-134 0h-48v5l395 675h48v-5z" />
    <glyph glyph-name="zerosuperior" unicode="&#x2070;" horiz-adv-x="340" 
d="M84 639c0 -88 31 -129 86 -129s86 41 86 129s-31 129 -86 129s-86 -41 -86 -129zM40 639c0 99 41 169 130 169s130 -70 130 -169s-41 -169 -130 -169s-130 70 -130 169z" />
    <glyph glyph-name="foursuperior" unicode="&#x2074;" horiz-adv-x="320" 
d="M198 721h42v-136h51v-37h-51v-72h-42v72h-170v29l90 223h44l-85 -214v-1h121v136z" />
    <glyph glyph-name="fivesuperior" unicode="&#x2075;" horiz-adv-x="291" 
d="M56 635l-5 5l22 160h168v-37h-132l-12 -88h33c78 0 124 -32 124 -100s-48 -107 -131 -107c-30 0 -70 10 -92 20l10 36c31 -13 69 -17 82 -17c61 0 87 19 87 68c0 42 -28 62 -86 62c-29 0 -55 -1 -68 -2z" />
    <glyph glyph-name="sixsuperior" unicode="&#x2076;" horiz-adv-x="298" 
d="M194 800v-5l-72 -110v-1c7 3 23 7 37 7c70 0 109 -45 109 -111c0 -48 -30 -112 -116 -112c-77 0 -116 48 -116 112c0 31 11 58 32 90l79 130h47zM80 580c0 -40 27 -73 72 -73s72 33 72 73s-27 72 -72 72s-72 -32 -72 -72z" />
    <glyph glyph-name="sevensuperior" unicode="&#x2077;" horiz-adv-x="259" 
d="M71 476v5l118 281v1h-165v37h213v-31l-121 -293h-45z" />
    <glyph glyph-name="eightsuperior" unicode="&#x2078;" horiz-adv-x="312" 
d="M156 507c53 0 74 29 74 60s-21 60 -74 60s-74 -29 -74 -60s21 -60 74 -60zM156 808c65 0 104 -36 104 -87c0 -35 -23 -59 -50 -73v-1c39 -13 64 -46 64 -83c0 -55 -39 -96 -118 -96s-118 41 -118 96c0 37 25 70 64 83v1c-27 14 -50 38 -50 73c0 51 39 87 104 87zM156 667
c45 0 60 24 60 51s-15 51 -60 51s-60 -24 -60 -51s15 -51 60 -51z" />
    <glyph glyph-name="ninesuperior" unicode="&#x2079;" horiz-adv-x="297" 
d="M103 476v5l72 110v1c-7 -3 -23 -7 -37 -7c-70 0 -109 45 -109 111c0 48 30 112 116 112c77 0 116 -48 116 -112c0 -31 -11 -58 -32 -90l-79 -130h-47zM217 696c0 40 -27 73 -72 73s-72 -33 -72 -73s27 -72 72 -72s72 32 72 72z" />
    <glyph glyph-name="plussuperior" unicode="&#x207a;" horiz-adv-x="257" 
d="M149 741v-75h72v-37h-72v-74h-41v74h-72v37h72v75h41z" />
    <glyph glyph-name="minussuperior" unicode="&#x207b;" horiz-adv-x="288" 
d="M237 631h-186v37h186v-37z" />
    <glyph glyph-name="parenleftsuperior" unicode="&#x207d;" horiz-adv-x="168" 
d="M38 639c0 78 32 154 69 214l27 -16c-35 -63 -53 -140 -53 -198c0 -63 18 -140 53 -201l-27 -16c-37 57 -69 134 -69 217z" />
    <glyph glyph-name="parenrightsuperior" unicode="&#x207e;" horiz-adv-x="168" 
d="M130 639c0 -83 -32 -160 -69 -217l-27 16c35 61 53 138 53 201c0 58 -18 135 -53 198l27 16c37 -60 69 -136 69 -214z" />
    <glyph glyph-name="zeroinferior" unicode="&#x2080;" horiz-adv-x="340" 
d="M84 43c0 -88 31 -129 86 -129s86 41 86 129s-31 129 -86 129s-86 -41 -86 -129zM40 43c0 99 41 169 130 169s130 -70 130 -169s-41 -169 -130 -169s-130 70 -130 169z" />
    <glyph glyph-name="oneinferior" unicode="&#x2081;" horiz-adv-x="219" 
d="M30 111h-5v39l110 54h34v-324h-42v277h-1z" />
    <glyph glyph-name="twoinferior" unicode="&#x2082;" horiz-adv-x="291" 
d="M101 -82v-1h152v-37h-218v32l116 107c28 25 52 52 52 87c0 40 -25 67 -68 67c-32 0 -59 -19 -78 -36l-23 30c19 19 53 45 101 45c72 0 112 -43 112 -103c0 -46 -22 -74 -51 -103z" />
    <glyph glyph-name="threeinferior" unicode="&#x2083;" horiz-adv-x="299" 
d="M78 26v37h52c55 0 78 24 78 53c0 38 -26 57 -71 57c-25 0 -57 -6 -82 -19l-14 35c27 15 67 23 99 23c68 0 112 -33 112 -89c0 -39 -25 -65 -54 -76v-1c34 -12 60 -35 60 -78c0 -60 -50 -96 -123 -96c-43 0 -78 11 -103 24l13 36c25 -12 60 -21 89 -21c43 0 80 14 80 59
c0 35 -27 56 -86 56h-50z" />
    <glyph glyph-name="fourinferior" unicode="&#x2084;" horiz-adv-x="320" 
d="M198 125h42v-136h51v-37h-51v-72h-42v72h-170v29l90 223h44l-85 -214v-1h121v136z" />
    <glyph glyph-name="fiveinferior" unicode="&#x2085;" horiz-adv-x="291" 
d="M56 39l-5 5l22 160h168v-37h-132l-12 -88h33c78 0 124 -32 124 -100s-48 -107 -131 -107c-30 0 -70 10 -92 20l10 36c31 -13 69 -17 82 -17c61 0 87 19 87 68c0 42 -28 62 -86 62c-29 0 -55 -1 -68 -2z" />
    <glyph glyph-name="sixinferior" unicode="&#x2086;" horiz-adv-x="297" 
d="M194 204v-5l-72 -110v-1c7 3 23 7 37 7c70 0 109 -45 109 -111c0 -48 -30 -112 -116 -112c-77 0 -116 48 -116 112c0 31 11 58 32 90l79 130h47zM80 -16c0 -40 27 -73 72 -73s72 33 72 73s-27 72 -72 72s-72 -32 -72 -72z" />
    <glyph glyph-name="seveninferior" unicode="&#x2087;" horiz-adv-x="259" 
d="M71 -120v5l118 281v1h-165v37h213v-31l-121 -293h-45z" />
    <glyph glyph-name="eightinferior" unicode="&#x2088;" horiz-adv-x="312" 
d="M156 -89c53 0 74 29 74 60s-21 60 -74 60s-74 -29 -74 -60s21 -60 74 -60zM156 212c65 0 104 -36 104 -87c0 -35 -23 -59 -50 -73v-1c39 -13 64 -46 64 -83c0 -55 -39 -96 -118 -96s-118 41 -118 96c0 37 25 70 64 83v1c-27 14 -50 38 -50 73c0 51 39 87 104 87zM156 71
c45 0 60 24 60 51s-15 51 -60 51s-60 -24 -60 -51s15 -51 60 -51z" />
    <glyph glyph-name="nineinferior" unicode="&#x2089;" horiz-adv-x="297" 
d="M103 -120v5l72 110v1c-7 -3 -23 -7 -37 -7c-70 0 -109 45 -109 111c0 48 30 112 116 112c77 0 116 -48 116 -112c0 -31 -11 -58 -32 -90l-79 -130h-47zM217 100c0 40 -27 73 -72 73s-72 -33 -72 -73s27 -72 72 -72s72 32 72 72z" />
    <glyph glyph-name="parenleftinferior" unicode="&#x208d;" horiz-adv-x="168" 
d="M38 43c0 78 32 154 69 214l27 -16c-35 -63 -53 -140 -53 -198c0 -63 18 -140 53 -201l-27 -16c-37 57 -69 134 -69 217z" />
    <glyph glyph-name="parenrightinferior" unicode="&#x208e;" horiz-adv-x="168" 
d="M130 43c0 -83 -32 -160 -69 -217l-27 16c35 61 53 138 53 201c0 58 -18 135 -53 198l27 16c37 -60 69 -136 69 -214z" />
    <glyph glyph-name="uni20A1" unicode="&#x20a1;" 
d="M473 770l-15 -93c19 -6 37 -15 53 -25l-14 -45c-15 9 -31 17 -47 23l-99 -597h6c41 0 87 9 132 37l17 -42c-44 -28 -99 -43 -149 -43c-5 0 -9 1 -14 1l-15 -94h-45l16 99c-26 5 -50 13 -71 25l-20 -124h-45l25 154c-64 61 -94 165 -94 294c0 186 62 319 201 349l14 81h44
l-13 -76c6 1 11 1 17 1c18 0 38 -2 58 -6l14 81h44zM237 68c20 -14 43 -25 70 -30l100 603c-18 4 -35 6 -50 6c-9 0 -17 -1 -25 -1zM145 340c0 -99 16 -178 54 -232l88 529c-102 -32 -142 -140 -142 -297z" />
    <glyph glyph-name="lira" unicode="&#x20a4;" 
d="M110 38c55 23 94 80 94 139c0 20 -1 40 -3 60h-101v42h95c-6 41 -14 82 -21 123h-74v42h68c-3 24 -4 50 -4 75c0 122 87 176 175 176c56 0 107 -20 149 -48l-23 -40c-47 30 -85 40 -126 40c-63 0 -126 -34 -126 -128c0 -25 2 -50 5 -75h212v-42h-206
c7 -42 16 -83 23 -123h183v-42h-178c3 -21 4 -41 4 -60c-1 -75 -41 -117 -66 -130v-2h308v-45h-388v38z" />
    <glyph glyph-name="uni20A6" unicode="&#x20a6;" 
d="M34 435h71v245h58l114 -245h163v245h49v-245h66v-42h-66v-123h66v-42h-66v-228h-58l-106 228h-170v-228h-50v228h-71v42h71v123h-71v42zM155 393v-123h150l-57 123h-93zM297 393l58 -123h85v123h-143zM155 589v-154h73l-71 154h-2zM438 92h2v136h-66z" />
    <glyph glyph-name="rupee" unicode="&#x20a8;" 
d="M355 632v-3c42 -20 68 -53 74 -107h87l-14 -48h-73c-9 -101 -78 -162 -206 -162h-52l281 -305v-7h-63l-293 321v37h121c100 0 153 39 161 116h-293l14 48h278c-9 70 -60 108 -152 110h-140l14 48h417l-14 -48h-147z" />
    <glyph glyph-name="uni20AA" unicode="&#x20aa;" 
d="M401 184h-50v273c0 142 -19 175 -159 175h-103v-632h-50v680h166c159 0 196 -58 196 -224v-272zM504 680h50v-457c0 -171 -60 -223 -218 -223h-136v496h50v-449h73c140 0 181 22 181 176v457z" />
    <glyph glyph-name="dong" unicode="&#x20ab;" 
d="M460 636h65v-43h-65v-475h-38l-6 44h-2c-33 -30 -78 -59 -154 -59c-123 0 -185 78 -185 208s62 208 185 208c79 0 117 -27 150 -57h2v131h-109v43h109v65h48v-65zM412 215v192c-36 40 -84 67 -146 67c-95 0 -141 -56 -141 -163s46 -163 141 -163c62 0 110 27 146 67z
M104 43h356v-43h-356v43z" />
    <glyph glyph-name="Euro" unicode="&#x20ac;" 
d="M114 340c0 19 0 37 2 55h-77l13 42h68c22 157 102 258 263 258c50 0 114 -15 158 -43l-14 -45c-45 28 -103 40 -144 40c-133 0 -194 -79 -212 -210h308l-12 -43l-301 1c-1 -18 -1 -36 -1 -55c0 -23 0 -44 2 -64h266l-12 -42h-249c19 -126 81 -201 211 -201
c41 0 91 9 136 37l17 -42c-44 -28 -103 -43 -153 -43c-158 0 -238 96 -262 249h-82l13 42h64c-1 20 -2 42 -2 64z" />
    <glyph glyph-name="uni20AD" unicode="&#x20ad;" 
d="M470 309h-204l257 -303v-6h-62l-259 309h-8v-309h-50v309h-77v42h77v329h50v-329h8l247 329h58v-6l-246 -323h209v-42z" />
    <glyph glyph-name="uni20AE" unicode="&#x20ae;" 
d="M67 680h458v-47h-204v-211l98 38v-51l-98 -38v-79l98 38v-51l-98 -38v-241h-50v221l-104 -40v51l104 40v79l-104 -40v51l104 40v231h-204v47z" />
    <glyph glyph-name="uni20B1" unicode="&#x20b1;" 
d="M547 359h-59c-27 -90 -96 -136 -201 -136h-121v-223h-50v359h-64v42h64v98h-64v42h64v139h171c107 0 176 -48 201 -139h59v-42h-50c2 -15 3 -31 3 -48c0 -18 -1 -35 -3 -50h50v-42zM448 451c0 17 -1 33 -4 48h-278v-98h278c3 15 4 32 4 50zM166 633v-92h267
c-23 61 -74 92 -152 92h-115zM281 270c77 0 128 29 151 89h-266v-89h115z" />
    <glyph glyph-name="uni20B2" unicode="&#x20b2;" 
d="M339 770v-75c78 -2 121 -27 168 -60l-26 -38c-47 33 -92 48 -142 50v-614c50 1 87 12 124 36v206l-77 9v38h127v-278c-53 -38 -108 -56 -174 -59v-93h-48v95c-161 17 -220 162 -220 353c0 186 64 332 220 352v78h48zM122 340c0 -158 39 -286 169 -305v609
c-121 -21 -169 -140 -169 -304z" />
    <glyph glyph-name="uni20B4" unicode="&#x20b4;" 
d="M515 236h-337c-10 -18 -15 -39 -15 -64c0 -90 64 -139 140 -139s126 31 166 68l24 -40c-43 -38 -100 -76 -190 -76c-111 0 -190 79 -190 188c0 23 3 44 10 63h-53v42h75c10 13 41 34 77 50l105 48h-257v42h315c31 24 43 54 43 92c0 78 -47 137 -135 137
c-53 0 -103 -17 -148 -51l-20 42c41 33 98 57 168 57c117 0 186 -81 186 -186c0 -35 -10 -65 -27 -91h63v-42h-103c-18 -14 -38 -26 -90 -49l-108 -49h301v-42z" />
    <glyph glyph-name="uni20B5" unicode="&#x20b5;" 
d="M361 770v-75c49 -1 107 -16 150 -43l-14 -45c-44 27 -96 39 -136 40v-614c40 0 84 10 128 37l17 -42c-43 -28 -96 -42 -145 -43v-93h-48v96c-151 21 -219 158 -219 352s68 330 219 352v78h48zM145 340c0 -170 47 -282 168 -304v607c-121 -21 -168 -134 -168 -303z" />
    <glyph glyph-name="afii61289" unicode="&#x2113;" horiz-adv-x="412" 
d="M24 235c42 22 83 46 120 74v248c0 120 41 158 103 158c69 0 97 -59 97 -130c0 -126 -67 -222 -152 -294v-170c0 -37 5 -91 63 -91c38 0 78 18 114 43l16 -43c-37 -23 -87 -45 -130 -45c-82 0 -111 48 -111 134v136c-33 -23 -67 -42 -100 -58zM192 554v-204
c61 60 102 134 102 232c0 47 -11 88 -47 88c-38 0 -55 -31 -55 -116z" />
    <glyph glyph-name="afii61352" unicode="&#x2116;" horiz-adv-x="1031" 
d="M528 92h2v588h49v-680h-48l-392 589h-2v-589h-50v680h48zM727 502c0 -66 29 -118 99 -118s99 52 99 118s-29 118 -99 118s-99 -52 -99 -118zM951 228h-247v43h247v-43zM680 502c0 88 43 161 146 161c102 0 146 -73 146 -161s-43 -161 -146 -161s-146 73 -146 161z" />
    <glyph glyph-name="uni2117" unicode="&#x2117;" horiz-adv-x="836" 
d="M356 153h-46v374h132c83 0 124 -43 124 -115c0 -69 -42 -115 -124 -115h-86v-144zM356 484v-144h89c51 0 73 33 73 72s-22 72 -73 72h-89zM773 340c0 -201 -154 -355 -355 -355s-355 154 -355 355s154 355 355 355s355 -154 355 -355zM110 340c0 -180 126 -311 308 -311
s308 131 308 311s-126 311 -308 311s-308 -131 -308 -311z" />
    <glyph glyph-name="trademark" unicode="&#x2122;" horiz-adv-x="725" 
d="M495 543h2l90 157h52v-280h-43v218h-1l-81 -141h-36l-81 141h-1v-218h-43v280h52zM67 700h225v-38h-91v-242h-43v242h-91v38z" />
    <glyph glyph-name="Omega" unicode="&#x2126;" horiz-adv-x="692" 
d="M346 695c203 0 276 -151 276 -321c0 -153 -67 -259 -140 -327h128v-47h-200v43c103 76 160 185 160 331c0 136 -42 273 -224 273s-224 -137 -224 -273c0 -146 57 -255 160 -331v-43h-200v47h128c-73 68 -140 174 -140 327c0 170 73 321 276 321z" />
    <glyph glyph-name="estimated" unicode="&#x212e;" horiz-adv-x="688" 
d="M555 133l37 -27c-63 -87 -135 -121 -242 -121c-172 0 -284 137 -284 305c0 170 112 302 284 302c168 0 282 -120 287 -292l-7 -10h-445v-201c43 -41 101 -62 165 -62c83 0 154 29 205 106zM516 330v161c-47 44 -105 63 -166 63c-64 0 -122 -19 -165 -63v-161h331z" />
    <glyph glyph-name="onethird" unicode="&#x2153;" horiz-adv-x="680" 
d="M132 0h-48v5l395 675h48v-5zM47 587h-5v39l110 54h34v-324h-42v277h-1zM449 146v37h52c55 0 78 24 78 53c0 38 -26 57 -71 57c-25 0 -57 -6 -82 -19l-14 35c27 15 67 23 99 23c68 0 112 -33 112 -89c0 -39 -25 -65 -54 -76v-1c34 -12 60 -35 60 -78
c0 -60 -50 -96 -123 -96c-43 0 -78 11 -103 24l13 36c25 -12 60 -21 89 -21c43 0 80 14 80 59c0 35 -27 56 -86 56h-50z" />
    <glyph glyph-name="twothirds" unicode="&#x2154;" horiz-adv-x="760" 
d="M212 0h-48v5l395 675h48v-5zM121 392v-1h152v-37h-218v32l116 107c28 25 52 52 52 87c0 40 -25 67 -68 67c-32 0 -59 -19 -78 -36l-23 30c19 19 53 45 101 45c72 0 112 -43 112 -103c0 -46 -22 -74 -51 -103zM529 146v37h52c55 0 78 24 78 53c0 38 -26 57 -71 57
c-25 0 -57 -6 -82 -19l-14 35c27 15 67 23 99 23c68 0 112 -33 112 -89c0 -39 -25 -65 -54 -76v-1c34 -12 60 -35 60 -78c0 -60 -50 -96 -123 -96c-43 0 -78 11 -103 24l13 36c25 -12 60 -21 89 -21c43 0 80 14 80 59c0 35 -27 56 -86 56h-50z" />
    <glyph glyph-name="oneeighth" unicode="&#x215b;" horiz-adv-x="681" 
d="M132 0h-48v5l395 675h48v-5zM47 587h-5v39l110 54h34v-324h-42v277h-1zM515 31c53 0 74 29 74 60s-21 60 -74 60s-74 -29 -74 -60s21 -60 74 -60zM515 332c65 0 104 -36 104 -87c0 -35 -23 -59 -50 -73v-1c39 -13 64 -46 64 -83c0 -55 -39 -96 -118 -96s-118 41 -118 96
c0 37 25 70 64 83v1c-27 14 -50 38 -50 73c0 51 39 87 104 87zM515 191c45 0 60 24 60 51s-15 51 -60 51s-60 -24 -60 -51s15 -51 60 -51z" />
    <glyph glyph-name="threeeighths" unicode="&#x215c;" horiz-adv-x="748" 
d="M199 0h-48v5l395 675h48v-5zM582 31c53 0 74 29 74 60s-21 60 -74 60s-74 -29 -74 -60s21 -60 74 -60zM582 332c65 0 104 -36 104 -87c0 -35 -23 -59 -50 -73v-1c39 -13 64 -46 64 -83c0 -55 -39 -96 -118 -96s-118 41 -118 96c0 37 25 70 64 83v1c-27 14 -50 38 -50 73
c0 51 39 87 104 87zM582 191c45 0 60 24 60 51s-15 51 -60 51s-60 -24 -60 -51s15 -51 60 -51zM96 499v37h52c55 0 78 24 78 53c0 38 -26 57 -71 57c-25 0 -57 -6 -82 -19l-14 35c27 15 67 23 99 23c68 0 112 -33 112 -89c0 -39 -25 -65 -54 -76v-1c34 -12 60 -35 60 -78
c0 -60 -50 -96 -123 -96c-43 0 -78 11 -103 24l13 36c25 -12 60 -21 89 -21c43 0 80 14 80 59c0 35 -27 56 -86 56h-50z" />
    <glyph glyph-name="fiveeighths" unicode="&#x215d;" horiz-adv-x="735" 
d="M186 0h-48v5l395 675h48v-5zM73 515l-5 5l22 160h168v-37h-132l-12 -88h33c78 0 124 -32 124 -100s-48 -107 -131 -107c-30 0 -70 10 -92 20l10 36c31 -13 69 -17 82 -17c61 0 87 19 87 68c0 42 -28 62 -86 62c-29 0 -55 -1 -68 -2zM569 31c53 0 74 29 74 60
s-21 60 -74 60s-74 -29 -74 -60s21 -60 74 -60zM569 332c65 0 104 -36 104 -87c0 -35 -23 -59 -50 -73v-1c39 -13 64 -46 64 -83c0 -55 -39 -96 -118 -96s-118 41 -118 96c0 37 25 70 64 83v1c-27 14 -50 38 -50 73c0 51 39 87 104 87zM569 191c45 0 60 24 60 51
s-15 51 -60 51s-60 -24 -60 -51s15 -51 60 -51z" />
    <glyph glyph-name="seveneighths" unicode="&#x215e;" horiz-adv-x="669" 
d="M120 0h-48v5l395 675h48v-5zM503 31c53 0 74 29 74 60s-21 60 -74 60s-74 -29 -74 -60s21 -60 74 -60zM503 332c65 0 104 -36 104 -87c0 -35 -23 -59 -50 -73v-1c39 -13 64 -46 64 -83c0 -55 -39 -96 -118 -96s-118 41 -118 96c0 37 25 70 64 83v1c-27 14 -50 38 -50 73
c0 51 39 87 104 87zM503 191c45 0 60 24 60 51s-15 51 -60 51s-60 -24 -60 -51s15 -51 60 -51zM95 356v5l118 281v1h-165v37h213v-31l-121 -293h-45z" />
    <glyph glyph-name="arrowleft" unicode="&#x2190;" horiz-adv-x="892" 
d="M40 339l379 380l29 -30l-338 -331h782v-38h-782l338 -331l-29 -30z" />
    <glyph glyph-name="arrowup" unicode="&#x2191;" horiz-adv-x="892" 
d="M463 764l380 -379l-30 -29l-331 338v-782h-38v782l-331 -338l-30 29z" />
    <glyph glyph-name="arrowright" unicode="&#x2192;" horiz-adv-x="892" 
d="M892 339l-379 -380l-29 30l338 331h-782v38h782l-338 331l29 30z" />
    <glyph glyph-name="arrowdown" unicode="&#x2193;" horiz-adv-x="892" 
d="M464 -89l-380 379l30 29l331 -338v782h38v-782l331 338l30 -29z" />
    <glyph glyph-name="uni2196" unicode="&#x2196;" horiz-adv-x="904" 
d="M159 662h536v-38h-472l553 -552l-28 -28l-551 553v-473h-38v538z" />
    <glyph glyph-name="uni2197" unicode="&#x2197;" horiz-adv-x="901" 
d="M804 662v-536h-38v473l-553 -554l-28 28l554 551h-474v38h539z" />
    <glyph glyph-name="uni2198" unicode="&#x2198;" horiz-adv-x="901" 
d="M804 18h-536v38h473l-554 553l28 28l551 -554v474h38v-539z" />
    <glyph glyph-name="uni2199" unicode="&#x2199;" horiz-adv-x="904" 
d="M159 18v536h38v-472l553 553l28 -28l-554 -551h474v-38h-539z" />
    <glyph glyph-name="partialdiff" unicode="&#x2202;" horiz-adv-x="566" 
d="M158 655l13 45c249 0 328 -172 328 -360c0 -238 -101 -355 -234 -355c-137 0 -214 99 -214 238c0 169 98 242 212 242c75 0 139 -27 177 -60l2 1c-19 216 -162 246 -284 249zM445 339c-47 50 -97 81 -182 81c-88 0 -162 -59 -162 -197c0 -107 55 -193 164 -193
c98 0 184 93 180 309z" />
    <glyph glyph-name="Delta" unicode="&#x2206;" horiz-adv-x="605" 
d="M303 618h-1l-208 -572h417zM29 0v5l248 675h51l248 -675v-5h-547z" />
    <glyph glyph-name="product" unicode="&#x220f;" horiz-adv-x="665" 
d="M527 -198v851h-389v-851h-50v898h489v-898h-50z" />
    <glyph glyph-name="summation" unicode="&#x2211;" horiz-adv-x="548" 
d="M38 -198v41l239 417l-223 399v41h437v-47h-378l222 -391l-239 -413h410v-47h-468z" />
    <glyph glyph-name="minus" unicode="&#x2212;" 
d="M73 291h443v-43h-443v43z" />
    <glyph glyph-name="uni2215" unicode="&#x2215;" horiz-adv-x="463" 
d="M58 0h-48v5l395 675h48v-5z" />
    <glyph glyph-name="uni2219" unicode="&#x2219;" horiz-adv-x="246" 
d="M79 289c0 26 19 44 44 44s44 -18 44 -44s-19 -44 -44 -44s-44 18 -44 44z" />
    <glyph glyph-name="radical" unicode="&#x221a;" horiz-adv-x="577" 
d="M25 217v5h52l145 -345h2l287 803h51l-317 -878h-43z" />
    <glyph glyph-name="infinity" unicode="&#x221e;" horiz-adv-x="764" 
d="M354 271c-54 67 -92 112 -143 112c-63 0 -99 -50 -99 -112s36 -112 99 -112c51 0 89 45 143 112zM382 306c53 63 100 118 173 118c85 0 142 -64 142 -153s-57 -153 -142 -153c-73 0 -120 55 -173 118c-53 -63 -100 -118 -173 -118c-85 0 -142 64 -142 153s57 153 142 153
c73 0 120 -55 173 -118zM410 271c54 -67 92 -112 143 -112c63 0 99 50 99 112s-36 112 -99 112c-51 0 -89 -45 -143 -112z" />
    <glyph glyph-name="integral" unicode="&#x222b;" horiz-adv-x="521" 
d="M290 554c17 97 59 141 161 141c20 0 41 -2 57 -6l-8 -45c-16 4 -36 6 -56 6c-62 0 -91 -23 -103 -91l-110 -632c-16 -97 -59 -141 -161 -141c-20 0 -41 2 -57 6l8 45c16 -4 36 -6 56 -6c62 0 91 23 103 91z" />
    <glyph glyph-name="approxequal" unicode="&#x2248;" 
d="M384 332c-61 0 -129 48 -177 48c-31 0 -47 -10 -80 -45l-23 29c27 34 58 59 103 59c60 0 130 -48 177 -48c31 0 47 10 80 45l23 -29c-27 -34 -58 -59 -103 -59zM384 122c-61 0 -129 48 -177 48c-31 0 -47 -10 -80 -45l-23 29c27 34 58 59 103 59c60 0 130 -48 177 -48
c31 0 47 10 80 45l23 -29c-27 -34 -58 -59 -103 -59z" />
    <glyph glyph-name="notequal" unicode="&#x2260;" 
d="M218 0h-42v5l47 136h-130v43h145l60 174h-205v43h220l48 140h41v-5l-47 -135h141v-43h-156l-59 -174h215v-43h-230z" />
    <glyph glyph-name="lessequal" unicode="&#x2264;" 
d="M66 43h443v-43h-443v43zM509 179h-5l-438 202v37l438 202h5v-45l-388 -174v-3l388 -174v-45z" />
    <glyph glyph-name="greaterequal" unicode="&#x2265;" 
d="M86 179h-5v45l388 174v3l-388 174v45h5l438 -202v-37zM80 43h443v-43h-443v43z" />
    <glyph glyph-name="lozenge" unicode="&#x25ca;" horiz-adv-x="531" 
d="M265 633l-181 -301l179 -286l183 293zM30 331l214 349h43l213 -340l-216 -340h-43z" />
    <glyph glyph-name="whitecircle" unicode="&#x25cb;" horiz-adv-x="800" 
d="M60 341c0 192 147 339 337 339c193 0 343 -147 343 -339c0 -193 -150 -341 -343 -341c-190 0 -337 148 -337 341zM125 341c0 -157 118 -277 272 -277c156 0 277 120 277 277c0 156 -121 275 -277 275c-154 0 -272 -119 -272 -275z" />
    <glyph glyph-name="blackcircle" unicode="&#x25cf;" horiz-adv-x="800" 
d="M60 338c0 196 144 342 340 342c193 0 340 -146 340 -342c0 -193 -147 -338 -340 -338c-196 0 -340 145 -340 338z" />
    <glyph glyph-name="uni25DC" unicode="&#x25dc;" horiz-adv-x="337" 
d="M337 680v-64c-154 0 -272 -119 -272 -275h-65c0 192 147 339 337 339z" />
    <glyph glyph-name="uni25DD" unicode="&#x25dd;" horiz-adv-x="341" 
d="M0 616v64c193 0 341 -147 341 -339h-66c0 156 -119 275 -275 275z" />
    <glyph glyph-name="uni25DE" unicode="&#x25de;" horiz-adv-x="341" 
d="M0 0v64c156 0 275 120 275 277h66c0 -193 -148 -341 -341 -341z" />
    <glyph glyph-name="uni25DF" unicode="&#x25df;" horiz-adv-x="337" 
d="M337 64v-64c-190 0 -337 148 -337 341h65c0 -157 118 -277 272 -277z" />
    <glyph glyph-name="commaaccent" unicode="&#xf6c3;" 
d="M261 -218v6l16 134h53v-6l-31 -134h-38z" />
    <glyph glyph-name="commainferior" unicode="&#xf6e1;" horiz-adv-x="157" 
d="M39 -221v5l16 151h52v-5l-35 -151h-33z" />
    <glyph glyph-name="commasuperior" unicode="&#xf6e2;" horiz-adv-x="157" 
d="M39 375v5l16 151h52v-5l-35 -151h-33z" />
    <glyph glyph-name="hypheninferior" unicode="&#xf6e5;" horiz-adv-x="228" 
d="M177 35h-126v37h126v-37z" />
    <glyph glyph-name="hyphensuperior" unicode="&#xf6e6;" horiz-adv-x="228" 
d="M177 631h-126v37h126v-37z" />
    <glyph glyph-name="periodinferior" unicode="&#xf6e7;" horiz-adv-x="167" 
d="M44 -89c0 24 16 40 40 40s38 -16 38 -40c0 -23 -14 -39 -38 -39s-40 16 -40 39z" />
    <glyph glyph-name="periodsuperior" unicode="&#xf6e8;" horiz-adv-x="167" 
d="M44 507c0 24 16 40 40 40s38 -16 38 -40c0 -23 -14 -39 -38 -39s-40 16 -40 39z" />
    <glyph glyph-name="uniF8FF" unicode="&#xf8ff;" horiz-adv-x="581" 
d="M84 0v680h413v-680h-413zM142 58h297v564h-297v-564z" />
    <glyph glyph-name="fi" unicode="&#xfb01;" horiz-adv-x="556" 
d="M472 0h-48v439h-262v-439h-48v439h-86v35l86 8v82c0 97 44 141 136 141c20 0 41 -2 58 -6v-45c-17 4 -37 6 -57 6c-62 0 -89 -23 -89 -91v-87h310v-482zM409 627c0 25 16 39 39 39s38 -14 38 -39c0 -26 -15 -40 -38 -40s-39 14 -39 40z" />
    <glyph glyph-name="fl" unicode="&#xfb02;" horiz-adv-x="574" 
d="M162 0h-48v439h-86v35l86 8v82c0 97 44 141 136 141c20 0 41 -2 58 -6v-45c-17 4 -37 6 -57 6c-62 0 -89 -23 -89 -91v-87h142v-43h-142v-439zM428 700h48v-620c0 -31 6 -47 37 -47h35v-37c-12 -4 -27 -6 -42 -6c-57 0 -78 32 -78 98v612z" />
    <glyph glyph-name="zero.lf" horiz-adv-x="640" 
d="M125 340c0 -179 41 -307 195 -307s195 128 195 307s-41 307 -195 307s-195 -128 -195 -307zM566 340c0 -218 -71 -355 -246 -355s-246 137 -246 355s71 355 246 355s246 -137 246 -355z" />
    <glyph glyph-name="one.lf" horiz-adv-x="342" 
d="M41 549h-5v48l178 83h41v-680h-49v625h-2z" />
    <glyph glyph-name="two.lf" horiz-adv-x="530" 
d="M124 49v-2h341v-47h-410v45l279 282c42 43 77 98 77 169c0 88 -63 151 -151 151c-81 0 -132 -32 -175 -75l-29 36c43 42 100 87 204 87c122 0 203 -83 203 -199c0 -88 -40 -148 -93 -201z" />
    <glyph glyph-name="three.lf" horiz-adv-x="546" 
d="M141 326v47h124c88 0 146 54 146 135c0 91 -61 139 -153 139c-64 0 -118 -15 -169 -42l-18 42c48 28 112 48 188 48c125 0 204 -69 204 -187c0 -90 -55 -136 -107 -155v-2c75 -18 123 -86 123 -174c0 -128 -107 -192 -230 -192c-89 0 -151 26 -198 57l21 43
c53 -33 106 -52 177 -52c92 0 178 47 178 144c0 74 -34 149 -171 149h-115z" />
    <glyph glyph-name="four.lf" horiz-adv-x="572" 
d="M389 492h50v-302h98v-47h-98v-143h-50v143h-354v42l222 495h51l-216 -490h297v302z" />
    <glyph glyph-name="five.lf" horiz-adv-x="530" 
d="M100 342l-6 8l45 330h309v-47h-267l-33 -239c26 4 60 7 94 7c137 0 229 -60 229 -196c0 -154 -110 -220 -242 -220c-81 0 -147 26 -185 46l17 45c42 -22 103 -43 168 -43c104 0 190 44 190 172c0 97 -58 148 -179 148c-41 0 -95 -4 -140 -11z" />
    <glyph glyph-name="six.lf" horiz-adv-x="555" 
d="M345 680v-6l-181 -280l1 -1c26 19 66 35 120 35c135 0 223 -88 223 -221c0 -134 -86 -222 -228 -222c-146 0 -228 88 -228 222c0 73 32 150 86 234l152 239h55zM456 207c0 106 -63 173 -176 173s-176 -67 -176 -173c0 -105 63 -174 176 -174s176 69 176 174z" />
    <glyph glyph-name="seven.lf" horiz-adv-x="466" 
d="M136 0v6l245 625v2h-349v47h403v-41l-248 -639h-51z" />
    <glyph glyph-name="eight.lf" horiz-adv-x="600" 
d="M300 33c128 0 183 63 183 151s-56 151 -183 151s-183 -63 -183 -151s56 -151 183 -151zM300 695c144 0 209 -84 209 -182c0 -85 -51 -130 -98 -152v-2c76 -28 124 -93 124 -176c0 -109 -71 -198 -235 -198s-235 89 -235 198c0 83 48 148 124 176v2c-47 22 -98 67 -98 152
c0 98 65 182 209 182zM300 383c104 0 157 46 157 130s-52 134 -157 134s-157 -50 -157 -134s53 -130 157 -130z" />
    <glyph glyph-name="nine.lf" horiz-adv-x="555" 
d="M210 0v6l181 280l-1 1c-26 -19 -66 -35 -120 -35c-135 0 -223 88 -223 221c0 134 86 222 228 222c146 0 228 -88 228 -222c0 -73 -32 -150 -86 -234l-152 -239h-55zM99 473c0 -106 63 -173 176 -173s176 67 176 173c0 105 -63 174 -176 174s-176 -69 -176 -174z" />
    <glyph glyph-name="a.alt" horiz-adv-x="490" 
d="M362 238h-75c-138 0 -189 -36 -189 -107c0 -64 44 -101 109 -101c63 0 115 24 155 55v153zM366 42h-2c-35 -29 -91 -57 -161 -57c-91 0 -155 57 -155 145c0 104 80 150 232 150h82v29c0 107 -54 143 -131 143c-59 0 -101 -20 -135 -46l-22 36c37 32 89 55 157 55
c107 0 179 -55 179 -188v-309h-38z" />
    <glyph glyph-name="agrave.alt" horiz-adv-x="490" 
d="M362 238h-75c-138 0 -189 -36 -189 -107c0 -64 44 -101 109 -101c63 0 115 24 155 55v153zM366 42h-2c-35 -29 -91 -57 -161 -57c-91 0 -155 57 -155 145c0 104 80 150 232 150h82v29c0 107 -54 143 -131 143c-59 0 -101 -20 -135 -46l-22 36c37 32 89 55 157 55
c107 0 179 -55 179 -188v-309h-38zM168 691v5h54l48 -110v-5h-43z" />
    <glyph glyph-name="aacute.alt" horiz-adv-x="490" 
d="M362 238h-75c-138 0 -189 -36 -189 -107c0 -64 44 -101 109 -101c63 0 115 24 155 55v153zM366 42h-2c-35 -29 -91 -57 -161 -57c-91 0 -155 57 -155 145c0 104 80 150 232 150h82v29c0 107 -54 143 -131 143c-59 0 -101 -20 -135 -46l-22 36c37 32 89 55 157 55
c107 0 179 -55 179 -188v-309h-38zM315 696v-5l-59 -110h-43v5l48 110h54z" />
    <glyph glyph-name="acircumflex.alt" horiz-adv-x="490" 
d="M362 238h-75c-138 0 -189 -36 -189 -107c0 -64 44 -101 109 -101c63 0 115 24 155 55v153zM366 42h-2c-35 -29 -91 -57 -161 -57c-91 0 -155 57 -155 145c0 104 80 150 232 150h82v29c0 107 -54 143 -131 143c-59 0 -101 -20 -135 -46l-22 36c37 32 89 55 157 55
c107 0 179 -55 179 -188v-309h-38zM258 696l102 -110v-5h-51l-69 73l-69 -73h-51v5l102 110h36z" />
    <glyph glyph-name="atilde.alt" horiz-adv-x="490" 
d="M362 238h-75c-138 0 -189 -36 -189 -107c0 -64 44 -101 109 -101c63 0 115 24 155 55v153zM366 42h-2c-35 -29 -91 -57 -161 -57c-91 0 -155 57 -155 145c0 104 80 150 232 150h82v29c0 107 -54 143 -131 143c-59 0 -101 -20 -135 -46l-22 36c37 32 89 55 157 55
c107 0 179 -55 179 -188v-309h-38zM290 622c22 0 36 11 55 36l23 -29c-20 -30 -45 -48 -78 -48c-38 0 -75 39 -100 39c-22 0 -36 -11 -55 -36l-23 29c20 30 45 48 78 48c37 0 75 -39 100 -39z" />
    <glyph glyph-name="adieresis.alt" horiz-adv-x="490" 
d="M362 238h-75c-138 0 -189 -36 -189 -107c0 -64 44 -101 109 -101c63 0 115 24 155 55v153zM366 42h-2c-35 -29 -91 -57 -161 -57c-91 0 -155 57 -155 145c0 104 80 150 232 150h82v29c0 107 -54 143 -131 143c-59 0 -101 -20 -135 -46l-22 36c37 32 89 55 157 55
c107 0 179 -55 179 -188v-309h-38zM113 626c0 23 17 40 39 40c21 0 38 -17 38 -40s-17 -39 -38 -39c-22 0 -39 16 -39 39zM291 626c0 23 17 40 39 40c21 0 38 -17 38 -40s-17 -39 -38 -39c-22 0 -39 16 -39 39z" />
    <glyph glyph-name="aring.alt" horiz-adv-x="490" 
d="M194 622c0 -28 18 -44 46 -44s46 16 46 44s-18 44 -46 44s-46 -16 -46 -44zM158 622c0 48 34 79 82 79s82 -31 82 -79s-34 -79 -82 -79s-82 31 -82 79zM362 238h-75c-138 0 -189 -36 -189 -107c0 -64 44 -101 109 -101c63 0 115 24 155 55v153zM366 42h-2
c-35 -29 -91 -57 -161 -57c-91 0 -155 57 -155 145c0 104 80 150 232 150h82v29c0 107 -54 143 -131 143c-59 0 -101 -20 -135 -46l-22 36c37 32 89 55 157 55c107 0 179 -55 179 -188v-309h-38z" />
    <glyph glyph-name="amacron.alt" horiz-adv-x="490" 
d="M362 238h-75c-138 0 -189 -36 -189 -107c0 -64 44 -101 109 -101c63 0 115 24 155 55v153zM366 42h-2c-35 -29 -91 -57 -161 -57c-91 0 -155 57 -155 145c0 104 80 150 232 150h82v29c0 107 -54 143 -131 143c-59 0 -101 -20 -135 -46l-22 36c37 32 89 55 157 55
c107 0 179 -55 179 -188v-309h-38zM360 596h-239v43h239v-43z" />
    <glyph glyph-name="abreve.alt" horiz-adv-x="490" 
d="M362 238h-75c-138 0 -189 -36 -189 -107c0 -64 44 -101 109 -101c63 0 115 24 155 55v153zM366 42h-2c-35 -29 -91 -57 -161 -57c-91 0 -155 57 -155 145c0 104 80 150 232 150h82v29c0 107 -54 143 -131 143c-59 0 -101 -20 -135 -46l-22 36c37 32 89 55 157 55
c107 0 179 -55 179 -188v-309h-38zM240 613c59 0 80 25 99 50l26 -20c-22 -40 -57 -72 -125 -72s-103 32 -125 72l26 20c19 -25 40 -50 99 -50z" />
    <glyph glyph-name="aogonek.alt" horiz-adv-x="490" 
d="M366 42h-2c-35 -29 -91 -57 -161 -57c-91 0 -155 57 -155 145c0 104 80 150 232 150h82v29c0 107 -54 143 -131 143c-59 0 -101 -20 -135 -46l-22 36c37 32 89 55 157 55c107 0 179 -55 179 -188v-309c-81 -55 -119 -82 -119 -124c0 -23 15 -47 48 -47c27 0 49 10 70 23
l7 -38c-17 -13 -47 -27 -80 -27c-56 0 -88 35 -88 82c0 65 55 105 121 149zM362 238h-75c-138 0 -189 -36 -189 -107c0 -64 44 -101 109 -101c63 0 115 24 155 55v153z" />
    <glyph glyph-name="aringacute.alt" horiz-adv-x="490" 
d="M362 238h-75c-138 0 -189 -36 -189 -107c0 -64 44 -101 109 -101c63 0 115 24 155 55v153zM366 42h-2c-35 -29 -91 -57 -161 -57c-91 0 -155 57 -155 145c0 104 80 150 232 150h82v29c0 107 -54 143 -131 143c-59 0 -101 -20 -135 -46l-22 36c37 32 89 55 157 55
c107 0 179 -55 179 -188v-309h-38zM323 804v-5l-59 -110h-43v5l48 110h54zM195 598c0 -26 18 -40 46 -40s46 14 46 40c0 25 -18 40 -46 40s-46 -15 -46 -40zM160 598c0 44 33 72 81 72s82 -28 82 -72s-34 -72 -82 -72s-81 28 -81 72z" />
    <glyph glyph-name="uni0444.alt" horiz-adv-x="622" 
d="M109 241c0 -106 29 -200 178 -213v423c-149 -13 -178 -101 -178 -210zM513 241c0 109 -29 197 -178 210v-423c149 13 178 107 178 213zM335 -15v-183h-48v183c-178 7 -228 122 -228 256s50 240 228 254v205h48v-205c178 -14 228 -120 228 -254s-50 -249 -228 -256z" />
    <glyph glyph-name="Euro.alt" 
d="M124 340c0 19 0 37 2 55h-89v42h93c22 157 102 258 263 258c50 0 114 -15 158 -43l-14 -45c-45 28 -103 40 -144 40c-133 0 -194 -79 -212 -210h255v-43l-260 1c-1 -18 -1 -36 -1 -55c0 -23 0 -44 2 -64h259v-42h-254c19 -126 81 -201 211 -201c41 0 91 9 136 37l17 -42
c-44 -28 -103 -43 -153 -43c-158 0 -238 96 -262 249h-94v42h89c-1 20 -2 42 -2 64z" />
    <glyph glyph-name="rupee.alt" 
d="M355 632v-3c42 -20 68 -53 74 -107h76v-48h-76c-9 -101 -78 -162 -206 -162h-52l281 -305v-7h-63l-293 321v37h121c100 0 153 39 161 116h-282v48h281c-9 70 -60 108 -152 110h-129v48h409v-48h-150z" />
    <glyph glyph-name="registered.alt" horiz-adv-x="836" 
d="M773 340c0 -201 -154 -355 -355 -355s-355 154 -355 355s154 355 355 355s355 -154 355 -355zM110 340c0 -180 126 -311 308 -311s308 131 308 311s-126 311 -308 311s-308 -131 -308 -311zM340 153h-46v374h139c80 0 126 -35 126 -107c0 -61 -35 -98 -94 -106l118 -156
v-5h-51l-120 159h-72v-159zM340 354h92c46 0 79 14 79 66c0 51 -33 64 -79 64h-92v-130z" />
    <glyph glyph-name="uniEA04" unicode="&#xea04;" horiz-adv-x="1000" 
d="M69 -96v861h861v-861h-861zM598 305v-195h98v469h-98v-192h-195v192h-98v-469h98v195h195z" />
    <glyph glyph-name="uniEA05" unicode="&#xea05;" horiz-adv-x="1000" 
d="M69 -96v861h861v-861h-861zM295 344c0 -147 82 -245 229 -245c44 0 91 11 135 30l-27 78c-40 -19 -69 -24 -108 -24c-76 0 -126 66 -126 161c0 96 49 161 126 161c39 0 68 -5 108 -24l27 78c-44 20 -91 30 -135 30c-147 0 -229 -99 -229 -245z" />
    <glyph glyph-name="uniEA06" unicode="&#xea06;" horiz-adv-x="1000" 
d="M69 -96v861h861v-861h-861zM361 222l-30 -78c41 -24 99 -45 167 -45c100 0 170 58 170 150c0 72 -43 108 -131 137l-50 16c-39 12 -49 29 -49 53c0 32 21 51 68 51c35 0 77 -9 114 -28l28 78c-47 24 -98 33 -141 33c-108 0 -169 -56 -169 -144c0 -59 26 -104 113 -132
l51 -16c51 -16 66 -30 66 -59c0 -37 -24 -56 -73 -56c-48 0 -103 19 -134 40z" />
    <glyph glyph-name="uniEA01" unicode="&#xea01;" horiz-adv-x="1000" 
d="M69 -96v861h861v-861h-861zM142 -23h715v715h-715v-715zM598 110v195h-195v-195h-98v469h98v-192h195v192h98v-469h-98z" />
    <glyph glyph-name="uniEA02" unicode="&#xea02;" horiz-adv-x="1000" 
d="M69 -96v861h861v-861h-861zM142 -23h715v715h-715v-715zM295 344c0 146 82 245 229 245c44 0 91 -10 135 -30l-27 -78c-40 19 -69 24 -108 24c-77 0 -126 -65 -126 -161c0 -95 50 -161 126 -161c39 0 68 5 108 24l27 -78c-44 -19 -91 -30 -135 -30
c-147 0 -229 98 -229 245z" />
    <glyph glyph-name="uniEA03" unicode="&#xea03;" horiz-adv-x="1000" 
d="M69 -96v861h861v-861h-861zM142 -23h715v715h-715v-715zM331 144l30 78c31 -21 86 -40 134 -40c49 0 73 19 73 56c0 29 -15 43 -66 59l-51 16c-87 28 -113 73 -113 132c0 88 61 144 169 144c43 0 94 -9 141 -33l-28 -78c-37 19 -79 28 -114 28c-47 0 -68 -19 -68 -51
c0 -24 10 -41 49 -53l50 -16c88 -29 131 -65 131 -137c0 -92 -70 -150 -170 -150c-68 0 -126 21 -167 45z" />
    <glyph glyph-name="guillemotleft.case" horiz-adv-x="488" 
d="M60 340v2l149 204l34 -25l-132 -180l130 -180l-32 -25zM233 340v2l149 204l34 -25l-132 -180l130 -180l-32 -25z" />
    <glyph glyph-name="bracketleft.case" horiz-adv-x="305" 
d="M88 790h172v-38l-122 -9v-806l122 -9v-36h-172v898z" />
    <glyph glyph-name="guilsinglright.case" horiz-adv-x="315" 
d="M255 342v-2l-149 -204l-32 25l130 180l-132 180l34 25z" />
    <glyph glyph-name="bar.case" horiz-adv-x="224" 
d="M136 790v-898h-48v898h48z" />
    <glyph glyph-name="periodcentered.case" horiz-adv-x="252" 
d="M82 342c0 26 19 44 44 44s44 -18 44 -44s-19 -44 -44 -44s-44 18 -44 44z" />
    <glyph glyph-name="bullet.case" horiz-adv-x="310" 
d="M98 342c0 33 25 57 57 57s57 -24 57 -57c0 -34 -25 -57 -57 -57s-57 23 -57 57z" />
    <glyph glyph-name="emdash.case" horiz-adv-x="882" 
d="M799 319h-716v43h716v-43z" />
    <glyph glyph-name="bracketright.case" horiz-adv-x="305" 
d="M45 790h172v-898h-172v36l122 9v806l-122 9v38z" />
    <glyph glyph-name="endash.case" horiz-adv-x="551" 
d="M468 319h-385v43h385v-43z" />
    <glyph glyph-name="hyphen.case" horiz-adv-x="405" 
d="M322 323h-239v43h239v-43z" />
    <glyph glyph-name="guillemotright.case" horiz-adv-x="488" 
d="M255 342v-2l-149 -204l-32 25l130 180l-132 180l34 25zM428 342v-2l-149 -204l-32 25l130 180l-132 180l34 25z" />
    <glyph glyph-name="parenleft.case" horiz-adv-x="267" 
d="M182 806l39 -20c-65 -133 -102 -289 -102 -447s37 -314 102 -447l-39 -20c-65 133 -115 269 -115 467s50 334 115 467z" />
    <glyph glyph-name="guilsinglleft.case" horiz-adv-x="315" 
d="M60 340v2l149 204l34 -25l-132 -180l130 -180l-32 -25z" />
    <glyph glyph-name="braceright.case" horiz-adv-x="310" 
d="M195 340v2c-36 16 -53 47 -53 106v210c0 66 -22 94 -95 94v38h5c111 0 140 -41 140 -132v-219c0 -47 12 -75 68 -75v-46c-56 0 -68 -28 -68 -75v-219c0 -91 -29 -132 -140 -132h-5v38c73 0 95 28 95 94v210c0 59 17 90 53 106z" />
    <glyph glyph-name="braceleft.case" horiz-adv-x="310" 
d="M115 342v-2c36 -16 53 -47 53 -106v-210c0 -66 22 -94 95 -94v-38h-5c-111 0 -140 41 -140 132v219c0 47 -12 75 -68 75v46c56 0 68 28 68 75v219c0 91 29 132 140 132h5v-38c-73 0 -95 -28 -95 -94v-210c0 -59 -17 -90 -53 -106z" />
    <glyph glyph-name="parenright.case" horiz-adv-x="268" 
d="M47 786l39 20c65 -133 115 -269 115 -467s-50 -334 -115 -467l-39 20c65 133 102 289 102 447s-37 314 -102 447z" />
    <glyph glyph-name="minus.case" horiz-adv-x="800" 
d="M178 357h443v-43h-443v43z" />
    <glyph glyph-name="zero.num" horiz-adv-x="340" 
d="M84 519c0 -88 31 -129 86 -129s86 41 86 129s-31 129 -86 129s-86 -41 -86 -129zM40 519c0 99 41 169 130 169s130 -70 130 -169s-41 -169 -130 -169s-130 70 -130 169z" />
    <glyph glyph-name="one.num" horiz-adv-x="219" 
d="M30 587h-5v39l110 54h34v-324h-42v277h-1z" />
    <glyph glyph-name="two.num" horiz-adv-x="292" 
d="M102 394v-1h152v-37h-218v32l116 107c28 25 52 52 52 87c0 40 -25 67 -68 67c-32 0 -59 -19 -78 -36l-23 30c19 19 53 45 101 45c72 0 112 -43 112 -103c0 -46 -22 -74 -51 -103z" />
    <glyph glyph-name="three.num" horiz-adv-x="299" 
d="M78 502v37h52c55 0 78 24 78 53c0 38 -26 57 -71 57c-25 0 -57 -6 -82 -19l-14 35c27 15 67 23 99 23c68 0 112 -33 112 -89c0 -39 -25 -65 -54 -76v-1c34 -12 60 -35 60 -78c0 -60 -50 -96 -123 -96c-43 0 -78 11 -103 24l13 36c25 -12 60 -21 89 -21c43 0 80 14 80 59
c0 35 -27 56 -86 56h-50z" />
    <glyph glyph-name="four.num" horiz-adv-x="320" 
d="M198 601h42v-136h51v-37h-51v-72h-42v72h-170v29l90 223h44l-85 -214v-1h121v136z" />
    <glyph glyph-name="five.num" horiz-adv-x="291" 
d="M56 515l-5 5l22 160h168v-37h-132l-12 -88h33c78 0 124 -32 124 -100s-48 -107 -131 -107c-30 0 -70 10 -92 20l10 36c31 -13 69 -17 82 -17c61 0 87 19 87 68c0 42 -28 62 -86 62c-29 0 -55 -1 -68 -2z" />
    <glyph glyph-name="six.num" horiz-adv-x="298" 
d="M194 680v-5l-72 -110v-1c7 3 23 7 37 7c70 0 109 -45 109 -111c0 -48 -30 -112 -116 -112c-77 0 -116 48 -116 112c0 31 11 58 32 90l79 130h47zM80 460c0 -40 27 -73 72 -73s72 33 72 73s-27 72 -72 72s-72 -32 -72 -72z" />
    <glyph glyph-name="seven.num" horiz-adv-x="259" 
d="M71 356v5l118 281v1h-165v37h213v-31l-121 -293h-45z" />
    <glyph glyph-name="eight.num" horiz-adv-x="312" 
d="M156 387c53 0 74 29 74 60s-21 60 -74 60s-74 -29 -74 -60s21 -60 74 -60zM156 688c65 0 104 -36 104 -87c0 -35 -23 -59 -50 -73v-1c39 -13 64 -46 64 -83c0 -55 -39 -96 -118 -96s-118 41 -118 96c0 37 25 70 64 83v1c-27 14 -50 38 -50 73c0 51 39 87 104 87zM156 547
c45 0 60 24 60 51s-15 51 -60 51s-60 -24 -60 -51s15 -51 60 -51z" />
    <glyph glyph-name="nine.num" horiz-adv-x="297" 
d="M103 356v5l72 110v1c-7 -3 -23 -7 -37 -7c-70 0 -109 45 -109 111c0 48 30 112 116 112c77 0 116 -48 116 -112c0 -31 -11 -58 -32 -90l-79 -130h-47zM217 576c0 40 -27 73 -72 73s-72 -33 -72 -73s27 -72 72 -72s72 32 72 72z" />
    <glyph glyph-name="comma.num" horiz-adv-x="157" 
d="M39 255v5l16 151h52v-5l-35 -151h-33z" />
    <glyph glyph-name="plus.num" horiz-adv-x="257" 
d="M149 621v-75h72v-37h-72v-74h-41v74h-72v37h72v75h41z" />
    <glyph glyph-name="hyphen.num" horiz-adv-x="228" 
d="M177 511h-126v37h126v-37z" />
    <glyph glyph-name="minus.num" horiz-adv-x="288" 
d="M237 511h-186v37h186v-37z" />
    <glyph glyph-name="parenleft.num" horiz-adv-x="168" 
d="M38 519c0 78 32 154 69 214l27 -16c-35 -63 -53 -140 -53 -198c0 -63 18 -140 53 -201l-27 -16c-37 57 -69 134 -69 217z" />
    <glyph glyph-name="period.num" horiz-adv-x="167" 
d="M44 387c0 24 16 40 40 40s38 -16 38 -40c0 -23 -14 -39 -38 -39s-40 16 -40 39z" />
    <glyph glyph-name="parenright.num" horiz-adv-x="168" 
d="M130 519c0 -83 -32 -160 -69 -217l-27 16c35 61 53 138 53 201c0 58 -18 135 -53 198l27 16c37 -60 69 -136 69 -214z" />
    <glyph glyph-name="zero.denom" horiz-adv-x="340" 
d="M84 163c0 -88 31 -129 86 -129s86 41 86 129s-31 129 -86 129s-86 -41 -86 -129zM40 163c0 99 41 169 130 169s130 -70 130 -169s-41 -169 -130 -169s-130 70 -130 169z" />
    <glyph glyph-name="one.denom" horiz-adv-x="219" 
d="M30 231h-5v39l110 54h34v-324h-42v277h-1z" />
    <glyph glyph-name="two.denom" horiz-adv-x="291" 
d="M101 38v-1h152v-37h-218v32l116 107c28 25 52 52 52 87c0 40 -25 67 -68 67c-32 0 -59 -19 -78 -36l-23 30c19 19 53 45 101 45c72 0 112 -43 112 -103c0 -46 -22 -74 -51 -103z" />
    <glyph glyph-name="three.denom" horiz-adv-x="299" 
d="M78 146v37h52c55 0 78 24 78 53c0 38 -26 57 -71 57c-25 0 -57 -6 -82 -19l-14 35c27 15 67 23 99 23c68 0 112 -33 112 -89c0 -39 -25 -65 -54 -76v-1c34 -12 60 -35 60 -78c0 -60 -50 -96 -123 -96c-43 0 -78 11 -103 24l13 36c25 -12 60 -21 89 -21c43 0 80 14 80 59
c0 35 -27 56 -86 56h-50z" />
    <glyph glyph-name="four.denom" horiz-adv-x="320" 
d="M198 245h42v-136h51v-37h-51v-72h-42v72h-170v29l90 223h44l-85 -214v-1h121v136z" />
    <glyph glyph-name="five.denom" horiz-adv-x="291" 
d="M56 159l-5 5l22 160h168v-37h-132l-12 -88h33c78 0 124 -32 124 -100s-48 -107 -131 -107c-30 0 -70 10 -92 20l10 36c31 -13 69 -17 82 -17c61 0 87 19 87 68c0 42 -28 62 -86 62c-29 0 -55 -1 -68 -2z" />
    <glyph glyph-name="six.denom" horiz-adv-x="297" 
d="M194 324v-5l-72 -110v-1c7 3 23 7 37 7c70 0 109 -45 109 -111c0 -48 -30 -112 -116 -112c-77 0 -116 48 -116 112c0 31 11 58 32 90l79 130h47zM80 104c0 -40 27 -73 72 -73s72 33 72 73s-27 72 -72 72s-72 -32 -72 -72z" />
    <glyph glyph-name="seven.denom" horiz-adv-x="259" 
d="M71 0v5l118 281v1h-165v37h213v-31l-121 -293h-45z" />
    <glyph glyph-name="eight.denom" horiz-adv-x="312" 
d="M156 31c53 0 74 29 74 60s-21 60 -74 60s-74 -29 -74 -60s21 -60 74 -60zM156 332c65 0 104 -36 104 -87c0 -35 -23 -59 -50 -73v-1c39 -13 64 -46 64 -83c0 -55 -39 -96 -118 -96s-118 41 -118 96c0 37 25 70 64 83v1c-27 14 -50 38 -50 73c0 51 39 87 104 87zM156 191
c45 0 60 24 60 51s-15 51 -60 51s-60 -24 -60 -51s15 -51 60 -51z" />
    <glyph glyph-name="nine.denom" horiz-adv-x="297" 
d="M103 0v5l72 110v1c-7 -3 -23 -7 -37 -7c-70 0 -109 45 -109 111c0 48 30 112 116 112c77 0 116 -48 116 -112c0 -31 -11 -58 -32 -90l-79 -130h-47zM217 220c0 40 -27 73 -72 73s-72 -33 -72 -73s27 -72 72 -72s72 32 72 72z" />
    <glyph glyph-name="comma.denom" horiz-adv-x="157" 
d="M39 -101v5l16 151h52v-5l-35 -151h-33z" />
    <glyph glyph-name="plus.denom" horiz-adv-x="257" 
d="M149 265v-75h72v-37h-72v-74h-41v74h-72v37h72v75h41z" />
    <glyph glyph-name="parenright.denom" horiz-adv-x="168" 
d="M130 163c0 -83 -32 -160 -69 -217l-27 16c35 61 53 138 53 201c0 58 -18 135 -53 198l27 16c37 -60 69 -136 69 -214z" />
    <glyph glyph-name="hyphen.denom" horiz-adv-x="228" 
d="M177 155h-126v37h126v-37z" />
    <glyph glyph-name="minus.denom" horiz-adv-x="288" 
d="M237 155h-186v37h186v-37z" />
    <glyph glyph-name="parenleft.denom" horiz-adv-x="168" 
d="M38 163c0 78 32 154 69 214l27 -16c-35 -63 -53 -140 -53 -198c0 -63 18 -140 53 -201l-27 -16c-37 57 -69 134 -69 217z" />
    <glyph glyph-name="period.denom" horiz-adv-x="167" 
d="M44 31c0 24 16 40 40 40s38 -16 38 -40c0 -23 -14 -39 -38 -39s-40 16 -40 39z" />
    <glyph glyph-name="minusinferior" horiz-adv-x="288" 
d="M237 35h-186v37h186v-37z" />
    <glyph glyph-name="plusinferior" horiz-adv-x="257" 
d="M149 145v-75h72v-37h-72v-74h-41v74h-72v37h72v75h41z" />
    <glyph glyph-name="commaaccent.alt" 
d="M326 716v-6l-16 -134h-53v6l31 134h38z" />
    <glyph glyph-name="caron.alt" 
d="M260 540v6l16 134h53v-6l-31 -134h-38z" />
    <glyph glyph-name="commaaccent.cap" 
d="M260 -218v6l16 134h53v-6l-31 -134h-38z" />
    <glyph glyph-name="grave.cap" 
d="M243 854v5h56l48 -110v-5h-45z" />
    <glyph glyph-name="acute.cap" 
d="M346 859v-5l-59 -110h-45v5l48 110h56z" />
    <glyph glyph-name="circumflex.cap" 
d="M313 859l102 -110v-5h-52l-68 73l-68 -73h-52v5l102 110h36z" />
    <glyph glyph-name="caron.cap" 
d="M277 744l-102 110v5h52l68 -73l68 73h52v-5l-102 -110h-36z" />
    <glyph glyph-name="tilde.cap" 
d="M345 804c22 0 36 10 55 35l23 -29c-20 -30 -45 -49 -78 -49c-38 0 -75 39 -100 39c-22 0 -36 -10 -55 -35l-23 29c20 30 45 49 78 49c37 0 76 -39 100 -39z" />
    <glyph glyph-name="dieresis.cap" 
d="M167 801c0 23 17 40 39 40c21 0 38 -17 38 -40s-17 -39 -38 -39c-22 0 -39 16 -39 39zM345 801c0 23 17 40 39 40c21 0 38 -17 38 -40s-17 -39 -38 -39c-22 0 -39 16 -39 39z" />
    <glyph glyph-name="macron.cap" 
d="M413 785h-239v45h239v-45z" />
    <glyph glyph-name="tonos.cap" 
d="M333 680v-5l-41 -130h-35v5l25 130h51z" />
    <glyph glyph-name="breve.cap" 
d="M294 808c59 0 80 25 99 50l26 -22c-22 -40 -57 -72 -125 -72s-103 32 -125 72l26 22c19 -25 40 -50 99 -50z" />
    <glyph glyph-name="ring.cap" 
d="M249 815c0 -28 18 -44 46 -44s46 16 46 44s-18 44 -46 44s-46 -16 -46 -44zM213 815c0 48 34 79 82 79s82 -31 82 -79s-34 -79 -82 -79s-82 31 -82 79z" />
    <glyph glyph-name="hungarumlaut.cap" 
d="M282 859v-5l-59 -110h-45v5l48 110h56zM408 859v-5l-59 -110h-45v5l48 110h56z" />
    <glyph glyph-name="dotaccent.cap" 
d="M254 802c0 23 17 40 39 40c21 0 38 -17 38 -40s-17 -39 -38 -39c-22 0 -39 16 -39 39z" />
    <glyph glyph-name="ogonek.i" horiz-adv-x="550" 
d="M328 -213c-58 0 -88 34 -88 81c0 65 52 112 109 162l23 -30c-60 -55 -89 -87 -89 -125c0 -26 15 -46 48 -46c19 0 35 10 50 23l7 -38c-13 -13 -35 -27 -60 -27z" />
    </font>
</defs>
</svg>
